<svg xmlns="http://www.w3.org/2000/svg" viewBox="0 0 1080.83 1080.83"><defs><style>.cls-1{fill:#e2d9cf;}.cls-2{fill:#96f;}.cls-2,.cls-6{stroke:#fff;}.cls-2,.cls-4,.cls-6{stroke-miterlimit:10;stroke-width:7px;}.cls-3{opacity:0.5;}.cls-4,.cls-6{fill:none;}.cls-4{stroke:#000;}.cls-5{fill:#8bc1a7;}.cls-7{fill:#fff;}.cls-8{fill:#8c72fc;}.cls-9{fill:#21211f;}.cls-10{fill:#6d6d6b;}</style></defs><g id="RECURSOS"><path class="cls-1" d="M921.61,542.45q-30.79,49.77-61.44,99.64a10.38,10.38,0,0,0-1.43,4.64c-1,12.37-1.88,24.84-2.82,37.26q-3,39.51-6,79a3,3,0,0,1-2.09,3q-54.24,22.1-108.42,44.49a9.64,9.64,0,0,0-3.54,2.59Q698,857.59,660.28,902.27a3.31,3.31,0,0,1-3.86,1.27c-35.66-8.84-71.38-17.45-107.1-26.34-5.79-1.49-11.31-2.15-17-.05-1.38.5-2.82.72-4.2,1.1Q476.54,890.84,425,903.48a3.34,3.34,0,0,1-4-1.27q-37.85-44.79-75.85-89.48a8,8,0,0,0-2.93-2.1q-54-22.2-108-44.27a4.07,4.07,0,0,1-2.92-4.09c-.55-8.61-1.22-17.22-1.88-25.83-2.15-28.43-4.25-56.86-6.51-85.29-.28-3.48-.22-6.85-2.32-10.1-12.59-20.1-24.9-40.3-37.32-60.45-8.22-13.31-16.45-26.55-24.67-39.86v-.44a19.93,19.93,0,0,0,1.27-1.71q30.21-48.95,60.39-97.93a13.78,13.78,0,0,0,2.43-7.67c0-2.21.33-4.42.49-6.68l4.14-53.83c1.33-18,2.71-36,4-54a3.49,3.49,0,0,1,2.54-3.37Q288,293,342,270.69a9.15,9.15,0,0,0,3.25-2.38q33-38.91,66.08-77.89c3.7-4.41,7.34-8.89,11-13.3h.88a18.42,18.42,0,0,0,2.37.83q56.56,13.83,113.11,27.6a7.85,7.85,0,0,0,3.76,0L647,180.1c3.7-.94,7.29-2,11-3h.83a2.67,2.67,0,0,0,.33.55q38.67,45.71,77.39,91.31a5.08,5.08,0,0,0,2,1.49q54.4,22.35,108.81,44.6a3.39,3.39,0,0,1,2.54,3.42c.66,10.33,1.49,20.65,2.26,31q3.22,42.57,6.52,85.07a10.3,10.3,0,0,0,1.32,4.47q30.72,49.94,61.55,99.81A3,3,0,0,1,921.61,542.45Z"/><rect class="cls-2" x="265.89" y="272.46" width="279.58" height="279.58" transform="translate(-75.46 91.27) rotate(-11.75)"/><g class="cls-3"><rect x="335.83" y="559.18" width="279.58" height="279.58" transform="translate(-132.4 111.53) rotate(-11.75)"/><rect class="cls-4" x="335.83" y="559.18" width="279.58" height="279.58" transform="translate(-132.4 111.53) rotate(-11.75)"/></g><rect class="cls-5" x="322.83" y="546.18" width="279.58" height="279.58" transform="translate(-130.02 108.61) rotate(-11.75)"/><rect class="cls-6" x="322.83" y="546.18" width="279.58" height="279.58" transform="translate(-130.02 108.61) rotate(-11.75)"/><path class="cls-7" d="M408.67,450.46l-16.25,3.38L404,509.56l-58,12.07L308.41,341.06l76.35-15.88c49.79-10.36,81.13,7.07,89.83,48.86,4.77,23-1.44,40.94-15.45,53.81l52.18,59.38-62.94,13.09Zm-25.91-43,18.32-3.81c11.86-2.47,16.94-7.83,14.95-17.38S407.2,373.53,395.34,376L377,379.81Z"/><path class="cls-8" d="M840.54,856.75l.55.06-1.21.17-1.23.16-4.49.6-1.15.15-1.16.16-1.15.16-1.08.16-.2,0-.88.13c-1.15.17-2.3.35-3.44.54l-1.23.21-1.22.22c-13,2.41-20,11-22.53,23.5-1.24,6.15-1.8,12.45-2.65,18.68a14.42,14.42,0,0,1-.4,2.24c-.24-4.52-.36-9-.76-13.55a80.06,80.06,0,0,0-1.56-11.26c-2.57-11-9.13-18.34-20.25-21.06-6.1-1.49-12.29-2.59-17.92-3.76a91,91,0,0,0,19.19-2.56l.78-.21c10.84-2.64,16.82-10.14,19.91-20.31,2-6.63,2.68-13.52,3.25-20.4a15.78,15.78,0,0,1,.59-3.37c.12,3.2.19,6.4.36,9.6.34,6.46.76,12.92,3.08,19a26.53,26.53,0,0,0,15.61,16c.81.32,1.63.63,2.45.91l.75.25c.66.22,1.33.43,2,.62l.62.18.76.2.62.16,1.26.31.56.13,1.59.34.47.09q2.61.51,5.25.87h0l.74.1.75.1q1.22.17,2.46.3Z"/><path class="cls-8" d="M842.35,856.63c-.26.31-.58.25-.9.22l-.35,0h0Z"/><path class="cls-8" d="M874.3,216.54l-.65,0c-8.14-.56-16.28-1.14-24.42-1.68-10.74-.72-21.48-1.4-32.22-2.12a.87.87,0,0,0-.84.37l-8,9.37-7.51,8.75-8.08,9.42-8,9.28-5.67,6.62-.46.5c0-.31,0-.49,0-.68q.7-9.87,1.4-19.74c.27-4,.56-7.9.84-11.86s.59-8.2.89-12.31.48-7.95.9-11.91a3.1,3.1,0,0,0-1.3-3.07c-7.55-6.44-15-12.93-22.54-19.41q-9.72-8.45-19.41-16.91c-.1-.09-.2-.18-.43-.41l4.28.29,4.85.34,35.73,2.35c4.2.28,8.4.52,12.6.75a1,1,0,0,0,.72-.32q6.24-7.2,12.42-14.42l7.59-8.84,8-9.32,7.88-9.2a22.93,22.93,0,0,1,1.9-2.07c0,.61-.07,1.23-.11,1.84q-.43,6-.86,11.91l-.87,12.14c-.28,3.94-.57,7.86-.85,11.8s-.59,8.13-.88,12.19c-.19,2.59-.37,5.18-.57,7.77a.92.92,0,0,0,.38.89q4.32,3.69,8.6,7.42,13.51,11.75,27,23.48c2.46,2.13,4.87,4.3,7.31,6.46A3.93,3.93,0,0,1,874.3,216.54Z"/><path class="cls-8" d="M199.4,407l.55,0-1.17.35-1.2.35-4.34,1.27c-.37.11-.75.21-1.12.33l-1.12.32-1.11.34-1,.31-.19.06-.85.26-3.32,1.06-1.18.39-1.18.4C169.59,416.75,164,426.3,163.41,439c-.3,6.27.11,12.58.21,18.87a13.28,13.28,0,0,1-.06,2.27c-.92-4.43-1.72-8.89-2.8-13.28A79.8,79.8,0,0,0,157.51,436c-4.2-10.45-11.8-16.75-23.2-17.75-6.26-.55-12.54-.7-18.28-1a90.6,90.6,0,0,0,18.58-5.44l.74-.32c10.32-4.24,15.09-12.56,16.61-23.09,1-6.85.59-13.76.12-20.65a15.78,15.78,0,0,1,.07-3.43c.6,3.15,1.16,6.3,1.81,9.44,1.32,6.33,2.7,12.66,5.92,18.36a26.58,26.58,0,0,0,17.86,13.46c.85.2,1.7.38,2.56.53l.78.14c.69.12,1.38.22,2.08.31l.64.08.78.09.64.06,1.29.11.58.05,1.62.09.48,0c1.77.08,3.54.09,5.32.07h.75l.75,0,2.47-.08Z"/><path class="cls-8" d="M201.16,406.6c-.21.34-.53.33-.85.34l-.35,0h0Z"/><g class="cls-3"><path d="M527.06,259.92c77.33-16.09,160-1.33,221,37.66s106.56,100.9,122.28,176.49S869,624.6,828.59,684.68,718.28,791.26,641,807.35Z"/><path class="cls-4" d="M527.06,259.92c77.33-16.09,160-1.33,221,37.66s106.56,100.9,122.28,176.49S869,624.6,828.59,684.68,718.28,791.26,641,807.35Z"/></g><path class="cls-9" d="M514.06,246.92c77.33-16.09,160-1.33,221,37.66s106.56,100.9,122.28,176.49S856,611.6,815.59,671.68,705.28,778.26,628,794.35Z"/><path class="cls-6" d="M514.06,246.92c77.33-16.09,160-1.33,221,37.66s106.56,100.9,122.28,176.49S856,611.6,815.59,671.68,705.28,778.26,628,794.35Z"/><path class="cls-10" d="M647.17,809.57c-2.36.63-11.06,2.34-11.06,2.34l-3.12-15s9.33-2.28,11.48-2.72C648.18,793.42,651,808.56,647.17,809.57Z"/></g></svg>