<svg xmlns="http://www.w3.org/2000/svg" viewBox="0 0 880 886.92">
  <defs>
    <style>
      .cls-1 {
        fill: #96f;
      }

      .cls-1, .cls-3 {
        stroke: #fff;
        stroke-miterlimit: 10;
        stroke-width: 7px;
      }

      .cls-2 {
        fill: #8bc1a7;
      }

      .cls-3 {
        fill: none;
      }

      .cls-4 {
        font-size: 380.61px;
        fill: #fff;
        font-family: MADETOMMY-Black, MADE TOMMY;
        font-weight: 800;
      }

      .cls-5 {
        fill: #21211f;
      }
    </style>
  </defs>
  <g id="RECURSOS">
    <rect class="cls-1" x="27.72" y="39.58" width="403.88" height="403.88" transform="translate(0.55 -0.52) rotate(0.13)"/>
    <g>
      <rect class="cls-2" x="26.81" y="443.46" width="403.88" height="403.88" transform="translate(-417.16 872.69) rotate(-89.87)"/>
      <rect class="cls-3" x="26.81" y="443.46" width="403.88" height="403.88" transform="translate(-417.16 872.69) rotate(-89.87)"/>
    </g>
    <text class="cls-4" transform="translate(93.72 378.41) rotate(0.13)">R</text>
    <g>
      <path class="cls-5" d="M432.05,40c114.11.25,226.61,45.71,301.22,119S853.9,333.34,853.64,444.87,806.92,657.26,732,730.18,544.34,848.05,430.23,847.79Z"/>
      <path class="cls-3" d="M432.05,40c114.11.25,226.61,45.71,301.22,119S853.9,333.34,853.64,444.87,806.92,657.26,732,730.18,544.34,848.05,430.23,847.79Z"/>
    </g>
  </g>
</svg>
