<?xml version="1.0" encoding="UTF-8"?>
<svg id="b" data-name="Capa 2" xmlns="http://www.w3.org/2000/svg" viewBox="0 0 475.9403 360.5239">
  <defs>
    <style>
      .d {
        fill: #8bc1a7;
      }

      .e {
        fill: #fff;
      }

      .f {
        fill: #96f;
      }

      .g {
        fill: #21211f;
      }
    </style>
  </defs>
  <g id="c" data-name="Capa 1">
    <g>
      <path class="d" d="M312.2992,63.1957c.4963.4315.4847,1.4684.6402,3.2304.2378,2.9144.6078,7.4553.8472,10.39.2542,1.7887-.2206,3.5118,1.7616,3.9283,3.2972,1.0124,11.2989.0907,14.6051,2.6001.8616.6427,1.1722,1.7039.6604,2.6612-1.5308,3.1356-8.7746,8.0303-11.8844,11.123-2.0027,1.7615-1.1106,4.153-.1033,6.3842.9961,2.2472,2.5474,4.9253,3.3595,7.1222,1.3518,3.26-.4195,4.451-3.7103,4.241-2.6077-.1494-5.8345-1.1106-8.4144-1.7668-1.6633-.2984-3.375-1.1659-4.7815-.2337-.5006.3922-.8571,1.17-1.1213,1.835-1.5124,3.8834-2.6221,11.3613-5.005,12.8872-3.849,2.614-8.5745-12.1545-12.2914-12.8513-3.5662-.7407-14.2465,5.7369-15.9194,1.3849-1.267-3.6706,6.0577-11.0879,4.9374-16.3563-.5488-1.65-2.0176-2.4976-3.4487-3.4971-2.5204-1.8791-8.383-4.1149-7.8072-7.7249.8719-3.562,11.3143-3.9522,15.179-5.6561,2.0846-.7016,1.5731-2.4036,1.7028-4.3547.0763-2.9027.1933-7.3303.2694-10.225.0528-1.633-.0214-2.6717.5392-3.0685,4.2574-1.3277,9.8307,5.8876,13.1383,7.4107,1.6669.9831,3.4052.4135,4.8965-.7481,2.7943-1.6761,8.9131-10.4083,11.9205-8.741l.0298.0255Z"/>
      <path class="f" d="M361.8209,27.2177c-7.9258.8781-14.7475,6.3754-17.8013,13.6594-1.0491,2.5024-1.9986,9.2876-2.6135,10.1579-2.4573,3.4777-4.443-7.3635-5.2199-9.1657-2.3527-5.4573-6.1523-9.3201-11.2582-12.2359-2.3621-1.349-5.3585-1.1908-7.0501-3.5451,2.1321-2.3978,5.2906-2.2201,8.2713-3.8395,9.5636-5.196,9.0063-12.1929,12.1792-20.4095,2.485-6.4353,4.1809,5.9247,4.9351,7.943,1.8297,4.8964,5.8173,9.8179,10.4432,12.2931,3.1041,1.6609,8.6155,1.4627,8.1143,5.1425ZM340.5873,10.5546c-1.7662-.3835-1.211.2358-1.6865.9727-3.8062,5.8993-5.4714,11.1123-12.6974,14.569l9.0723,8.3467,3.8191,7.179c1.3801,1.2876,3.2749-4.6147,3.9137-5.5457,2.9565-4.3089,5.9797-7.2708,10.4701-9.9961l-6.809-5.3048-6.0824-10.2208Z"/>
      <path class="d" d="M54.3246,141.0387l-17.9046,23.4946-3.0692-.3048-11.5192-28.3695c.865-1.1081,25.2397,1.5935,27.9059,2.435,1.8693.59,3.17,1.4195,4.587,2.7445ZM47.6518,142.7062c-1.8249-.5812-20.0959-3.3758-20.1699-1.8827l8.4505,17.261,11.7194-15.3783Z"/>
      <g>
        <path class="f" d="M412.0173,61.6712c2.2354,2.1461-12.7542,16.1011-12.5135,10.1225,1.4789-2.101,9.7229-12.8017,12.5135-10.1225Z"/>
        <path class="f" d="M385.0235,88.6648c-1.4474-1.4475,8.3408-12.5515,10.1275-12.5089,5.9141.141-8.0496,14.5868-10.1275,12.5089Z"/>
        <path class="f" d="M385.0235,61.6711c2.2289-2.2289,16.0969,12.8484,10.1214,12.5131-1.2927-1.8466-12.1917-10.4429-10.1214-12.5131Z"/>
        <path class="f" d="M400.4541,77.1017c1.773-1.773,11.826,8.8321,11.5632,10.1069-.2168,1.0515-1.5924,1.673-2.9026.9967-1.3313-.6872-10.1801-9.5841-8.6606-11.1036Z"/>
      </g>
      <g>
        <path class="f" d="M27.2545,184.8938c2.2354,2.1461-12.7542,16.1011-12.5135,10.1225,1.4789-2.101,9.7229-12.8017,12.5135-10.1225Z"/>
        <path class="f" d="M.2607,211.8874c-1.4474-1.4475,8.3408-12.5515,10.1275-12.5089,5.9141.141-8.0496,14.5868-10.1275,12.5089Z"/>
        <path class="f" d="M.2607,184.8937c2.2289-2.2289,16.0969,12.8484,10.1214,12.5131-1.2927-1.8466-12.1917-10.4429-10.1214-12.5131Z"/>
        <path class="f" d="M15.6913,200.3243c1.773-1.773,11.826,8.8321,11.5632,10.1069-.2168,1.0515-1.5924,1.673-2.9026.9967-1.3313-.6872-10.1801-9.5841-8.6606-11.1036Z"/>
      </g>
      <g>
        <path class="f" d="M345.3539,109.1606c8.2383-.4089,8.6814,11.0761,1.7274,12.2511-9.0651,1.5317-9.7669-11.8521-1.7274-12.2511ZM345.3659,112.8736c-4.134,1.1125-1.9415,5.9832.6772,5.5741,2.9422-.4596,3.7711-6.7713-.6772-5.5741Z"/>
        <path class="f" d="M345.3659,112.8736c4.4484-1.1972,3.6194,5.1145.6772,5.5741-2.6187.4091-4.8112-4.4616-.6772-5.5741Z"/>
      </g>
      <g>
        <path class="f" d="M177.3891,272.4273c8.2383-.4089,8.6814,11.0761,1.7274,12.2511-9.0651,1.5317-9.7669-11.8521-1.7274-12.2511ZM177.4012,276.1403c-4.134,1.1125-1.9415,5.9832.6772,5.5741,2.9422-.4596,3.7711-6.7713-.6772-5.5741Z"/>
        <path class="f" d="M177.4012,276.1403c4.4484-1.1972,3.6194,5.1145.6772,5.5741-2.6187.4091-4.8112-4.4616-.6772-5.5741Z"/>
      </g>
      <g>
        <path class="f" d="M58.4414,103.9874c8.2383-.4089,8.6814,11.0761,1.7274,12.2511-9.0651,1.5317-9.7669-11.8521-1.7274-12.2511ZM58.4534,107.7005c-4.134,1.1125-1.9415,5.9832.6772,5.5741,2.9422-.4596,3.7711-6.7713-.6772-5.5741Z"/>
        <path class="f" d="M58.4534,107.7005c4.4484-1.1972,3.6194,5.1145.6772,5.5741-2.6187.4091-4.8112-4.4616-.6772-5.5741Z"/>
      </g>
      <g>
        <path class="g" d="M81.6589,207.0563c7.0673,3.1331,10.764,10.3696,10.7851,17.8874,4.8441.6383,9.4877,1.1105,12.7449,5.1345,1.1243,1.389,2.0642,4.9338,2.9493,5.4572,1.8334,1.0844,8.5632-.1211,13.6012,3.5479,4.1779,3.0426,5.6075,8.4904,7.5324,9.8795,1.3424.9688,5.2608.145,7.7003,1.5402,19.751,11.2963-3.0214,42.8854-20.2466,44.3158,10.3722,5.5417,18.9068-1.6458,27.1858-7.2701l4.5208,4.7412c-10.4455,12.7026-29.5219,18.7649-41.6646,4.6013-1.9766-2.3056-2.9415-7.2042-4.6531-8.4365-1.4904-1.073-4.4602-.0609-6.4631-.3763-6.5126-1.0254-12.7402-6.0607-13.6919-12.8403-29.7764,2.8538-22.0491-27.4209-7.6885-41.5515,4.6469-4.5725,13.1207-5.9416,9.0566-13.8924-2.7298-5.3406-11.5719-7.338-1.6686-12.7381ZM81.2341,209.7438c-2.4799,2.763,1.884,4.3742,3.3424,6.4791,6.9962,10.0976-.7251,23.1254-7.7412,30.7776-1.8764,2.0466-6.4491,3.519-5.1059,6.9481,14.8023-8.3969,26.581-32.1844,9.5047-44.2048ZM83.068,229.9933c-7.5909,5.276-13.0119,11.3156-16.5703,19.9219-5.0013,12.0963-1.4777,26.2114,14.2092,22.2064,10.8515-2.7705,21.0657-13.2565,23.9734-23.9727,2.2132-8.1567.9204-18.9833-9.2363-20.1875-1.7058-.2023-4.8696-.3391-2.7838,2.305,11.7249.5093,12.0861,11.1317,8.5393,19.842-3.5498,8.7176-11.2462,17.0696-20.6636,19.2335-18.8311,4.327-14.7375-16.9679-7.4482-26.814,2.9712-4.0133,8.1807-7.2927,10.4003-10.5131.6463-.9377,1.2198-2.1622-.42-2.0215ZM69.5376,257.8149c-2.8044,5.4613,6.0139,12.6477,10.8724,8.4861.8129-.6963,2.346-7.6928,3.3684-9.8851,2.2953-4.922,5.2651-8.9262,9.1409-12.7604,2.7085-2.6795,9.6008-4.6849,5.2027-9.1019-1.6642-1.6713-4.6696-1.7663-6.8217-1.1314-2.7908,9.3303-8.0189,16.5057-16.291,21.7391-1.6831,1.0648-4.802,1.3495-5.4716,2.6535ZM100.0778,241.7531c-7.7571,4.9836-15.7507,14.0646-15.4284,23.6205,4.0245-3.5156,4.543-9.6023,8.1706-14.1804,2.0722-2.6151,4.6211-3.8174,6.4847-6.1569.4299-.5397,1.7524-2.6505.773-3.2832ZM109.4618,280.7319c7.0695-.9447,13.6538-11.8043,15.7214-18.1354,3.7905-11.6068-1.8184-25.7374-15.7144-24.0747-2.0677.2474-.7933,1.8365-.9628,2.9818,17.9655-1.0907,18.5255,17.6609,9.9037,29.0708-2.9298,3.8773-6.9494,6.0367-8.9479,10.1576ZM109.4909,243.653c-1.4505.4742-2.588,7.0788-3.4703,9.0678-3.6521,8.2331-8.5458,14.2445-16.4942,18.6657.5204,7.3411,6.184,9.2038,12.573,7.6154,1.8069-12.1054,8.3602-21.2728,18.8291-27.4768-1.9817-6.0616-5.7847-6.8698-11.4375-7.8722ZM84.1213,274.718c-.0509.3719,3.1733,5.7969,3.8303,6.4569,3.6925,3.7096,9.5294,4.4232,14.4728,3.7511l-.1726-2.8731c-6.5975,1.2662-14.4788-1.43-15.0974-8.9619-1.1561-.2504-2.8942.6128-3.0331,1.6269ZM120.099,255.0602c-10.9843,7.442-19.6769,24.4397-13.1251,37.1642,7.3262,14.2284,26.3106,11.6273,36.1833,1.8765,1.0352-1.0224,2.1247-.9391,1.5378-3.021-6.3053,2.8671-9.7743,6.8446-16.9486,8.0259-22.6242,3.7252-24.9882-22.8659-13.1662-36.4358,1.7172-1.971,8.5947-4.6683,5.5188-7.6098ZM128.9635,252.485c-2.0833,2.1857,5.9866,2.7116,7.1214,3.6746,2.4418,2.0723,3.1238,6.6084,2.8044,9.6665-1.3226,12.6648-13.8227,23.073-26.2635,23.7344-.6228,3.941,7.0391,1.7378,9.3457.7861,10.3517-4.2709,26.6895-23.4717,17.3848-34.4646-1.8492-2.1847-8.4852-5.3984-10.3929-3.3971ZM136.4913,263.3545c-.3025-3.6796-3.2714-6.6732-7.1719-6.1905-1.6618,11.3583-8.8468,21.3979-18.712,27.1555-.1779,4.2841,7.9977,1.6443,10.4431.5093,7.3038-3.39,16.1431-12.9321,15.4408-21.4743Z"/>
        <path class="d" d="M83.068,229.9933c1.6398-.1407,1.0664,1.0838.42,2.0215-2.2196,3.2204-7.4292,6.4997-10.4003,10.5131-7.2893,9.8461-11.3829,31.141,7.4482,26.814,9.4173-2.1639,17.1137-10.5159,20.6636-19.2335,3.5469-8.7103,3.1856-19.3327-8.5393-19.842-2.0858-2.6441,1.078-2.5072,2.7838-2.305,10.1567,1.2042,11.4495,12.0308,9.2363,20.1875-2.9077,10.7163-13.1219,21.2022-23.9734,23.9727-15.6869,4.005-19.2105-10.1101-14.2092-22.2064,3.5584-8.6063,8.9794-14.646,16.5703-19.9219Z"/>
        <path class="d" d="M120.099,255.0602c3.0759,2.9415-3.8016,5.6387-5.5188,7.6098-11.822,13.5699-9.458,40.161,13.1662,36.4358,7.1743-1.1813,10.6434-5.1589,16.9486-8.0259.5869,2.0819-.5026,1.9987-1.5378,3.021-9.8727,9.7508-28.8571,12.3518-36.1833-1.8765-6.5519-12.7245,2.1408-29.7221,13.1251-37.1642Z"/>
        <path class="d" d="M128.9635,252.485c1.9077-2.0014,8.5437,1.2124,10.3929,3.3971,9.3047,10.9929-7.0331,30.1937-17.3848,34.4646-2.3066.9517-9.9685,3.1549-9.3457-.7861,12.4408-.6614,24.9409-11.0696,26.2635-23.7344.3194-3.0581-.3626-7.5942-2.8044-9.6665-1.1348-.9631-9.2048-1.489-7.1214-3.6746Z"/>
        <path class="d" d="M109.4618,280.7319c1.9985-4.1209,6.0181-6.2803,8.9479-10.1576,8.6218-11.4099,8.0618-30.1614-9.9037-29.0708.1695-1.1453-1.1049-2.7344.9628-2.9818,13.8961-1.6627,19.5049,12.4679,15.7144,24.0747-2.0676,6.3311-8.6519,17.1908-15.7214,18.1354Z"/>
        <path class="d" d="M81.2341,209.7438c17.0762,12.0204,5.2976,35.8079-9.5047,44.2048-1.3432-3.4291,3.2295-4.9015,5.1059-6.9481,7.0161-7.6522,14.7374-20.68,7.7412-30.7776-1.4584-2.1049-5.8223-3.7162-3.3424-6.4791Z"/>
        <path class="d" d="M100.0778,241.7531c.9793.6328-.3431,2.7436-.773,3.2832-1.8637,2.3395-4.4125,3.5417-6.4847,6.1569-3.6276,4.5781-4.146,10.6648-8.1706,14.1804-.3223-9.5559,7.6712-18.6369,15.4284-23.6205Z"/>
        <path class="d" d="M84.1213,274.718c.1388-1.0141,1.877-1.8774,3.0331-1.6269.6186,7.5319,8.4999,10.2281,15.0974,8.9619l.1726,2.8731c-4.9433.672-10.7803-.0415-14.4728-3.7511-.657-.66-3.8812-6.085-3.8303-6.4569Z"/>
      </g>
      <g>
        <g>
          <path class="e" d="M331.4682,331.8348c-3.346-2.4592-6.255-5.434-9.3635-8.1746-11.878-10.4724-22.6171-22.579-34.0723-33.692-2.1491-2.0848-4.9298-4.1491-7.0755-6.2354-4.0399-3.9278-9.0877-10.7908-13.2065-14.1918.0003-.0005.001-.0008.001-.0013.0189-.1422-.1853-.3349-.55-.5448v-1.5091h-6.2427v.0006c-.4923-.0277-.9936-.0381-1.4999-.0234-1.042.0303-6.4668,1.087-9.5737,4.1374-.5417.532-.6275,1.181-.616,1.8667-.0809.5912.0022,1.2318.0076,1.8674-.004.0286-.0033.0578-.008.0862-.9499,5.7245-8.0214,6.6854-12.6936,5.0946-1.5864-.5402-3.6739-2.4704-5.0322-2.275l-17.0411,5.9778c-1.1863.5647-1.6,1.4816-1.5644,2.5921-.0814.5194-.034,1.095.1091,1.7105.2399,1.0318,6.7501,8.6584,7.9921,10.1579,16.8648,20.3599,33.8628,40.6118,50.8313,60.8974l1.8925.9478,20.2603-9.0132c.7546-.5921.9336-1.2279.8758-1.934.2298-1.2078-.6613-2.6218-.6773-4.4024.0577-.4802.1809-.9829.4222-1.5169,2.589-5.7283,13.1291-6.9169,17.6905-3.1623,1.6252,1.3379,1.6717,3.0909,4.46,2.7515.6835-.0832,10.9243-5.5798,12.208-6.3745,1.3879-.8589,3.1359-1.6983,2.9343-3.198.1349-.5142.0267-1.1133-.4678-1.8394Z"/>
          <path class="e" d="M474.7386,270.4369c.1595-1.2451,1.2005-1.8997,1.2017-2.8011.0031-2.285-4.6415-4.7253-6.2448-6.2363-9.3022-8.7667-18.9626-16.996-28.4251-25.6252-8.5065-7.7574-16.3059-16.2404-24.9973-23.8092-2.2966-1.9998-6.7014-4.8134-8.4889-6.8388-.3088-.3498-.5215-.4507-.3901-1.012,4.726-1.4246,6.1809-5.8329,8.7828-9.5751,14.3364-20.6193,28.7845-41.1755,43.0937-61.7785,2.7434-3.9501,4.8436-4.0716,4.146-9.8814-.9719-8.0953-15.5777-21.3666-22.9548-24.2371-7.8774-3.0652-13.5919-3.2463-18.8771,3.6973-8.3825,11.0126-15.5714,22.8767-23.3816,34.2981-8.1292,11.888-16.4974,23.6337-24.5381,35.5877-3.9436-3.6773-8.1758-7.1376-12.0681-10.8613-2.3396-2.2382-9.2153-10.5704-11.7218-10.8953-.6928-.0898-1.1634.0617-1.7995.1756-5.3754.9628-13.0722,4.6368-18.6312,6.3798-4.4634,1.3994-9.0565,2.4385-13.5268,3.8184-4.0233,1.242-10.086,4.0854-13.7985,4.7798-.4272.0799-.8204.3256-1.2415-.0029-1.5206-8.2601-2.359-16.6276-3.7369-24.9109-4.136-24.8615-7.8039-49.7663-11.6348-74.6803-2.2534-14.6556-4.6375-29.7079-7.3244-44.3034-.3816-2.0732-1.8209-10.7542-2.6839-11.8365-2.134-2.6758-7.0061.6372-9.5043,1.2993-4.3741-6.2077-11.8713-9.5109-18.5343-4.3019-3.9507,3.0887-6.7441,8.6688-5.4675,13.6819l-6.8164,2.4333c-6.3791-15.6932-26.2202-6.9251-24.2841,8.0218l-6.395,1.4842c-8.5685-15.1779-29.1976-7.08-25.8341,9.8495l-4.4232,1.2238c-3.3035-11.508-20.3049-13.116-25.0851-1.4842-1.5238,3.7083-.7967,6.5295-1.5347,10.162l-6.0524,2.2117c-6.8544-16.64-30.3298-7.6669-25.0142,9.2704-2.6346,1.2137-8.3891,1.5177-9.371,4.5523-2.4805,18.6189-3.3554,37.4686-5.6066,56.1042-1.9382,16.0446-4.2219,31.9425-6.0031,48.0444-.8615,7.7891-2.8017,16.5665-3.2162,24.2075-.1121,2.0651-.254,2.9583.9933,4.6431.9539,1.2888,3.0156,3.2544,4.7562,2.7434,1.6526-.4852,10.1919-9.6064,10.7757-9.2048,1.4625,2.9921,2.9279,5.9978,4.6794,8.839,4.9623,8.0491,11.4912,18.1344,17.0206,25.7352.8461,1.1634,2.2943,3.642,3.8434,3.6311,6.3778-2.1671,13.0318-3.6743,19.3384-6.0406,7.1196-2.6713,13.8396-6.4667,21.0709-9.1818,12.5318-4.7055,25.6375-8.1654,38.3208-12.504,7.9122-2.7064,16.0235-4.9307,23.6034-8.4605-.6687,4.2008-.2904,8.4548-.4053,12.699-.1059,3.9113-.8778,8.1491-.4083,12.1132.187,1.5799,1.9372,3.3768,3.0287,4.635,3.4889,4.0213,7.8046,6.6405,11.693,10.0886,12.8748,11.417,25.3271,23.3508,38.1364,34.8719,1.9966,1.7959,4.6479,5.3253,6.8889,6.4364,1.5694.7781,1.3013-.3864,2.1537,2.2693,7.5891,6.9159,14.8503,14.2087,22.41,21.1524,11.5133,10.575,24.336,22.891,36.3045,32.6701,2.1245,1.7359,6.1356,5.0848,8.9816,4.5449,1.646-.3122,4.1488-1.9194,5.966-2.5173,34.3248-11.2935,67.182-23.9559,100.1313-38.6281,1.0674-.4754,2.5736-.0318,3.0378-1.3993-.1711-2.4161.4124-4.8418.5033-7.1602.2264-5.7972-1.1394-12.7356-.441-18.1879Z"/>
        </g>
        <g>
          <path class="d" d="M332.5955,328.2106c-3.3089-2.4319-6.1859-5.3739-9.2599-8.0841-11.7467-10.3565-22.367-22.3291-33.6955-33.3192-2.1253-2.0618-4.8752-4.1032-6.9972-6.1664-3.9952-3.8844-8.987-10.6714-13.0602-14.0348.0002-.0005.0008-.0008.001-.0013.0187-.1407-.1834-.3312-.5441-.5388v-1.4924h-6.1736v.0006c-.4869-.0274-.9826-.0377-1.4832-.0231-1.0305.03-6.3954,1.0749-9.4678,4.0917-1.0361,1.0173-.3918,2.4651-.6097,3.7781-.9392,5.6611-7.9327,6.6114-12.553,5.0382-1.5689-.5342-3.6332-2.443-4.9767-2.2498l-16.8526,5.9116c-1.5302.7284-1.7674,2.0464-1.403,3.6139.2372,1.0204,6.6754,8.5626,7.9037,10.0455,16.6781,20.1346,33.4881,40.1625,50.2689,60.2236l1.8715.9373,20.0361-8.9134c2.3765-1.8647-1.014-4.165.6138-7.7664,2.5604-5.6649,12.9838-6.8403,17.4947-3.1273,1.6073,1.3231,1.6532,3.0567,4.4106,2.7211.6759-.0823,10.8034-5.5181,12.0729-6.3039,1.6991-1.0515,3.9478-2.0723,2.4032-4.3405Z"/>
          <path class="g" d="M407.6812,201.9033c-.1299.5552.0803.6549.3856,1.0008,1.7679,2.003,6.1239,4.7854,8.395,6.7632,8.5953,7.485,16.3084,15.8742,24.7208,23.5457,9.3578,8.5337,18.9112,16.6719,28.1106,25.3416,1.5856,1.4943,6.1788,3.9076,6.1757,6.1673-.0012.8914-1.0307,1.5387-1.1884,2.7701-.6906,5.3919.6602,12.2536.436,17.9866-.0896,2.2927-.6668,4.6916-.4976,7.081-.459,1.3524-1.9485.9137-3.0042,1.3838-32.5847,14.5099-65.0783,27.0322-99.0233,38.2007-1.7971.5913-4.2722,2.1806-5.8999,2.4894-2.8147.534-6.7813-2.7779-8.8823-4.4946-11.836-9.6709-24.5169-21.8507-35.9028-32.3087-7.4761-6.8669-14.6568-14.079-22.1619-20.9183-.8431-2.6263-.578-1.4746-2.13-2.2441-2.216-1.0988-4.8381-4.5892-6.8127-6.3652-12.6675-11.3936-24.982-23.1953-37.7144-34.486-3.8454-3.4099-8.1134-6.0001-11.5635-9.977-1.0794-1.2443-2.8102-3.0213-2.9952-4.5837-.4643-3.9202.2991-8.1111.4038-11.9791.1136-4.1972-.2604-8.4043.4008-12.5585-7.496,3.4907-15.5175,5.6904-23.3422,8.3669-12.543,4.2905-25.5035,7.7122-37.8969,12.3656-7.1512,2.6851-13.7968,6.4385-20.8376,9.0803-6.2369,2.3401-12.8173,3.8307-19.1244,5.9737-1.5322.0108-2.9641-2.4404-3.8011-3.5909-5.4681-7.5167-11.9249-17.4904-16.8321-25.4504-1.7322-2.8097-3.1814-5.7823-4.6277-8.7412-.5773-.3972-9.0222,8.6231-10.6565,9.1029-1.7214.5054-3.7602-1.4385-4.7037-2.713-1.2334-1.6661-1.093-2.5495-.9822-4.5917.4098-7.5565,2.3286-16.2368,3.1806-23.9396,1.7614-15.9238,4.0198-31.6458,5.9367-47.5128,2.2264-18.4294,3.0917-37.0706,5.5446-55.4835.9711-3.0009,6.6618-3.3017,9.2673-4.5019-5.257-16.7499,17.9588-25.6237,24.7375-9.1679l5.9852-2.1872c.73-3.5923.0108-6.3822,1.518-10.0495,4.7272-11.503,21.5404-9.9128,24.8074,1.4678l4.3741-1.2102c-3.3262-16.7422,17.0746-24.7504,25.5483-9.7405l6.3243-1.4679c-1.9147-14.7816,17.707-23.4527,24.0154-7.933l6.7408-2.4064c-1.2624-4.9577,1.5002-10.476,5.4073-13.5306,6.589-5.1513,14.0034-1.8847,18.329,4.2543,2.4705-.6548,7.2887-3.9312,9.399-1.285.8536,1.0704,2.2769,9.6554,2.6543,11.7056,2.6571,14.4341,5.0148,29.3197,7.2433,43.8131,3.7884,24.6383,7.4158,49.2675,11.506,73.854,1.3627,8.1916,2.1917,16.4665,3.6955,24.6352.4165.3248.8055.0819,1.2278.0029,3.6714-.6868,9.667-3.4987,13.6458-4.7269,4.4208-1.3647,8.963-2.3923,13.377-3.7761,5.4977-1.7237,13.1093-5.3571,18.425-6.3092.6291-.1127,1.0945-.2625,1.7796-.1737,2.4788.3213,9.2784,8.5613,11.5922,10.7747,3.8493,3.6824,8.0347,7.1045,11.9347,10.7411,7.9516-11.8217,16.2272-23.4374,24.2665-35.1939,7.7238-11.295,14.8332-23.0279,23.1229-33.9186,5.2268-6.8668,10.8781-6.6877,18.6682-3.6564,7.2954,2.8388,21.7395,15.9632,22.7007,23.9689.6898,5.7456-1.3871,5.8657-4.1001,9.7721-14.1508,20.375-28.439,40.7038-42.6169,61.0949-2.5731,3.7007-4.0118,8.0603-8.6855,9.4691ZM263.2702,13.2259c.8782-1.031-3.1275-3.8348-3.992-4.1823-6.5027-2.6141-11.5555,3.7937-11.5643,9.7684l15.5564-5.5861ZM274.4356,12.83l-5.149,1.633c2.1446,8.1584-2.6947,16.048-10.3015,19.0133-2.0121.7844-9.2163,2.2456-8.0401-1.6297.4179-1.3768,3.021-.8995,4.0522-1.161,6.1979-1.5715,12.4634-7.7718,10.2637-14.6638l-26.7258,9.5749c2.1409,7.043-3.0834,15.5295-9.6571,18.0623-1.9774.7619-7.0246,1.9448-7.997-.6261-1.0667-2.8202,2.9462-2.1192,4.5158-2.4557,3.7564-.8052,8.7783-5.4122,9.4534-9.2927.1138-.6543.3701-3.6847-.5019-3.6875-7.7533,4.3786-17.1382,5.9821-25.6913,8.407.9778,7.2366-5.6866,18.6529-13.4603,19.0868-1.575.0879-3.121-.6926-2.4904-2.5191.1273-.3686,4.2171-1.9504,5.2711-2.7144,3.5349-2.5622,7.2359-7.7661,6.4562-12.2917l-26.1459,9.756c-.4996,1.6534-.5357,3.253-.9897,4.9935-1.0982,4.2104-4.754,9.7552-8.8615,11.482-1.3381.5625-5.0654,1.7596-5.905.0916-1.2522-2.4874,2.5511-2.5508,3.9423-3.2507,3.516-1.7689,7.3609-7.9532,7.8344-11.9066l-27.929,8.9659c-.7875.6521-.2479,2.9133-.3954,3.9922-.7252,5.3042-5.4463,12.5374-10.8395,13.8885-2.0856.5225-5.2679.4591-4.0505-2.4258.3836-.9091,2.9458-.9468,4.2554-1.7536,3.3844-2.0853,7.3823-8.144,7.0453-12.2968-8.8195,3.5954-17.6661,7.0387-26.8877,9.5261-.4914.3477-.2512,2.3354-.1874,2.9906.5374,5.5212,2.515,11.7562,3.1772,17.3659,1.1561.8022,19.4869-7.0588,22.3955-8.0549,24.1074-8.2554,48.6241-15.4651,72.7194-23.8165,21.3815-7.4108,42.524-15.5868,63.6222-23.7386.615-.5115.4448-1.9909.4158-2.8132-.2084-5.9062-2.4566-11.8611-3.214-17.7313ZM233.35,24.392c-4.1516-10.9396-16.7869-4.4498-16.353,5.1898l16.353-5.1898ZM203.0313,33.9683c.6424-.7271-4.0128-4.3827-4.9765-4.7924-7.9594-3.3834-13.8624,3.5668-13.3703,11.1751l18.3468-6.3827ZM238.9383,191.5222c-1.3974-3.7639,1.6966-4.7728,4.5154-6.0492,17.2951-7.8314,36.8785-12.4583,54.524-19.6726l1.0664-.7762-20.6195-128.2609c-19.6931,7.6807-39.2786,15.7171-59.2283,22.7432-26.3097,9.266-53.1724,17.0014-79.5009,26.2098-6.7321,2.3546-13.2504,6.0063-20.4327,6.8926,1.7568,15.4704,5.6722,30.6982,7.9239,46.1169,1.9458,13.3239,2.7575,26.8349,4.4899,40.1842,2.0498,15.7948,4.9847,31.5281,7.1419,47.3091,5.6931-1.966,11.6181-3.511,17.2401-5.6768,6.1244-2.3593,11.8618-5.5962,18.0452-7.8837,9.7973-3.6244,20.0265-5.9312,29.9338-9.1592,11.6679-3.8017,23.0042-8.8204,34.9005-11.9771ZM173.5132,44.7369c-5.0788-11.5494-19.4991-7.6371-19.1205,4.9361l.88.5826,18.2405-5.5187ZM140.8016,55.506c-.1059-1.8853-1.999-3.6623-3.5781-4.5957-8.2844-4.8967-15.4795,2.5704-14.3737,10.9833,1.2229,1.2118,15.3152-6.3442,17.9518-6.3876ZM127.9685,182.2883c-1.6381-15.0289-2.8723-30.1967-5.1852-45.1426-2.6486-17.1152-7.117-34.2376-8.8006-51.3933l-1.1016-3.9143c-.7397,2.5387-.2073,5.1869-.4072,7.7718-1.4812,19.1561-4.502,38.0652-6.727,57.0933-1.9705,16.8514-2.924,33.8447-5.9358,50.5605l.4762.6631c.3539.4017.5381.447,1.0175.2012,1.7128-.878,5.9151-6.349,7.9768-8.0033,2.8614-2.296,18.1507-6.9731,18.6868-7.8363ZM458.2402,126.0068c1.4445-1.3404.8425-4.5761.2903-6.2675-1.4835-4.5438-9.9433-13.3108-14.0224-15.8948-6.2099-3.9338-24.1806-8.5865-16.9507,4.9824,2.6276,4.9315,9.1611,11.1581,14.0222,13.9005,3.2267,1.8204,13.5849,6.1334,16.6606,3.2793ZM455.1502,130.9008c-13.8397-.4281-28.1763-11.2106-32.3167-24.3347-2.3164,2.8303-3.2875,3.5076-1.6686,7.0566,5.5367,12.1376,19.3429,16.4648,31.0979,20.0061l.8876-.1208,1.9998-2.6072ZM382.5417,179.1572l39.3082-56.2599c.309-.8731-2.1947-4.021-2.8103-5.1548-.6024-1.1095-1.3151-2.2984-1.392-3.5979l-40.6784,58.4342,3.5803,2.7949,1.9922,3.7834ZM393.3217,191.5252l44.2627-58.4389c-4.3109-2.5624-9.0846-4.3824-12.5796-8.1591l-40.4601,57.6289c-.1155.8654.0904.4885.6011.5805,4.9875.8984,7.6597,3.075,8.1759,8.3887ZM450.7621,136.8855c-2.7076-.3153-6.6083-2.4617-9.0801-2.7347-.4495-.0497-.7838-.0649-1.1124.3021l-42.0659,57.0685c3.0001-.0588,5.6512-.304,8.1748,1.6025.94.7101,1.3775,1.7709,2.021,2.3687.4023.3738.2834.62.7805.0289l41.2821-58.6359ZM372.5407,172.4339c-7.0024-4.6228-13.2499-10.9629-19.1256-16.9959-.7783-.7992-2.2157-3.3379-3.3014-3.3249l-106.789,37.4226c-.1607.6007.1534.6596.3915.9987,2.7892,3.9738,6.8849,6.3785,10.3841,9.5608,12.1057,11.0095,24.321,21.9626,36.107,33.3011.5801.558,2.9945,2.7917,3.1773,3.2089.2899.6617.0824,1.7228.2537,1.9368.0987.1233,2.0113.7123,2.8723,1.3158,4.6657,3.2708,13.0572,9.1957,17.0279,12.8895,9.2857,8.6383,17.4877,19.5161,27.1162,28.3302,1.6529,1.5131,5.6541,5.3339,7.4459,6.117,5.4321,2.3743,12.4104-1.4727,16.6778-4.7432,3.1939-2.4478,6.8718-8.1732,10.9812-4.1658,2.8978,2.8258,3.726,7.0015,7.8555,9.297,10.1364,5.6345,17.9864.9775,27.8612-2.3149,19.7167-6.574,39.0955-14.2263,58.8303-20.7539l-9.1666-8.9751c-14.4135-10.9412-26.6088-24.1424-39.6876-36.5017-5.4093-5.1117-11.5279-9.5861-16.4197-15.1797l-22.8931,11.3924c-2.6188,1.3422-8.8276,5.7415-11.3608,5.7204-.9172-.0076-1.8834-.6899-2.7374-.6109-.674.0624-1.6355.8488-2.5415.9889-1.5899.2459-4.2761-.0424-5.6826.6995-1.7003.8969-5.9899,10.0976-9.4191,7.4067-.8182-.7254-.6811-1.7213-.1097-2.578,2.4246-1.6377,6.2316-8.2825,8.6115-8.9369,1.6415-.4514,4.1065-.3602,5.8411-.5416l.5977-.599c2.3678-14.7847,3.8246-29.788,7.2022-44.365ZM390.2208,197.0144c-1.0464-1.0416.2184-6.0984-2.12-8.4498-2.7752-2.7907-8.1763-.2453-9.7338-2.2304-1.1389-1.4517-.1833-2.3266-.1901-3.7674-.0138-2.9351.4652-5.3371-2.8068-6.5975-.3312,6.3874-2.4981,12.6258-1.912,19.0633,4.0342,2.7351,7.6487,7.8887,12.4215,9.3144,1.1802.3525,4.6017,1.11,5.6992,1.1101,1.939.0002,11.6989-5.3536,13.9954-6.6653.299-.1708.7294.0937.4673-.6375-1.0667-2.976-5.0562-2.8942-7.6341-2.5374-2.0929.2897-6.5646,3.0121-8.1867,1.3974ZM359.0104,303.2054c-.7904-1.0816-1.8044-2.0846-2.7867-2.9932-9.4773-8.7662-19.8324-17.4546-28.9379-26.5088-6.0057-5.9719-11.3689-13.4757-17.7357-18.9627-4.4699-3.8523-9.8465-6.7297-14.3724-10.7582-14.0101-12.4701-27.1718-26.0954-41.0776-38.7018-3.9393-3.5712-8.2199-6.7781-11.9692-10.5644.1822,8.0814-.7026,16.0797.005,24.1226l.3681.8285c5.5103,5.1293,11.1153,10.1732,16.7707,15.1411,2.8822,2.5318,6.5083,4.9385,9.1867,7.5671,2.0567,2.0184,2.4499,3.7448,4.3771,5.5953,8.0765,7.7552,16.9225,14.7383,24.9476,22.5215,1.2936,1.2546,2.451,2.0195,1.7888,3.9977,1.5375-.6587,3.679,1.0659,4.9744,2.0035,3.909,2.8293,7.1763,7.1391,10.7848,10.3587,1.0668.0252-.0479-.8624,1.0063-1.771.4115-.3547,1.0185-.7376,1.5701-.4391l43.2996,36.1141c.9916.4125.7436-1.986.2-2.5954-.2855-.3201-4.3226-2.5692-5.3803-3.3955-2.1353-1.6683-3.9273-3.8675-6.0037-5.5643-7.6867-6.2816-18.6327-13.5381-25.1407-20.7319-2.0354-2.2499-.59-4.0204,2.1736-2.1708,6.7008,4.4847,16.9893,12.7242,22.7825,18.3034,1.5799,1.5215,2.3142,2.2485,4.1717,3.8035,1.873,1.568,9.8322,8.5214,11.5866,8.6099,7.6882-3.5266,15.976-5.4087,23.9357-8.2142,13.8995-4.899,27.489-10.933,41.4726-15.5711,3.8958-1.2922,11.0608-3.824,14.8764-4.2873.6095-.074,1.4923-.3192,1.9114.2804.2758.6171.3349,1.442-.0209,2.0263-.5003.8215-15.6536,5.5316-17.9636,6.3682-8.4872,3.0739-16.8036,6.6032-25.321,9.5854-.0942.7408.8029.2962,1.2139.2176,1.7935-.343,4.0627-1.1553,5.8705-1.7119,5.9212-1.8231,14.3575-5.76,20.0205-6.7029,2.6974-.4491,4.6751.1656,2.3041,2.6992-11.9158,4.887-24.4333,8.0464-36.5895,12.2788.2941.836,2.4674-.1291,3.0937-.2991,6.1215-1.6613,12.2259-4.1545,18.2835-6.0847l1.3637.188c1.206,1.2849.5427,2.0615-.7794,2.8256-3.6887,2.1318-12.1777,4.6076-16.5715,6.1649-11.506,4.0781-23.2299,7.5922-34.808,11.4629-.7702.1234-2.7773.3212-3.3261-.0827-.3795-.2793-.2347-1.1557-.4466-1.3363-.1046-.0892-1.2648-.5244-2.2266-1.2771-4.9599-3.8819-9.6828-8.1249-14.6611-11.9543-.5806-.4466-3.1404-2.4809-3.57-2.406-.2819.0491-.8558.6932-.2097.9982l20.6339,18.0838,1.4026-.0148c30.6601-9.9381,61.0752-20.8772,90.8462-33.238,4.8429-2.0108,9.5119-4.4061,14.3769-6.3661l.1984-2.1949c-6.8885,3.7429-15.0655,7.0714-22.6342,9.2783-1.6967.4947-9.9052,3.4997-9.8905.4921.1667-.963.9938-1.4234,1.7856-1.815,5.6161-2.7771,14.5817-4.796,20.771-7.1527,3.3984-1.294,6.6288-2.9927,10.1177-4.041l-.3552-16.7071c-5.8422,2.2709-11.7913,4.4053-17.7404,6.3894-21.0463,7.0194-42.2479,13.8526-62.7327,22.2346-8.2431,3.3729-17.2155,4.8388-25.1828,8.9242-.4297,1.8461,1.0723,6.3033-1.8514,6.2957-2.5513-.0067-2.1756-2.9125-2.5787-3.3444-.6049-.6482-2.4978-1.4817-3.3951-2.2157-8.253-6.7503-18.1868-13.6534-25.7438-20.9273-1.5149-1.4582-6.4282-6.4043-1.6067-5.977l29.1378,23.3183ZM133.6164,219.0474c-.311-3.4975-.6781-7.0412-1.2574-10.505-.0916-.5479-.1155-2.1655-.7281-2.2557-.1181,1.1407-.8879,1.6329-1.9925,1.6049-.4794.5278,1.8013,3.9714,1.9183,5.0793.1131,1.0704-.4985,1.7641-.1681,2.8946.1946.6661,1.5884,2.6537,2.2278,3.182ZM386.5351,292.8435c-2.4454-.6452-5.2833-1.661-7.1884-3.3864-1.6906-1.5311-5.4003-8.4984-6.5923-8.6069-1.2867-.117-5.3604,4.8089-6.8309,5.9372-2.3984,1.8402-5.2555,3.1202-8.1067,4.062-.1192.587.4575.402.8679.5137,7.1228,1.9392,19.6662,3.5534,26.8335,2.2528.4761-.0864.9446-.2193,1.017-.7723ZM374.9653,297.6273c-6.4845.1787-12.8504-1.4725-19.146-2.7902l7.9339,6.9863c.5287.1218,9.1173-2.8098,10.3371-3.2992.6039-.2423,1.0794.2334.875-.8969ZM340.2612,308.3907l-2.2048-2.3785-4.9756-3.5967c1.982,2.1591,4.302,5.1668,7.1804,5.9751ZM395.3101,310.7918c-9.8906,2.8098-19.4695,6.9508-29.4849,9.2042l-.4295,5.5485,3.9844-1.1994-2.7467-.4338c-.5321-.9759-.0594-2.0011.64-2.7753l28.0367-10.3443Z"/>
          <path class="g" d="M240.6341,290.9448l26.6335-11.057c1.5721-.4341,3.0714-.8714,4.3975.3714,8.8405,9.2271,17.4961,18.6872,26.9246,27.3192,2.667,4.3719-2.3751,6.1364-5.5301,7.6676-6.1497,2.9845-15.7334,7.3315-22.1017,9.4119-1.1094.3624-2.2295.7686-3.4168.4092-.937-.2837-7.4985-8.4476-8.8536-9.897-5.2615-5.6281-11.5048-11.1882-16.1507-17.3565-1.5458-2.0523-3.4313-4.1741-1.9028-6.8686Z"/>
          <path d="M279.1288,330.8269c2.5789,2.5598-4.0413,6.4849-6.5139,4.7196-3.8692-2.7623,4.6918-6.5283,6.5139-4.7196Z"/>
          <path d="M295.279,325.8497c-2.6837-3.0173,4.8158-6.4314,6.0913-4.2965,1.7778,2.9758-3.6073,6.0678-6.0913,4.2965Z"/>
          <path d="M289.9021,326.0427c3.1689,3.1892-4.6475,6.7581-6.0929,3.898-1.7071-3.378,4.9736-5.0244,6.0929-3.898Z"/>
          <path d="M308.6384,316.8408c5.0059-1.076,2.3855,6.3858-1.5014,5.3479-3.5574-.9498-1.2009-4.7671,1.5014-5.3479Z"/>
          <path class="e" d="M372.5407,172.4339c-3.3776,14.577-4.8344,29.5803-7.2022,44.365l-.5977.599c-1.7345.1814-4.1996.0902-5.8411.5416-2.3799.6545-6.1869,7.2992-8.6115,8.9369-.5713.8567-.7085,1.8526.1097,2.578,3.4292,2.6909,7.7188-6.5098,9.4191-7.4067,1.4065-.742,4.0928-.4537,5.6826-.6995.9061-.1401,1.8675-.9265,2.5415-.9889.854-.079,1.8201.6032,2.7374.6109,2.5333.0211,8.742-4.3782,11.3608-5.7204l22.8931-11.3924c4.8918,5.5936,11.0104,10.068,16.4197,15.1797,13.0788,12.3593,25.2741,25.5605,39.6876,36.5017l9.1666,8.9751c-19.7348,6.5276-39.1136,14.1799-58.8303,20.7539-9.8748,3.2925-17.7248,7.9494-27.8612,2.3149-4.1295-2.2954-4.9577-6.4712-7.8555-9.297-4.1094-4.0074-7.7874,1.718-10.9812,4.1658-4.2673,3.2705-11.2456,7.1175-16.6778,4.7432-1.7918-.7832-5.793-4.604-7.4459-6.117-9.6285-8.8141-17.8305-19.692-27.1162-28.3302-3.9706-3.6938-12.3621-9.6187-17.0279-12.8895-.8609-.6035-2.7736-1.1925-2.8723-1.3158-.1713-.214.0362-1.2751-.2537-1.9368-.1828-.4173-2.5973-2.6509-3.1773-3.2089-11.786-11.3385-24.0013-22.2916-36.107-33.3011-3.4992-3.1823-7.5949-5.5869-10.3841-9.5608-.2381-.3392-.5522-.3981-.3915-.9987l106.789-37.4226c1.0858-.013,2.5231,2.5257,3.3014,3.3249,5.8756,6.033,12.1231,12.3731,19.1256,16.9959ZM353.3302,179.2402c-2.7981.3886-11.4869,5.663-14.7937,7.1702-9.115,4.1547-18.3566,8.3566-27.5241,12.3665-3.2175,1.4074-18.072,6.0503-18.9479,8.9873-.5408,1.8132.8144,2.8463,2.4104,2.0278,20.2346-9.3287,41.4198-16.6627,60.7632-27.8191,1.4111-1.7328.1929-3.0244-1.9079-2.7326ZM359.7106,197.5733c-16.2004,8.771-33.3616,15.563-50.3223,22.7125l-.664.9674c.0769,3.331,2.4687,1.954,4.5079,1.2827,12.773-4.2047,31.8969-12.005,43.254-18.9757,2.0552-1.2614,8.7612-4.9758,3.2244-5.9869ZM343.3572,229.0992c-2.5198.3512-14.5272,8.1624-17.0301,10.1196-.9484.7416-2.1121,1.6319-1.4347,2.9643.9431,1.8552,3.7259.0667,5.0042-.592,5.3893-2.7774,10.2195-7.0503,15.5448-9.983,1.1252-1.7739-.1871-2.7733-2.0842-2.5089Z"/>
          <path class="e" d="M238.9383,191.5222c-11.8963,3.1567-23.2326,8.1754-34.9005,11.9771-9.9074,3.2281-20.1365,5.5349-29.9338,9.1592-6.1834,2.2874-11.9208,5.5244-18.0452,7.8837-5.622,2.1658-11.547,3.7108-17.2401,5.6768-2.1572-15.7809-5.0921-31.5143-7.1419-47.3091-1.7324-13.3494-2.5441-26.8604-4.4899-40.1842-2.2518-15.4187-6.1672-30.6466-7.9239-46.1169,7.1823-.8863,13.7006-4.538,20.4327-6.8926,26.3284-9.2085,53.1912-16.9438,79.5009-26.2098,19.9497-7.0261,39.5352-15.0625,59.2283-22.7432l20.6195,128.2609-1.0664.7762c-17.6456,7.2144-37.229,11.8413-54.524,19.6726-2.8188,1.2764-5.9128,2.2853-4.5154,6.0492ZM264.7432,72.3829c-3.6621-4.0951-11.217,1.1206-14.9321,2.5773-21.4561,8.4132-44.6874,14.2819-66.0339,23.3215-.8969.3798-3.3301,1.2611-3.8826,1.7015-1.2303.9807-.0673,2.2953-2.5664,1.7732-1.4652-.3061-1.2006-1.0272-3.4368-.5942-7.4412,1.441-20.1138,6.344-27.4892,9.2092-4.7479,1.8445-4.8455,2.5565-4.3456,7.5061,1.6957,16.7887,6.0128,34.0008,8.2617,50.7694,1.2573,9.3752,1.3862,19.4336,2.8859,28.6399.2157,1.3241,1.0782,2.0589,2.4729,2.0932,2.2665.0557,9.2283-2.1694,11.7572-2.9629,14.9364-4.6868,29.4904-10.5768,44.1125-16.122,2.4825-1.793.3941-3.5871-2.0917-3.1706l-2.4346-14.7066,13.5623-4.3987,2.8239,15.3212c-1.4946.7371-8.3205,2.3277-8.7658,3.6893-.1478.452-.073.9235.1516,1.337l1.9968.8321c17.4493-6.3931,36.6805-10.9878,53.7656-18.0822,1.7448-.7245,6.1747-2.7407,6.5951-4.5792-1.5534-16.6604-4.7476-33.2271-7.0418-49.8293-1.1755-8.5065-1.6408-17.408-2.8987-25.8204-.3051-2.0403-1.1768-7.0626-2.4664-8.5047Z"/>
          <path class="f" d="M274.4356,12.83c.7574,5.8702,3.0056,11.8251,3.214,17.7313.029.8223.1991,2.3017-.4158,2.8132-21.0982,8.1518-42.2407,16.3278-63.6222,23.7386-24.0952,8.3514-48.612,15.5611-72.7194,23.8165-2.9086.996-21.2394,8.8571-22.3955,8.0549-.6621-5.6097-2.6397-11.8446-3.1772-17.3659-.0638-.6553-.3041-2.6429.1874-2.9906,9.2216-2.4874,18.0681-5.9307,26.8877-9.5261.337,4.1528-3.6608,10.2115-7.0453,12.2968-1.3095.8069-3.8717.8445-4.2554,1.7536-1.2174,2.8849,1.9649,2.9483,4.0505,2.4258,5.3932-1.3511,10.1143-8.5843,10.8395-13.8885.1475-1.0789-.392-3.3402.3954-3.9922l27.929-8.9659c-.4734,3.9534-4.3184,10.1377-7.8344,11.9066-1.3912.6999-5.1944.7633-3.9423,3.2507.8397,1.668,4.5669.4709,5.905-.0916,4.1075-1.7268,7.7633-7.2716,8.8615-11.482.454-1.7405.4901-3.3401.9897-4.9935l26.1459-9.756c.7797,4.5257-2.9214,9.7295-6.4562,12.2917-1.054.764-5.1439,2.3458-5.2711,2.7144-.6307,1.8265.9154,2.607,2.4904,2.5191,7.7737-.4339,14.4381-11.8503,13.4603-19.0868,8.553-2.425,17.938-4.0285,25.6913-8.407.872.0028.6157,3.0332.5019,3.6875-.6751,3.8805-5.6971,8.4875-9.4534,9.2927-1.5696.3365-5.5825-.3645-4.5158,2.4557.9725,2.5709,6.0196,1.388,7.997.6261,6.5737-2.5328,11.798-11.0193,9.6571-18.0623l26.7258-9.5749c2.1997,6.892-4.0657,13.0923-10.2637,14.6638-1.0312.2615-3.6344-.2158-4.0522,1.161-1.1762,3.8754,6.028,2.4141,8.0401,1.6297,7.6069-2.9653,12.4461-10.8549,10.3015-19.0133l5.149-1.633Z"/>
          <path class="e" d="M359.0104,303.2054l-29.1378-23.3183c-4.8215-.4273.0919,4.5188,1.6067,5.977,7.5569,7.274,17.4908,14.1771,25.7438,20.9273.8973.734,2.7902,1.5675,3.3951,2.2157.4031.4319.0275,3.3377,2.5787,3.3444,2.9237.0077,1.4217-4.4496,1.8514-6.2957,7.9673-4.0854,16.9397-5.5512,25.1828-8.9242,20.4849-8.382,41.6864-15.2152,62.7327-22.2346,5.949-1.9841,11.8982-4.1186,17.7404-6.3894l.3552,16.7071c-3.4889,1.0484-6.7194,2.747-10.1177,4.041-6.1893,2.3567-15.1549,4.3756-20.771,7.1527-.7918.3916-1.6189.852-1.7856,1.815-.0147,3.0076,8.1938.0026,9.8905-.4921,7.5687-2.2069,15.7457-5.5354,22.6342-9.2783l-.1984,2.1949c-4.8651,1.96-9.534,4.3553-14.3769,6.3661-29.771,12.3608-60.1861,23.2999-90.8462,33.238l-1.4026.0148-20.6339-18.0838c-.6461-.305-.0722-.9491.2097-.9982.4296-.0748,2.9894,1.9594,3.57,2.406,4.9783,3.8294,9.7013,8.0724,14.6611,11.9543.9618.7527,2.122,1.188,2.2266,1.2771.2118.1806.0671,1.057.4466,1.3363.5489.4039,2.556.2062,3.3261.0827,11.5781-3.8708,23.302-7.3848,34.808-11.4629,4.3938-1.5573,12.8828-4.0331,16.5715-6.1649,1.3221-.7641,1.9853-1.5407.7794-2.8256l-1.3637-.188c-6.0576,1.9302-12.162,4.4234-18.2835,6.0847-.6263.17-2.7996,1.1352-3.0937.2991,12.1562-4.2324,24.6737-7.3918,36.5895-12.2788,2.3711-2.5336.3933-3.1483-2.3041-2.6992-5.663.9429-14.0994,4.8797-20.0205,6.7029-1.8078.5566-4.077,1.3689-5.8705,1.7119-.4109.0786-1.308.5231-1.2139-.2176,8.5173-2.9822,16.8338-6.5115,25.321-9.5854,2.31-.8367,17.4633-5.5468,17.9636-6.3682.3558-.5843.2966-1.4093.0209-2.0263-.4191-.5996-1.3019-.3544-1.9114-.2804-3.8157.4632-10.9806,2.9951-14.8764,4.2873-13.9836,4.6382-27.5731,10.6722-41.4726,15.5711-7.9597,2.8055-16.2475,4.6876-23.9357,8.2142-1.7544-.0886-9.7136-7.042-11.5866-8.6099-1.8576-1.5551-2.5918-2.282-4.1717-3.8035-5.7932-5.5792-16.0816-13.8187-22.7825-18.3034-2.7636-1.8496-4.209-.0791-2.1736,2.1708,6.508,7.1938,17.454,14.4503,25.1407,20.7319,2.0764,1.6968,3.8684,3.896,6.0037,5.5643,1.0577.8263,5.0947,3.0754,5.3803,3.3955.5436.6094.7916,3.0079-.2,2.5954l-43.2996-36.1141c-.5517-.2984-1.1587.0845-1.5701.4391-1.0542.9087.0605,1.7963-1.0063,1.771-3.6085-3.2197-6.8758-7.5294-10.7848-10.3587-1.2954-.9376-3.4369-2.6622-4.9744-2.0035.6622-1.9782-.4951-2.7431-1.7888-3.9977-8.0251-7.7831-16.871-14.7663-24.9476-22.5215-1.9272-1.8505-2.3204-3.5769-4.3771-5.5953-2.6784-2.6285-6.3045-5.0353-9.1867-7.5671-5.6554-4.9679-11.2604-10.0118-16.7707-15.1411l-.3681-.8285c-.7077-8.0429.1772-16.0412-.005-24.1226,3.7493,3.7863,8.0299,6.9932,11.9692,10.5644,13.9058,12.6064,27.0675,26.2316,41.0776,38.7018,4.526,4.0285,9.9025,6.906,14.3724,10.7582,6.3667,5.487,11.7299,12.9908,17.7357,18.9627,9.1055,9.0542,19.4607,17.7426,28.9379,26.5088.9823.9086,1.9964,1.9115,2.7867,2.9932ZM323.8209,274.4154c.432-.721-.1062-2.3213-.7055-2.9238-14.8445-13.7528-29.6535-27.5289-44.6813-41.0819-6.2633-5.6486-12.1913-11.4637-18.351-17.1509-2.4038-2.2194-5.608-4.0275-8.1721-6.1882-1.6589-1.3979-5.3627-6.7036-7.6074-4.7765-1.747,1.4999,3.1815,5.6826,4.3947,6.7921,2.5691,2.3496,5.5588,4.2858,8.194,6.5652l18.3427,17.1591c-.4261.6713-.8751-.1655-1.1897-.4061-1.5068-1.1523-6.0767-5.6876-7.9273-4.5274-.5717.3584-.3452,2.1248.3375,2.5451l34.7093,30.7082c-.9825.36-1.2256-.8037-2.5642-.6138-3.2161.4563.0691,4.0812,1.3675,5.0014l-.5911.1942-18.3642-15.5441c-1.2566-.9021-2.456-1.9653-4.1305-1.5571-.3086.6681-.457,1.0982-.1629,1.8254.2926.7234,5.4417,5.357,6.4904,6.3102,7.6837,6.9838,16.3711,14.4617,24.3339,21.1404,1.042.874,5.5227,4.6192,6.389,4.8229,1.4457.34,2.6842-1.8785,1.3715-3.0127l-12.5416-11.5844c.7456-.1726.9506.4132,1.3978.7922,3.9387,3.3382,7.8804,6.7707,11.7721,10.1672,1.9238,1.679,7.2484,8.7835,7.2878,2.3195l-18.862-17.2676,17.6732,14.8659c3.1356.6072,2.6627-2.4609.684-3.9013.0141-.3018.974-.4543,1.1051-.6731ZM256.887,223.439c.5601-.5029,4.3763,4.122,5.5376,1.7329.2219-.7842.0619-1.2829-.3319-1.959-.8914-1.5305-7.7671-7.2502-9.5881-8.7582-1.1435-.9469-8.9991-8.2886-8.7397-3.584.1261,2.2866,7.364,6.7269,8.7338,8.9706-1.96-.5409-5.001-3.912-6.9688-3.605-1.5016.2343-1.1531,1.8366-.3872,2.789,4.863,4.0481,9.8986,7.9092,14.7256,11.9989,8.975,7.6043,18.5962,17.0777,27.9515,23.9052.6438.4699,1.9808,1.6757,2.5678,1.8552,1.9329.5911,2.5691-.8273,1.6245-2.4601-.4432-.7662-3.8755-3.9057-4.8017-4.769-6.4941-6.0531-13.927-12.1888-20.7427-17.9504-.7177-.6067-10.0501-7.7448-9.5807-8.1662ZM365.8973,309.8873c1.0609,1.04,5.215-.4941,6.6752-.8955,23.3076-6.4075,46.819-14.8813,69.9055-22.2424,2.9426-.9383,6.0223-1.3166,8.8896-2.2799,2.9587-.994,13.1878-5.5616,15.4882-7.2495,1.9295-1.4158,1.1839-3.8357-1.0334-3.4629-10.068,5.0339-20.7785,8.6476-31.5091,12.0082-18.2218,5.7067-36.7317,10.7317-54.766,17.0376-1.878.6567-13.8805,4.938-14.1102,5.838l.4602,1.2464Z"/>
          <path class="f" d="M127.9685,182.2883c-.5361.8633-15.8254,5.5404-18.6868,7.8363-2.0617,1.6543-6.264,7.1253-7.9768,8.0033-.4794.2457-.6636.2004-1.0175-.2012l-.4762-.6631c3.0118-16.7158,3.9653-33.7091,5.9358-50.5605,2.225-19.0281,5.2457-37.9372,6.727-57.0933.1999-2.5849-.3325-5.2331.4072-7.7718l1.1016,3.9143c1.6836,17.1556,6.152,34.2781,8.8006,51.3933,2.3129,14.946,3.5471,30.1137,5.1852,45.1426Z"/>
          <path class="d" d="M393.3217,191.5252c-.5162-5.3137-3.1884-7.4903-8.1759-8.3887-.5107-.092-.7165.2849-.6011-.5805l40.4601-57.6289c3.495,3.7767,8.2687,5.5967,12.5796,8.1591l-44.2627,58.4389Z"/>
          <path class="d" d="M450.7621,136.8855l-41.2821,58.6359c-.4971.5911-.3782.3449-.7805-.0289-.6436-.5978-1.0811-1.6586-2.021-2.3687-2.5236-1.9065-5.1747-1.6613-8.1748-1.6025l42.0659-57.0685c.3286-.3669.6629-.3517,1.1124-.3021,2.4718.273,6.3725,2.4194,9.0801,2.7347Z"/>
          <path class="d" d="M382.5417,179.1572l-1.9922-3.7834-3.5803-2.7949,40.6784-58.4342c.077,1.2995.7897,2.4883,1.392,3.5979.6155,1.1338,3.1193,4.2817,2.8103,5.1548l-39.3082,56.2599Z"/>
          <path class="e" d="M390.2208,197.0144c1.6221,1.6147,6.0938-1.1077,8.1867-1.3974,2.5779-.3568,6.5674-.4385,7.6341,2.5374.2621.7312-.1683.4667-.4673.6375-2.2965,1.3117-12.0564,6.6655-13.9954,6.6653-1.0975-.0001-4.5191-.7576-5.6992-1.1101-4.7728-1.4257-8.3873-6.5793-12.4215-9.3144-.5862-6.4374,1.5808-12.6759,1.912-19.0633,3.272,1.2603,2.793,3.6624,2.8068,6.5975.0068,1.4408-.9489,2.3157.1901,3.7674,1.5575,1.9851,6.9585-.5604,9.7338,2.2304,2.3383,2.3514,1.0735,7.4081,2.12,8.4498Z"/>
          <path class="e" d="M458.2402,126.0068c-3.0757,2.8541-13.4339-1.459-16.6606-3.2793-4.8611-2.7425-11.3946-8.9691-14.0222-13.9005-7.23-13.569,10.7408-8.9162,16.9507-4.9824,4.0792,2.584,12.539,11.351,14.0224,15.8948.5522,1.6914,1.1542,4.927-.2903,6.2675ZM449.8271,118.7929c5.2596-5.3193-9.1147-18.333-14.6311-12.435-5.821,6.2235,9.221,17.9066,14.6311,12.435Z"/>
          <path class="e" d="M386.5351,292.8435c-.0725.553-.5409.6859-1.017.7723-7.1673,1.3006-19.7107-.3136-26.8335-2.2528-.4104-.1117-.9871.0733-.8679-.5137,2.8511-.9418,5.7083-2.2218,8.1067-4.062,1.4705-1.1283,5.5442-6.0542,6.8309-5.9372,1.192.1084,4.9017,7.0758,6.5923,8.6069,1.9052,1.7254,4.743,2.7413,7.1884,3.3864Z"/>
          <path class="e" d="M173.5132,44.7369l-18.2405,5.5187-.88-.5826c-.3786-12.5732,14.0417-16.4855,19.1205-4.9361Z"/>
          <path class="f" d="M455.1502,130.9008l-1.9998,2.6072-.8876.1208c-11.755-3.5412-25.5612-7.8685-31.0979-20.0061-1.6189-3.5491-.6478-4.2263,1.6686-7.0566,4.1405,13.1242,18.477,23.9067,32.3167,24.3347Z"/>
          <path class="e" d="M140.8016,55.506c-2.6366.0434-16.729,7.5994-17.9518,6.3876-1.1058-8.4129,6.0893-15.8799,14.3737-10.9833,1.5791.9333,3.4722,2.7104,3.5781,4.5957Z"/>
          <path class="e" d="M203.0313,33.9683l-18.3468,6.3827c-.4921-7.6083,5.4109-14.5585,13.3703-11.1751.9637.4097,5.6189,4.0653,4.9765,4.7924Z"/>
          <path class="e" d="M233.35,24.392l-16.353,5.1898c-.4338-9.6395,12.2014-16.1294,16.353-5.1898Z"/>
          <path class="e" d="M263.2702,13.2259l-15.5564,5.5861c.0088-5.9748,5.0616-12.3826,11.5643-9.7684.8645.3475,4.8702,3.1514,3.992,4.1823Z"/>
          <path class="e" d="M374.9653,297.6273c.2044,1.1303-.2711.6546-.875.8969-1.2198.4894-9.8084,3.421-10.3371,3.2992l-7.9339-6.9863c6.2957,1.3177,12.6615,2.9689,19.146,2.7902Z"/>
          <path class="e" d="M395.3101,310.7918l-28.0367,10.3443c-.6993.7742-1.172,1.7993-.64,2.7753l2.7467.4338-3.9844,1.1994.4295-5.5485c10.0154-2.2535,19.5942-6.3945,29.4849-9.2042Z"/>
          <path class="e" d="M133.6164,219.0474c-.6394-.5283-2.0331-2.5159-2.2278-3.182-.3304-1.1305.2812-1.8242.1681-2.8946-.117-1.1079-2.3977-4.5515-1.9183-5.0793,1.1046.028,1.8743-.4642,1.9925-1.6049.6126.0902.6364,1.7078.7281,2.2557.5792,3.4639.9464,7.0075,1.2574,10.505Z"/>
          <path class="e" d="M340.2612,308.3907c-2.8783-.8083-5.1984-3.8161-7.1804-5.9751l4.9756,3.5967,2.2048,2.3785Z"/>
          <path d="M353.3302,179.2402c2.1009-.2918,3.3191.9998,1.9079,2.7326-19.3433,11.1564-40.5285,18.4905-60.7632,27.8191-1.596.8185-2.9511-.2146-2.4104-2.0278.8759-2.937,15.7304-7.5799,18.9479-8.9873,9.1674-4.0099,18.409-8.2118,27.5241-12.3665,3.3068-1.5072,11.9956-6.7815,14.7937-7.1702Z"/>
          <path d="M359.7106,197.5733c5.5368,1.0111-1.1692,4.7255-3.2244,5.9869-11.3571,6.9707-30.481,14.771-43.254,18.9757-2.0392.6713-4.431,2.0483-4.5079-1.2827l.664-.9674c16.9606-7.1495,34.1219-13.9416,50.3223-22.7125Z"/>
          <path d="M343.3572,229.0992c1.8971-.2644,3.2094.735,2.0842,2.5089-5.3252,2.9326-10.1554,7.2056-15.5448,9.983-1.2783.6588-4.0612,2.4472-5.0042.592-.6774-1.3325.4863-2.2227,1.4347-2.9643,2.5029-1.9572,14.5102-9.7684,17.0301-10.1196Z"/>
          <path class="g" d="M264.7432,72.3829c1.2896,1.4421,2.1613,6.4645,2.4664,8.5047,1.2579,8.4124,1.7232,17.3139,2.8987,25.8204,2.2942,16.6021,5.4884,33.1689,7.0418,49.8293-.4204,1.8385-4.8503,3.8546-6.5951,4.5792-17.0851,7.0944-36.3163,11.6891-53.7656,18.0822l-1.9968-.8321c-.2246-.4135-.2994-.885-.1516-1.337.4453-1.3615,7.2712-2.9522,8.7658-3.6893l-2.8239-15.3212-13.5623,4.3987,2.4346,14.7066c2.4858-.4165,4.5742,1.3776,2.0917,3.1706-14.6221,5.5452-29.1762,11.4352-44.1125,16.122-2.5289.7935-9.4907,3.0187-11.7572,2.9629-1.3948-.0343-2.2572-.7691-2.4729-2.0932-1.4997-9.2063-1.6286-19.2647-2.8859-28.6399-2.2489-16.7686-6.566-33.9807-8.2617-50.7694-.4999-4.9496-.4023-5.6616,4.3456-7.5061,7.3755-2.8653,20.0481-7.7683,27.4892-9.2092,2.2362-.433,1.9716.2881,3.4368.5942,2.499.5221,1.3361-.7925,2.5664-1.7732.5525-.4404,2.9856-1.3217,3.8826-1.7015,21.3465-9.0396,44.5778-14.9083,66.0339-23.3215,3.715-1.4567,11.27-6.6724,14.9321-2.5773ZM261.6316,75.1004c-4.6163-.4643-8.2771,2.8716-12.6117,3.8529l-.8698.7582,2.771,16.8648,13.0929-4.0244-2.3824-17.4515ZM244.5179,80.6407l-13.5281,5.0349,2.7611,16.9036,13.1158-4.6464-2.3488-17.292ZM230.1131,104.1266l-2.7506-17.5045-13.0933,4.8494,2.728,17.4858,13.1159-4.8307ZM210.6101,93.0048c-1.7387.4083-13.2768,4.2613-13.5326,5.0422l2.7661,16.8934,13.3724-4.7615-2.6058-17.1741ZM254.0968,120.9234c1.8419-.6706,12.7595-4.4071,13.1054-5.4511l-2.9646-19.6528-12.8977,5.0219,2.7569,20.082ZM193.8553,98.9886c-.5179-.5439-11.7073,4.2972-13.5625,3.9874l2.7988,17.9497,12.9877-4.7637-2.224-17.1735ZM250.0487,122.4644l-2.3413-20.6853-12.9773,4.7686,2.6121,19.9636,12.7065-4.0468ZM176.3019,104.1718l-13.5216,4.4237,2.7553,17.9164,12.8929-4.0594.6391-.5885-2.7657-17.6922ZM230.954,108.1605c-1.6908.5103-12.9143,4.3719-13.1303,5.0446l2.7815,18.8757,12.6879-4.032-2.3391-19.8883ZM159.1303,110.1687l-13.3732,4.7698,2.6256,17.9519,13.5478-4.8088-2.8003-17.9129ZM216.5827,133.666l-2.7586-18.9548-1.2331-.0072-11.7744,4.2088,2.6172,18.7641,13.1489-4.011ZM268.0543,119.7264l-13.1245,4.8228,2.7596,17.1161,12.7317-4.8126-2.3668-17.1263ZM186.2791,142.4668l12.4848-3.272.6434-.5748-2.952-18.4786-12.937,4.41,2.7607,17.9154ZM179.8934,126.1098l-13.5064,4.4413,2.7393,17.4964,13.1195-4.0277-2.3524-17.91ZM250.8859,126.5196l-12.7089,3.6157,2.3558,17.1174c3.5896-1.1851,8.3166-2.1094,11.6743-3.6841.5048-.2367,1.2558-.3425,1.4489-.9747l-2.7701-16.0743ZM234.1445,131.6936l-13.1492,4.4093,2.7862,16.7322,13.16-3.992-2.797-17.1494ZM162.7402,132.0913l-13.5068,4.0437,2.7392,17.8984,13.5644-4.3928-2.7968-17.5493ZM219.7394,153.9837l-2.7226-16.1389c-.7315-.543-10.8854,3.4011-12.6042,3.8041l2.2147,16.7715,13.1121-4.4366ZM273.1939,155.5633c-.6984-4.2132-.8583-8.5805-1.669-12.7777-.1092-.5651-.3194-2.6825-.8727-2.705l-12.1027,5.2385,2.3292,15.0954,12.3152-4.8512ZM200.2376,142.8619l-13.1337,3.6173,2.7692,18.72c1.6233-.7907,12.4438-4.6666,12.7144-5.4404l-2.3499-16.897ZM254.4883,146.8512l-12.9765,4.3701c-.279.4146-.2119.9206-.1955,1.3916.0939,2.7057,1.3609,9.5785,2.0284,12.366.1059.4424.1125.8102.6158,1.0035l13.1479-4.3547-2.62-14.7766ZM183.0841,148.0475l-13.1308,4.2472,2.763,19.2891c.3478.3742,8.5796-2.8406,9.6724-3.2924.8596-.3554,3.2064-1.0335,3.4432-1.766l-2.7478-18.4778ZM237.7364,152.4368l-13.3895,4.3632,2.2239,15.181,13.9456-4.4127-2.7801-15.1314ZM169.0642,173.1186l-3.1354-19.8849-13.1142,4.8359,2.751,19.8955,13.4987-4.8465ZM203.4295,164.005l-12.5791,5.1674c-.627.9325,1.0172,11.1914,1.4316,12.9584.1041.4441.116.789.6057.9984l12.7667-4.7502-2.2249-14.3741ZM186.6742,170.7828l-12.979,4.7695c-.7845,1.1664,1.7063,11.7923,1.8161,13.9784l13.7785-5.165-2.6156-13.5829ZM169.921,177.1633l-14.19,4.3673,1.428,14.3816,15.1219-5.2233-2.3599-13.5256Z"/>
          <path class="g" d="M323.8209,274.4154c-.1311.2188-1.091.3713-1.1051.6731,1.9787,1.4403,2.4516,4.5085-.684,3.9013l-17.6732-14.8659,18.862,17.2676c-.0394,6.464-5.364-.6404-7.2878-2.3195-3.8917-3.3965-7.8334-6.829-11.7721-10.1672-.4472-.379-.6522-.9648-1.3978-.7922l12.5416,11.5844c1.3127,1.1342.0742,3.3528-1.3715,3.0127-.8663-.2038-5.3469-3.9489-6.389-4.8229-7.9628-6.6787-16.6502-14.1566-24.3339-21.1404-1.0487-.9531-6.1977-5.5868-6.4904-6.3102-.2941-.7271-.1457-1.1572.1629-1.8254,1.6744-.4082,2.8738.655,4.1305,1.5571l18.3642,15.5441.5911-.1942c-1.2984-.9201-4.5836-4.545-1.3675-5.0014,1.3386-.1899,1.5817.9737,2.5642.6138l-34.7093-30.7082c-.6827-.4204-.9092-2.1867-.3375-2.5451,1.8506-1.1602,6.4205,3.3751,7.9273,4.5274.3145.2405.7636,1.0773,1.1897.4061l-18.3427-17.1591c-2.6352-2.2795-5.6249-4.2156-8.194-6.5652-1.2133-1.1096-6.1417-5.2923-4.3947-6.7921,2.2447-1.9272,5.9485,3.3786,7.6074,4.7765,2.5641,2.1607,5.7683,3.9688,8.1721,6.1882,6.1596,5.6872,12.0877,11.5022,18.351,17.1509,15.0277,13.553,29.8367,27.3291,44.6813,41.0819.5992.6025,1.1375,2.2028.7055,2.9238ZM286.0079,242.577l-3.5846-3.7909-3.9946-2.982,3.5846,3.7909,3.9946,2.982Z"/>
          <path d="M365.8973,309.8873l-.4602-1.2464c.2297-.9,12.2322-5.1813,14.1102-5.838,18.0343-6.3059,36.5441-11.3309,54.766-17.0376,10.7307-3.3606,21.4411-6.9744,31.5091-12.0082,2.2173-.3728,2.9628,2.0471,1.0334,3.4629-2.3004,1.6879-12.5295,6.2555-15.4882,7.2495-2.8673.9633-5.947,1.3417-8.8896,2.2799-23.0865,7.3611-46.5979,15.8349-69.9055,22.2424-1.4603.4014-5.6144,1.9356-6.6752.8955Z"/>
          <path class="g" d="M256.887,223.439c-.4694.4214,8.863,7.5595,9.5807,8.1662,6.8157,5.7616,14.2486,11.8973,20.7427,17.9504.9262.8633,4.3585,4.0028,4.8017,4.769.9446,1.6328.3084,3.0512-1.6245,2.4601-.5871-.1795-1.924-1.3854-2.5678-1.8552-9.3553-6.8276-18.9765-16.3009-27.9515-23.9052-4.8269-4.0897-9.8626-7.9508-14.7256-11.9989-.7659-.9524-1.1145-2.5547.3872-2.789,1.9678-.307,5.0087,3.0641,6.9688,3.605-1.3698-2.2437-8.6077-6.684-8.7338-8.9706-.2594-4.7046,7.5962,2.637,8.7397,3.584,1.821,1.508,8.6968,7.2277,9.5881,8.7582.3938.6761.5538,1.1749.3319,1.959-1.1613,2.3891-4.9774-2.2358-5.5376-1.7329Z"/>
          <path class="g" d="M449.8271,118.7929c-5.4101,5.4715-20.4521-6.2115-14.6311-12.435,5.5165-5.898,19.8907,7.1157,14.6311,12.435Z"/>
          <polygon class="e" points="169.0642 173.1186 155.5655 177.9651 152.8145 158.0696 165.9287 153.2337 169.0642 173.1186"/>
          <path class="e" d="M254.0968,120.9234l-2.7569-20.082,12.8977-5.0219,2.9646,19.6528c-.3459,1.044-11.2635,4.7805-13.1054,5.4511Z"/>
          <polygon class="e" points="250.0487 122.4644 237.3422 126.5112 234.7301 106.5477 247.7074 101.7791 250.0487 122.4644"/>
          <path class="d" d="M183.0841,148.0475l2.7478,18.4778c-.2368.7325-2.5836,1.4106-3.4432,1.766-1.0929.4518-9.3247,3.6666-9.6724,3.2924l-2.763-19.2891,13.1308-4.2472Z"/>
          <path class="d" d="M230.954,108.1605l2.3391,19.8883-12.6879,4.032-2.7815-18.8757c.216-.6727,11.4395-4.5343,13.1303-5.0446Z"/>
          <polygon class="e" points="216.5827 133.666 203.4338 137.677 200.8166 118.9129 212.591 114.7041 213.8241 114.7113 216.5827 133.666"/>
          <polygon class="d" points="159.1303 110.1687 161.9306 128.0816 148.3828 132.8904 145.7571 114.9385 159.1303 110.1687"/>
          <polygon class="e" points="176.3019 104.1718 179.0676 121.864 178.4285 122.4525 165.5356 126.5119 162.7802 108.5955 176.3019 104.1718"/>
          <polygon class="e" points="186.2791 142.4668 183.5184 124.5514 196.4554 120.1413 199.4074 138.6199 198.764 139.1947 186.2791 142.4668"/>
          <polygon class="e" points="162.7402 132.0913 165.537 149.6406 151.9726 154.0334 149.2334 136.135 162.7402 132.0913"/>
          <path class="e" d="M261.6316,75.1004l2.3824,17.4515-13.0929,4.0244-2.771-16.8648.8698-.7582c4.3346-.9813,7.9953-4.3173,12.6117-3.8529Z"/>
          <polygon class="e" points="179.8934 126.1098 182.2459 144.0198 169.1263 148.0475 166.387 130.5511 179.8934 126.1098"/>
          <path class="d" d="M200.2376,142.8619l2.3499,16.897c-.2706.7738-11.0911,4.6497-12.7144,5.4404l-2.7692-18.72,13.1337-3.6173Z"/>
          <path class="d" d="M210.6101,93.0048l2.6058,17.1741-13.3724,4.7615-2.7661-16.8934c.2558-.7809,11.7939-4.6339,13.5326-5.0422Z"/>
          <polygon class="e" points="230.1131 104.1266 216.9972 108.9573 214.2691 91.4715 227.3625 86.6221 230.1131 104.1266"/>
          <polygon class="e" points="244.5179 80.6407 246.8666 97.9327 233.7509 102.5791 230.9898 85.6755 244.5179 80.6407"/>
          <path class="e" d="M193.8553,98.9886l2.224,17.1735-12.9877,4.7637-2.7988-17.9497c1.8552.3098,13.0446-4.5314,13.5625-3.9874Z"/>
          <polygon class="e" points="268.0543 119.7264 270.4212 136.8526 257.6895 141.6653 254.9299 124.5492 268.0543 119.7264"/>
          <polygon class="e" points="234.1445 131.6936 236.9415 148.8431 223.7815 152.8351 220.9953 136.1029 234.1445 131.6936"/>
          <path class="e" d="M250.8859,126.5196l2.7701,16.0743c-.1931.6322-.9442.738-1.4489.9747-3.3577,1.5747-8.0846,2.499-11.6743,3.6841l-2.3558-17.1174,12.7089-3.6157Z"/>
          <path class="d" d="M219.7394,153.9837l-13.1121,4.4366-2.2147-16.7715c1.7188-.403,11.8727-4.347,12.6042-3.8041l2.7226,16.1389Z"/>
          <polygon class="e" points="237.7364 152.4368 240.5165 167.5682 226.5709 171.9809 224.347 156.8 237.7364 152.4368"/>
          <polygon class="e" points="169.921 177.1633 172.2809 190.6889 157.159 195.9123 155.731 181.5307 169.921 177.1633"/>
          <path class="d" d="M254.4883,146.8512l2.62,14.7766-13.1479,4.3547c-.5033-.1933-.5099-.5611-.6158-1.0035-.6675-2.7875-1.9345-9.6603-2.0284-12.366-.0163-.471-.0835-.977.1955-1.3916l12.9765-4.3701Z"/>
          <path class="d" d="M273.1939,155.5633l-12.3152,4.8512-2.3292-15.0954,12.1027-5.2385c.5533.0225.7635,2.1398.8727,2.705.8107,4.1973.9706,8.5645,1.669,12.7777Z"/>
          <path class="d" d="M186.6742,170.7828l2.6156,13.5829-13.7785,5.165c-.1098-2.1861-2.6006-12.812-1.8161-13.9784l12.979-4.7695Z"/>
          <path class="e" d="M203.4295,164.005l2.2249,14.3741-12.7667,4.7502c-.4897-.2094-.5016-.5544-.6057-.9984-.4144-1.767-2.0586-12.0259-1.4316-12.9584l12.5791-5.1674Z"/>
          <polygon class="e" points="286.0079 242.577 282.0133 239.5949 278.4287 235.804 282.4233 238.786 286.0079 242.577"/>
          <path class="g" d="M332.5593,328.8517c-3.3089-2.4319-6.1859-5.3739-9.2599-8.0841-11.7467-10.3565-22.367-22.3291-33.6955-33.3192-2.1253-2.0618-4.8752-4.1032-6.9972-6.1664-3.9952-3.8844-8.987-10.6714-13.0602-14.0348.0002-.0005.0008-.0008.001-.0013.0187-.1407-.1834-.3312-.5441-.5388v-1.4924h-6.1736v.0006c-.4869-.0274-.9826-.0377-1.4832-.0231-1.0305.03-6.3954,1.0749-9.4678,4.0917-1.0361,1.0173-.3918,2.4651-.6097,3.7781-.9392,5.6611-7.9327,6.6114-12.553,5.0382-1.5689-.5342-3.6332-2.443-4.9767-2.2498l-16.8526,5.9116c-1.5302.7284-1.7674,2.0464-1.403,3.6139.2372,1.0204,6.6754,8.5626,7.9037,10.0455,16.6781,20.1346,33.4881,40.1625,50.2689,60.2236l1.8715.9373,20.0361-8.9134c2.3765-1.8647-1.014-4.165.6138-7.7664,2.5604-5.6649,12.9838-6.8403,17.4947-3.1273,1.6073,1.3231,1.6532,3.0567,4.4106,2.7211.6759-.0823,10.8034-5.5181,12.0729-6.3039,1.6991-1.0515,3.9478-2.0723,2.4032-4.3405ZM327.7849,330.4192c-3.0881,1.8234-6.6116,3.0752-9.6694,4.9889-7.8956-9.429-29.6483-4.9076-26.1304,9.6596l-15.9388,6.6256-55.8569-66.239c-.1425-.7826.1241-.4879.4994-.679,3.8085-1.9392,9.4483-2.735,13.3317-5.024,8.0615,5.2077,20.521,2.6338,20.9233-8.3995,4.1319-2.2817,7.6977-3.1604,10.3737-3.5066,9.3816,11.4546,20.3686,21.3693,30.8526,31.7847,6.3208,6.2796,12.6682,13.5314,19.148,19.5449,4.0831,3.7892,8.7409,6.9499,12.9733,10.5637.1582.7966-.178.4867-.5066.6807Z"/>
        </g>
      </g>
    </g>
  </g>
</svg>