<?xml version="1.0" encoding="UTF-8"?>
<svg id="b" data-name="Capa 2" xmlns="http://www.w3.org/2000/svg" viewBox="0 0 379.9718 428.3315">
  <defs>
    <style>
      .d {
        fill: #8bc1a7;
      }

      .e {
        fill: #fff;
      }

      .f {
        fill: #96f;
      }

      .g {
        fill: #21211f;
      }
    </style>
  </defs>
  <g id="c" data-name="Capa 1">
    <g>
      <polygon class="d" points="90.4631 61.4617 95.3355 112.2416 115.6613 65.4527 104.6034 115.2529 138.3929 77.0351 112.4871 120.9808 156.4328 95.075 118.215 128.8645 168.0152 117.8066 121.2263 138.1324 172.0062 143.0048 121.2263 147.8773 168.0152 168.2031 118.215 157.1452 156.4328 190.9347 112.4871 165.0289 138.3929 208.9746 104.6034 170.7568 115.6613 220.557 95.3355 173.7681 90.4631 224.548 85.5906 173.7681 65.2649 220.557 76.3228 170.7568 42.5332 208.9746 68.439 165.0289 24.4933 190.9347 62.7111 157.1452 12.9109 168.2031 59.6998 147.8773 8.9199 143.0048 59.6998 138.1324 12.9109 117.8066 62.7111 128.8645 24.4933 95.075 68.439 120.9808 42.5332 77.0351 76.3228 115.2529 65.2649 65.4527 85.5906 112.2416 90.4631 61.4617"/>
      <path class="f" d="M354.2446,180.3648c31.7579-5.4905,34.6734,41.1943,5.6252,42.7006-26.393,1.3686-29.9272-38.4991-5.6252-42.7006ZM355.2423,184.3684c-19.4283,3.2671-17.3168,35.7571,4.6248,34.6918,23.325-1.1325,21.2784-39.0477-4.6248-34.6918Z"/>
      <g>
        <path class="f" d="M28.2602,215.3866c2.3179,2.2253-13.2248,16.6953-12.9752,10.496,1.5335-2.1785,10.0816-13.2741,12.9752-10.496Z"/>
        <path class="f" d="M.2704,243.3762c-1.5008-1.5009,8.6486-13.0146,10.5012-12.9704,6.1324.1463-8.3467,15.1251-10.5012,12.9704Z"/>
        <path class="f" d="M.2704,215.3864c2.3111-2.3111,16.6908,13.3225,10.4949,12.9749-1.3404-1.9147-12.6415-10.8282-10.4949-12.9749Z"/>
        <path class="f" d="M16.2704,231.3864c1.8384-1.8384,12.2624,9.158,11.9899,10.4799-.2248,1.0903-1.6511,1.7347-3.0097,1.0334-1.3804-.7125-10.5557-9.9378-8.9802-11.5133Z"/>
      </g>
      <g>
        <path class="d" d="M282.0197,34.7993c2.3179,2.2253-13.2248,16.6953-12.9752,10.496,1.5335-2.1785,10.0816-13.2741,12.9752-10.496Z"/>
        <path class="d" d="M254.0298,62.789c-1.5008-1.5009,8.6486-13.0146,10.5012-12.9704,6.1324.1463-8.3467,15.1251-10.5012,12.9704Z"/>
        <path class="d" d="M254.0298,34.7992c2.3111-2.3111,16.6908,13.3225,10.4949,12.9749-1.3404-1.9147-12.6415-10.8282-10.4949-12.9749Z"/>
        <path class="d" d="M270.0298,50.7992c1.8384-1.8384,12.2624,9.158,11.9899,10.4799-.2248,1.0903-1.6511,1.7347-3.0097,1.0334-1.3804-.7125-10.5557-9.9378-8.9802-11.5133Z"/>
      </g>
      <g>
        <path class="f" d="M267.5757,195.1436c8.5423-.424,9.0017,11.4848,1.7912,12.7032-9.3996,1.5883-10.1272-12.2895-1.7912-12.7032ZM267.5882,198.9936c-4.2865,1.1536-2.0131,6.204.7022,5.7798,3.0507-.4766,3.9103-7.0211-.7022-5.7798Z"/>
        <path class="f" d="M267.5882,198.9936c4.6125-1.2413,3.753,5.3032.7022,5.7798-2.7154.4242-4.9888-4.6262-.7022-5.7798Z"/>
      </g>
      <g>
        <path class="g" d="M85.2982,135.8446c-.1745.2988-4.2207,3.4587-5.188,4.5766-12.6157,14.5785-18.2664,44.2343-21.8657,63.0405-2.7813,14.5322-9.6325,49.5321-4.6621,62.4264,3.3248,8.6253,16.1935,13.637,24.0175,17.2933l-9.5013,14.5152c-45.9908,12.6423-51.6745,74.2986-16.1125,102.212,11.3706,8.9251,24.5492,8.9508,38.4595,9.8316.3097,6.6231-.4293,16.8534,8.1503,17.8183,11.324,1.2735,43.2178-12.8015,56.2309-16.2225,10.7566-2.8279,22.7226-3.419,33.5994-6.0772,25.9148,5.1175,51.8985,9.9143,77.7304,14.9265,15.8817,3.0815,45.0162,11.8212,59.6543,6.4252,15.683-5.7812,16.2827-26.8505,5.208-37.2619,12.5454-6.7491,20.5635-21.2372,24.708-34.4821,9.2941-29.7018-1.9816-46.5334-29.1916-57.703-1.5527-.6374-10.4637-3.3363-10.5205-3.9039l18.3483-63.7287c.5625-4.379-2.804-7.047-6.9598-6.9848-15.5347.2327-32.3966,2.4794-48.0303,3.364-11.5884.6557-23.2243.9163-34.8035,1.6084-1.0654-4.0859-1.9167-8.244-2.9082-12.3524-3.1319-12.977-6.337-28.2327-10.1637-41.8928-4.91-17.5272-10.2316-34.0062-27.7419-42.6606,6.2492-8.0174,8.5265-16.5959,7.7998-26.7755-.5457-7.6443-3.5698-14.9442-2.6278-22.7593.9441-7.8325,6.5861-13.8051,9.0311-21.132,3.8969-11.6778,1.8346-24.4298-6.6617-33.5155C199.4891,13.8033,188.4965,1.9603,169.9081.2547c-27.7326-2.5446-48.4453,14.2087-56.6004,39.859-4.2009,13.2131-3.2965,27.3039-6.9601,40.5259-5.2056,18.7869-21.0843,29.053-21.5327,50.0101-.0313,1.4643,1.1855,3.993.4833,5.1949ZM88.2156,133.164c-2.2386-16.6608,10.2877-27.312,16.8385-40.4094,8.3809-16.7562,5.7391-35.108,11.3639-52.321,12.6416-38.6862,55.3864-50.5956,84.2671-20.7013,2.7674,2.8645,7.6925,7.7676,9.9934,10.6696,6.3053,7.9523,7.5078,18.8836,4.5149,28.4519-1.8932,6.0526-6.6017,11.3271-8.2645,17.429-4.3076,15.8074,6.7988,30.4384-1.603,46.4474-.5903,1.1248-3.4456,5.3126-4.3856,5.7031l-25.5862-9.0303-.0145-7.9744c16.4437-1.8773,25.2988-16.7177,29.2432-31.3481,1.5657-5.8074,2.0627-11.6692,3.1128-17.5538.163-.9136,1.0667-1.6126,1.0847-2.2892.0455-1.7052-4.1745-3.0503-5.5454-3.9458-6.4856-4.2366-11.7477-9.3662-15.7673-16.0645-1.2419-2.0696-3.9863-9.7681-4.6359-10.4421-2.6958-2.797-4.5139,4.1835-5.6411,6.1119-7.2933,12.4779-24.8193,24.35-39.6013,24.0866-2.054-.0366-3.6245-1.9001-5.5965-2.2133-14.4382-2.2931-17.9752,20.5422-2.4743,25.9392,1.2202.4249,4.2606.5288,4.8872.973.5153.3653,1.2086,3.2632,1.7081,4.1592,1.0795,1.9361,3.4577,4.6463,3.8824,6.7367.2951,1.4524-.2666,9.5916-.4413,11.5984-.2832,3.2531-.9208,6.5729-1.3595,9.814-16.7574,5.1113-35.0144,6.3796-49.9799,16.1729ZM138.3444,120.4158c.304.1827.4005,1.3006.9364,1.5628,1.4777.0876,2.2729-6.8538,2.4438-8.1597.58-4.4336,1.6199-16.0703.4798-19.8989-.2882-.9677-5.5052-11.4307-6.0072-11.8665-1.4382-1.2488-4.5229-.6536-6.8178-1.5562-11.0816-4.3584-8.329-22.7561,2.9454-19.7059,3.8684,1.0466,2.1061,2.5594,8.0578,1.951,12.9026-1.3189,26.6167-8.7975,34.8833-18.7145,1.9181-2.301,3.7285-6.2979,5.3427-8.0615.4605-.5031.5586-.7561,1.3641-.5809,3.3834,9.0406,9.5121,16.0449,17.1345,21.6864,1.7308,1.281,5.7972,2.8524,5.7899,4.8232-.0113,3.0557-1.1794,8.9898-1.8607,12.1675-4.6915,21.8816-16.8031,40.8629-41.9958,32.2909-2.1287-.7243-5.2693-2.6985-6.944-3.1191-1.0021-.2517-1.0225-.2497-1.698.6055-.5099,2.0576,7.1543,8.7858,8.9822,9.9955,3.4504,2.2834,7.0183,3.4909,11.0381,4.3176.2682,2.5864-.5308,5.63,1.4757,7.7456,2.5639.0491.7101-3.0712,2.226-2.7984,1.5736.2832,7.0576,2.2459,8.8017,2.9283.7158.2801,2.8936,1.0789,3.0119,1.7903-3.1107,17.8264-8.8008,35.1356-17.1247,51.1611l-51.3398-53.9202c2.28-.8437,18.0133-5.1616,18.8749-4.6438ZM98.8167,130.9371c3.5035-.9022,14.9933-6.0701,17.8447-4.7564l51.2872,55.4354c.4544,1.7063-3.3975,5.1988-3.7935,7.7377-.9859,6.3214-.3369,17.9234-.6169,25.0847-.5677,14.5205-.3712,32.1966-2.8215,46.3451-.1621.9359-.4523,2.7242-1.418,3.0505-1.2412.4194-7.0667.1528-8.8772.0994-9.9771-.2942-20.1156-1.4751-29.9589-2.9755l-22.1185-12.5003c-.1126-5.4292-1.7472-11.2196-1.1449-16.6158,3.5658-31.9457,23.1862-56.4612,7.6762-90.4965l-6.0587-10.4082ZM190.3547,128.6912c.9294-.9803,10.825,3.7345,12.2779,4.8913,1.4,5.6573,2.5468,11.464,3.2777,17.2529.6558,5.194.3596,10.7547,1.3396,15.9801,1.6328,8.7058,6.7224,17.4353,7.5939,26.4816,1.3026,13.5217-5.4743,23.1462-7.4556,35.983-.6875.8987-3.3264.4449-4.7905.7919-3.3856.8025-6.4026,3.5294-7.9032,6.6159l-6.6525,24.9107-25.0387,1.7477c3.2053-20.3755,3.4922-41.1328,3.8839-61.759.0504-2.6541.0766-4.5845.0304-7.2443-.1286-7.409,6.2812-13.7377,9.6928-20.4579,6.9372-13.665,11.5746-30.0748,13.7443-45.1938ZM166.9074,308.0483c-2.8646,2.592-11.9875-9.3863-15.4905-9.9609-2.0113-.3299-5.3492,2.1789-7.8038,2.5655-7.8114,1.2302-6.6429-2.0345-11.306-4.0585-6.3096-2.7387-19.2814-4.524-26.7922-6.7042-12.0776-3.5058-37.6022-11.5364-46.0674-20.3747-7.248-7.5675-4.6417-25.0773-3.5411-34.8696,2.1674-19.284,6.6244-42.607,11.9316-61.2514,4.5408-15.952,11.2396-33.6535,27.6038-40.5558,1.2457-.2011,3.9307,4.4167,4.5853,5.5378,6.757,11.5721,8.8393,27.1019,7.0889,40.254l-16.384,66.7981c-1.9688-.7414-9.2357-4.1398-10.6464-2.2209l-.2465,1.6981c23.4996,6.6795,43.3446,22.5149,64.7279,33.8283,7.9453.613,16.3085.0512,24.228.8899,5.1975.5504,9.5643,3.3085,13.0751,6.9926l-1.2826,4.1111c-.5557-1.5877-8.1266-7.8338-9.2092-6.6996-.1872.1961-.0082,1.7325.2812,2.2274.6901,1.18,7.6189,4.7355,8.3473,6.6849l-1.3822,6.1697c-3.7896-2.9124-6.599-7.1619-10.7404-9.6341-.6867-.4099-3.4112-2.2936-3.7638-.6922-.4137,1.8787,4.6028,4.235,6.1456,5.5713,3.4703,3.0061,8.6952,7.1285,6.688,12.0173-.6418.6795-10.0112-7.7453-11.2084-8.6096-1.48-1.0684-3.461-2.499-5.0218-3.3539-1.2062-.6607-2.8002-2.2386-3.8631-.5925l10.0468,14.2319ZM209.8873,229.2657c2.1463-12.8276,8.8242-21.8295,7.8366-35.4993-.7204-9.9717-6.0717-19.1345-7.68-28.6303-.8625-5.0928-.6846-10.3602-1.2788-15.4822-.5324-4.5889-1.6738-9.1141-2.2202-13.696,14.1934,8.1989,18.4991,24.7596,22.72,39.5504,4.8734,17.0773,8.5146,34.5602,13.0351,51.7369l-2.5451.9077-29.8676,1.1128ZM330.8757,226.0483c.5228.525.5936,1.6614.7139,2.3942-7.8621,26.3577-13.8701,54.7006-22.6311,80.7238-2.8679,8.5186-4.1564,8.0892-12.8406,8.9369-6.5806.6424-13.4783.5843-20.0825,1.1286l-100.361,8.2603c-1.2251-.4561-1.7527-1.5227-1.4023-2.7954,8.5286-27.6428,13.4362-57.5485,22.3801-84.9318,1.5135-4.6338,3.1022-7.1027,8.49-7.7047,11.8623-1.3253,25.314-.9772,37.3925-1.6802,26.6982-1.5539,54.2842-4.2545,80.9153-5.046,1.6302-.0485,6.4255-.2903,7.4258.7143ZM127.2838,265.0337c12.0739,1.2539,24.4122,2.1828,36.5795,1.6936,4.5675-.1837,10.4615-.6018,14.9767-1.2111.9155-.1235,8.7653-2.4664,8.73-1.3187l-5.0376,19.8272c-9.4677-10.6511-24.8142-6.2786-37.4061-8.0855l-17.8426-10.9055ZM79.932,284.6636c16.8492,5.5754,33.7859,11.016,51.2527,14.454-.0648.7861-2.5106.981-3.136,1.0421-4.2102.4113-8.4413-1.1453-8.0269,5.0964-2.0681-.4051-12.2958-4.2624-13.3508-2.75l.4954,2.4946c4.1851.876,8.4231,1.7081,12.446,3.1843,18.1015,6.6424,35.7414,16.6324,54.3343,22.1552,38.3323-1.9204,76.616-7.5932,114.9264-9.432,1.4693-.0705,2.9964-.065,4.4663-.0045.6762.0278,2.0749-.4239,1.9426.5505-25.8137,10.9823-49.9488,22.473-78.4222,25.1452-45.9657,4.3137-71.8064-17.8153-112.9156-26.6408-46.3649-9.9538-69.0767,15.0458-59.4286,60.6088l4.9054,12.9692c-22.8546-20.4045-23.7471-65.3006,1.4379-84.0431,6.0479-4.5008,14.72-8.3509,22.1531-9.672,2.1781-.3871,12.6107-.8906,13.2681-1.8039.8202-1.1395.0547-2.0392-1.1411-2.254-2.5186-.4524-12.4902,1.5675-13.1154,1.1072l7.9084-12.2071ZM309.801,315.3121l5.5872-18.9964c10.3878,3.6898,21.5734,7.5168,29.571,15.3702-5.4474.1762-10.9753-.6956-16.4538-.2731-6.2276.4803-12.5701,2.8449-18.7044,3.8993ZM126.1675,302.4695c2.788.4709,6.6873-.5308,9.2271-.2988,1.0324.0943,2.2276,1.0697,3.4601,1.2774,4.9476.8337,9.1984-2.58,14.2636-1.4245,2.2659.5169,5.7258,5.4253,8.0286,7.0476,6.8992,4.8601,10.9734-.2745,5.766-6.3307-.0888-.4139.5861-.3825.8272-.2722,2.1816.9985,4.8282,5.0008,7.5445,5.8737l.5479,1.07c-1.4904,2.7675-1.4973,8.1272-2.8799,10.5524-.3209.5628-.4945,1.0139-1.2707.9458l-45.5143-18.4406ZM122.9079,306.8437l.1826-2.6993,47.5729,18.8677c1.7697.6248,1.259,2.4801,1.2646,4.0363l-49.0201-20.2047ZM305.612,324.2549h-9.2096l6.5494-3.2217c11.5774-4.0546,23.5631-7.9034,36.0338-6.7198,10.661,8.8109,12.3862,26.3984,5.0936,37.8332-7.5605,11.8549-32.4703,22.5829-45.701,26.8877-12.5928,4.0972-14.5711.5845-26.0649-1.8895-10.131-2.1807-13.0032,1.0634-21.5579,1.7545-3.2849.2654-14.2515-4.312-17.9752-5.7619-8.4291-3.2818-16.5269-7.4689-24.9453-10.7881l-4.0824-2.3276,29.2774-12.8798c21.3738-1.7614,42.7318-18.6493,63.0987-20.0878,3.1122-.2198,6.2791.238,9.3923-.0964l.919-.7566c.2104-.6729-.2218-1.7735-.8281-1.9461ZM346.0806,316.4359c9.1139,1.8127,10.0687,16.2376,9.5079,23.7649-.6129,8.2262-9.2427,32.9904-15.6024,38.021-1.0729.8486-2.6396.7138-3.1617,1.3384-.3101.371.4048,1.2491-.4429,2.2652-.8528,1.0223-6.3873,4.5645-7.5779,4.7627-7.6245-4.8535-16.3407-5.3629-25.145-5.3467.244-.8499,1.1206-1.3709,1.8427-1.7815,3.5398-2.0131,9.5311-3.5091,13.605-5.3779,17.4072-7.985,34.1802-18.9076,32.5738-40.6273-.4671-6.316-3.3344-11.3305-5.5994-17.0186ZM87.7668,320.5081c38.4334,2.2966,89.775,31.9635,125.6495,47.4288,12.3313,5.3159,25.6768,11.4883,38.7892,14.2507,12.3902,2.6102,43.3028,4.8317,52.0247,11.6174,8.329,6.48,8.9016,23.5963-2.2624,27.3759-10.3931,3.5186-37.6805-4.6007-49.5224-6.8261-50.3367-9.4596-103.3909-18.2792-152.6344-32.1492-16.6807-4.6983-45.6096-12.9286-50.9362-31.7046-1.5566-5.4871-.7203-7.3111,1.8431-12.0938,7.6634-14.2981,21.5096-18.8275,37.0489-17.8989ZM176.3992,347.1687c10.7142,2.5004,22.162,3.855,33.2044,3.3418,2.5681-.1194,5.7794-.889,8.3876-1.107.6093-.0509,2.0832-.4072,1.9396.5466l-19.8096,8.3485-23.722-11.13ZM45.7902,371.4689c-.5067-5.0087,0-11.5508,0-16.7623,0-.1039.8989-.9957,1.1095-.8368.9069,3.0843,2.9726,6.2127,5.0467,8.6426,1.2616,1.478,6.7114,5.8017,6.9757,6.4576.4826,1.1974-1.4367,4.2097.8274,5.3287,1.8315.9052,3.0617-1.7271,3.0607-3.1054,8.3745,5.0514,17.5484,8.8285,27.0776,11.1756-1.8178,3.0517.5578,5.8616.5752,8.0778.008,1.0266-.596,2.1454-.6033,3.3496-.0254,4.1976.068,8.4054.0277,12.5971-5.2695.1171-10.6091-.3854-15.8181-1.2127-12.1525-1.9302-17.561-3.8695-21.9835-16.0049-1.3749-3.7728-.5045-1.1796-1.8743-2.6885-.9745-1.0735-4.2245-13.0719-4.4214-15.0183ZM257.3341,379.5762c10.5563-2.6902,19.3002,2.541,29.3695,3.8366,13.722,1.7655,29.5491-1.6536,39.28,11.5244,6.8377,9.2599,5.4383,26.8026-7.1216,30.3048-3.4776.9697-13.7692.8718-16.8857-.6848-.2348-.1172-.6894-.6593-.5492-.8389,13.72-3.113,15.0282-21.4282,6.1646-30.4846-8.4802-8.6646-36.1848-9.6657-48.7101-12.7059-.5585-.1356-1.6803-.1661-1.5475-.9516ZM99.3711,424.8253c-5.2769-.0902-5.547-5.1261-6.0655-9.2878-.7273-5.8374-1.4687-23.641,1.1195-28.3486,1.2512-2.2758,3.0919-3.1755,5.5048-2.0242-1.7711,2.9259-2.5561,6.3443-2.811,9.7496-.7119,9.5096.1649,20.6726,2.2523,29.9109ZM116.1157,389.0755c-3.0626,5.2251-4.1019,11.0024-3.9259,17.0611.1345,4.6309,1.0274,11.2086,4.4756,14.5016.0253.9302-12.4598,4.1068-14.1515,4.1436-.9501-.2776-1.6974-3.7744-1.883-4.8437-.9787-5.6395-1.6-26.0525.1529-30.8538.3318-.9089,1.3227-3.0811,2.289-3.2672l13.0429,3.2584ZM320.4032,386.2812c13.154,2.3586,19.8752,21.2598,12.5229,31.8073-.5053.7249-5.2085,5.2305-4.1445,2.5589.5399-1.3556,2.175-2.9724,2.8166-5.0057,3.5757-11.3306-1.4574-23.0884-11.195-29.3605ZM180.864,404.15c-20.7489,1.8208-39.7812,9.063-59.4606,15.1157-5.1981.407-6.1138-6.9711-6.3963-10.9252-.4127-5.7769-.5386-15.026,5.2545-18.1076l60.6023,13.9171Z"/>
        <path class="f" d="M330.8757,226.0483c-1.0003-1.0046-5.7956-.7628-7.4258-.7143-26.6311.7916-54.2171,3.4921-80.9153,5.046-12.0785.703-25.5303.3549-37.3925,1.6802-5.3878.6019-6.9765,3.0709-8.49,7.7047-8.944,27.3833-13.8516,57.289-22.3801,84.9318-.3504,1.2727.1772,2.3394,1.4023,2.7954l100.361-8.2603c6.6042-.5443,13.5019-.4862,20.0825-1.1286,8.6842-.8477,9.9727-.4183,12.8406-8.9369,8.761-26.0232,14.769-54.3661,22.6311-80.7238-.1203-.7328-.1911-1.8692-.7139-2.3942Z"/>
        <path class="e" d="M87.7668,320.5081c-15.5393-.9286-29.3855,3.6009-37.0489,17.8989-2.5634,4.7828-3.3998,6.6068-1.8431,12.0938,5.3266,18.776,34.2555,27.0063,50.9362,31.7046,49.2435,13.87,102.2977,22.6896,152.6344,32.1492,11.8419,2.2254,39.1293,10.3447,49.5224,6.8261,11.164-3.7796,10.5915-20.8958,2.2624-27.3759-8.7219-6.7857-39.6345-9.0072-52.0247-11.6174-13.1124-2.7624-26.4579-8.9347-38.7892-14.2507-35.8745-15.4653-87.2162-45.1322-125.6495-47.4288Z"/>
        <path class="e" d="M166.9074,308.0483l-10.0468-14.2319c1.063-1.6461,2.657-.0682,3.8631.5925,1.5608.8549,3.5418,2.2855,5.0218,3.3539,1.1972.8643,10.5666,9.2891,11.2084,8.6096,2.0072-4.8888-3.2177-9.0112-6.688-12.0173-1.5428-1.3364-6.5592-3.6927-6.1456-5.5713.3526-1.6015,3.0771.2822,3.7638.6922,4.1414,2.4722,6.9508,6.7217,10.7404,9.6341l1.3822-6.1697c-.7284-1.9494-7.6572-5.5049-8.3473-6.6849-.2895-.495-.4684-2.0313-.2812-2.2274,1.0826-1.1342,8.6535,5.1119,9.2092,6.6996l1.2826-4.1111c-3.5108-3.684-7.8776-6.4421-13.0751-6.9926-7.9196-.8387-16.2827-.277-24.228-.8899-21.3832-11.3135-41.2283-27.1488-64.7279-33.8283l.2465-1.6981c1.4107-1.919,8.6777,1.4794,10.6464,2.2209l16.384-66.7981c1.7504-13.1521-.3319-28.6819-7.0889-40.254-.6546-1.121-3.3396-5.7389-4.5853-5.5378-16.3641,6.9023-23.063,24.6038-27.6038,40.5558-5.3072,18.6445-9.7641,41.9675-11.9316,61.2514-1.1006,9.7922-3.7069,27.3021,3.5411,34.8696,8.4652,8.8383,33.9898,16.8689,46.0674,20.3747,7.5108,2.1802,20.4826,3.9656,26.7922,6.7042,4.6631,2.024,3.4946,5.2887,11.306,4.0585,2.4546-.3866,5.7925-2.8954,7.8038-2.5655,3.5031.5746,12.6259,12.5529,15.4905,9.9609Z"/>
        <path class="d" d="M98.8167,130.9371l6.0587,10.4082c15.51,34.0353-4.1104,58.5508-7.6762,90.4965-.6023,5.3962,1.0322,11.1866,1.1449,16.6158l22.1185,12.5003c9.8433,1.5003,19.9818,2.6813,29.9589,2.9755,1.8105.0534,7.636.32,8.8772-.0994.9657-.3263,1.2559-2.1146,1.418-3.0505,2.4503-14.1485,2.2538-31.8246,2.8215-46.3451.28-7.1613-.3689-18.7633.6169-25.0847.3959-2.5389,4.2478-6.0314,3.7935-7.7377l-51.2872-55.4354c-2.8514-1.3137-14.3412,3.8542-17.8447,4.7564ZM109.4381,214.7256l-.304-1.6712c3.5404-2.9179,7.6024-4.7561,11.1546-7.8275.8917-.771,5.7147-7.1661,6.4357-3.6044.6199,3.0621-15.2361,14.6661-17.2864,13.1031Z"/>
        <path class="f" d="M88.2156,133.164c14.9654-9.7933,33.2225-11.0617,49.9799-16.1729.4387-3.2411,1.0763-6.5609,1.3595-9.814.1747-2.0068.7364-10.146.4413-11.5984-.4247-2.0904-2.8029-4.8006-3.8824-6.7367-.4996-.896-1.1928-3.7939-1.7081-4.1592-.6266-.4442-3.667-.5482-4.8872-.973-15.5009-5.397-11.9639-28.2323,2.4743-25.9392,1.972.3132,3.5426,2.1767,5.5965,2.2133,14.782.2635,32.3079-11.6087,39.6013-24.0866,1.1272-1.9284,2.9453-8.9089,5.6411-6.1119.6495.6739,3.3939,8.3725,4.6359,10.4421,4.0196,6.6983,9.2818,11.8279,15.7673,16.0645,1.3709.8955,5.5909,2.2406,5.5454,3.9458-.018.6766-.9217,1.3756-1.0847,2.2892-1.0501,5.8846-1.5471,11.7464-3.1128,17.5538-3.9444,14.6303-12.7995,29.4708-29.2432,31.3481l.0145,7.9744,25.5862,9.0303c.9399-.3905,3.7952-4.5783,4.3856-5.7031,8.4018-16.009-2.7046-30.64,1.603-46.4474,1.6628-6.1019,6.3713-11.3764,8.2645-17.429,2.9929-9.5683,1.7904-20.4996-4.5149-28.4519-2.3009-2.902-7.226-7.8051-9.9934-10.6696-28.8807-29.8944-71.6254-17.985-84.2671,20.7013-5.6248,17.213-2.983,35.5648-11.3639,52.321-6.5508,13.0974-19.0771,23.7485-16.8385,40.4094Z"/>
        <path class="e" d="M138.3444,120.4158c-.8615-.5178-16.5949,3.8002-18.8749,4.6438l51.3398,53.9202c8.3239-16.0255,14.014-33.3347,17.1247-51.1611-.1183-.7114-2.2962-1.5102-3.0119-1.7903-1.7442-.6824-7.2281-2.6451-8.8017-2.9283-1.5159-.2728.338,2.8475-2.226,2.7984-2.0064-2.1156-1.2074-5.1592-1.4757-7.7456-4.0198-.8268-7.5878-2.0342-11.0381-4.3176-1.8279-1.2097-9.4921-7.9379-8.9822-9.9955.6755-.8552.6959-.8573,1.698-.6055,1.6747.4207,4.8153,2.3948,6.944,3.1191,25.1927,8.572,37.3043-10.4093,41.9958-32.2909.6813-3.1777,1.8494-9.1118,1.8607-12.1675.0073-1.9708-4.0591-3.5422-5.7899-4.8232-7.6224-5.6415-13.7511-12.6458-17.1345-21.6864-.8055-.1751-.9035.0778-1.3641.5809-1.6142,1.7636-3.4246,5.7605-5.3427,8.0615-8.2666,9.917-21.9808,17.3956-34.8833,18.7145-5.9517.6084-4.1895-.9044-8.0578-1.951-11.2745-3.0502-14.027,15.3475-2.9454,19.7059,2.2949.9026,5.3795.3074,6.8178,1.5562.502.4358,5.719,10.8988,6.0072,11.8665,1.1401,3.8286.1002,15.4653-.4798,19.8989-.1708,1.3059-.9661,8.2473-2.4438,8.1597-.5358-.2622-.6324-1.3801-.9364-1.5628ZM164.8402,64.5016c3.4765.8932,2.5894,9.8015-1.0001,9.8024-4.5336.0011-2.7471-10.7651,1.0001-9.8024ZM181.1431,65.5673c1.2534-.0169.7329,4.7355.8966,5.796.45,2.9144,3.4176,8.0764,3.2919,9.4984-.2138,2.4196-3.6825,4.0768-5.783,4.7122l-1.4648-1.2999,4.479-3.8953c-2.3158-4.1925-5.1372-10.7361-1.4197-14.8114ZM193.8691,66.2051c3.3856,1.0286,2.1813,10.0743-1.9069,9.1359-3.556-.8163-2.9142-10.6006,1.9069-9.1359ZM164.8554,88.0011c.6796.2007,2.8207,2.4732,4.1074,3.1579,2.8499,1.5165,6.1269,2.1149,9.3464,1.7283,1.7518-.2104,4.6872-2.5086,5.343.3185-4.8433,4.3814-14.4892,2.5364-18.9852-1.6578-1.6556-1.5445-3.4553-4.623.1884-3.5469Z"/>
        <path class="e" d="M305.612,324.2549c.6062.1726,1.0385,1.2732.8281,1.9461l-.919.7566c-3.1132.3344-6.2802-.1234-9.3923.0964-20.3669,1.4385-41.7248,18.3264-63.0987,20.0878l-29.2774,12.8798,4.0824,2.3276c8.4184,3.3192,16.5162,7.5062,24.9453,10.7881,3.7237,1.4498,14.6903,6.0272,17.9752,5.7619,8.5546-.691,11.4268-3.9351,21.5579-1.7545,11.4938,2.474,13.4721,5.9867,26.0649,1.8895,13.2307-4.3047,38.1405-15.0328,45.701-26.8877,7.2926-11.4349,5.5673-29.0223-5.0936-37.8332-12.4707-1.1836-24.4564,2.6653-36.0338,6.7198l-6.5494,3.2217h9.2096Z"/>
        <path class="d" d="M79.932,284.6636l-7.9084,12.2071c.6251.4604,10.5968-1.5596,13.1154-1.1072,1.1958.2148,1.9613,1.1144,1.1411,2.254-.6574.9134-11.09,1.4168-13.2681,1.8039-7.4332,1.3211-16.1052,5.1711-22.1531,9.672-25.185,18.7425-24.2925,63.6386-1.4379,84.0431l-4.9054-12.9692c-9.648-45.563,13.0637-70.5626,59.4286-60.6088,41.1092,8.8255,66.9499,30.9545,112.9156,26.6408,28.4734-2.6721,52.6085-14.1628,78.4222-25.1452.1324-.9744-1.2664-.5227-1.9426-.5505-1.4699-.0605-2.997-.066-4.4663.0045-38.3104,1.8388-76.5941,7.5116-114.9264,9.432-18.5928-5.5228-36.2328-15.5128-54.3343-22.1552-4.0229-1.4762-8.261-2.3083-12.446-3.1843l-.4954-2.4946c1.055-1.5124,11.2827,2.3449,13.3508,2.75-.4144-6.2417,3.8167-4.6851,8.0269-5.0964.6254-.0611,3.0712-.256,3.136-1.0421-17.4667-3.4381-34.4035-8.8786-51.2527-14.454ZM222.723,334.8739c.0901.8026.0307,1.3599-.5048,2.0035-.8168.9816-9.6699,2.6802-11.5681,2.947-19.5746,2.751-40.3645-1.061-57.5106-11.0036-1.3913-.8068-5.1045-2.4597-4.6474-4.2774.6755-.8555.6955-.8564,1.697-.6047,2.8697.7213,8.6243,4.584,11.8799,6.0005,13.5562,5.8981,27.6348,8.7148,42.5109,7.7198,6.1293-.41,12.0351-2.6312,18.1431-2.7851Z"/>
        <path class="d" d="M190.3547,128.6912c-2.1697,15.1189-6.8071,31.5288-13.7443,45.1938-3.4116,6.7202-9.8214,13.0489-9.6928,20.4579.0461,2.6598.02,4.5902-.0304,7.2443-.3917,20.6263-.6786,41.3835-3.8839,61.759l25.0387-1.7477,6.6525-24.9107c1.5005-3.0865,4.5176-5.8134,7.9032-6.6159,1.4641-.3471,4.103.1067,4.7905-.7919,1.9813-12.8368,8.7582-22.4613,7.4556-35.983-.8714-9.0462-5.9611-17.7758-7.5939-26.4816-.98-5.2253-.6838-10.7861-1.3396-15.9801-.7309-5.7889-1.8777-11.5955-3.2777-17.2529-1.4529-1.1568-11.3484-5.8717-12.2779-4.8913ZM174.8841,193.6294c3.6522.8403,3.2669,6.77.5712,7.5903-7.3518,2.2374-8.1777-9.3405-.5712-7.5903ZM169.8685,221.607c2.9091-3.6161,9.5031.2399,6.565,5.1854-2.9058,4.891-10.1749-.6982-6.565-5.1854ZM174.5674,253.1387c-4.7754,4.7961-10.4788-4.4349-4.8544-6.8158,4.4839-1.8981,7.9444,3.7123,4.8544,6.8158Z"/>
        <path class="e" d="M209.8873,229.2657l29.8676-1.1128,2.5451-.9077c-4.5205-17.1767-8.1617-34.6597-13.0351-51.7369-4.2209-14.7908-8.5266-31.3515-22.72-39.5504.5464,4.5818,1.6878,9.1071,2.2202,13.696.5943,5.1219.4163,10.3893,1.2788,15.4822,1.6082,9.4958,6.9595,18.6586,7.68,28.6303.9876,13.6698-5.6903,22.6717-7.8366,35.4993Z"/>
        <path class="d" d="M45.7902,371.4689c.1969,1.9464,3.4469,13.9448,4.4214,15.0183,1.3698,1.509.4994-1.0843,1.8743,2.6885,4.4224,12.1354,9.831,14.0747,21.9835,16.0049,5.209.8273,10.5486,1.3298,15.8181,1.2127.0403-4.1918-.0531-8.3995-.0277-12.5971.0073-1.2042.6113-2.323.6033-3.3496-.0174-2.2162-2.393-5.026-.5752-8.0778-9.5292-2.3471-18.703-6.1242-27.0776-11.1756.001,1.3783-1.2291,4.0107-3.0607,3.1054-2.2641-1.119-.3448-4.1313-.8274-5.3287-.2643-.6558-5.7141-4.9796-6.9757-6.4576-2.0742-2.4299-4.1399-5.5583-5.0467-8.6426-.2106-.1589-1.1095.7329-1.1095.8368,0,5.2116-.5067,11.7537,0,16.7623Z"/>
        <path class="e" d="M180.864,404.15l-60.6023-13.9171c-5.7931,3.0816-5.6672,12.3307-5.2545,18.1076.2825,3.9541,1.1981,11.3322,6.3963,10.9252,19.6793-6.0527,38.7117-13.2949,59.4606-15.1157Z"/>
        <path class="e" d="M257.3341,379.5762c-.1328.7855.989.816,1.5475.9516,12.5253,3.0401,40.2298,4.0412,48.7101,12.7059,8.8636,9.0564,7.5554,27.3715-6.1646,30.4846-.1401.1796.3145.7217.5492.8389,3.1165,1.5566,13.4081,1.6545,16.8857.6848,12.5599-3.5022,13.9593-21.0448,7.1216-30.3048-9.7309-13.178-25.558-9.7588-39.28-11.5244-10.0694-1.2956-18.8133-6.5267-29.3695-3.8366Z"/>
        <path class="d" d="M346.0806,316.4359c2.265,5.6882,5.1323,10.7026,5.5994,17.0186,1.6064,21.7198-15.1666,32.6423-32.5738,40.6273-4.0739,1.8688-10.0652,3.3648-13.605,5.3779-.7221.4107-1.5987.9317-1.8427,1.7815,8.8043-.0162,17.5205.4932,25.145,5.3467,1.1906-.1981,6.7251-3.7404,7.5779-4.7627.8477-1.0161.1328-1.8942.4429-2.2652.5221-.6247,2.0889-.4898,3.1617-1.3384,6.3597-5.0306,14.9895-29.7948,15.6024-38.021.5608-7.5272-.394-21.9521-9.5079-23.7649Z"/>
        <path class="d" d="M127.2838,265.0337l17.8426,10.9055c12.5919,1.807,27.9385-2.5655,37.4061,8.0855l5.0376-19.8272c.0353-1.1477-7.8145,1.1951-8.73,1.3187-4.5152.6093-10.4093,1.0274-14.9767,1.2111-12.1673.4893-24.5056-.4397-36.5795-1.6936Z"/>
        <path class="e" d="M116.1157,389.0755l-13.0429-3.2584c-.9663.1862-1.9572,2.3583-2.289,3.2672-1.7529,4.8012-1.1316,25.2143-.1529,30.8538.1856,1.0693.9329,4.5661,1.883,4.8437,1.6917-.0367,14.1767-3.2134,14.1515-4.1436-3.4482-3.293-4.3411-9.8708-4.4756-14.5016-.176-6.0587.8633-11.836,3.9259-17.0611Z"/>
        <path class="f" d="M126.1675,302.4695l45.5143,18.4406c.7762.0681.9499-.383,1.2707-.9458,1.3827-2.4251,1.3896-7.7848,2.8799-10.5524l-.5479-1.07c-2.7163-.8729-5.3629-4.8753-7.5445-5.8737-.2411-.1103-.9159-.1417-.8272.2722,5.2074,6.0562,1.1332,11.1909-5.766,6.3307-2.3029-1.6222-5.7627-6.5307-8.0286-7.0476-5.0652-1.1555-9.316,2.2582-14.2636,1.4245-1.2325-.2077-2.4278-1.1831-3.4601-1.2774-2.5397-.2321-6.4391.7696-9.2271.2988Z"/>
        <path class="d" d="M309.801,315.3121c6.1343-1.0544,12.4768-3.419,18.7044-3.8993,5.4785-.4225,11.0064.4492,16.4538.2731-7.9976-7.8534-19.1832-11.6803-29.571-15.3702l-5.5872,18.9964Z"/>
        <path class="d" d="M176.3992,347.1687l23.722,11.13,19.8096-8.3485c.1436-.9538-1.3303-.5975-1.9396-.5466-2.6082.2179-5.8195.9876-8.3876,1.107-11.0424.5132-22.4902-.8414-33.2044-3.3418Z"/>
        <path class="e" d="M99.3711,424.8253c-2.0874-9.2383-2.9642-20.4013-2.2523-29.9109.2549-3.4053,1.0399-6.8237,2.811-9.7496-2.4129-1.1513-4.2536-.2517-5.5048,2.0242-2.5881,4.7076-1.8468,22.5112-1.1195,28.3486.5185,4.1618.7886,9.1977,6.0655,9.2878Z"/>
        <path class="f" d="M122.9079,306.8437l49.0201,20.2047c-.0056-1.5562.5051-3.4115-1.2646-4.0363l-47.5729-18.8677-.1826,2.6993Z"/>
        <path class="e" d="M320.4032,386.2812c9.7376,6.2722,14.7707,18.03,11.195,29.3605-.6417,2.0333-2.2767,3.6501-2.8166,5.0057-1.064,2.6715,3.6392-1.8341,4.1445-2.5589,7.3524-10.5475.6311-29.4486-12.5229-31.8073Z"/>
        <path class="g" d="M109.4381,214.7256c2.0503,1.5629,17.9063-10.041,17.2864-13.1031-.721-3.5616-5.5441,2.8335-6.4357,3.6044-3.5522,3.0714-7.6143,4.9095-11.1546,7.8275l.304,1.6712Z"/>
        <path class="g" d="M164.8554,88.0011c-3.6437-1.0761-1.844,2.0024-.1884,3.5469,4.496,4.1941,14.1419,6.0392,18.9852,1.6578-.6558-2.8271-3.5912-.5289-5.343-.3185-3.2195.3866-6.4966-.2118-9.3464-1.7283-1.2867-.6847-3.4277-2.9572-4.1074-3.1579Z"/>
        <path class="g" d="M181.1431,65.5673c-3.7175,4.0753-.8961,10.619,1.4197,14.8114l-4.479,3.8953,1.4648,1.2999c2.1005-.6353,5.5691-2.2926,5.783-4.7122.1257-1.4221-2.8418-6.584-3.2919-9.4984-.1638-1.0605.3567-5.8129-.8966-5.796Z"/>
        <path class="g" d="M193.8691,66.2051c-4.8212-1.4647-5.4629,8.3196-1.9069,9.1359,4.0882.9384,5.2925-8.1073,1.9069-9.1359Z"/>
        <path class="g" d="M164.8402,64.5016c-3.7472-.9628-5.5337,9.8035-1.0001,9.8024,3.5895-.0009,4.4766-8.9091,1.0001-9.8024Z"/>
        <path d="M222.723,334.8739c-6.1079.1539-12.0138,2.3751-18.1431,2.7851-14.8761.995-28.9547-1.8216-42.5109-7.7198-3.2556-1.4165-9.0102-5.2792-11.8799-6.0005-1.0015-.2517-1.0216-.2509-1.697.6047-.4571,1.8177,3.2561,3.4706,4.6474,4.2774,17.1462,9.9426,37.936,13.7546,57.5106,11.0036,1.8982-.2668,10.7513-1.9653,11.5681-2.947.5355-.6436.5949-1.2009.5048-2.0035Z"/>
        <path class="g" d="M174.5674,253.1387c3.0901-3.1034-.3704-8.7139-4.8544-6.8158-5.6245,2.3809.0789,11.6118,4.8544,6.8158Z"/>
        <path class="g" d="M169.8685,221.607c-3.6099,4.4872,3.6592,10.0764,6.565,5.1854,2.9381-4.9455-3.6559-8.8015-6.565-5.1854Z"/>
        <path class="g" d="M174.8841,193.6294c-7.6065-1.7502-6.7806,9.8277.5712,7.5903,2.6957-.8204,3.081-6.75-.5712-7.5903Z"/>
      </g>
      <g>
        <path class="g" d="M247.0774,128.7136c6.0437-5.2658,14.4644-5.5648,21.537-2.2869,2.7246-4.2713,5.2051-8.4271,10.4146-9.7223,1.7982-.4471,5.541.2247,6.4211-.3772,1.823-1.2469,3.6425-8.0987,9.2995-11.2227,4.6912-2.5907,10.4369-1.5443,12.5863-2.7434,1.499-.8363,2.4439-4.8792,4.8248-6.5592,19.2771-13.6019,38.9676,21.6501,32.7558,38.4616,9.7564-7.3143,6.747-18.4858,5.0943-28.7314l6.4376-2.1679c7.3529,15.386,4.681,35.9684-13.9527,41.1643-3.0332.8458-8.0589-.3964-9.9675.6712-1.6619.9297-2.0137,4.1639-3.1885,5.9074-3.8201,5.6691-11.2828,9.3115-18.0699,7.2319-10.3799,29.2282-35.435,8.6883-42.4122-11.0026-2.2577-6.3716.1728-14.9338-9.08-14.6029-6.2151.2222-11.9703,7.6536-12.7-4.0198ZM249.4161,130.2916c1.5081,3.542,4.9362.1486,7.5536-.2983,12.556-2.144,21.4094,10.8251,25.5215,20.7737,1.0998,2.6607.4774,7.6028,4.2884,7.845-1.3964-17.5907-18.5793-39.0916-37.3634-28.3203ZM269.246,137.4509c1.6273,9.4463,4.924,17.1889,11.4492,24.3073,9.1712,10.005,23.9788,12.8858,27.0968-3.6095,2.1569-11.4108-3.2147-25.6072-12.0078-33.0397-6.6928-5.6573-17.432-9.1917-23.0186-.1772-.9383,1.514-2.4546,4.4265.9445,3.6266,5.6216-10.7927,15.7603-6.4726,22.3882.6805,6.6335,7.1592,11.1046,18.0539,9.0069,27.8511-4.1947,19.5908-22.4067,6.4038-28.4602-4.7638-2.4675-4.552-3.2634-10.8851-5.3155-14.3831-.5975-1.0186-1.4964-2.0944-2.0835-.4921ZM289.4506,162.3672c3.901,5.0305,14.5211-.1025,12.7422-6.4927-.2976-1.0692-6.1987-5.5786-7.81-7.5008-3.6176-4.3156-6.0771-8.8623-7.9794-14.1856-1.3294-3.7201-.1904-11.0755-6.2695-8.8807-2.3002.8305-3.7078,3.6126-4.0553,5.9131,7.5421,6.7147,11.9904,14.7743,13.279,24.842.2622,2.0484-.8384,5.1036.0931,6.3048ZM287.7561,126.6277c1.2797,9.4742,6.3054,20.9679,15.4251,24.8567-1.5378-5.3234-7.0291-8.4804-9.7392-13.8968-1.5481-3.0941-1.5596-6.0162-2.9402-8.7934-.3185-.6407-1.7216-2.8091-2.7457-2.1665ZM328.4949,134.9088c2.2134-7.0566-5.1016-18.0063-10.143-22.726-9.2425-8.6526-24.9792-9.5811-29.5125,4.2042-.6745,2.0513,1.3775,1.5509,2.3792,2.2126,6.8557-17.3579,24.7194-9.6588,31.6577,3.4467,2.3577,4.4535,2.6235,9.1772,5.6186,12.8625ZM293.6702,118.617c-.1907,1.5708,5.5156,5.5367,6.9974,7.2381,6.1334,7.0428,9.6349,14.2775,10.3023,23.6847,7.1256,2.7312,11.36-1.773,12.6701-8.4725-10.581-7.0076-16.3197-17.186-17.5565-29.7434-6.5645-.797-8.9919,2.4217-12.4133,7.293ZM311.729,156.0795c.3271.211,6.8384-.4387,7.7467-.7665,5.105-1.8421,8.3358-7.0132,9.8728-11.9525l-2.7751-1.0981c-1.7043,6.7541-7.6945,12.9763-15.0425,10.2537-.7424.9763-.6938,2.9881.1982,3.5634ZM309.041,113.6539c2.174,13.5847,14.3311,29.2078,29.1603,28.6335,16.5818-.6421,22.4654-19.6199,17.6347-33.1729-.5065-1.421.0496-2.4082-2.1639-2.77-.072,7.1817,2.1434,12.1858.1064,19.4446-6.424,22.8906-32.4446,13.4477-40.0085-3.612-1.0987-2.4779-.6161-10.1229-4.729-8.5232ZM310.5098,104.1956c1.1397,2.9161,5.1736-4.4353,6.5763-5.0791,3.0181-1.3852,7.5791-.0362,10.3123,1.6053,11.3191,6.798,15.615,23.1079,10.7793,35.0868,3.4296,2.3138,4.7204-5.8513,4.8381-8.4359.528-11.5993-10.3456-35.3718-24.7555-31.4516-2.8638.7791-8.7941,5.6043-7.7505,8.2745ZM324.0242,101.8908c-3.5898-1.3298-7.7048.1465-8.9622,4.023,9.9428,6.5436,16.2238,17.6981,17.3061,29.4924,3.9471,2.0464,5.053-6.793,5.0593-9.5884.0187-8.3493-5.0693-20.8398-13.4031-23.927Z"/>
        <path class="d" d="M269.246,137.4509c.5871-1.6024,1.486-.5265,2.0835.4921,2.0521,3.498,2.848,9.8311,5.3155,14.3831,6.0535,11.1676,24.2655,24.3546,28.4602,4.7638,2.0977-9.7972-2.3734-20.6919-9.0069-27.8511-6.6279-7.1531-16.7667-11.4732-22.3882-.6805-3.3992.7999-1.8828-2.1126-.9445-3.6266,5.5866-9.0145,16.3258-5.4801,23.0186.1772,8.793,7.4326,14.1647,21.6289,12.0078,33.0397-3.118,16.4954-17.9256,13.6145-27.0968,3.6095-6.5252-7.1184-9.8219-14.8609-11.4492-24.3073Z"/>
        <path class="d" d="M309.041,113.6539c4.1129-1.5997,3.6303,6.0452,4.729,8.5232,7.564,17.0597,33.5845,26.5027,40.0085,3.612,2.0371-7.2588-.1784-12.2629-.1064-19.4446,2.2135.3618,1.6574,1.349,2.1639,2.77,4.8307,13.553-1.0529,32.5307-17.6347,33.1729-14.8292.5743-26.9863-15.0488-29.1603-28.6335Z"/>
        <path class="d" d="M310.5098,104.1956c-1.0436-2.6703,4.8867-7.4954,7.7505-8.2745,14.4099-3.9202,25.2835,19.8523,24.7555,31.4516-.1177,2.5846-1.4085,10.7498-4.8381,8.4359,4.8357-11.9789.5398-28.2888-10.7793-35.0868-2.7332-1.6415-7.2942-2.9905-10.3123-1.6053-1.4026.6438-5.4366,7.9952-6.5763,5.0791Z"/>
        <path class="d" d="M328.4949,134.9088c-2.9952-3.6853-3.2609-8.4091-5.6186-12.8625-6.9383-13.1055-24.8019-20.8046-31.6577-3.4467-1.0017-.6616-3.0538-.1613-2.3792-2.2126,4.5332-13.7854,20.27-12.8569,29.5125-4.2042,5.0415,4.7197,12.3565,15.6695,10.143,22.726Z"/>
        <path class="d" d="M249.4161,130.2916c18.7841-10.7713,35.9671,10.7296,37.3634,28.3203-3.811-.2422-3.1886-5.1843-4.2884-7.845-4.1121-9.9486-12.9654-22.9177-25.5215-20.7737-2.6174.4469-6.0454,3.8403-7.5536.2983Z"/>
        <path class="d" d="M287.7561,126.6277c1.0241-.6426,2.4272,1.5258,2.7457,2.1665,1.3806,2.7772,1.3921,5.6994,2.9402,8.7934,2.7101,5.4164,8.2015,8.5734,9.7392,13.8968-9.1196-3.8888-14.1454-15.3825-15.4251-24.8567Z"/>
        <path class="d" d="M311.729,156.0795c-.8919-.5753-.9406-2.587-.1982-3.5634,7.348,2.7226,13.3383-3.4996,15.0425-10.2537l2.7751,1.0981c-1.537,4.9393-4.7677,10.1104-9.8728,11.9525-.9083.3278-7.4196.9774-7.7467.7665Z"/>
      </g>
    </g>
  </g>
</svg>