<?xml version="1.0" encoding="UTF-8"?>
<svg id="b" data-name="Capa 2" xmlns="http://www.w3.org/2000/svg" viewBox="0 0 380.2463 857.2617">
  <defs>
    <style>
      .d {
        fill: #8bc1a7;
      }

      .e {
        fill: #fff;
      }

      .f {
        fill: #96f;
      }

      .g {
        fill: #21211f;
      }
    </style>
  </defs>
  <g id="c" data-name="Capa 1">
    <g>
      <path class="d" d="M144.9854,359.7963c.7258.631.7088,2.1472.9362,4.724.3477,4.2618.8888,10.9022,1.2389,15.1937.3717,2.6157-.3226,5.1354,2.576,5.7445,4.8217,1.4805,16.5228.1326,21.3576,3.8022,1.2599.9399,1.7142,2.4917.9658,3.8915-2.2386,4.5853-12.8314,11.7431-17.379,16.2656-2.9287,2.5759-1.6241,6.0731-.1511,9.3359,1.4566,3.2861,3.7252,7.2025,4.9127,10.4151,1.9768,4.7673-.6134,6.5088-5.4257,6.2018-3.8134-.2185-8.532-1.6241-12.3047-2.5837-2.4324-.4364-4.9354-1.705-6.9922-.3418-.732.5735-1.2533,1.7109-1.6398,2.6833-2.2116,5.6789-3.8344,16.6141-7.319,18.8455-5.6286,3.8226-12.5389-17.7741-17.9742-18.793-5.215-1.0831-20.8332,8.3892-23.2796,2.0252-1.8528-5.3677,8.8584-16.2143,7.2202-23.9185-.8025-2.4128-2.9504-3.6523-5.0432-5.1139-3.6858-2.7478-12.2589-6.0174-11.4168-11.2964,1.2751-5.2089,16.5453-5.7794,22.1969-8.2712,3.0484-1.026,2.3005-3.5149,2.4901-6.3681.1115-4.2447.2827-10.7194.394-14.9525.0772-2.3879-.0312-3.9069.7885-4.4872,6.2258-1.9416,14.3759,8.6097,19.2127,10.837,2.4375,1.4377,4.9796.6046,7.1604-1.094,4.0862-2.451,13.0341-15.2205,17.4319-12.7823l.0435.0373Z"/>
      <g>
        <path class="f" d="M67.3655,353.3484c2.3179,2.2253-13.2248,16.6953-12.9752,10.496,1.5335-2.1785,10.0816-13.2741,12.9752-10.496Z"/>
        <path class="f" d="M39.3757,381.338c-1.5008-1.5009,8.6486-13.0146,10.5012-12.9704,6.1324.1463-8.3467,15.1251-10.5012,12.9704Z"/>
        <path class="f" d="M39.3757,353.3482c2.3111-2.3111,16.6908,13.3225,10.4949,12.9749-1.3404-1.9147-12.6415-10.8282-10.4949-12.9749Z"/>
        <path class="f" d="M55.3757,369.3482c1.8384-1.8384,12.2624,9.158,11.9899,10.4799-.2248,1.0903-1.6511,1.7347-3.0097,1.0334-1.3804-.7125-10.5557-9.9378-8.9802-11.5133Z"/>
      </g>
      <g>
        <path class="f" d="M5.7888,433.6135c8.5423-.424,9.0017,11.4848,1.7912,12.7032-9.3996,1.5883-10.1272-12.2895-1.7912-12.7032ZM5.8013,437.4635c-4.2865,1.1536-2.0131,6.204.7022,5.7798,3.0507-.4766,3.9103-7.0211-.7022-5.7798Z"/>
        <path class="f" d="M5.8013,437.4635c4.6125-1.2413,3.753,5.3032.7022,5.7798-2.7154.4242-4.9888-4.6262-.7022-5.7798Z"/>
      </g>
      <g>
        <path class="f" d="M313.8063,423.7318c8.5423-.424,9.0017,11.4848,1.7912,12.7032-9.3996,1.5883-10.1272-12.2895-1.7912-12.7032ZM313.8188,427.5818c-4.2865,1.1536-2.0131,6.204.7022,5.7798,3.0507-.4766,3.9103-7.0211-.7022-5.7798Z"/>
        <path class="f" d="M313.8188,427.5818c4.6125-1.2413,3.753,5.3032.7022,5.7798-2.7154.4242-4.9888-4.6262-.7022-5.7798Z"/>
      </g>
      <g>
        <path class="g" d="M79.0829,31.3501c-2.8-.3732-5.3885-.5836-7.7953,1.251-.9775.7451-1.5541,2.5424-2.5166,2.7652-.8324.1926-1.8451-.5374-2.7711-.4721-4.1248.291-6.1456,4.5522-6.5787,4.6499-.9604.2166-2.2603-.1976-3.3501.0203-3.1367.6269-5.2088,2.8778-5.5884,6.0844,1.4232,10.9407,1.0968,23.6946,6.9001,33.4239,1.4785,2.4787,5.5517,5.813,5.9145,8.0983,2.3838,30.5816,1.0808,63.7055,7.306,93.7397,3.2818,15.8332,16.6504,39.4877,24.72,54.1107,12.6001,22.8329,28.4295,43.3823,41.8109,65.6238,6.2232,30.4817,17.1671,60.1569,18.9884,91.4195-20.3199,43.113-29.4406,87.2513-34.9545,134.4037-3.4163,29.2144-3.8682,60.1614-11.3224,88.5508-2.3409,8.9153-5.4673,17.6906-7.8374,26.6176-12.0479,45.3776-18.0878,92.1791-26.3946,138.3615-.0099,3.5846,4.5742,1.5799,3.933,6.1865-3.1961,22.9609-25.3772,35.223-38.3718,50.9847-10.7304,13.0154-1.1766,17.6047,11.5195,19.3923,9.0463,1.2737,25.2325,1.3143,32.7583-4.274,4.1262-3.0639,5.5281-7.4969,8.7918-10.475,4.0425-3.6888,10.2016-3.4646,13.0825-9.1004,3.5108-6.8679.8254-16.4863,1.5884-24.1113.241-2.408,4.2657-17.3097,5.4672-18.4761,1.6152-1.5682,5.9682-.1648,6.8295-3.0934,38.6458-88.4935,66.0147-181.2124,88.7455-275.0702l2.4537-5.7182c.0466,22.7719,2.8552,45.3908,4.376,68.0597,2.5468,37.9643,2.6762,73.5745.5657,111.5854.0444,1.3812.5736,2.658.6316,4.0407,1.304,31.0743,5.3155,61.894,8.1911,92.8536.8546,3.9807,4.3964,2.6521,4.6576,3.6155-.3674,6.3071.3786,12.9424-.0416,19.2054-.5352,7.9757-6.3653,22.6746-1.4671,28.9346,4.589,5.8648,18.8414,6.0713,26.134,8.8858,6.127,2.3646,11.8741,6.6643,18.2626,8.5879,8.5862,2.5852,29.1265,4.179,37.4843,1.3791,4.9784-1.6678,7.6533-5.5154,5.649-10.6838-4.1288-10.6465-34.0316-24.3101-43.475-33.5784-7.0072-6.8773-6.3807-14.155-5.8575-23.3166.2897-1.0973,3.6285.5189,4.0661-3.0195,2.5943-20.9789,3.3789-43.0572,5.3101-64.2142,2.2358-24.4943,4.2612-49.1602,7.004-73.5977,8.3757-74.6256,31.6388-158.9777-5.1563-229.0821-5.3671-10.2257-12.8048-18.7537-18.0873-28.0394-5.1017-8.9677-4.0325-31.9372-1.1054-41.7904.576-.5965.5691-4.4939,1.8707-3.9562,1.1396.4707,10.7846,16.9712,12.5414,19.5752,7.0069,10.3861,14.2735,21.0653,27.3193,24.0548,8.2886,1.8993,15.6056.8848,20.5548-6.5289,15.241-22.8304-8.3006-63.0994-15.629-86.0212-2.2144-10.5631,8.8092-14.6514,7.4617-25.5808-.7048-5.7166-2.7371-12.4557-4.9763-17.7953-1.4082-3.3582-5.127-6.0944-5.5428-10.5088,13.0554,3.2899,25.5708,9.9542,36.9501,17.0364,5.9641,3.712,9.1165,8.5103,17.0216,2.8154,19.6737-14.173,16.6203-76.3808.5444-93.4154-9.4819-10.0473-15.2342-1.7605-23.1696,3.5922-11.2054,7.5584-23.7569,14.6937-36.7232,18.7298-10.5129,3.2724-21.6049,4.0892-32.5538,4.5052,1.0041-9.062,1.2013-18.157-1.3308-26.9948-7.0081-24.46-34.4901-44.982-60.0876-35.9501-1.5534.5481-4.2954,2.4994-5.469,2.6165-2.6478.264-9.0867-1.3923-13.3639-1.0248-17.4793,1.5019-30.1814,18.8124-34.2787,34.6117-2.9734,11.4655-1.5426,22.609-3.5985,33.7816-1.0144,5.5122-3.3996,12.5289-8.1761,15.7402l-26.284-39.1314-18.9951-91.4087c-.2017-4.6089,3.8439-8.3146,5.7874-12.3589,4.6178-9.6095,6.9925-22.2561-5.1943-26.8838-1.6743-11.8611-1.5502-26.5487-5.2175-37.8807-1.3238-4.0904-5.266-11.0082-9.9457-5.8496-4.0557,4.4708-.4845,23.2555.0143,29.5123ZM81.4931,3.3973c3.0794-.8024,4.1858,2.8295,4.8976,5.1641,3.3028,10.833,2.9242,24.4209,4.9454,35.6399-.3247.3384-8.2196-2.0085-8.6561-3.3033-.604-1.7919-.4085-8.5055-.6795-11.0023-.4512-4.1574-3.6369-24.5745-.5074-26.4985ZM80.8328,54.1449c-.8285,3.6067-3.7248,3.4127-5.7458.78-2.858-3.723-6.5004-19.8682-.2383-21.132,4.3323-.8743,5.495,3.4004,5.4074,6.9064-10.9495-.1531-6.8958,11.0066.5768,13.4456ZM67.6264,37.8568c1.6564.5563.7708,4.447.9643,6.0471.193,1.5957.6097,3.2963.9691,4.8712.5971,2.6165,4.7144,10.2233.4578,10.6295-5.0612.4829-8.2129-12.5236-8.2846-16.242-.0586-3.0385,2.6754-6.3866,5.8934-5.3057ZM58.5907,42.5249c.6676,3.1386,1.2141,6.2729,1.9887,9.3986.7263,2.9306,4.1432,7.512.1033,8.6477-5.1835.5102-12.4049-19.7754-2.092-18.0463ZM80.46,63.1037c1.9839-2.0942,6.9583-4.0634,7.9658-5.165,2.7755-3.0348-4.8537-5.1146-6.9584-6.4807-5.7958-3.7619-8.5178-9.7051,1.243-7.0854,4.9255,1.3219,15.8623,5.0066,17.108,10.3308,2.6521,11.3357-6.5955,19.2451-9.6486,28.9197l19.0861,93.0574c14.5717,19.9669,27.4923,47.918,46.9019,63.448,4.2113,3.3696,5.3174,1.3894,5.8114,8.2014,1.0768,14.85-2.929,38.6876-10.2242,51.7332-.8271,1.4791-7.2695,11.7186-9.0546,9.9197.1363-2.147-.5691-4.1356-1.1597-6.1452-4.2044-14.3077-17.3655-28.764-25.6962-41.451-12.5435-19.1028-24.7681-40.655-34.3324-61.4276-12.3006-26.7154-11.7173-53.9956-13.4791-82.8871-.402-6.5928-.713-30.2647-2.9258-34.455-1.025-1.941-2.8194-3.0411-3.9998-4.7578-3.5615-5.1797-5.5141-11.4392-5.9325-17.7123,1.533-.0657,2.0614,1.6225,3.4664,2.0744,4.3985,1.4149,5.8721-2.5036,6.7302-2.5287.4156-.0121,2.4218,1.9181,4.6354,1.62,1.7451-.235,3.3533-2.4838,4.7782-3.3701l5.4773.455c-5.1174,4.7524-7.3114,9.7958-6.4215,16.9368h2.9238c-.3455-4.8629.2219-9.5531,3.7054-13.2303ZM183.4545,238.0535c-3.2816-.3347-6.3022,4.4335-7.8077,4.7411-1.767.3611-5.5344-.324-7.4149-.7341-11.1899-2.4403-19.9943-14.3654-26.5905-23.0155,1.8115-3.8566,4.7725-6.8333,6.4032-10.889,4.3389-10.7913,2.4702-22.7153,4.0473-33.9164,2.5507-18.1154,15.7277-39.2101,35.7929-40.1003,3.9462-.1751,7.7759,1.4962,11.0461,1.1535,2.6655-.2793,6.2331-2.8157,9.2383-3.6336,16.128-4.3894,34.3558,5.5899,43.8761,18.3219,9.8492,13.172,12.0347,26.8814,9.6026,43.0979-3.1021.2861-5.2182,1.6099-7.5035,3.5809-1.0075-12.8252-16.8766-11.5435-26.4176-15.325-9.9111-3.9282-18.4284-11.2187-24.4869-19.8807-.9206-1.3162-4.2845-7.798-4.8987-7.9835-.5378-.1625-.9271-.0165-1.3981.2337-1.0057.5342-5.2368,9.617-6.5179,11.5949-4.5703,7.0556-10.5176,12.7951-18.3528,16.0912-3.5748,1.5039-7.6576,1.9144-10.8976,3.6942-9.5997,5.2735-5.99,20.697,3.2806,24.5406,1.8588.7707,5.2959.7812,6.2448,1.3424.4737.2802,4.3337,7.5853,5.8484,9.3326,2.0654,2.3825,4.5125,3.9548,6.6808,6.1629l.2251,11.5904ZM209.4997,229.9555c-2.6772.2835-5.7344-.2054-8.4609,0,2.8397,5.8442,9.9335,7.3594,15.7817,8.4428l1.6747,7.527c1.3988,1.2312,3.7602,1.3134,4.9269,2.861,1.67,2.2154,3.5071,9.7291,4.1719,12.7063,1.2937,5.7929,1.9679,11.7756,2.5253,17.6812-5.0604,10.366-17.8841,11.2204-27.786,8.1902-9.7201-2.9746-22.7629-14.8143-22.3227-25.6008.2554-6.257,1.468-15.732,6.4456-19.8279l.5832-16.3657c-1.9824-2.5647-4.9677-4.0835-7.3059-6.7054-6.2927-7.0562-9.882-17.7452-10.2319-27.1488-.2838-7.6258,5.4184-7.0176,10.7187-10.346,7.8528-4.9313,13.6135-13.1284,17.3243-21.5073,8.3793,13.0006,18.6364,21.5135,33.392,26.437,2.1407.7143,9.3927,1.5345,9.7867,3.6364,1.2195,6.5051-3.4976,20.4911-7.34,25.961-4.9244,7.01-15.3376,13.154-23.8839,14.059ZM332.4086,195.4146c.2571-15.1208,13.5596-47.9454,27.6627-20.3932,9.4873,18.5347,10.2149,53.0429,1.9329,72.0827-2.083,4.7887-6.3601,12.1166-12.3989,11.431-8.7262-.9907-15.0217-21.3104-16.1676-28.8804l.4186-.9293c10.2255-4.9164,20.4537-3.8266,19.4662-18.3309-.9105-13.3726-11.4225-10.5373-20.9139-14.9799ZM286.3443,193.853c12.6284-2.1276,24.9052-7.0948,36.0767-13.2435,4.1549-2.2868,7.9168-5.3239,12.2381-7.3112-9.4063,24.3378-8.8486,53.4569,2.3369,77.0957-5.9682-2.4162-11.4044-6.0803-17.2964-8.6729-10.1096-4.4483-21.1146-7.8619-32.2077-8.3578-6.0015-12.4214-6.9794-26.8322-1.1475-39.5103ZM169.5259,207.7563c-7.7479-1.2979-12.2287-8.0426-10.2249-15.7853.6855-2.6488,5.0253-6.517,7.2267-3.6955-.2383,6.6996,1.216,13.1206,2.9981,19.4808ZM244.221,189.6503c4.1861.0396,7.2324,4.3562,6.867,8.3629-.1873,2.0538-2.4716,1.9697-3.9163,3.0668-2.9685,2.2542-3.512,4.1918-3.8089,7.8667l-3.2254,1.1462c2.0921-6.6441,3.8738-13.4196,4.0835-20.4425ZM283.897,233.4602h-22.4651c-3.7006,0-7.4731-12.3983-7.8055-15.5511-.6756-6.408.1807-20.0747,8.0651-21.573,6.3969-1.2156,14.0679-.3322,20.4492-2.0119-4.208,13.1067-4.0248,26.5596,1.7563,39.136ZM331.7476,198.4153l12.7531,4.3627c-2.6377,5.9225-2.2571,12.6939.6635,18.4067l-11.4051,4.6875-1.3359-.9783c-1.0412-8.8126-1.7469-17.6265-.6757-26.4785ZM252.9709,228.1973c-4.6164-.081-5.4919-2.9593-6.2681-6.8621-.9567-4.8106-1.8761-17.0348,4.2375-18.825,1.3514-.3957.7397.6244.6385,1.2212-.3617,2.1328-1.3148,4.3912-1.516,6.6651-.5465,6.1738.5138,12.1283,2.9081,17.8007ZM346.9219,203.6724c1.8909-1.4193,3.4367,6.3444,3.4914,7.3154.1296,2.301-1.3379,11.2702-3.5428,6.4544-1.8601-4.0629-1.2846-9.6324.0514-13.7698ZM220.3901,230.0484c3.7829-1.5129,8.0177-4.0057,10.9968-6.8048,4.0772-3.8309,5.5821-10.8423,11.6644-10.23-.0493,4.5769-.1521,12.7753,3.4718,16.0951,2.4317,2.2277,5.7305,1.6639,8.1571,2.9326,1.6943.8858,3.2362,4.0373,5.2614,4.6633,2.1725.6715,4.766.0317,7.008.2878l2.226,9.0554c-.2037,1.0974-5.5435.9589-6.6062,6.0697-.8624,4.1476.9965,7.157,1.4826,11.1329-2.821-2.6345-5.8641-4.9516-9.3183-6.7293-6.9842-3.5944-17.9057-5.4876-23.7772-8.9086-1.7041-.9929-2.2399-3.2588-4.0428-4.7148-1.9549-1.5788-4.1185-2.1159-6.5614-2.484l.0379-10.3652ZM270.4755,236.9677l16.3449-.2948c-3.7701,1.7957-7.4503,3.4655-10.1977,6.7474-1.4557,1.7389-.1706,3.0785-4.3386,2.2456l-1.8086-8.6983ZM299.4962,244.1616c-5.1305-2.3278-11.5679,3.2254-14.7138,3.2624-.5895.0069-6.1387-1.5591-6.1253-1.9893,5.1036-6.0497,22.4763-12.9786,23.3256-.2949-2.0115.7464-2.3098-.898-2.4865-.9782ZM159.107,392.2592c.1182-26.7574-10.4333-51.8318-15.1127-77.8314,18.6408-16.7772,21.7073-44.8287,20.5103-68.6701l.6607-1.1877,6.0386,1.2326c-.0047,3.2643,2.127,6.5029,2.4127,9.5587.5299,5.6677-1.5308,15.3612-1.7773,21.592-1.1308,28.585-.2436,59.6121.6316,88.2026.1806,5.9005.1433,6.5219-1.8216,11.6595-1.5525,4.0593-.2601,12.2336.048,16.6919l-11.5903-1.2482ZM303.1502,273.1835c-1.4042-1.3881-24.4393,5.7342-16.6508-2.9488,2.2103-2.4641,6.929-3.8209,10.1163-4.4742,2.307-.4729,6.277-.3545,7.9061-.8474,1.3092-.3961,1.2579-1.76-.0028-2.1544-4.0049-1.253-11.9472.943-15.7643,2.7261-1.6536.7724-6.7439,5.631-7.2054.9545-.5892-5.9699,15.178-11.0325,20.0514-10.2916,2.423-2.0657.3279-2.9705-2.2163-2.8345-4.086.2185-9.0503,1.9377-12.7906,3.5831-1.7055.7503-4.9693,3.6978-6.608,3.0133-3.9015-1.6298,2.0424-3.2511,3.3267-4.5456,1.473-1.4847,1.3208-3.0599,2.0782-4.345,1.2199-2.0697,13.5447-5.7861,15.8342-4.873.3869.1543,3.3884,2.4195,3.6924,2.7794,1.6759,1.9844,1.2381,4.1727,2.0189,6.1567.5906,1.5005,2.1598,2.8252,2.5027,4.5021.3978,1.9452-.3109,3.4407-.1395,4.9253.1574,1.3637,1.2785,2.5752,1.459,4.2796.6143,5.7989-3.6943,9.5413-5.8662,14.3174l-1.1959-.3545c-.3055-.3905-2.1808-5.4496-2.1861-5.8923-.0154-1.2703,2.2281-1.9592,1.6399-3.676ZM286.8115,358.4607c-1.2844-8.0954-3.0687-16.0894-4.0759-24.2448-1.7842-14.4468-1.2758-34.963-4.8476-48.3025-1.3072-4.8818-5.6548-7.1593-7.7011-11.5669-1.304-2.8088-4.8206-17.3771-4.7588-20.2619.1593-7.4342,16.8566-5.8294,17.2593-3.9343-.2581,2.7454-2.3516,4.1505-4.6271,5.2131-2.5667,1.1985-7.3612.9753-6.422,4.381l2.2809.0546,10.5255,32.9862c1.9878,2.2652,9.1795-.2035,11.6956-1.2149,2.2339-.898,4.1652-2.4162,6.4259-3.1993-.4346,3.3027.7094,6.0385,1.7384,9.0662,7.2051,21.1987,25.0252,52.3584,17.3797,74.6119-3.2704,9.5191-9.2574,12.8977-19.1442,10.6844-19.3618-4.3343-28.9702-30.0122-39.3749-44.6695,2.999-7.3435,5.6674-13.7499,4.968-21.9405-.7079-8.2898-5.17-14.293-8.2629-21.5192-5.28-12.336-10.063-24.8964-13.8978-37.7764,6.0568,1.7161,14.123,5.8458,18.1002,10.7888,2.6075,3.2407,2.6265,6.7897,4.7698,10.4123,1.5938,2.6938,5.1433,5.3996,6.0288,7.9838,1.5408,4.4967,2.0716,15.9902,2.6038,21.3426,1.3667,13.7448,1.5808,27.7231,4.2452,41.312.5763,2.9393,1.3348,10.686,5.0912,9.7936ZM233.135,252.155l9.336,3.3513c3.3998,12.9464,8.1016,25.6129,13.3164,37.9279,4.8951,11.5601,10.7616,17.7941,8.5921,31.7634-1.0215,6.5773-5.4777,12.2029-7.4887,18.2048-4.4213,13.1954-3.338,30.8314-.4398,44.2433l-12.8158,2.3633c-.7431-5.0776-.2289-10.315-1.3174-15.3327-2.46-11.3402-1.2911-20.7113-1.5763-32.3012-.5413-22.0024-.9408-45.1854-3.5996-67.0756-.9464-7.7913-2.8735-15.3983-4.0069-23.1446ZM298.4113,276.7603c.1759,2.2505,3.1566,7.33,1.8779,9.0132-1.6606,2.186-10.2438,4.3706-13.1084,4.8839-1.2109-.3609-6.5218-17.8107-6.779-20.3974,3.2596.9506,1.4511,1.8798,1.8462,3.6388,1.7867,7.9558,14.1176,1.5245,16.1633,2.8614ZM180.0333,371.8996l-.5784-98.7188c3.5706,3.7069,6.4566,8.1223,10.5462,11.3413,11.873,9.3453,29.1376,10.6502,40.7908.3412,1.4081,19.3908,1.3657,38.6986,1.7323,58.1442.0289,1.5323.6104,2.9542.6354,4.6211.047,3.1381.4402,19.2526-.3101,20.7737-.1327.269-.7521.736-.8789.5744-.053-1.4468-.2169-4.5658-2.0407-4.6957l-10.0915,1.3118-.7146,3.9651-39.0906,2.3418ZM222.0451,367.8113l7.0044-.5838.0009,1.7469c-1.9601-.1657-4.2369.2471-6.1403.0037-1.0585-.1353-.9475.2002-.865-1.1668ZM173.0369,386.4941c-.8712-5.0697-1.5113-9.8294,4.4035-11.6424l57.1573-3.5576c5.1396.5389,5.6641,6.2871,5.4694,10.4715-.6123.727-16.9557,1.5269-18.9278,1.261-2.1386-.2883-1.9247-1.2752-3.2151-2.0388-10.4364-6.1752-19.0969-4.5845-27.2215,4.2196l-17.6658,1.2867ZM208.1682,380.2409c24.9963,2.6683,14.154,41.743-8.6923,30.8972-16.6396-7.8993-8.9752-32.7831,8.6923-30.8972ZM223.2128,386.5068l16.924-1.1773,1.1671,21.0343-18.6751.5752c4.4919-6.0807,4.4064-14.0433.584-20.4322ZM173.6109,389.4182l15.174-.5754c-3.3593,7.1088-1.3016,14.2751,2.9177,20.4327l-16.9159,1.1738-1.1757-21.0312ZM244.2485,393.5381l14.5525-2.6874c9.3361,13.2735,18.0595,27.2875,24.2126,42.3878,25.047,61.4679,5.3682,140.8172-2.0286,204.7328l-12.9032,143.9225c-12.5153,2.568-25.7161,3.4593-38.1944.0934-1.1639-15.147-3.4588-30.2027-4.9223-45.3072-1.6617-17.1508-3.0035-34.1874-3.4796-51.4243-.6589-23.8563,2.0051-47.0308,1.1489-70.6608-1.006-27.7635-4.26-55.2616-5.8351-82.9456-.5631-9.8972-1.8114-24.3983-1.1927-33.8951.1023-1.5696,1.1097-7.2927,1.9342-8.2897l19.626-12.1778c1.622-1.0972,1.3587-3.6381-.7117-3.6351-2.5195.0036-16.912,11.4139-20.7955,12.4754-1.0198.6674-1.5526,1.524-2.0741,2.5967-2.2781,4.6855-4.3972,13.278-5.9624,18.5645-18.4949,62.4677-31.5607,125.6623-53.8384,187.3479-10.9472,30.3121-23.4279,60.0899-35.6628,89.8861-1.8275,2.1093-12.2678,1.7457-15.3969,1.5114-3.5635-.2668-21.1948-3.85-22.7787-6.4126l-.2368-1.9544c7.312-39.972,12.4898-80.4964,21.9467-120.0269,4.8008-20.0677,12.7367-40.478,15.844-60.6595,5.7423-37.2956,6.5395-75.4307,13.2122-112.9446,5.456-30.6736,15.301-59.7234,27.8009-88.1227l11.6375,1.3559c2.3919,8.2214-2.5342,22.5355,9.1528,24.7217l60.3609-4.1249c8.7664-3.3573,3.9588-17.1841,4.5838-24.3275ZM174.7797,413.3729l20.1489-1.1854c9.0061,4.7674,16.9146,4.4323,25.0992-1.7129l21.8591-1.1919c.3725,2.7566-1.1219,5.0728-3.8239,5.8085-17.6859.4707-35.4211,2.992-53.0767,3.5306-4.57.1394-10.3788,1.0269-10.2065-5.2488ZM110.5931,789.5489c-1.2397,5.821-3.7623,11.3601-4.5982,17.2965-.967,6.8674.7475,13.6381-.2208,20.2233-1.2929,8.7931-9.0081,7.8571-14.1406,12.7142-2.856,2.7028-4.3897,6.8525-7.9301,9.5852-8.569,6.614-27.461,5.5844-37.4192,2.512-4.0189-1.24-7.5367-2.363-6.1501-7.5808,1.2838-4.8311,22.6786-22.835,27.5815-28.4596,7.7181-8.8542,12.7248-18.655,15.4224-30.1425.879-.6551,6.5356,1.5851,8.0809,1.9248,6.4836,1.4254,12.6869,2.3741,19.3744,1.9268ZM264.0577,786.6252v12.5587c0,.2774.8369,3.0406,1.0421,3.6298,4.0836,11.7247,31.0568,24.7088,41.2509,32.8893,4.8019,3.8534,13.4724,11.4967,3.1038,14.7668-8.4996,2.6806-28.3076,1.0318-36.8041-2.0594-6.7478-2.455-12.5871-7.3032-19.8081-9.3772-7.2329-2.0774-22.8297-1.359-22.6739-11.8105.0801-5.375,2.8866-12.8424,3.5399-18.6998.8246-7.3936.4312-14.5139.0077-21.8998,10.1392,1.807,20.1692.8215,30.3417.0022Z"/>
        <path class="f" d="M244.2485,393.5381c-.6251,7.1433,4.1826,20.9702-4.5838,24.3275l-60.3609,4.1249c-11.687-2.1861-6.7609-16.5002-9.1528-24.7217l-11.6375-1.3559c-12.5,28.3993-22.3449,57.4491-27.8009,88.1227-6.6727,37.5139-7.4698,75.649-13.2122,112.9446-3.1073,20.1815-11.0432,40.5919-15.844,60.6595-9.4569,39.5306-14.6347,80.0549-21.9467,120.0269l.2368,1.9544c1.584,2.5626,19.2152,6.1458,22.7787,6.4126,3.1291.2343,13.5694.5979,15.3969-1.5114,12.2349-29.7963,24.7156-59.574,35.6628-89.8861,22.2777-61.6855,35.3435-124.8802,53.8384-187.3479,1.5652-5.2865,3.6843-13.879,5.9624-18.5645.5215-1.0726,1.0544-1.9292,2.0741-2.5967,3.8835-1.0615,18.276-12.4718,20.7955-12.4754,2.0703-.0029,2.3337,2.538.7117,3.6351l-19.626,12.1778c-.8245.997-1.8319,6.7201-1.9342,8.2897-.6187,9.4968.6296,23.998,1.1927,33.8951,1.5751,27.684,4.8291,55.182,5.8351,82.9456.8562,23.63-1.8078,46.8045-1.1489,70.6608.4761,17.2369,1.8179,34.2735,3.4796,51.4243,1.4635,15.1045,3.7583,30.1602,4.9223,45.3072,12.4782,3.3659,25.679,2.4746,38.1944-.0934l12.9032-143.9225c7.3968-63.9156,27.0756-143.2649,2.0286-204.7328-6.1531-15.1004-14.8765-29.1143-24.2126-42.3878l-14.5525,2.6874Z"/>
        <path class="e" d="M80.46,63.1037c-3.4835,3.6772-4.0508,8.3674-3.7054,13.2302h-2.9238c-.8899-7.1408,1.3041-12.1842,6.4215-16.9367l-5.4773-.455c-1.4248.8862-3.033,3.135-4.7782,3.3701-2.2137.2981-4.2198-1.6321-4.6354-1.62-.8581.0251-2.3317,3.9435-6.7302,2.5287-1.4051-.452-1.9334-2.1401-3.4664-2.0744.4184,6.2731,2.371,12.5326,5.9325,17.7123,1.1804,1.7167,2.9749,2.8169,3.9998,4.7578,2.2128,4.1903,2.5238,27.8622,2.9258,34.455,1.7618,28.8915,1.1785,56.1717,13.4791,82.8871,9.5644,20.7727,21.7889,42.3248,34.3324,61.4276,8.3307,12.687,21.4918,27.1433,25.6962,41.451.5905,2.0096,1.296,3.9982,1.1597,6.1452,1.7851,1.7989,8.2275-8.4406,9.0546-9.9197,7.2952-13.0455,11.301-36.8831,10.2242-51.7332-.494-6.812-1.6-4.8318-5.8114-8.2014-19.4096-15.53-32.3302-43.4811-46.9019-63.448l-19.0861-93.0574c3.0531-9.6746,12.3007-17.584,9.6486-28.9197-1.2456-5.3242-12.1825-9.0089-17.108-10.3308-9.7608-2.6196-7.0388,3.3235-1.243,7.0854,2.1047,1.3661,9.7339,3.4459,6.9584,6.4807-1.0075,1.1016-5.9819,3.0708-7.9658,5.165ZM149.1036,288.3686l-2.6351-.5728c-.9632-4.3412-2.4009-8.634-4.2629-12.6721-.9343-2.0263-5.0925-8.2834-5.2676-9.3692-.332-2.0591,1.2216-2.5505,2.7578-.9686,2.4013,2.4727,11.3845,21.6339,9.4078,23.5827Z"/>
        <path class="d" d="M183.4545,238.0535l-.2251-11.5904c-2.1683-2.2081-4.6154-3.7804-6.6808-6.1629-1.5147-1.7473-5.3747-9.0524-5.8484-9.3326-.9489-.5613-4.386-.5718-6.2448-1.3424-9.2706-3.8436-12.8803-19.2671-3.2806-24.5406,3.24-1.7799,7.3227-2.1904,10.8976-3.6942,7.8351-3.2961,13.7825-9.0355,18.3528-16.0912,1.2812-1.9779,5.5122-11.0607,6.5179-11.5949.471-.2502.8603-.3962,1.3981-.2337.6142.1856,3.9781,6.6673,4.8987,7.9835,6.0585,8.662,14.5758,15.9525,24.4869,19.8807,9.5411,3.7815,25.4102,2.4998,26.4176,15.325,2.2853-1.971,4.4014-3.2948,7.5035-3.5809,2.4321-16.2164.2467-29.9259-9.6026-43.0979-9.5203-12.7321-27.7481-22.7113-43.8761-18.3219-3.0052.8179-6.5727,3.3543-9.2383,3.6336-3.2701.3427-7.0998-1.3286-11.0461-1.1535-20.0652.8902-33.2422,21.9849-35.7929,40.1003-1.5772,11.2011.2916,23.1251-4.0473,33.9164-1.6307,4.0557-4.5917,7.0324-6.4032,10.889,6.5962,8.6501,15.4005,20.5752,26.5905,23.0155,1.8805.4101,5.6479,1.0952,7.4149.7341,1.5054-.3076,4.526-5.0758,7.8077-4.7411Z"/>
        <path class="e" d="M209.4997,229.9555c8.5463-.905,18.9595-7.0489,23.8839-14.059,3.8425-5.4699,8.5595-19.4559,7.34-25.961-.394-2.1019-7.646-2.9221-9.7867-3.6364-14.7557-4.9235-25.0127-13.4364-33.392-26.437-3.7108,8.3789-9.4715,16.576-17.3243,21.5073-5.3003,3.3284-11.0025,2.7203-10.7187,10.346.3499,9.4036,3.9393,20.0926,10.2319,27.1488,2.3382,2.6219,5.3235,4.1407,7.3059,6.7054l-.5832,16.3657c-4.9776,4.0959-6.1903,13.5709-6.4456,19.8279-.4402,10.7865,12.6026,22.6262,22.3227,25.6008,9.9019,3.0302,22.7255,2.1758,27.786-8.1902-.5575-5.9056-1.2317-11.8883-2.5253-17.6812-.6649-2.9772-2.5019-10.4909-4.1719-12.7063-1.1667-1.5477-3.5281-1.6299-4.9269-2.861l-1.6747-7.527c-5.8482-1.0834-12.942-2.5986-15.7817-8.4428,2.7265-.2054,5.7837.2835,8.4609,0ZM190.6854,186.8881c4.9776-4.472,7.328,7.7637,2.9411,9.0922-4.8409,1.466-5.3517-6.9265-2.9411-9.0922ZM225.7069,187.4003c3.3561.9157,3.4644,10.5927-1.5831,9.8634-4.7433-.6853-2.8876-11.0832,1.5831-9.8634ZM210.3779,187.3136c.9106.0066,1.9337-.2644,2.6305.5775.3733.4511,4.3053,10.2871,4.364,10.8699.3905,3.8792-4.587,6.916-8.1674,6.0745-.7854-4.8149,5.9697-1.4956,4.3931-7.0237-.9354-3.2799-3.9487-6.624-3.2201-10.4983ZM193.4545,207.1789c1.3618-1.8305,5.26,2.0909,6.7779,2.8474,1.6381.8164,4.8173,1.8668,6.6115,2.1433,2.1846.3367,9.663-.6884,8.7778,2.3015-.8234,2.7812-11.743.2306-13.9872-.5914-1.3782-.5048-9.7519-4.588-8.1801-6.7009Z"/>
        <path class="e" d="M286.8115,358.4607c-3.7564.8924-4.5148-6.8543-5.0912-9.7936-2.6644-13.5889-2.8785-27.5672-4.2452-41.312-.5322-5.3523-1.0629-16.8459-2.6038-21.3426-.8855-2.5842-4.435-5.29-6.0288-7.9838-2.1434-3.6226-2.1623-7.1716-4.7698-10.4123-3.9772-4.943-12.0435-9.0727-18.1002-10.7888,3.8349,12.88,8.6179,25.4405,13.8978,37.7764,3.0929,7.2262,7.555,13.2294,8.2629,21.5192.6994,8.1907-1.969,14.597-4.968,21.9405,10.4047,14.6573,20.0131,40.3352,39.3749,44.6695,9.8868,2.2132,15.8738-1.1654,19.1442-10.6844,7.6455-22.2534-10.1746-53.4132-17.3797-74.6119-1.0291-3.0277-2.173-5.7634-1.7384-9.0662-2.2607.7831-4.192,2.3013-6.4259,3.1993-2.5161,1.0114-9.7077,3.4801-11.6956,1.2149l-10.5255-32.9862-2.2809-.0546c-.9392-3.4057,3.8553-3.1824,6.422-4.381,2.2755-1.0625,4.369-2.4676,4.6271-5.2131-.4027-1.8951-17.1-3.4999-17.2593,3.9343-.0618,2.8848,3.4548,17.4531,4.7588,20.2619,2.0463,4.4076,6.3939,6.6851,7.7011,11.5669,3.5719,13.3395,3.0634,33.8557,4.8476,48.3025,1.0072,8.1554,2.7915,16.1494,4.0759,24.2448Z"/>
        <path class="e" d="M180.0333,371.8996l39.0906-2.3418.7146-3.9651,10.0915-1.3118c1.8238.1299,1.9877,3.2489,2.0407,4.6957.1268.1616.7462-.3054.8789-.5744.7503-1.5212.3571-17.6356.3101-20.7737-.025-1.6668-.6065-3.0888-.6354-4.6211-.3666-19.4456-.3242-38.7534-1.7323-58.1442-11.6532,10.309-28.9179,9.0041-40.7908-.3412-4.0897-3.219-6.9757-7.6344-10.5462-11.3413l.5784,98.7188Z"/>
        <path class="e" d="M264.0577,786.6252c-10.1725.8193-20.2025,1.8048-30.3417-.0022.4234,7.386.8168,14.5062-.0077,21.8998-.6532,5.8573-3.4597,13.3248-3.5399,18.6998-.1558,10.4515,15.441,9.7331,22.6739,11.8105,7.221,2.074,13.0603,6.9222,19.8081,9.3772,8.4965,3.0912,28.3045,4.7401,36.8041,2.0594,10.3686-3.2701,1.6981-10.9133-3.1038-14.7668-10.1941-8.1805-37.1673-21.1647-41.2509-32.8893-.2052-.5892-1.0421-3.3524-1.0421-3.6298v-12.5587ZM240.417,800.0631c2.0524.4474-.9934,6.0461-.9092,7.8772.0646,1.4061.8928,2.2327,1.2122,3.4973l-1.4632.9081c-5.3315-.6359-1.4376-12.8488,1.1602-12.2825Z"/>
        <path class="e" d="M110.5931,789.5489c-6.6875.4473-12.8907-.5014-19.3744-1.9268-1.5453-.3397-7.2019-2.58-8.0809-1.9248-2.6975,11.4875-7.7043,21.2882-15.4224,30.1425-4.9029,5.6246-26.2977,23.6285-27.5815,28.4596-1.3865,5.2178,2.1312,6.3408,6.1501,7.5808,9.9582,3.0725,28.8502,4.102,37.4192-2.512,3.5404-2.7327,5.0742-6.8825,7.9301-9.5852,5.1324-4.8571,12.8476-3.9211,14.1406-12.7142.9683-6.5852-.7462-13.3559.2208-20.2233.8359-5.9364,3.3585-11.4755,4.5982-17.2965ZM101.8454,810.5713c1.2254-2.5643-3.4089-11.0699,1.4086-9.9606,1.0314.2375,3.5012,11.1377-1.4086,9.9606Z"/>
        <path class="e" d="M286.3443,193.853c-5.8318,12.6781-4.854,27.0888,1.1475,39.5103,11.0931.4959,22.0982,3.9096,32.2077,8.3578,5.892,2.5925,11.3283,6.2567,17.2964,8.6729-11.1855-23.6388-11.7432-52.7579-2.3369-77.0957-4.3213,1.9873-8.0832,5.0244-12.2381,7.3112-11.1715,6.1487-23.4483,11.1159-36.0767,13.2435Z"/>
        <path class="e" d="M159.107,392.2592l11.5903,1.2482c-.3081-4.4584-1.6005-12.6327-.048-16.6919,1.9649-5.1376,2.0022-5.759,1.8216-11.6595-.8753-28.5906-1.7624-59.6176-.6316-88.2026.2465-6.2308,2.3072-15.9242,1.7773-21.592-.2857-3.0558-2.4175-6.2944-2.4127-9.5587l-6.0386-1.2326-.6607,1.1877c1.197,23.8413-1.8695,51.8929-20.5103,68.6701,4.6794,25.9996,15.231,51.0739,15.1127,77.8314Z"/>
        <path class="e" d="M233.135,252.155c1.1333,7.7463,3.0605,15.3534,4.0069,23.1446,2.6589,21.8902,3.0583,45.0732,3.5996,67.0756.2852,11.5899-.8837,20.961,1.5763,32.3012,1.0885,5.0176.5743,10.2551,1.3174,15.3327l12.8158-2.3633c-2.8982-13.4119-3.9815-31.0479.4398-44.2433,2.011-6.0019,6.4673-11.6275,7.4887-18.2048,2.1695-13.9693-3.697-20.2034-8.5921-31.7634-5.2148-12.315-9.9166-24.9815-13.3164-37.9279l-9.336-3.3513Z"/>
        <path class="e" d="M332.4086,195.4146c9.4914,4.4426,20.0035,1.6072,20.9139,14.9799.9875,14.5043-9.2407,13.4145-19.4662,18.3309l-.4186.9293c1.1459,7.5699,7.4413,27.8897,16.1676,28.8804,6.0388.6856,10.3159-6.6422,12.3989-11.431,8.282-19.0398,7.5544-53.548-1.9329-72.0827-14.1031-27.5522-27.4056,5.2724-27.6627,20.3932Z"/>
        <path class="d" d="M220.3901,230.0484l-.0379,10.3652c2.443.3682,4.6065.9052,6.5614,2.484,1.8029,1.456,2.3386,3.7219,4.0428,4.7148,5.8715,3.421,16.793,5.3142,23.7772,8.9086,3.4542,1.7777,6.4973,4.0948,9.3183,6.7293-.4861-3.9758-2.345-6.9852-1.4826-11.1329,1.0626-5.1108,6.4024-4.9723,6.6062-6.0697l-2.226-9.0554c-2.242-.2561-4.8354.3837-7.008-.2878-2.0252-.6259-3.5671-3.7774-5.2614-4.6633-2.4266-1.2688-5.7254-.7049-8.1571-2.9326-3.6239-3.3198-3.5211-11.5182-3.4718-16.0951-6.0823-.6123-7.5872,6.3991-11.6644,10.23-2.9791,2.7991-7.2139,5.2918-10.9968,6.8048Z"/>
        <path class="f" d="M283.897,233.4602c-5.7811-12.5764-5.9643-26.0293-1.7563-39.136-6.3814,1.6797-14.0523.7963-20.4492,2.0119-7.8844,1.4983-8.7407,15.1649-8.0651,21.573.3324,3.1528,4.1049,15.5511,7.8055,15.5511h22.4651Z"/>
        <path class="e" d="M303.1502,273.1835c.5881,1.7168-1.6553,2.4058-1.6399,3.676.0054.4427,1.8806,5.5018,2.1861,5.8923l1.1959.3545c2.172-4.7761,6.4806-8.5185,5.8662-14.3174-.1806-1.7044-1.3016-2.9159-1.459-4.2796-.1714-1.4846.5373-2.98.1395-4.9253-.3429-1.6769-1.9121-3.0016-2.5027-4.5021-.7808-1.984-.343-4.1723-2.0189-6.1567-.304-.3599-3.3055-2.6251-3.6924-2.7794-2.2895-.9131-14.6143,2.8033-15.8342,4.873-.7574,1.2851-.6052,2.8602-2.0782,4.345-1.2842,1.2945-7.2281,2.9158-3.3267,4.5456,1.6387.6846,4.9025-2.263,6.608-3.0133,3.7403-1.6454,8.7046-3.3647,12.7906-3.5831,2.5442-.136,4.6393.7688,2.2163,2.8345-4.8734-.7409-20.6406,4.3217-20.0514,10.2916.4615,4.6765,5.5518-.1821,7.2054-.9545,3.8171-1.7831,11.7594-3.9791,15.7643-2.7261,1.2607.3944,1.3121,1.7583.0028,2.1544-1.6291.4929-5.5991.3745-7.9061.8474-3.1873.6533-7.906,2.0101-10.1163,4.4742-7.7885,8.683,15.2466,1.5607,16.6508,2.9488Z"/>
        <path class="d" d="M173.0369,386.4941l17.6658-1.2867c8.1245-8.804,16.7851-10.3948,27.2215-4.2196,1.2905.7636,1.0766,1.7504,3.2151,2.0388,1.9721.2659,18.3155-.534,18.9278-1.261.1947-4.1843-.3299-9.9326-5.4694-10.4715l-57.1573,3.5576c-5.9147,1.813-5.2747,6.5727-4.4035,11.6424ZM186.1594,384.7482c-2.8286.4628-6.665-.3371-9.6279,0l.0641-7.5283,10.4762-.3936.5671,6.9367c-.0858.361-1.1943.9386-1.4795.9853Z"/>
        <path class="e" d="M223.2128,386.5068c3.8223,6.3889,3.9078,14.3515-.584,20.4322l18.6751-.5752-1.1671-21.0343-16.924,1.1773Z"/>
        <path class="d" d="M174.7797,413.3729c-.1723,6.2757,5.6365,5.3883,10.2065,5.2488,17.6557-.5386,35.3909-3.0599,53.0767-3.5306,2.702-.7356,4.1965-3.0518,3.8239-5.8085l-21.8591,1.1919c-8.1845,6.1452-16.0931,6.4803-25.0992,1.7129l-20.1489,1.1854Z"/>
        <path class="e" d="M208.1682,380.2409c-17.6675-1.8859-25.3319,22.9979-8.6923,30.8972,22.8463,10.8458,33.6886-28.2289,8.6923-30.8972ZM197.7751,386.7578c13.739-11.2068,29.6105,7.9495,18.1392,19.0149-13.1746,12.7084-31.3797-8.2147-18.1392-19.0149Z"/>
        <path class="e" d="M173.6109,389.4182l1.1757,21.0312,16.9159-1.1738c-4.2193-6.1576-6.277-13.3239-2.9177-20.4327l-15.174.5754Z"/>
        <path class="e" d="M81.4931,3.3973c-3.1294,1.924.0563,22.3411.5074,26.4985.271,2.4968.0754,9.2104.6795,11.0023.4365,1.2948,8.3314,3.6417,8.6561,3.3033-2.0212-11.219-1.6427-24.8069-4.9454-35.6399-.7118-2.3346-1.8182-5.9665-4.8976-5.1641Z"/>
        <path class="f" d="M331.7476,198.4153c-1.0712,8.852-.3655,17.6659.6757,26.4785l1.3359.9783,11.4051-4.6875c-2.9207-5.7128-3.3012-12.4842-.6635-18.4067l-12.7531-4.3627Z"/>
        <path class="f" d="M298.4113,276.7603c-2.0456-1.3369-14.3765,5.0944-16.1633-2.8614-.395-1.759,1.4135-2.6883-1.8462-3.6388.2571,2.5867,5.5681,20.0364,6.779,20.3974,2.8646-.5133,11.4477-2.6979,13.1084-4.8839,1.2787-1.6832-1.702-6.7627-1.8779-9.0132Z"/>
        <path class="e" d="M67.6264,37.8568c-3.218-1.0809-5.952,2.2672-5.8934,5.3057.0717,3.7184,3.2233,16.7249,8.2846,16.242,4.2566-.4062.1393-8.013-.4578-10.6295-.3594-1.5749-.7761-3.2754-.9691-4.8712-.1935-1.6001.6921-5.4908-.9643-6.0471Z"/>
        <path class="e" d="M169.5259,207.7563c-1.7821-6.3601-3.2364-12.7812-2.9981-19.4808-2.2015-2.8215-6.5412,1.0466-7.2267,3.6955-2.0038,7.7427,2.477,14.4874,10.2249,15.7853Z"/>
        <path class="e" d="M299.4962,244.1616c.1766.0801.4749,1.7246,2.4865.9782-.8492-12.6837-18.2219-5.7548-23.3256.2949-.0134.4302,5.5358,1.9962,6.1253,1.9893,3.1459-.037,9.5833-5.5902,14.7138-3.2624Z"/>
        <path class="e" d="M58.5907,42.5249c-10.3129-1.7291-3.0915,18.5565,2.092,18.0463,4.0399-1.1357.623-5.717-.1033-8.6477-.7746-3.1258-1.3211-6.26-1.9887-9.3986Z"/>
        <path class="e" d="M80.8328,54.1449c-7.4725-2.439-11.5262-13.5987-.5768-13.4456.0876-3.506-1.0751-7.7807-5.4074-6.9064-6.2621,1.2638-2.6198,17.409.2383,21.132,2.021,2.6327,4.9173,2.8267,5.7458-.78Z"/>
        <path class="e" d="M252.9709,228.1973c-2.3943-5.6724-3.4546-11.6269-2.9081-17.8007.2013-2.274,1.1544-4.5323,1.516-6.6651.1012-.5968.7129-1.617-.6385-1.2212-6.1136,1.7902-5.1942,14.0144-4.2375,18.825.7762,3.9028,1.6517,6.7811,6.2681,6.8621Z"/>
        <path class="e" d="M244.221,189.6503c-.2096,7.0229-1.9913,13.7984-4.0835,20.4425l3.2254-1.1462c.2969-3.6749.8404-5.6125,3.8089-7.8667,1.4447-1.097,3.729-1.0129,3.9163-3.0668.3654-4.0068-2.681-8.3233-6.867-8.3629Z"/>
        <path class="f" d="M270.4755,236.9677l1.8086,8.6983c4.168.8329,2.8829-.5067,4.3386-2.2456,2.7474-3.282,6.4275-4.9517,10.1977-6.7474l-16.3449.2948Z"/>
        <path class="e" d="M346.9219,203.6724c-1.336,4.1373-1.9115,9.7069-.0514,13.7698,2.2048,4.8158,3.6724-4.1534,3.5428-6.4544-.0547-.9709-1.6005-8.7346-3.4914-7.3154Z"/>
        <path class="e" d="M222.0451,367.8113c-.0825,1.367-.1935,1.0315.865,1.1668,1.9034.2433,4.1802-.1694,6.1403-.0037l-.0009-1.7469-7.0044.5838Z"/>
        <path d="M149.1036,288.3686c1.9767-1.9488-7.0065-21.11-9.4078-23.5827-1.5362-1.5819-3.0899-1.0906-2.7578.9686.1751,1.0859,4.3333,7.343,5.2676,9.3692,1.862,4.0381,3.2997,8.3309,4.2629,12.6721l2.6351.5728Z"/>
        <path class="e" d="M193.4545,207.1789c-1.5718,2.1128,6.8019,6.1961,8.1801,6.7009,2.2442.822,13.1639,3.3726,13.9872.5914.8851-2.9899-6.5932-1.9648-8.7778-2.3015-1.7942-.2765-4.9734-1.3269-6.6115-2.1433-1.5179-.7565-5.4161-4.6779-6.7779-2.8474Z"/>
        <path class="g" d="M210.3779,187.3136c-.7286,3.8742,2.2847,7.2184,3.2201,10.4983,1.5766,5.5281-5.1785,2.2088-4.3931,7.0237,3.5804.8415,8.5579-2.1953,8.1674-6.0745-.0587-.5828-3.9907-10.4189-4.364-10.8699-.6968-.8419-1.7198-.5709-2.6305-.5775Z"/>
        <path class="g" d="M225.7069,187.4003c-4.4706-1.2198-6.3263,9.1781-1.5831,9.8634,5.0475.7293,4.9392-8.9478,1.5831-9.8634Z"/>
        <path class="g" d="M190.6854,186.8881c-2.4106,2.1657-1.8998,10.5582,2.9411,9.0922,4.3868-1.3285,2.0365-13.5641-2.9411-9.0922Z"/>
        <path d="M240.417,800.0631c-2.5978-.5664-6.4918,11.6466-1.1602,12.2825l1.4632-.9081c-.3194-1.2646-1.1476-2.0912-1.2122-3.4973-.0842-1.8311,2.9616-7.4297.9092-7.8772Z"/>
        <path d="M101.8454,810.5713c4.9098,1.1771,2.4399-9.7231,1.4086-9.9606-4.8175-1.1093-.1831,7.3963-1.4086,9.9606Z"/>
        <path d="M186.1594,384.7482c.2853-.0467,1.3937-.6242,1.4795-.9853l-.5671-6.9367-10.4762.3936-.0641,7.5283c2.9629-.3371,6.7993.4628,9.6279,0ZM178.8626,379.488l6.4237.0057-.0715,1.9724c-.566,1.7085-4.8499.6966-6.3521.9487v-2.9267Z"/>
        <path d="M197.7751,386.7578c-13.2405,10.8002,4.9646,31.7233,18.1392,19.0149,11.4713-11.0653-4.4002-30.2217-18.1392-19.0149ZM213.6795,389.0338c2.7725,2.7721,3.6522,7.8578,2.2303,11.4783-4.1752,10.6304-22.4612,6.4286-19.1374-6.8954,1.7909-7.179,11.8094-9.6798,16.9071-4.5829Z"/>
        <path class="e" d="M178.8626,379.488v2.9267c1.5022-.2521,5.7862.7598,6.3522-.9487l.0715-1.9724-6.4237-.0057Z"/>
        <path class="e" d="M213.6795,389.0338c-5.0977-5.0969-15.1163-2.5961-16.9071,4.5829-3.3238,13.324,14.9622,17.5258,19.1374,6.8954,1.422-3.6204.5422-8.7062-2.2303-11.4783ZM206.8768,388.256c1.4853-1.5531,11.2608,5.3736,5.5594,7.0033-1.5467-2.0356-2.786-4.1232-5.4642-4.763l-.0952-2.2403Z"/>
        <path d="M206.8768,388.256l.0952,2.2403c2.6782.6398,3.9175,2.7273,5.4642,4.763,5.7014-1.6297-4.0741-8.5564-5.5594-7.0033Z"/>
        <path class="g" d="M215.8315,211.7721c-5.9813-.8525-11.8471-2.3506-17.5046-4.4707-.5419-.2031-1.4103.1236-1.6501.6715-1.7478,3.9925.2272,8.4203,3.7685,10.6921,4.2992,2.758,9.8607,1.5031,14.1827-.4753.7176-.3285.8943-1.3665.5242-1.9992-.4311-.737-1.2789-.8539-1.9992-.5242-3.2285,1.4778-7.516,2.5741-10.8276.7186-2.2529-1.2623-4.2767-4.307-3.1253-6.9371l-1.6501.6715c5.6576,2.1201,11.5233,3.6182,17.5046,4.4707.7802.1112,1.5696-.1916,1.7974-1.0205.1883-.6852-.2343-1.6854-1.0205-1.7974h0Z"/>
      </g>
      <g>
        <path class="d" d="M94.8451,503.0912c2.3179,2.2253-13.2248,16.6953-12.9752,10.496,1.5335-2.1785,10.0816-13.2741,12.9752-10.496Z"/>
        <path class="d" d="M66.8552,531.0808c-1.5008-1.5009,8.6486-13.0146,10.5012-12.9704,6.1324.1463-8.3467,15.1251-10.5012,12.9704Z"/>
        <path class="d" d="M66.8552,503.091c2.3111-2.3111,16.6908,13.3225,10.4949,12.9749-1.3404-1.9147-12.6415-10.8282-10.4949-12.9749Z"/>
        <path class="d" d="M82.8552,519.091c1.8384-1.8384,12.2624,9.158,11.9899,10.4799-.2248,1.0903-1.6511,1.7347-3.0097,1.0334-1.3804-.7125-10.5557-9.9378-8.9802-11.5133Z"/>
      </g>
      <g>
        <path class="d" d="M373.4132,385.2356c8.5423-.424,9.0017,11.4848,1.7912,12.7032-9.3996,1.5883-10.1272-12.2895-1.7912-12.7032ZM373.4257,389.0857c-4.2865,1.1536-2.0131,6.204.7022,5.7798,3.0507-.4766,3.9103-7.0211-.7022-5.7798Z"/>
        <path class="d" d="M373.4257,389.0857c4.6125-1.2413,3.753,5.3032.7022,5.7798-2.7154.4242-4.9888-4.6262-.7022-5.7798Z"/>
      </g>
    </g>
  </g>
</svg>