<?xml version="1.0" encoding="UTF-8"?>
<svg id="b" data-name="Capa 2" xmlns="http://www.w3.org/2000/svg" viewBox="0 0 1764.3084 290.997">
  <defs>
    <style>
      .d {
        fill: #8bc1a7;
      }

      .e {
        fill: #96f;
      }

      .f {
        fill: #202020;
      }

      .g {
        fill: none;
        stroke: #8bc1a7;
        stroke-dasharray: 6.6054;
        stroke-linecap: round;
        stroke-miterlimit: 10;
        stroke-width: 4px;
      }
    </style>
  </defs>
  <g id="c" data-name="Capa 1">
    <g>
      <path class="e" d="M341.7366,125.1845c-8.1547.9035-15.1735,6.5595-18.3154,14.0539-1.0794,2.5747-2.0563,9.5558-2.689,10.4513-2.5283,3.5782-4.5713-7.5762-5.3707-9.4305-2.4206-5.6149-6.33-9.5893-11.5834-12.5894-2.4303-1.3879-5.5132-1.2252-7.2538-3.6475,2.1937-2.4671,5.4435-2.2842,8.5102-3.9504,9.8398-5.3461,9.2665-12.5451,12.531-20.999,2.5568-6.6212,4.3016,6.0958,5.0776,8.1724,1.8826,5.0379,5.9854,10.1015,10.7449,12.6481,3.1938,1.7089,8.8644,1.505,8.3487,5.291ZM319.8897,108.0401c-1.8172-.3945-1.246.2426-1.7352,1.0008-3.9161,6.0697-5.6294,11.4332-13.0642,14.9899l9.3344,8.5878,3.9294,7.3864c1.42,1.3248,3.3695-4.748,4.0268-5.7059,3.0419-4.4333,6.1524-7.4808,10.7726-10.2848l-7.0057-5.4581-6.2581-10.5161Z"/>
      <g>
        <path class="e" d="M1698.0059,109.9075c2.3179,2.2253-13.2248,16.6953-12.9752,10.496,1.5335-2.1785,10.0816-13.2741,12.9752-10.496Z"/>
        <path class="e" d="M1670.016,137.8972c-1.5008-1.5009,8.6486-13.0146,10.5012-12.9704,6.1324.1463-8.3467,15.1251-10.5012,12.9704Z"/>
        <path class="e" d="M1670.016,109.9074c2.3111-2.3111,16.6908,13.3225,10.4949,12.9749-1.3404-1.9147-12.6415-10.8282-10.4949-12.9749Z"/>
        <path class="e" d="M1686.016,125.9074c1.8384-1.8384,12.2624,9.158,11.9899,10.4799-.2248,1.0903-1.6511,1.7347-3.0097,1.0334-1.3804-.7125-10.5557-9.9378-8.9802-11.5133Z"/>
      </g>
      <g>
        <path class="e" d="M72.4258,275.5448c8.5423-.424,9.0017,11.4848,1.7912,12.7032-9.3996,1.5883-10.1272-12.2895-1.7912-12.7032ZM72.4384,279.3948c-4.2865,1.1536-2.0131,6.204.7022,5.7798,3.0507-.4766,3.9103-7.0211-.7022-5.7798Z"/>
        <path class="e" d="M72.4384,279.3948c4.6125-1.2413,3.753,5.3032.7022,5.7798-2.7154.4242-4.9888-4.6262-.7022-5.7798Z"/>
      </g>
      <g>
        <path class="e" d="M371.92,101.5102c8.5423-.424,9.0017,11.4848,1.7912,12.7032-9.3996,1.5883-10.1272-12.2895-1.7912-12.7032ZM371.9325,105.3603c-4.2865,1.1536-2.0131,6.204.7022,5.7798,3.0507-.4766,3.9103-7.0211-.7022-5.7798Z"/>
        <path class="e" d="M371.9325,105.3603c4.6125-1.2413,3.753,5.3032.7022,5.7798-2.7154.4242-4.9888-4.6262-.7022-5.7798Z"/>
      </g>
      <g>
        <path class="e" d="M1613.4472,160.6428c8.5423-.424,9.0017,11.4848,1.7912,12.7032-9.3996,1.5883-10.1272-12.2895-1.7912-12.7032ZM1613.4597,164.4929c-4.2865,1.1536-2.0131,6.204.7022,5.7798,3.0507-.4766,3.9103-7.0211-.7022-5.7798Z"/>
        <path class="e" d="M1613.4597,164.4929c4.6125-1.2413,3.753,5.3032.7022,5.7798-2.7154.4242-4.9888-4.6262-.7022-5.7798Z"/>
      </g>
      <g>
        <path class="e" d="M1473.1703.0111c8.5423-.424,9.0017,11.4848,1.7912,12.7032-9.3996,1.5883-10.1272-12.2895-1.7912-12.7032ZM1473.1828,3.8611c-4.2865,1.1536-2.0131,6.204.7022,5.7798,3.0507-.4766,3.9103-7.0211-.7022-5.7798Z"/>
        <path class="e" d="M1473.1828,3.8611c4.6125-1.2413,3.753,5.3032.7022,5.7798-2.7154.4242-4.9888-4.6262-.7022-5.7798Z"/>
      </g>
      <path class="g" d="M2,284.7213c38.8208-36.5796,107.4893-88.2417,201.0298-98.3765,61.405-6.6533,163.1794,1.3765,177.5049,44.9111,5.0947,15.4824-1.6771,33.0068-10.693,42.772-19.5881,21.2163-62.2415,19.3188-83.406-2.1387-11.7737-11.9365-18.8077-31.8633-14.9703-47.0493,14.8307-58.6895,194.9344-58.0269,222.4159-57.7427"/>
      <g>
        <g>
          <g>
            <path class="d" d="M1620.4062,20.284l-.1259,1.3798c9.9861,6.0214,18.6939,13.9183,28.3473,20.4382,3.1327,10.3046,3.9992,21.2547,7.3606,31.4892.3591,1.0933.8967,3.2052,2.342,2.8779,7.7034-2.9444,14.6394-7.5514,22.1664-10.8977l19.1344,15.1035c.3334-.0532.6418-.2025.9134-.3931.9052-.6354,2.9633-3.1147,3.8735-4.0953,6.349-6.8394,12.0246-14.3309,18.2019-21.3308,8.7828-9.9524,17.9816-19.5289,26.6423-29.5913,4.1045-4.7687,7.9405-9.8488,12.0752-14.5994,1.5652-1.7983,5.7489-4.638.1309-4.1993-2.3171.1809-4.7352,1.0938-7.0722,1.4406-5.0551.7503-10.7232,1.1752-15.8589,1.7041-17.8299,1.8363-35.7199,2.9357-53.5628,4.6706-20.0775,1.9522-40.1335,4.5411-60.2863,5.6216-1.4248.0764-2.8658.2219-4.2818.3813ZM1760.4565,8.7857l-61.7614,67.9858-.5955-.0658c-6.442-5.6528-13.502-10.5418-20.0515-16.0723-1.4394-1.2155-2.9221-2.5087-4.3638-3.7481-1.6678-1.4338-3.2063-3.0341-4.938-4.4004,4.975-2.5577,9.9502-5.1785,15.0163-7.5515,15.4794-7.2506,31.1177-14.1235,46.516-21.5604,9.0193-4.3561,17.8686-9.4924,26.9949-13.551,1.0137-.4508,2.022-1.0976,3.1831-1.0362ZM1657.5004,71.8894l-6.68-30.0869c7.2175-1.91,14.4667-3.719,21.5942-5.9403,7.3299-2.2844,14.3294-5.132,21.7794-7.0813,10.9604-2.8678,21.8088-6.0743,32.55-9.7348,7.3488-2.5044,14.4583-5.8489,22.083-7.5106-2.0675,1.492-4.7189,2.3481-7.0166,3.4592-13.7538,6.651-27.3883,13.5567-41.2368,19.989-7.2668,3.3752-14.6859,6.5473-21.7971,10.2731-4.0008,2.0962-7.6536,4.9285-12.1013,6.0744-1.6367,2.6452-3.0145,5.4906-4.2355,8.358-1.5557,3.6532-2.6858,8.3018-4.3366,11.6877-.1702.3492-.082.6838-.6027.5125ZM1624.7391,22.1482c4.7708-.5265,9.5869-.5114,14.3698-.8895,6.8628-.5425,13.7175-1.489,20.5727-2.1313,6.61-.6193,13.7582-.7228,20.2595-1.5965,2.3746-.3191,4.5361-1.1631,6.8769-1.4519,6.7313-.8306,14.0287-.7824,20.8545-1.3273,10.1983-.8141,20.3654-2.2254,30.5657-2.9822,1.6705-.1239,3.3349-.203,5.0101-.1769-1.6473,1.1496-3.9721,1.0594-5.8785,1.6388-6.4048,1.9462-12.7941,4.2535-19.2123,6.3215-6.0469,1.9484-12.3688,4.4311-18.4388,6.1207-9.9403,2.7668-19.6978,5.586-29.5583,8.5767-6.7352,2.0428-13.6203,3.5718-20.3516,5.6012-7.7512-5.6049-15.8379-10.9362-23.6789-16.4981-.4589-.3255-1.1032-.7286-1.3906-1.2052ZM1659.1532,73.9122l7.9449-19.4257,11.2172,9.4922-19.1621,9.9335Z"/>
            <path class="d" d="M1760.4565,8.7857c-1.1611-.0614-2.1693.5854-3.1831,1.0362-9.1263,4.0586-17.9755,9.1949-26.9949,13.551-15.3983,7.4369-31.0366,14.3098-46.516,21.5604-5.0661,2.373-10.0414,4.9938-15.0163,7.5515,1.7317,1.3663,3.2702,2.9666,4.938,4.4004,1.4417,1.2394,2.9244,2.5326,4.3638,3.7481,6.5495,5.5305,13.6095,10.4196,20.0515,16.0723l.5955.0658,61.7614-67.9858Z"/>
            <path class="d" d="M1624.7391,22.1482c.2874.4766.9317.8796,1.3906,1.2052,7.841,5.5618,15.9277,10.8932,23.6789,16.4981,6.7313-2.0295,13.6165-3.5585,20.3516-5.6012,9.8605-2.9907,19.618-5.8098,29.5583-8.5767,6.07-1.6896,12.3919-4.1724,18.4388-6.1207,6.4182-2.068,12.8076-4.3754,19.2123-6.3215,1.9065-.5793,4.2313-.4891,5.8785-1.6388-1.6752-.0261-3.3396.053-5.0101.1769-10.2004.7568-20.3674,2.1681-30.5657,2.9822-6.8258.5449-14.1231.4967-20.8545,1.3273-2.3407.2888-4.5022,1.1328-6.8769,1.4519-6.5013.8737-13.6495.9772-20.2595,1.5965-6.8552.6423-13.7099,1.5888-20.5727,2.1313-4.7829.3781-9.599.363-14.3698.8895Z"/>
            <path class="d" d="M1657.5004,71.8894c.5207.1714.4325-.1633.6027-.5125,1.6508-3.386,2.7808-8.0345,4.3366-11.6877,1.2211-2.8674,2.5989-5.7128,4.2355-8.358,4.4476-1.1459,8.1004-3.9783,12.1013-6.0744,7.1112-3.7258,14.5304-6.8979,21.7971-10.2731,13.8485-6.4323,27.483-13.338,41.2368-19.989,2.2977-1.1111,4.9491-1.9673,7.0166-3.4592-7.6247,1.6617-14.7342,5.0063-22.083,7.5106-10.7412,3.6605-21.5896,6.867-32.55,9.7348-7.4499,1.9493-14.4495,4.7969-21.7794,7.0813-7.1275,2.2213-14.3767,4.0303-21.5942,5.9403l6.68,30.0869Z"/>
            <polygon class="d" points="1659.1532 73.9122 1678.3154 63.9787 1667.0981 54.4865 1659.1532 73.9122"/>
          </g>
          <g>
            <g>
              <path class="f" d="M1663.932,16.462c-.0564-.0024-.0825.0156,0,0h0Z"/>
              <path class="f" d="M1707.026,12.192c.0168-.002.0251-.0029.0415-.0044.0276-.0479.0535-.0894.0791-.1211l-.1206.1255Z"/>
              <path class="f" d="M1713.9086,11.8863c.0173.0034.0273.0054.0432.0078-.0063-.0264-.0005-.0542-.0432-.0078Z"/>
              <path class="f" d="M1691.0087,13.7946c-.0603.0034-.0925.0171-.1152.0342.0334-.0137.0681-.0254.1152-.0342Z"/>
              <path class="f" d="M1651.2443,17.9962s.0168-.0039.0298-.0073c-.0256-.0059-.0461-.0112-.0776-.0186l.0479.0259Z"/>
              <path class="f" d="M1651.3751,17.9039c.1567.0166-.0352.0684-.1011.085.1755.043.345.0288.5132-.0181-.0088-.0693-.3308-.0234-.4121-.0669Z"/>
              <path class="f" d="M1628.3033,19.9562l.0679-.0308c-.0283.0088-.0491.0195-.0679.0308Z"/>
              <path class="f" d="M1692.0182,17.1398l-.1025.0273c.0542-.0039.083-.0146.1025-.0273Z"/>
              <path class="f" d="M1631.9379,19.8688l.0342-.1128c-.033.0479-.0391.083-.0342.1128Z"/>
              <path class="f" d="M1707.1466,12.0665l.0469-.0474c-.0164.0112-.031.0278-.0469.0474Z"/>
              <path class="f" d="M1720.275,11.3258c.0063.0337.0242.0591.0439.0806.0078-.0005.0181-.001.0181-.001l-.062-.0796Z"/>
              <path class="f" d="M1752.7411,10.108c-.0037-.0132-.0105-.0273-.0208-.0415l-.1223.0898c.0674-.0127.1138-.0288.1431-.0483Z"/>
              <path class="f" d="M1729.1381,10.9298c.0066-.0132.0264-.0269.0266-.041-.1536-.0225-.5493.0063-1.0557.0591l-.0188.1387,1.0479-.1567Z"/>
              <path class="f" d="M1739.0282,13.2184l-.9602-.1899c2.9912-.3911,4.4165-.2417,6.9668-.6885l-.1372.0718c.3794.0298.5374-.6011,4.7351-.2183l.0024.0273c.1431-.0176.1372-.0718.4299-.0244l-.7288-.104c.4221-.1064.7849-.27,1.354-.3389.1238.0195.1699.0718.1855.1143l1.3955-.1689.4438.1382c.4197-.1333.1934-.4883,1.3552-.3818-.4531-.2202.5547-.2051.4023-.3242.0605.0269.1958.063.3049.0981.6777-.0903,1.9539-.2759,2.26-.4365,0,0-2.7087-.3081-3.449-.5205.9646-.0146.2502-.0542.054-.124l-.0583.0698c-.5798-.0122-.5938-.1753-.8845-.1948.001.0132.011.0278.0205.0435l.0347-.0249c.0295.0264.0154.0479-.0139.0664.01.0347-.0144.064-.1716.0684l.0286-.02c-.238.0449-.6543.0562-.8357.0605l-.0151-.1357c-.4033.2969-2.896-.1426-3.4688-.1006-.5891-.1206-1.2832.1562-2.0076.1338-1.147.0571-.5894-.1479-1.1733-.2144-.7244-.022.1589.1455-.1277.1802l-.8755-.1133c.4976-.0605.2195-.1187.1235-.1631-.7444.0425-1.9373-.1035-2.1414.188-1.0132-.0415-1.0256-.1499-1.4563-.1255.1484.0371.438.0566.4453.1113-.4119-.0845-.189.0464-.0225.0586-.6011.1719-3.2209-.2139-3.3223.0952l-.0051-.0542c-.1218.2344.1262.4297-.2898.5898l-.2942-.0737-.4207.1333c-.2944-.0469-.1584-.1182-.1609-.1455-.6899.1646-1.677.1284-2.5271.1733l.9534.5259c-.7273-.0767-2.0432-.2466-2.1675-.0386l-.448-.1631c-1.467-.252-.9834.2637-1.5654.2007l-.739-.1533.7153-.064c-.7253-.0444-1.0181-.0898-1.6016-.1797l-.0056.0063c.04.0054.0664.0137.073.0264l-.0996.0146c-.0764.1187-.4426.23-.947.2705-.7234.0405-1.269.2598-2.4431.1401l-.2625.2544-.8774-.0483-.0205-.1797c.8477-.0737,2.4336-.3013,3.5215-.4189l.0117-.084c-.646.0645-1.3726.2173-1.8008.2422-.2112-.0156-.7639-.1494-.3899-.3096l-.3806.2158c-2.1475.2344-2.1836.248-4.4275.2646l.2039.0713c-.4338.0967-.8669.1919-1.0068.0581-1.3364.1025-2.73.1265-3.6187-.0156l-.1665.231c-.2827.0161-.7375-.2622-.8435.0483l-.5913.1533c-.3862.022-.6099.1665-1.0598.0884l-.0024-.0005c-.0264-.0054-.0542-.0107-.085-.0171l.0066.0176c-.8789-.0098.0261.1953-.9805.1587-.3328-.124-.3281.2993-.8179.292l-.5134-.2637c-.8921-.1006-1.0168.2178-2.2898.3267-.6194-.0571-.9309-.2925-.5435-.5576-.5356.3267-.2397.2036-.9678.4004-.1206-.1055-.0437-.1367.1123-.2539-.6621-.0796-.3967.1382-.8904.1733-.1301.229-.2759.5884-.4358.6157l.1956.0518c-.5154.1636-1.0881.2617-1.7146.187l.0171-.1104-.6548.0962-.0496-.1372-.9368.1021.1311.0293c-.2195.0322-.9404.1255-1.3591.0781l.01-.0781c-1.1855-.1689-2.1274.2075-3.4927.3184l.167-.1689c-.4785-.1279-.1084.251-.6702.207l-.0435-.1924c-.4683.2852-.635-.0044-.9795-.0752l.1782.2407-.6372-.001c-.7039-.0264-.4551-.2856-.3645-.4272l-.4575.2397-.1123-.2168c-.324.29-.3506-.0132-.9465.1772-.0576-.0806.092-.1421-.1179-.1611l-.9741.3994.5918-.1899-.0437.3335c-.6067.3008-.856.0352-1.2969.1636l.3005-.123c-.7263.1401-.7783.0044-1.1995-.0337.1343.0498.3391.124.0461.1914-.2161.0361-.1292-.105-.3386-.124-.0293.2188-.5408.3892-1.0254.3345.0029-.0317.0103-.0625.0391-.0854-.1174.0474-.1748.1099-.3904.0791l.1006-.2554-.3833.2725c-.2766-.0391-.6541.1772-.6343.0098l.1489-.064-2.0537.1499-.0471-.1909c-.177.2876-1.1252.0122-1.0261.3384-.4038-.1421-1.509.2837-1.3176-.1152-1.3481.1079-2.0408.5435-3.6938.5273-.6128-.2598-2.1992.0063-3.2522.0796-2.0396.3423-3.3545.5977-5.4429.9136-1.3025-.3169-3.1326.4736-4.5132.3604l-.3557.2148c-.9277-.1895-2.2744.2954-3.5654.1499-.3032.1089-.4636.1499-.5352.1636.0581.0024.1484.0273.1863.1367-.3687-.042-1.0913.1313-1.0593-.0981l.0898-.0327c.033-.2295-1.0876.2168-1.5085.0635l.2429.2178-.6885.0293.1792-.0649c-2.9346.8315-4.3218.2222-7.1062.9717.3472-.2988-.5413.1924-.6064-.0889-.7473-.2876-1.3052.2158-1.874.3745.0015.0142-.0037.0312-.0344.0566l-1.0156.0776c.5635-.4287-.6943.3813-.1741.0117-2.667.0234-6.0552.7021-9.0862.8223l.1401.082c-.7671.0479-1.7122.2275-2.3018.1147-.5925-.1123-1.27.313-1.4963.3418-.635.1987-1.2397-.0869-.9622-.0869-.686.085-1.3154.4551-2.2793.3687-.3433-.2891-2.5925.4551-2.6396.1094l-.0088.0298c-1.238-.1602-2.3682.2803-3.6936.1089,0,0,.0242-.0264.0679-.0513l-2.647,1.1499.801,1.1328,2.3813.8584c2.1292-.1226,4.2241-.3442,6.3313-.5288l5.0867.0649c4.1616-.3301,8.2451-.8892,12.2871-1.3677l.8389-.353c2.4158.2153,5.4436-.603,8.0657-.5503l.0334-.23c.728-.0879.6912.0566.875.0771,6.7825-.7412,13.741-1.752,19.8733-2.0908.6028.0884,2.3855-.1816,2.8621-.0718,1.9575-.4766,4.0586-.688,6.0471-.8618l-.0728.0322.9312-.1387c.0413.0146.0488.0405.0205.061,1.0332-.2876,2.7095-.2271,4.0042-.2529l-.073.0308c3.7642-.3169,7.3538-.541,10.9883-.8848,3.6646-.3696,7.3228-.6899,11.0933-.9302,1.7617.0098,3.6765-.2163,5.593-.4497,1.9207-.2314,3.8796-.4849,5.8914-.5215.7573.1396,8.811-.751,9.5129-.9131Z"/>
              <path class="f" d="M1750.8759,11.8678l-.031.0039c.0095.0947.053.0547.031-.0039Z"/>
              <polygon class="f" points="1733.9701 10.757 1734.0231 10.7545 1733.8124 10.6388 1733.9701 10.757"/>
              <path class="f" d="M1744.65,9.734c-.4827.0132-.5029.0381-.4321.0698.1741-.0098.3254-.0303.4321-.0698Z"/>
              <path class="f" d="M1754.7792,11.3414c.2527-.0146.1519-.0625-.0015-.1123-.2573.0327-.4343.0552-.4343.0552.1257.0166.3074.0405.4358.0571Z"/>
              <path class="f" d="M1753.6427,10.1481l.072-.0835c-.1467.0317-.1384.0591-.072.0835Z"/>
            </g>
            <g>
              <path class="f" d="M1726.1483,19.4259c.0464-.0059.0635-.0278,0,0h0Z"/>
              <path class="f" d="M1692.1493,30.0861c-.0134.0039-.0198.0059-.0327.0098-.012.0503-.0237.0942-.0374.1284l.0701-.1382Z"/>
              <path class="f" d="M1686.673,31.4401c-.0146-.0005-.0232-.0005-.0366-.001.0112.0249.0129.0527.0366.001Z"/>
              <path class="f" d="M1704.8409,26.254c.0483-.0132.0713-.0312.0857-.0518-.0239.0181-.0493.0356-.0857.0518Z"/>
              <path class="f" d="M1736.0548,15.901s-.0127.0068-.0225.0117c.0222.002.0393.0034.0671.0063l-.0447-.0181Z"/>
              <path class="f" d="M1735.9708,16.0113c-.1304.0093.0122-.0718.0615-.0986-.1516-.0132-.2852.0273-.4102.0996.0237.0659.2729-.0303.3486-.001Z"/>
              <path class="f" d="M1754.2379,11.3243l-.0518.0361c.022-.0107.0376-.0234.0518-.0361Z"/>
              <path class="f" d="M1703.2445,23.1661c.0266-.0151.0486-.0273.0759-.0425-.0427.0122-.0632.0269-.0759.0425Z"/>
              <path class="f" d="M1751.2948,11.7257l-.0129.1147c.0203-.0503.0208-.0854.0129-.1147Z"/>
              <path class="f" d="M1692.0792,30.2242l-.0276.0527c.0107-.0132.019-.0317.0276-.0527Z"/>
              <path class="f" d="M1681.6442,33.0299c-.0127-.0317-.0327-.0537-.0535-.0713-.0061.002-.0144.0039-.0144.0039l.0679.0674Z"/>
              <path class="f" d="M1655.5316,38.8448c.0061.0127.0149.0249.0269.0371l.0774-.1074c-.0515.0239-.0852.0474-.1042.0703Z"/>
              <path class="f" d="M1674.5865,34.8287c-.0022.0142-.0151.0303-.012.0439.1296-.0024.4448-.0938.8433-.2261l-.0173-.1372-.814.3193Z"/>
              <path class="f" d="M1666.0951,34.089l.8115.0518c-.5823.1997-1.0928.3545-1.5625.4795-.2346.0605-.4585.1187-.6765.1753-.1982.043-.3909.0845-.5806.1255-.8196.1641-1.6438.3286-2.6655.6851l.1028-.085c-.3242.0269-.3425.6045-3.9036.8052l-.0076-.0264c-.1157.0376-.0996.0894-.3528.0879l.6274-.0044c-.3301.1621-.5967.3779-1.053.5308-.1067-.001-.1562-.0439-.1785-.083l-1.1162.3921-.3997-.0586c-.3164.2007-.042.5063-1.0176.6226.425.127-.4011.3032-.2463.3892-.0562-.0146-.1755-.0239-.2737-.0366-.5303.2153-1.5225.6362-1.7271.8477,0,0,2.2893-.2163,2.9333-.146-.7737.1934-.1877.0986-.0125.1299l.0295-.0786c.4702-.0942.5193.0571.7593.0283-.0042-.0127-.0159-.0254-.0271-.0391l-.0222.0298c-.0303-.0205-.0237-.0435-.0046-.0669-.0164-.0312-.0039-.064.1226-.0942l-.0183.0239c.1819-.0825.5166-.1621.6621-.1963l.0435.1294c.261-.3599,2.3762-.2954,2.8286-.4004.4995.043,1.0103-.3145,1.6038-.373.9216-.1836.5037.0811.9878.0835.5916-.0518-.1528-.1274.0745-.1904l.7292.0234c-.395.1084-.1599.1387-.0752.1729.5964-.1157,1.5913-.0811,1.7185-.3896.8379-.0571.8921.0376,1.2588-.0459-.1252-.0161-.4001.0073-.4104-.0469.3811.0259.1594-.0718.0098-.0605.502-.2495,2.6853-.2358,2.7151-.5571l.0151.0527c.0513-.2471-.1902-.4014.1147-.6191l.2544.0293.3142-.1924c.2493.0024.1536.0923.1611.1187.5271-.2612,1.3359-.376,2.0161-.5513l-.8865-.3667c.606-.0347,1.7092-.0757,1.7646-.2969l.3994.0898c1.2485.0205.74-.4077,1.2261-.437l.6348.0332-.5664.1743c.5991-.0703.8474-.0718,1.3418-.0781l.0032-.0073c-.0339.0015-.0571-.0024-.0654-.0137l.0774-.0303c.0347-.1274.3062-.2939.7063-.4141.5735-.1523.9648-.4487,1.937-.5186l.1541-.2891.717-.0918.0562.1719c-.6643.207-1.8894.6768-2.7393.9595l.01.0835c.5054-.1631,1.0562-.4238,1.3948-.5156.1738-.0186.6482.0249.384.2393l.2571-.27c1.6777-.5693,1.6855-.5815,3.5034-.9668l-.1807-.0356c.3308-.166.6611-.3301.8042-.2227,1.0613-.3208,2.1863-.5747,2.9404-.584l.082-.252c.2253-.0625.6594.1328.6733-.186l.4414-.2451c.3062-.0845.4531-.2598.834-.2554v.0005l.002-.0005c.0225.001.0461.002.0725.0029l-.0093-.0156c.7107-.1299-.0654-.1802.7532-.314.2966.0649.1956-.3457.5916-.4204l.4739.1729c.7415-.0454.769-.376,1.7717-.6743.5127-.0356.8157.1479.5625.4629.3589-.3965.1479-.2334.6914-.5273.1206.0854.0652.127-.0347.2627.5508-.0156.2896-.189.6799-.29.0554-.2402.0955-.6108.2192-.6582l-.1692-.0244c.384-.2236.8254-.397,1.3359-.4141l.0088.1108.501-.1826.0657.1279.7244-.2197-.1094-.0127c.168-.0605.7256-.2378,1.0662-.2393l.0049.0786c.9448.0425,1.7219-.4409,2.8142-.7446l-.1079.1899c.4189.0566.0459-.2598.5156-.3013l.0715.1826c.3323-.3516.5276-.0815.8262-.0645l-.1943-.2109.5269-.0889c.5857-.0781.4336.2114.3872.3638l.3291-.3032.1377.1948c.2073-.3325.2917-.042.7422-.3213.0647.0693-.0452.1528.1318.1382l.71-.5493-.4421.2827-.0374-.3325c.4297-.3911.6895-.1768,1.02-.3755l-.2168.1704c.5593-.2588.6309-.1372.9819-.1724-.1206-.0254-.3037-.0625-.0818-.1787.167-.0723.1289.0801.303.062-.0288-.2212.3511-.4653.7573-.4907.0051.0312.0066.0625-.0117.0894.0847-.0649.1165-.1348.2993-.1396l-.022.2637.248-.3257c.2339-.0068.489-.2778.5127-.1123l-.1057.0864,1.6272-.478.0837.1772c.0745-.3071.9038-.1919.7466-.4922.3594.0747,1.1501-.5098,1.0894-.0933,1.0605-.3145,1.5186-.8457,2.8538-1.0869.552.1572,1.7681-.3477,2.5986-.5825,1.5647-.6504,2.5632-1.104,4.1965-1.7358,1.127.1069,2.4417-.9478,3.5884-1.0513l.2412-.2642c.7974.04,1.7822-.6401,2.8662-.6997.2214-.1528.3425-.2178.3977-.2422-.0481.0068-.1272-.0034-.1833-.1035.3096-.0166.8572-.2969.885-.0693l-.0657.0454c.0271.228.835-.3794,1.2139-.2964l-.2495-.1733.5537-.1353-.1304.0903c2.179-1.2705,3.4734-.8931,5.5176-2.0918-.2075.3472.3889-.2764.5093-.0137.6699.1567,1.0015-.4204,1.4233-.666-.0046-.0132-.0044-.0308.0144-.0605l.801-.2363c-.3533.5044.47-.4785.1377-.0386,2.1108-.4424,4.7085-1.5029,7.1528-1.9907l-.1284-.064c.614-.1396,1.3503-.4336,1.8501-.3979.4993.0376.9661-.4683,1.1458-.5205.4792-.27,1.0137-.0591.7898-.0269.5393-.1572.9897-.5962,1.7847-.6035.3171.2471,2.0386-.6914,2.1248-.3477l.0034-.0303c1.0247.0718,1.8889-.4932,2.989-.4277,0,0-.0166.0283-.0493.0566l2.0369-1.3452-.7766-1.0674-2.0566-.6626c-1.7339.3291-3.4595.6978-5.1743,1.1079-1.4028.1548-2.8059.3364-4.2078.5474-3.3149.8359-6.6572,1.8755-9.8262,3.0342l-.5964.4785c-2.0168.1982-4.2629,1.4966-6.3938,1.8442l.0278.228c-.5671.1968-.5715.0513-.7249.0591-5.3,1.7598-10.6707,3.7988-15.5986,5.1108-.5105.0093-1.8997.5537-2.3132.5225-1.4856.7676-3.1399,1.3232-4.6948,1.8037l.0508-.043-.7151.2793c-.0364-.0073-.0486-.0317-.0305-.0557-.76.457-2.1121.6772-3.134.8896l.0515-.041c-1.4614.418-2.887.8081-4.3025,1.1372-1.5122.3477-3.0002.751-4.4658,1.1787-2.9302.8535-5.8123,1.8213-8.7876,2.6523-2.8411.5571-5.8455,2.0933-9.0627,2.7954-.6382-.0078-6.9104,2.0771-7.4482,2.3105Z"/>
              <path class="f" d="M1656.6564,36.8312l.0249-.0088c-.0283-.0903-.0557-.0449-.0249.0088Z"/>
              <polygon class="f" points="1670.6998 35.7506 1670.6576 35.7613 1670.8536 35.8414 1670.6998 35.7506"/>
              <path class="f" d="M1662.151,38.1359c.3887-.062.4019-.0874.3391-.1123-.1399.0264-.259.0625-.3391.1123Z"/>
              <path class="f" d="M1653.5726,38.0314c-.2029.062-.1079.0894.0303.1084.2019-.0811.3403-.1362.3403-.1362-.1194.0176-.2478.0093-.3706.0278Z"/>
              <path class="f" d="M1654.7968,38.9713l-.0371.0942c.1099-.0581.0964-.083.0371-.0942Z"/>
            </g>
            <g>
              <path class="f" d="M1725.83,24.8019c.0491-.0142.0652-.0386,0,0h0Z"/>
              <path class="f" d="M1690.785,41.7633c-.0139.0068-.0205.0103-.0339.0171-.0059.0527-.0125.0991-.0225.1367l.0564-.1538Z"/>
              <path class="f" d="M1685.0204,44.1715c-.0159.002-.0251.0034-.0396.0054.0146.0229.0195.0508.0396-.0054Z"/>
              <path class="f" d="M1703.7015,35.2823c.0505-.0205.0735-.042.0869-.0645-.0239.022-.0496.043-.0869.0645Z"/>
              <path class="f" d="M1736.1036,19.5992s-.0129.0093-.0227.0161c.0239-.002.043-.0034.0728-.0059l-.05-.0103Z"/>
              <path class="f" d="M1736.025,19.7252c-.1394.0327.0056-.0742.0559-.1099-.165.0137-.3044.0786-.4309.1738.0322.062.2903-.0796.375-.064Z"/>
              <path class="f" d="M1754.9545,11.444l-.0513.0444c.0225-.0146.0376-.0298.0513-.0444Z"/>
              <path class="f" d="M1701.6615,32.4474l.0781-.0542c-.0452.0186-.0659.0366-.0781.0542Z"/>
              <path class="f" d="M1751.8383,12.3497l.0015.1162c.0151-.0537.011-.0889-.0015-.1162Z"/>
              <path class="f" d="M1690.7286,41.9171l-.0225.0581c.0098-.0151.0161-.0352.0225-.0581Z"/>
              <path class="f" d="M1679.818,46.5797c-.0176-.0293-.0413-.0479-.0654-.0615-.0063.0029-.0144.0068-.0144.0068l.0798.0547Z"/>
              <path class="f" d="M1661.8239,66.7159c.0137.0024.0288.0024.0457-.0005l-.0383-.1343c-.0125.0596-.0142.1035-.0073.1348Z"/>
              <path class="f" d="M1672.516,49.8737c-.0012.0146-.0142.0337-.0103.0469.1431-.0264.4871-.1694.9099-.3804l-.0332-.1348-.8665.4683Z"/>
              <path class="f" d="M1664.6293,54.2482l.6055-.6792c-1.0249,2.583-1.7395,3.6782-2.3943,5.9375l-.0081-.1426c-.1829.29.3174.7075-1.7285,3.9053l-.0254-.0103c-.0427.1216.0085.1406-.1531.353l.3899-.5356c-.0759.3828-.0762.7441-.2476,1.2261-.0681.0898-.134.1035-.1787.0972l-.0959.2686c-.1111.3081-.1455.5039-.1833.6567l-.105.4468-.2666.2622c-.0178.3213.4062.3457-.1353,1.0366.3752-.1768-.05.4478.1082.4136-.0505.022-.1367.0874-.217.1304-.2129.4624-.7886,1.2769-.8787,1.5386,0,0,.4653-.2754.9644-.6787.5061-.3955,1.0093-.9292,1.2581-1.1665-.4167.7178-.0632.2158.0862.0991l-.0366-.0771c.2534-.436.3992-.3862.5298-.6138-.0125-.0039-.0298-.002-.0476-.0005l.01.0386c-.0354.0132-.0493-.0068-.0557-.0381-.0352-.0054-.0537-.0366-.0005-.1655l.0078.0308c.0461-.209.1726-.5562.2253-.7104l.1328.0322c-.0366-.1177.0063-.3506.144-.6353.3831-.7173,1.1709-1.7764,1.3127-2.126.3484-.4219.3799-1.1001.6938-1.6729.4136-.9463.3723-.4092.6692-.8491.3147-.5703-.196.064-.1104-.1807l.459-.6509c-.1492.4238.0168.2271.0957.1699.2656-.6143.8879-1.4951.7139-1.7861.4602-.7817.5625-.7402.7231-1.0889-.0964.0986-.2354.3174-.2869.2983.248-.2852.0381-.1699-.0427-.0444.0945-.5615,1.5728-2.4043,1.3564-2.6226l.0496.0229c-.1499-.2075-.4316-.1138-.3845-.5107l.1965-.1841.0786-.3789c.1782-.1909.1748-.0537.1995-.0415.1792-.5903.7046-1.2534,1.1511-1.7778-.311.0688-.6211.1646-.9365.2739.4531-.4805,1.3796-1.0972,1.335-1.3022l.4001-.0962c.5828-.2476.6692-.3364.7246-.46.0515-.1177.0215-.231.2544-.2808l.6428-.0386c-.1943.0781-.3782.1543-.5452.2339.564-.1396.8367-.1455,1.4189-.2456l.0034-.0083c-.0405.0078-.0684.0083-.0786-.0015l.0889-.0454c.0271-.1372.3154-.3452.7383-.5435.6121-.2617.9988-.6377,2.0332-.9233l.1223-.3232.7517-.2549.0872.1587c-.6738.3589-1.9236,1.1094-2.833,1.5527l.0198.0825c.5405-.2607,1.1062-.6401,1.4585-.8071.186-.0557.7034-.1196.4495.1548l.2378-.3281c1.7107-.9487,1.7114-.9814,3.5593-1.7446l-.1943.001c.321-.2344.6423-.4595.8064-.3804,1.0376-.5112,2.2515-.9287,3.0532-1.0615l.0623-.2651c.2361-.0981.7222.0283.7046-.2935l.4521-.3174c.3225-.1343.4629-.335.875-.394l.0024-.0005c.0242-.0029.0498-.0059.0786-.0093l-.0117-.0142c.7546-.252-.0896-.1689.781-.4443.3274.0132.1733-.3813.5928-.5254l.5315.0874c.7969-.1821.7888-.5176,1.8345-1.0122.5488-.1387.9019-.0166.668.3501.3379-.4697.1304-.2637.6794-.6719.1423.0605.0879.1133-.002.2705.5955-.1318.2878-.2515.6968-.4365.0261-.2529.0164-.6304.1426-.7056l-.186.0127c.3813-.3081.8289-.5796,1.375-.7168l.0271.1084.5093-.3018.092.1108.7422-.3979-.1201.0151c.1692-.1021.7412-.4189,1.1091-.5098l.0203.0762c1.0547-.2222,1.7075-.8745,2.8127-1.415l-.0796.2114c.4468-.0337.001-.2695.4875-.4082l.105.166c.2905-.417.5388-.1899.8547-.23l-.2366-.1714.5405-.1914c.6062-.188.4871.1294.4604.2891l.3027-.3623.1719.1685c.1721-.3682.302-.0933.7395-.4512.0774.0581-.0276.1606.157.1147l.6846-.6675-.4346.3569-.0806-.3252c.408-.4644.7129-.2915,1.0415-.5449l-.2114.2061c.5659-.3506.6582-.2393,1.0286-.3306-.1316-.0063-.3313-.0142-.1067-.1655.1704-.0991.1465.0596.3308.0142-.0542-.2168.3262-.521.7612-.6089.0088.0303.0134.0615-.0034.0913.0842-.0781.1113-.1533.3076-.186l.0032.2671.2334-.3638c.2515-.0435.4993-.353.5415-.1914l-.1052.1025,1.7117-.729.1084.1646c.0496-.3184.9631-.3345.7615-.6099.4028.022,1.1843-.709,1.1648-.2803,1.1008-.5068,1.5317-1.1226,2.9351-1.606.6091.0581,1.8555-.6685,2.719-1.0542,1.6099-.9287,2.6101-1.5854,4.2964-2.4824,1.2214-.082,2.5161-1.3574,3.7354-1.6533l.23-.3052c.8591-.0928,1.8428-.9395,2.998-1.1797.2214-.1904.3445-.2754.4009-.3091-.0508.0146-.1367.0176-.207-.0737.3298-.0679.8875-.4409.9407-.2168l-.0654.0566c.0522.2241.8547-.52,1.269-.4995l-.2847-.1328.5791-.228-.1306.1128c2.2083-1.6338,3.6431-1.458,5.7144-3.0142-.1873.3838.3894-.3433.5457-.0996.7351.0396,1.032-.5957,1.459-.9175-.0063-.0127-.0081-.0308.009-.064l.8376-.3818c-.3264.5728.4551-.5688.1445-.0645,1.1311-.4185,2.3684-1.0674,3.6089-1.7495,1.2368-.6841,2.4651-1.3291,3.7385-1.8086l-.1465-.0386c.6355-.2583,1.3835-.6963,1.9246-.7568.5396-.0601.9709-.6504,1.1565-.7373.4756-.3633,1.0806-.248.8438-.1758.5557-.2612.9814-.7773,1.8337-.9331.3728.1836,2.0996-1.0537,2.2375-.7295l-.0002-.0308c1.1108-.1118,1.9688-.8188,3.1624-.9395,0,0-.0142.0308-.0459.0645.6648-.564,1.3413-1.1191,2.0293-1.6675l-.9729-.938-2.3103-.3164c-1.8352.6196-3.6477,1.2974-5.439,2.0215-1.4893.4141-2.9719.8628-4.4463,1.3467-1.707.7275-3.5051,1.5771-5.1414,2.4863-1.6223.8877-3.208,1.7344-4.8406,2.5674l-.5862.5815c-2.1318.5459-4.4097,2.2104-6.6667,2.9097l.0527.2246c-.5896.293-.6089.1475-.7729.1816-5.5178,2.6523-11.0947,5.6035-16.1941,7.8267-.5444.1011-1.9678.8965-2.4133.9395-1.4966,1.0503-3.2207,1.8086-4.8567,2.5479l.0508-.0508-.7463.3936c-.0405-.0015-.0559-.0239-.0391-.0508-.7771.5806-2.2222,1.0327-3.3135,1.4492l.0513-.0508c-6.1755,2.7974-11.7473,5.9175-18.0144,8.5234-1.489.4678-3.1128,1.3716-4.6079,2.2529-1.5173.8877-3.0527,1.7944-4.6411,2.3379-.1409.0181-.563.1045-1.5659.5742-.2485.125-.5327.2856-.8333.5063-.2434.1816-.4619.3618-.6919.5674-.4504.4082-.8743.8818-1.2422,1.3721-.7415.9849-1.248,2.0122-1.5918,2.791-.3359.7764-.5352,1.3081-.5815,1.4771Z"/>
              <path class="f" d="M1660.889,64.3995l.0093-.0259c-.0889-.0342-.0708.0176-.0093.0259Z"/>
              <polygon class="f" points="1669.2365 51.8116 1669.2081 51.8444 1669.4117 51.7994 1669.2365 51.8116"/>
              <path class="f" d="M1665.3402,60.3341c.1848-.3921.1711-.4189.1133-.376-.062.1431-.1052.2734-.1133.376Z"/>
              <path class="f" d="M1659.9005,67.5524c-.1016.1523-.0178.1235.0935.062.0852-.1724.1438-.2905.1438-.2905-.0713.0815-.1631.1499-.2373.2285Z"/>
              <path class="f" d="M1661.424,67.4069l.041.0942c.0383-.127.009-.1333-.041-.0942Z"/>
            </g>
            <g>
              <path class="f" d="M1741.5546,30.0861c.0315-.0225.0325-.0464,0,0h0Z"/>
              <path class="f" d="M1722.1827,51.9879c-.0073.0093-.0107.0137-.0178.022.0195.0469.0354.0879.0449.1221l-.0271-.144Z"/>
              <path class="f" d="M1718.8971,55.3141c-.0112.0054-.0176.0083-.0278.0132.0217.0161.0381.0391.0278-.0132Z"/>
              <path class="f" d="M1729.1759,43.6866c.0295-.0283.0371-.0518.0374-.0737-.0085.0234-.0183.0474-.0374.0737Z"/>
              <path class="f" d="M1747.111,23.5089s-.0059.0098-.0105.0176c.0178-.0063.0312-.0112.054-.019l-.0435.0015Z"/>
              <path class="f" d="M1747.1056,23.631c-.0938.0552-.0286-.0645-.0051-.1045-.1221.0439-.2017.1265-.2581.2319.0525.0459.1904-.124.2632-.1274Z"/>
              <path class="f" d="M1757.2147,11.5001l-.0105.0581c.0076-.0215.0098-.04.0105-.0581Z"/>
              <path class="f" d="M1726.33,41.7164c.0125-.0229.0222-.04.0352-.0635-.0261.0259-.0337.0459-.0352.0635Z"/>
              <path class="f" d="M1755.5436,13.3575l.0669.0923c-.0195-.0479-.0425-.0747-.0669-.0923Z"/>
              <path class="f" d="M1722.2098,52.132l.0095.0547c.0002-.0151-.0039-.0337-.0095-.0547Z"/>
              <path class="f" d="M1715.9982,58.5167c-.0264-.0215-.0532-.0317-.0781-.0386-.0037.0039-.0088.0088-.0088.0088l.0869.0298Z"/>
              <path class="f" d="M1700.1163,73.6534c.0103.0093.0229.0171.0376.0244l.01-.1172c-.0286.0361-.0435.0669-.0476.0928Z"/>
              <path class="f" d="M1711.7094,62.6598c.0063.0122.0056.0303.0156.0405.0957-.0518.281-.2476.5066-.5073l-.0886-.105-.4336.5718Z"/>
              <path class="f" d="M1705.0004,65.4186l.6255-.29c-1.2578,1.6006-2.0925,2.125-3.0852,3.5708l.02-.1118c-.2244.1636.1663.627-2.2925,2.2886l-.0205-.0181c-.0586.0742-.0181.1118-.1956.2031l.4373-.2461c-.1367.2617-.2.5352-.4299.8184-.0742.0366-.1333.0181-.1707-.0059-.186.2261-.3706.4419-.5564.644l-.301.0425c-.0557.1187-.0022.2246-.0127.3408-.033.1421-.0171.1592-.5322.4858.4778-.1079-.2869.5073-.0872.5093-.0623.0244-.1865.0986-.291.1699-.2119.3032-.4768.8804-.5034,1.4277-.042.5459.0964.9526.1846,1.0933,0,0-.0034-.167.0344-.4409.0366-.2695.1304-.6572.3369-1.0034.4202-.7236,1.1082-1.0059,1.3809-1.062-.5764.4326-.1157.1416.0415.1206l-.0066-.0791c.3381-.2007.4387-.0757.6162-.1724-.0088-.0098-.0239-.0176-.0388-.0259l-.0037.0327c-.0332-.0093-.0383-.0312-.0339-.0571-.0269-.0229-.0322-.0547.0505-.1187l-.0029.0259c.1021-.125.3176-.3003.4104-.3789l.0989.0942c.0227-.3643,1.6021-1.1753,1.8599-1.4639.3816-.1748.5425-.6719.9312-.9805.5483-.5493.4058-.1562.7522-.3677.387-.3057-.1838-.0332-.0608-.1851l.5286-.3076c-.2131.2637-.0295.1816.0508.1704.3523-.3604,1.0674-.7861.9678-1.084.5493-.4204.6318-.3486.8359-.5576-.1021.04-.2646.1548-.3066.1191.2708-.123.0645-.1172-.0298-.0518.1877-.3887,1.8052-1.2788,1.6396-1.543l.041.0361c-.1023-.2202-.3672-.248-.2664-.5464l.2031-.0781.1221-.2812c.1843-.0977.1648.0132.1851.0312.2388-.4224.7712-.8354,1.1763-1.2446l-.8604.0522c.4272-.2686,1.2231-.7339,1.1406-.9351l.3472-.0825c.9397-.4692.3245-.6187.6707-.8306l.4922-.2183-.3262.3604c.4082-.2886.5923-.3862.9595-.5806l-.0017-.0068c-.0247.0137-.0442.0195-.0566.0137l.041-.0542c-.0442-.1172.0671-.3564.3005-.6069.3459-.3433.479-.7334,1.1685-1.1606l-.0447-.2939.4846-.3481.1365.1191c-.3794.4209-1.0388,1.27-1.5232,1.8237l.0537.064c.2898-.3252.5588-.7476.7639-.9507.1218-.0811.4973-.2266.4194.0483l.0425-.3174c.9365-1.1006.9368-1.1138,2.0837-2.1128l-.1545.0381c.157-.2603.3147-.5195.4797-.4844.6187-.6616,1.3215-1.2915,1.8789-1.5801l-.074-.2393c.1348-.1362.5627-.1357.4021-.4058l.199-.3701c.1843-.1855.1995-.3882.4861-.5298l.0015-.0005c.0171-.0078.0352-.0161.0557-.0254l-.0154-.0098c.4592-.3813-.1453-.124.3916-.5508.2551-.0615-.042-.3633.2114-.5791l.4438-.043c.5229-.3311.3643-.6152.9343-1.2681.354-.2393.6775-.2129.6665.1514.0432-.4751-.0208-.2534.2112-.7227.1353.02.1179.0771.1211.231.3923-.2432.1047-.2778.3311-.5264-.0947-.2212-.2734-.542-.2117-.6338l-.1355.0518c.1514-.3467.3794-.6709.7388-.9048l.0696.0859.2583-.3657.1211.0747.3953-.4976-.0862.0386c.0867-.1221.3804-.5156.6221-.6724l.05.0605c.7087-.418.9136-1.1133,1.5164-1.812l.0349.1973c.3276-.1255-.1213-.229.189-.4526l.1558.1182c.0342-.417.3274-.2778.5518-.3804l-.2593-.0942.3279-.2798c.3799-.291.4321.0044.4841.1455l.0684-.373.208.106c-.0349-.3501.1892-.145.3625-.5435.0857.0322.0515.1421.1726.0635l.2227-.7153-.1716.397-.2092-.2588c.1028-.4829.415-.4019.5522-.688l-.0691.2202c.2756-.4204.3967-.3452.6392-.5029-.1035.0229-.2603.0596-.1565-.1177.0859-.1211.1392.0186.26-.0596-.1394-.1724.0146-.5137.3083-.6826.0205.0244.0381.0493.0386.0786.0293-.085.0161-.1543.1516-.2246l.1233.2261.0144-.3599c.1733-.0908.2234-.4082.3289-.2798l-.0344.1104.9827-.9902.1572.1167c-.1057-.2817.5872-.4922.3083-.6831.3125-.0718.6018-.8511.7776-.4839.6389-.6572.7021-1.2656,1.5889-1.9648.5083-.0771,1.1577-.9521,1.6555-1.4619.8286-1.1284,1.3391-1.8799,2.2117-3.0103.9033-.3394,1.3091-1.6953,2.1113-2.2134l.0361-.3071c.6184-.2676.9846-1.1963,1.7625-1.6523.0825-.209.1379-.3076.1658-.3486-.0322.0234-.0967.0449-.1931-.0166.2224-.1299.4797-.5664.6235-.3892l-.0244.062c.1433.1777.4182-.6255.7456-.6992l-.2793-.0498.3401-.3193-.0486.124c.948-1.8643,2.1248-2.0317,3.0251-3.7729.0278.3638.1465-.3711.3767-.1968.5874-.1143.5322-.7129.7222-1.0698-.0105-.0098-.0198-.0244-.0212-.0557l.4824-.4883c-.0027.5493.105-.5698.0842-.0825,1.4036-1.1353,2.7249-3.0972,4.1675-4.5981l-.1294.0073c.3564-.3887.6975-.9614,1.0703-1.1665.373-.2065.3904-.8208.4797-.9482.1633-.438.6648-.5312.53-.3989.2715-.3857.3059-.9365.8369-1.3374.3794.0312.9229-1.5425,1.2007-1.3325l-.0178-.0239c.7332-.4873.9111-1.3115,1.6838-1.9053,0,0,.0078.0312.0051.0718.1562-.7339.2908-1.646.0168-2.3462-.4104.1284-.8267.166-1.2261.1299-.4097.1904-.8533.25-1.4087.4297l-2.6021,3.3535-2.4819,2.3311c-1.7466,2.1167-3.5066,4.2295-5.3408,6.3101l-.2004.6172c-1.4265.9087-2.4292,2.8203-3.8428,3.9111l.1433.1782c-.3198.3779-.4014.2593-.5122.3242-3.0361,3.4634-5.9636,7.2129-8.9504,10.0942-.3796.1948-1.1316,1.1494-1.4592,1.2744-.7002,1.1768-1.6614,2.2266-2.5886,3.2007l.0159-.0542-.3945.4971c-.0317.0073-.054-.0083-.053-.0347-.334.6621-1.2385,1.3608-1.8877,1.9517l.0161-.0542c-1.7341,1.8721-3.3237,3.7515-4.9319,5.6104-1.5847,1.9019-3.1892,3.7749-4.9856,5.5879-1.8379,1.5293-3.2715,3.9756-5.2976,5.771-.4983.2217-4.0005,4.4048-4.2429,4.8354Z"/>
              <path class="f" d="M1699.8888,71.6276l.0125-.0156c-.0708-.063-.064-.0171-.0125.0156Z"/>
              <polygon class="f" points="1709.3287 64.9161 1709.3031 64.9415 1709.493 64.9293 1709.3287 64.9161"/>
              <path class="f" d="M1704.5619,70.3834c.239-.2236.2319-.25.1731-.2417-.0825.0845-.1458.166-.1731.2417Z"/>
              <path class="f" d="M1698.0226,73.7467c-.1738.2368-.0608.1729.0857.0732.1589-.2378.281-.3706.281-.3706-.114.0908-.2505.1758-.3667.2974Z"/>
              <path class="f" d="M1699.5831,73.9552l.0081.0942c.0671-.082.0466-.1011-.0081-.0942Z"/>
            </g>
            <g>
              <path class="f" d="M1642.2792,30.8512c-.0178-.0229-.0381-.019,0,0h0Z"/>
              <path class="f" d="M1656.2699,47.5782c.0024.0093.0037.0132.0059.022.0483.0073.0898.0142.1216.0195l-.1274-.0415Z"/>
              <path class="f" d="M1656.6263,51.153l-.0081.022c.0264-.0063.0537-.0073.0081-.022Z"/>
              <path class="f" d="M1653.5963,39.5773c-.0215-.0474-.0437-.0684-.0662-.0791.0222.021.0439.0444.0662.0791Z"/>
              <path class="f" d="M1636.965,27.3077s.0081.0029.0146.0059c-.0046-.0146-.0083-.0254-.0144-.0444l-.0002.0386Z"/>
              <path class="f" d="M1637.0673,27.2863c.0427.0718-.0549.0391-.0876.0273.0325.0991.0986.1528.1848.1802.0408-.0566-.0972-.1436-.0972-.2075Z"/>
              <path class="f" d="M1627.3383,20.3732l.0562-.0132c-.0222.0015-.0396.0068-.0562.0132Z"/>
              <path class="f" d="M1650.5619,41.2032l-.0183-.0015s.0076.0034.0183.0015Z"/>
              <path class="f" d="M1629.3551,22.1954l.1133-.019c-.0535-.0059-.0872.0039-.1133.019Z"/>
              <path class="f" d="M1656.3973,47.6197l.0481.0166c-.0115-.0068-.0286-.0117-.0481-.0166Z"/>
              <path class="f" d="M1657.1918,54.2428c-.0327.0088-.0576.022-.0786.0352l.0012.0088.0774-.0439Z"/>
              <path class="f" d="M1659.6027,70.3151c.0129-.0049.0261-.0117.0393-.02l-.0935-.041c.0161.0312.0342.0508.0542.061Z"/>
              <path class="f" d="M1657.754,58.608c.0134.0005.0273.0078.041.0049.0176-.082-.0239-.2759-.0901-.52l-.1357.0181.1848.4971Z"/>
              <path class="f" d="M1655.9113,64.0846l.1418-.5273c.5173,1.4302.4375,2.1851.9971,3.3755l-.0762-.0537c-.0088.1987.6055.1377.4473,2.3457l-.0264.0073c.0242.0684.0767.0532.0457.2119l.064-.3921c.1245.189.3015.335.3972.6069-.0127.0669-.0613.1025-.1018.1201l.2356.6665-.1108.2559c.1514.1812.4834-.0151.4414.5962.1895-.2798.2278.2324.335.1279-.0227.0366-.0505.1133-.0789.1768.1228.3213.3696.9224.5413,1.0391,0,0,.1567-1.4395.3247-1.8613.0642.4829.0652.1138.123-.0015l-.0708-.0132c-.0183-.2949.1389-.3398.1431-.4907-.0127.0034-.0269.0122-.0415.0205l.0261.0117c-.0239.021-.0454.0186-.0654.0083-.0325.0127-.0627.0078-.075-.0708l.0208.0098c-.0559-.1094-.0884-.3164-.1018-.4067l.1309-.0391c-.3083-.1353-.0073-1.4917-.0764-1.77.0879-.3237-.2166-.6104-.229-.9805-.1106-.5645.1155-.3301.1523-.6387-.0134-.3691-.134.1128-.1814-.0239l.0681-.4658c.0825.2368.1257.084.1643.0259-.0767-.3647.0078-.9966-.2842-1.0352-.0061-.5186.0991-.5483.0557-.7593-.0291.0825-.0352.2324-.0879.248.0632-.2256-.0537-.085-.0581.0015-.1948-.2651.0613-1.665-.2424-1.6494l.0527-.0142c-.2334-.0107-.4128.1558-.5872-.019l.0593-.1641-.1479-.1831c.0327-.1582.1082-.105.1345-.1118-.1892-.3125-.1987-.8159-.2761-1.2344l-.4731.5903c.0439-.3833.1567-1.0806-.0508-1.1001l.1433-.2598c.1953-.7925-.2905-.4429-.248-.7495l.1262-.4048.085.3486c.0205-.3755.0554-.5322.1252-.8447l-.0066-.0015c-.0039.0215-.0112.0361-.0234.042l-.0176-.0469c-.1182-.0151-.2383-.1772-.2932-.4238-.0562-.355-.2827-.5879-.1921-1.1987l-.2551-.0845.031-.4492.1758-.0425c.0852.4106.3467,1.1616.4846,1.6836l.0825-.0112c-.0774-.3105-.2429-.6445-.2766-.854.0103-.1089.1296-.4097.2942-.2534l-.2197-.1494c-.2693-1.0312-.2837-1.0376-.3337-2.1641l-.0667.1143c-.1016-.2026-.2029-.4048-.0718-.4971-.1174-.6548-.1499-1.3501-.0117-1.8135l-.2278-.0483c-.0154-.1387.2603-.4043-.0457-.4126l-.1501-.272c-.019-.188-.1589-.2788-.0774-.5112l.0002-.0015c.0054-.0132.011-.0273.0176-.0439l-.0171.0054c.0176-.4331-.1892.0366-.1492-.46.1252-.1758-.2983-.126-.2842-.3643l.2681-.2749c.1045-.4575-.2039-.5327-.3293-1.1968.0486-.3447.2659-.5537.5396-.3828-.3367-.2427-.2073-.1001-.4204-.4648.0991-.084.1331-.0488.2522.0166.0554-.3774-.1499-.1914-.2021-.4531-.2292-.0269-.5847-.0337-.6184-.1123l-.0427.1143c-.178-.2407-.3-.5186-.2761-.8521l.1089-.0161-.1396-.3125.1294-.0571-.1687-.4517-.0188.0737c-.0471-.105-.1934-.4448-.1807-.6665l.0767-.0137c.0701-.6353-.3718-1.0112-.585-1.6538l.177.041c.0872-.2651-.2522.0068-.2527-.2788l.1833-.0669c-.312-.1602-.0332-.3135.0146-.4985l-.2241.144-.032-.3135c-.0098-.3506.2546-.2861.3967-.2744l-.2556-.1689.2058-.1021c-.2957-.0928-.002-.1714-.2126-.4175.0762-.0444.1423.0142.1519-.0903l-.4238-.3843.2065.2451-.3274.0464c-.3167-.2329-.0649-.4053-.2017-.5918l.1284.1211c-.1614-.3413-.0139-.3267-.0083-.6216-.0393.0991-.0991.2432-.1853.064-.0542-.1396.0942-.1021.0884-.2603-.2222.02-.4453-.3496-.5491-.7427.0295-.0112.0596-.0186.0894-.0044-.082-.0742-.1526-.0908-.2078-.2686l.2634-.0425c-.1309-.062-.2629-.1147-.3953-.1577-.0916-.231-.4639-.3384-.3269-.4336l.1306.0586c-.1892-.2095-.4824-.4409-.6121-.5415l-.4006-.3198.1011-.167c-.2378.1602-.3955-.4048-.5623-.1128-.0515-.2598-.6958-.3345-.3831-.5752-.531-.4116-1.0405-.3271-1.5996-.9482-.0483-.4233-.7605-.8086-1.1692-1.147-.9165-.4976-1.5288-.791-2.4453-1.3271-.2507-.7329-1.3748-.8037-1.7795-1.4077l-.2566.0337c-.2012-.4946-.9675-.6216-1.3215-1.2178-.1724-.0283-.2532-.0566-.2864-.0728.0183.0239.0342.0767-.021.1758-.1008-.1704-.4578-.3062-.3037-.4727l.051.0083c.1545-.166-.5095-.2383-.5591-.5151l-.052.2603-.2554-.2349.1021.0166c-1.5291-.4443-1.6267-1.4595-3.0542-1.8877.3059-.1035-.3062-.0503-.1516-.2939-.0745-.5005-.5784-.3218-.8708-.4141-.0083.0117-.021.0229-.0474.0312l-.3918-.3257c.4602-.1167-.4739.0298-.0659-.0576-.9141-.9961-2.4788-1.7852-3.6484-2.7856l-.0002.1152c-.3049-.2422-.7637-.4336-.9153-.7275-.1519-.2939-.6626-.186-.7642-.2412-.3569-.0591-.4075-.4907-.3044-.396-.1533-.0835-.3447-.1055-.5359-.1562-.2092-.0586-.3323-.1069-.6099-.3682-.0149-.1943-.4004-.3149-.5322-.3281-.0374-.0049-.0583-.002-.0696.0063-.0842.0864-.1877.1621-.22.1821l-.031.0186-.0078.0039-.002.001h-.0007l.2722-.147.0005-.0005.0015-.0029s.0071-.0088.0142-.0132c0-.042.01-.0879.0491-.1069l-.0298.0054c-.0769-.4854-.4001-.8677-.7834-1.1284-.386-.2661-.8276-.4302-1.2651-.6655,0,0,.0242-.0195.0615-.0337-.7087.1665-1.1282.4932-1.6401.7368.0381.4038.0996.8105.1653,1.2148.3259.3691.6948.7744.5818,1.0781.0674-.0142.1526.0068.2141.0688.0076.0122,0-.0107.0203.0303.041.082.063.1382.125.2383.115.1914.2502.3589.375.4834.2573.2598.4861.4043.6665.5122.365.2061.5684.2871.6223.3135l1.8298,1.7773,5.0522,3.4985.5098.0449c.709,1.0776,2.2737,1.5586,3.1353,2.585l.1545-.1665c.3049.2036.2026.3022.2529.3872,2.7974,1.9565,5.8081,3.7744,8.1448,5.7969.1558.293.9482.7466,1.0474,1.0098.491.1787.9529.4219,1.3928.6963.1106.0713.2188.1416.3262.2109l.1897.1313c.033.0273.0596.0625.072.1025l-.0247.0073c.0244.0132.0476.0303.0698.0513-.0161.0088-.0415.019-.0591.021.1052-.0176.2.4028.2515.7715.042.3462.0935.7695.1335,1.1011l-.0337-.0317c.4932,1.9072,1.1445,3.5923,1.6021,5.2563.1118.4146.2175.8286.3008,1.2412.0916.4292.1409.7812.2175,1.2988.1431.9629.2959,1.8989.418,2.8564.0105,1.832.9895,3.7129,1.189,5.7446-.1353.4204,1.0708,4.3262,1.2708,4.6431Z"/>
              <path class="f" d="M1657.7999,69.7789l-.0051-.0146c-.0913.0264-.0503.0391.0051.0146Z"/>
              <polygon class="f" points="1658.0895 61.0084 1658.0939 61.0343 1658.1984 60.9044 1658.0895 61.0084"/>
              <path class="f" d="M1659.5638,66.1569c-.0354-.2397-.0605-.2441-.0884-.2017.0178.0854.0452.1567.0884.2017Z"/>
              <path class="f" d="M1658.5131,71.629c.0276.124.0688.062.1091-.0269-.0459-.124-.0764-.2065-.0764-.2065-.0022.0747-.0308.1567-.0327.2334Z"/>
              <path class="f" d="M1659.6112,70.7784l.0847.0171c-.0386-.0669-.0647-.0562-.0847-.0171Z"/>
            </g>
            <g>
              <path class="f" d="M1678.6576,57.1354c-.0066-.0171-.0229-.0112,0,0h0Z"/>
              <path class="f" d="M1688.5411,64.7174c.0046.0034.0103.0068.0103.0068.0361-.0288.0674-.0542.0911-.0732l-.1013.0664Z"/>
              <path class="f" d="M1689.9457,66.2086l.002.0176c.0164-.022.0352-.0415-.002-.0176Z"/>
              <path class="f" d="M1684.6371,62.1998c-.011-.0127-.0247-.0107-.0391-.0039.0134-.001.0266-.0015.0391.0039Z"/>
              <path class="f" d="M1675.6825,54.8517l.0093.0029c.0002-.0117.0005-.02.001-.0352l-.0103.0322Z"/>
              <path class="f" d="M1675.7638,54.8195c.0127.0542-.051.0405-.072.0352-.0022.0786.0325.1143.0891.1255.0452-.0532-.0339-.1069-.0171-.1606Z"/>
              <path class="f" d="M1670.3827,50.6832l.0337-.0093c-.0112.0005-.0225.0044-.0337.0093Z"/>
              <path class="f" d="M1682.5985,64.9655c-.0134-.0029-.021-.0044-.0354-.0078.0115.0122.0237.0122.0354.0078Z"/>
              <path class="f" d="M1671.1564,51.4117l.0796-.0781c-.0374.0288-.0613.0542-.0796.0781Z"/>
              <path class="f" d="M1688.6425,64.651l.0386-.0244c-.009.0059-.0227.0146-.0386.0244Z"/>
              <path class="f" d="M1691.361,67.4386c-.0208.0269-.0347.0503-.0454.0713l.0037.0044.0417-.0757Z"/>
              <path class="f" d="M1697.6591,74.6359l.0149-.0405-.0703.0518c.0215.0034.0398-.0005.0554-.0112Z"/>
              <path class="f" d="M1693.0587,69.4196c.01-.0083.0222-.0137.0315-.0244-.0107-.0562-.0957-.1348-.2139-.2246l-.0935.0996.2759.1494Z"/>
              <path class="f" d="M1693.212,73.6134l-.0361-.3804c.761.4502.9021.915,1.6262,1.2144l-.0703.019c.022.0586.1438-.0205.3169.0522.1912.083.3494.2632.6936,1.0195l-.0166.0215c.0452.0283.0774-.0156.1177.106l-.103-.29c.1604.0386.3464.0151.5271.1201.0203.0508.0017.106-.0193.1445.1548.0879.3196.1738.4937.2544l.0745.2412c.2146-.0015.2834-.3677.6533.0107-.0776-.3062.281-.061.2688-.209.0125.0376.0486.1021.0796.1567.2881.0698.8496.0776.9839-.0532,0,0-.2668-.1548-.51-.3843-.2483-.2271-.45-.5234-.4988-.6968.2639.1826.0852.0005.0647-.1016l-.0435.0518c-.1423-.1323-.0688-.2788-.124-.3579-.0046.0122-.0105.0273-.0164.043l.0198-.0146c-.0061.0293-.019.0449-.0347.0552-.0139.0322-.0334.0532-.0715.0225l.0161-.0112c-.0769-.0112-.1731-.0977-.2141-.1343l.0693-.1177c-.2683.1582-.4553-.7954-.5537-.9009-.012-.2358-.313-.2021-.4211-.3989-.2314-.2427-.0015-.2568-.0562-.4517-.1079-.1968-.0696.1479-.1409.1025l-.073-.3022c.124.0786.1155-.0337.1287-.0908-.1538-.1538-.2595-.5596-.4866-.3931-.1443-.2832-.0747-.3672-.1638-.4561.0007.0645.0369.1509.002.1938-.0139-.1655-.0625-.0127-.0425.0381-.2151-.021-.4045-.9624-.6257-.7563l.0349-.042c-.175.145-.2617.353-.438.3691l-.001-.1284-.1589-.0049c-.0193-.1084.0508-.1279.0684-.1489-.2251-.0488-.3687-.3218-.5425-.5l-.1841.6313c-.0725-.2383-.1841-.6934-.3416-.5688l.0327-.2358c-.0776-.5625-.3357-.0527-.3909-.2476l-.0222-.3032.1606.1343c-.0913-.2183-.1101-.3267-.1482-.543l-.0051.0034c.0032.0146.0022.0273-.0051.0386l-.0264-.0142c-.0903.0693-.2236.0601-.3337-.0381-.1436-.1553-.375-.1313-.4863-.5225l-.2092.1235-.1096-.2622.1147-.1396c.1848.1621.5894.3989.8418.5898l.0569-.0601c-.1462-.1172-.3635-.189-.4487-.2808-.0242-.0654-.0251-.3081.1399-.332l-.2029.0645c-.501-.377-.5093-.3726-.8892-.9409l-.0132.106c-.135-.0396-.2686-.0806-.2036-.2173-.2871-.269-.532-.6118-.5864-.9497l-.1777.1304c-.0574-.061.0486-.3892-.1707-.1826l-.1975-.0376c-.0779-.084-.2087-.0327-.2322-.2085l-.0002-.001-.0032-.0347-.01.0146c-.1406-.2344-.1182.1499-.27-.1294.022-.1768-.251.1455-.332.0181l.0798-.3281c-.092-.2993-.3191-.0879-.6123-.3223-.0723-.1982.0229-.4565.2612-.562-.3037.1157-.1729.0957-.427.064.0461-.1108.0793-.1157.1819-.1665-.0667-.2266-.1584.0068-.2678-.0903-.1689.1431-.4231.3828-.4688.3638l.0017.0884c-.1912-.0049-.3635-.0723-.4392-.271l.073-.0815-.188-.0767.0764-.1177-.2463-.1362.0071.0532c-.063-.0259-.2607-.1177-.3127-.2495l.0508-.0586c-.1245-.4009-.5408-.3188-.8689-.5371l.1372-.0942c-.011-.207-.1775.1714-.2561.0117l.1121-.1592c-.2666.1177-.1113-.1533-.1277-.2886l-.1199.2295-.1104-.1528c-.1057-.188.1013-.3286.2053-.417l-.2288.0767.1174-.1938c-.2375.147-.052-.0928-.2715-.0869.0417-.0757.1055-.0874.0828-.1519l-.4158.0762.2192-.0059-.2202.2456c-.2935.0854-.1643-.1768-.3196-.1836l.1287-.022c-.2095-.0659-.1289-.1816-.1719-.3101-.0112.0693-.0261.1743-.1174.1558-.0583-.0239.0474-.1104.0271-.1743-.1492.1611-.3362.1572-.3711-.0063.0212-.0229.0427-.0444.062-.0542-.0481.0059-.0979.0376-.1082-.04l.1831-.1641-.2346.105c-.0139-.0986-.2109-.0356-.0959-.1538l.0635-.0093-.4312-.4502.1177-.1553c-.2222.1646-.2219-.314-.4146-.0381.0146-.2222-.4629-.1978-.1753-.4517-.3252-.2842-.7212-.1216-1.0071-.5532.0464-.3608-.3879-.5439-.5962-.7402-.5229-.2236-.8701-.3364-1.3235-.6094.0745-.5366-.7749-.5166-.8901-.9629l-.2017.0562c-.0054-.3906-.5405-.4102-.6338-.8657-.1204-.0039-.1726-.0181-.1926-.0278.0068.0176.0034.0601-.0659.1494-.0261-.1313-.2537-.2017-.0918-.3589l.0356.001c.1621-.1572-.3125-.1377-.272-.3628l-.1116.2236-.124-.1655.0713.0015c-1.012-.1816-.8064-1.0181-1.7507-1.1885.2549-.1279-.2131-.001-.0334-.2256.0786-.4102-.3428-.1919-.5342-.2295-.0093.0107-.0217.022-.0435.0327l-.2036-.2188c.3711-.1621-.3586.0908-.0337-.0391-.4131-.7109-1.365-1.1494-1.9709-1.8174l-.0298.0972c-.1626-.1592-.4517-.2524-.4885-.4766-.0369-.2246-.4409-.0576-.5015-.0884-.2478.0034-.1753-.3521-.1235-.2881-.1836-.0938-.541.042-.665-.2461.123-.2983-.7793-.2505-.5645-.5239l-.021.0205c-.1194-.416-.6443-.3091-.7993-.7246,0,0,.0217-.0146.0466-.0244l-1.2742.3154-.5671,1.0371-.0769,1.1587,1.5452,1.0103.8892,1.2158,2.7854,2.1846.3616-.0347c.2278.7974,1.241.9844,1.582,1.7236l.1611-.1582c.1655.1299.062.2246.0745.2881.7371.6055,1.5227,1.2505,2.2629,1.8584.865.7515,1.7236,1.3389,2.3491,1.9653.0552.2217.5042.4414.5061.6411.6011.0991.9407.4087,1.4368.8701l-.0339.0034.2505.1523c-.0024.022-.0183.0435-.0364.0508.3774.0537.6484.5229.9062.8262l-.033.0054c.886.7153,1.781,1.2573,2.6113,1.8472.8591.6128,1.696,1.2515,2.4434,2.0537.5547.9175,1.7915,1.2603,2.5002,2.2231.0229.3062,1.9561,1.6436,2.1853,1.6924Z"/>
              <path class="f" d="M1696.2482,75.6403l-.0105-.0059c-.0532.0786-.0181.0591.0105.0059Z"/>
              <polygon class="f" points="1693.9786 70.5133 1693.9889 70.5245 1694.0294 70.3854 1693.9786 70.5133"/>
              <path class="f" d="M1696.462,72.4088c-.0903-.1108-.1101-.0972-.1194-.0557.0359.0356.0752.0581.1194.0557Z"/>
              <path class="f" d="M1697.7816,76.2008c.1052.0381.0791-.0283.0364-.1064-.1116-.0264-.1819-.043-.1819-.043.0496.041.0903.1099.1455.1494Z"/>
              <path class="f" d="M1697.8578,74.8585l.052-.062c-.0493,0-.0588.0264-.052.062Z"/>
            </g>
            <g>
              <path class="f" d="M1675.6354,66.3712c.0122.0029.0093-.0127,0,0h0Z"/>
              <path class="f" d="M1669.1796,70.0465l-.0061.0039c.0151.043.0281.0806.0381.1089l-.032-.1128Z"/>
              <path class="f" d="M1667.9784,70.3243l-.012-.0078c.0127.0239.0234.0488.012.0078Z"/>
              <path class="f" d="M1671.4635,68.4484c.0105-.002.011-.0137.0081-.0283-.001.0112-.0024.0215-.0081.0283Z"/>
              <path class="f" d="M1677.4552,65.1417l-.0027.0063c.0078.0059.0134.0103.0237.0181l-.021-.0244Z"/>
              <path class="f" d="M1677.4696,65.2218c-.0386-.0176-.0229-.0605-.0171-.0737-.054-.0415-.0818-.0322-.095.0068.0325.062.0767.0269.1121.0669Z"/>
              <path class="f" d="M1681.1461,62.7081l.0098.0322c-.0007-.0107-.0049-.0215-.0098-.0322Z"/>
              <path class="f" d="M1669.7865,65.4513c.0032-.0088.0049-.0132.0083-.0229-.009.0024-.01.0117-.0083.0229Z"/>
              <path class="f" d="M1680.4435,63.2653l.0583.0947c-.0208-.042-.0398-.0708-.0583-.0947Z"/>
              <path class="f" d="M1669.2115,70.1593l.0115.0425c-.0027-.0098-.0068-.0249-.0115-.0425Z"/>
              <path class="f" d="M1666.9542,70.7496c-.0171-.0293-.031-.0532-.0427-.0732l-.0032.001.0459.0723Z"/>
              <path class="f" d="M1661.1886,71.4689l.0081.0425.0105-.0806c-.0098.0093-.0156.021-.0186.0381Z"/>
              <path class="f" d="M1665.3827,70.9894l.0122.0366c.0396.022.1045-.001.1809-.0435l-.0549-.1245-.1382.1313Z"/>
              <path class="f" d="M1662.5223,68.8619l.262.1763c-.3762.3237-.8401.2505-1.0696.6191l-.0078-.0625c-.0383-.0161.002.1187-.0549.2046-.0454.0801-.2368.1348-.5264-.1611l-.0088-.0259c-.0093.0088.0076.0605-.0325-.0044.0303.0508.0671.0962.106.1416-.0137.0796-.0002.209-.0425.2432-.0181-.0259-.0342-.0811-.0464-.1226l-.0737.062-.0474-.1704c.0002.0957.04.4673-.0359.2642.0347.2593-.0288.1548-.0205.2871-.0046-.0317-.0115-.0791-.0181-.123-.0391.0293-.1316.0898-.1873.2153-.0251-.002.1597.5767.321.8389-.1389-.0664-.0374.0337-.0022.1191l.0056-.0649c.0891.0547.1086.2173.1621.2578-.0024-.0132-.0054-.0288-.0085-.0449l-.0032.0225c-.0081-.0283-.0078-.0483-.0049-.0649-.0056-.0352-.0046-.061.021-.0562l-.0024.0181c.0347-.0303.1035-.0156.1348-.0093l.0271.1338c-.0022-.2549.5867.2534.7119.2051.1675.1187.2046-.1323.3567-.1094.2056-.0503.1819.1343.3271.1929.1548.0181-.095-.1304-.0525-.1621l.2229.0996c-.0706.0547.0093.1064.0479.146.1294-.0405.4197.0903.3267-.1675.2048.0415.2507.1416.3152.125-.0413-.0352-.1003-.0566-.1252-.1055.1084.0806.0134-.0396-.0215-.0527.0193-.1411.697.2104.583-.0669l.0237.0488c-.0745-.2114-.2036-.3892-.1909-.5322l.0872.0679.0247-.1191c.0759.0435.0798.1074.0916.1318.0635-.1455.2676-.1094.4116-.1475l-.4031-.4785c.1711.0723.4944.2305.4312.0435l.1555.1509c.3914.2412.0806-.2285.22-.1665l.2085.1455-.1123.0508c.1599.0469.2361.0903.3879.1768l-.0017-.0059c-.0103-.0049-.0188-.0127-.0254-.0244l.0132-.0122c-.0352-.1064-.0107-.2031.0703-.2349.1245-.0269.1392-.2168.4194-.0928l-.0559-.2256.1924.0562.0798.1621c-.135.0547-.3496.2373-.5129.3281l.0332.0757c.0994-.0488.177-.1768.2505-.1929.0479.0166.2124.1455.2068.2842l-.0166-.1895c.3228-.1816.3208-.1904.7576-.1772l-.0703-.0669c.0449-.0815.0903-.1621.1746-.0396.2212-.0757.4871-.0796.7241.0591l-.0654-.2056c.0491-.0112.2585.2446.147-.0332l.0518-.1304c.0674-.0151.0498-.1421.1729-.0664l.0005.0005.0242.0161-.0085-.0156c.1777.0176-.0869-.1704.1235-.1372.1177.1108-.0659-.2695.0315-.2632l.2129.2358c.2158.0894.1021-.1968.3003-.2959.1445.0503.3079.2607.3486.499-.0388-.2935-.0425-.1826.0125-.3599.0698.0942.0684.1221.0896.2275.1633.0698.0164-.1245.0967-.1567-.0752-.2051-.2051-.5264-.1863-.5513l-.0603-.0459c.0295-.144.0942-.2363.2383-.186l.0459.0991.0762-.0991.0693.1216.125-.1099-.0369-.0239c.0256-.0332.115-.1309.2117-.0972l.033.0703c.2893.127.2937-.229.4924-.3555l.0444.1548c.1431.105-.0913-.2271.03-.1992l.0928.1714c-.0413-.2646.1218.0005.2178.061l-.1404-.2153h.1221c.146.022.2129.2539.2581.3809l-.0183-.2153.1167.1934c-.0657-.2593.073.0112.1028-.1602.0464.0718.0449.127.0935.1436l.0098-.3589-.0291.1714-.1389-.2983c-.0168-.27.1479-.0332.1753-.1489l-.0029.1104c.0767-.1265.1467-.0054.2439.0278-.0479-.0444-.1196-.1104-.0935-.1709.0254-.0327.0713.0938.1196.1104-.0928-.1987-.0649-.3418.0562-.2866.0134.0283.0256.0557.03.0762.0024-.041-.0137-.0962.043-.0654l.0925.2261-.0435-.2373c.0725.0386.0527-.1484.1226.0005l-.0015.0552.3433-.1069.094.1704c-.0925-.2539.2168.0015.0525-.2905.1428.1313.1726-.2363.3115.1172.2183-.082.1619-.4624.4956-.4302.2358.2378.4314.0176.6067-.0361.251-.2832.3975-.4966.6699-.7559.3975.2964.4084-.3887.7312-.2729l-.0249-.1875c.2673.1787.3184-.2388.6377-.0952.0115-.0938.0251-.1284.0332-.1401-.0127-.0029-.0415-.0259-.0974-.1235.0913.041.1572-.1055.2527.0986l-.0034.0283c.0952.2041.1189-.1816.2698-.0405l-.1445-.1968.123-.0186-.0066.0557c.2073-.7139.7632-.1411.9641-.7998.0642.2637.0205-.167.158.0859.2732.2651.1628-.1738.2065-.3057-.0063-.0127-.0129-.0278-.0181-.0503l.1697-.0503c.075.3716-.0276-.3267.0298-.0068.2629.0151.4934-.1074.7234-.2505.1157-.0713.2363-.1455.3484-.2148.1033-.0581.2007-.0981.323-.1206l-.0579-.0762c.1162-.0347.218-.2061.375-.1128.1602.0898.1128-.314.146-.3467.0383-.1963.2834.0391.228.0483.106-.103.0637-.4541.3052-.4277.2253.2334.3123-.5532.5134-.2812l-.0156-.0249c.387.0137.3232-.4775.6926-.5771,0,0,.0154.0215.0256.0449-.1165-.4028-.2969-.7734-.5198-1.0869-.3621-.1494-.7136-.3179-1.0532-.5039-.3062-.1025-.5879-.2559-.8418-.4448.0049.1035-.0798.2588-.2605.438-.2312-.0122-.4939-.0259-.8076-.0176-.7434.3799-1.2939.752-1.905,1.1099l-.0127.3027c-.5759-.2144-.8035.5-1.3477.417l.0952.2046c-.1047.0703-.1614-.0581-.207-.0786-1.0107.5879-1.9368,1.4141-2.9973,1.6504-.1582-.085-.3906.1362-.5334.0332-.175.4048-.4963.5708-.8145.6919v-.0273l-.1233.1094c-.0146-.0137-.0276-.0371-.031-.0547-.0703.2573-.4155.2075-.6504.2324l.0002-.0273c-1.1724.5327-2.0566,1.438-3.3428,1.7217-.6953-.0669-1.0903.6943-1.8362.7207-.2102-.1465-1.3713.6143-1.4351.7632Z"/>
              <path class="f" d="M1661.1014,69.8702l.0015-.0015c-.0244-.0918-.0178-.0566-.0015.0015Z"/>
              <polygon class="f" points="1664.5179 71.108 1664.5089 71.1095 1664.5978 71.215 1664.5179 71.108"/>
              <path class="f" d="M1662.9271,71.9908c.0928-.0137.083-.0352.0559-.0635-.0293.0088-.0515.0278-.0559.0635Z"/>
              <path class="f" d="M1660.9091,70.0778c-.0127-.0078-.0105.0493-.0032.1123.0168-.0117.0264-.0186.0264-.0186-.0056-.0225-.0176-.0713-.0232-.0938Z"/>
              <path class="f" d="M1661.0375,71.3634l-.0081.0781c.0225-.0205.0195-.0488.0081-.0781Z"/>
            </g>
          </g>
        </g>
        <path class="g" d="M1640.1032,86.9157c-7.219,10.0674-15.5857,19.3272-24.8103,27.5921-15.2753,13.6859-33.0976,24.6123-52.6031,31.0945-19.4202,6.4538-40.2317,8.2091-60.5634,6.4062-20.1187-1.784-40.8981-7.234-57.2045-19.6255-13.4882-10.2499-24.2294-26.6993-26.5247-43.6807-3.2968-24.3911,18.7578-41.0422,41.7859-38.8381,19.6792,1.8836,41.3301,20.8867,35.9003,42.1971-3.9439,15.4788-18.3075,27.175-30.7251,35.9982-13.1748,9.3613-27.5255,17.0712-42.1652,23.8725-9.832,4.5678-19.8634,8.7924-30.1266,12.2922-4.0937,1.3959-8.2259,2.6784-12.3913,3.8431"/>
      </g>
    </g>
  </g>
</svg>