<?xml version="1.0" encoding="UTF-8"?>
<svg id="b" xmlns="http://www.w3.org/2000/svg" version="1.1" viewBox="0 0 468.6 1215.3">
  <!-- Generator: Adobe Illustrator 29.0.0, SVG Export Plug-In . SVG Version: 2.1.0 Build 186)  -->
  <defs>
    <style>
      .st0 {
        fill: #2f2e30;
      }

      .st1 {
        fill: #fff;
      }

      .st2 {
        fill: #493f64;
      }
    </style>
  </defs>
  <g>
    <g>
      <path class="st2" d="M59.8,254.7c-3.9-45,8.5-90.9,28.3-124.6,19.8-33.7,46.4-56.4,73.7-73.4,51.4-32.1,110.4-45.5,162.2-14.9,51.8,30.7,92.6,113.8,84.4,198.3-103.8,7.2-207.6,14.5-311.4,21.6-9.5.7-18.9,1.3-28.4,2"/>
      <path class="st1" d="M62.1,254.7c-4.5-51.7,12.4-101.9,36.7-136.3,12.4-17.5,26.7-31.6,41.7-43.2,15.6-12.2,32-22.1,48.9-30,33.9-15.7,70.3-22.7,105.3-12.7,16.2,4.7,32,12.8,46.4,25.3,13,11.3,24.7,25.9,34.7,42.9,19.5,33.2,32.4,76.8,31.5,122,0,5.4-.4,10.8-.9,16.2l2.2-2.6c-24.1,1.6-48.2,3.4-72.3,5-24.2,1.6-48.4,3.4-72.6,5-24.1,1.6-48.2,3.4-72.3,5-24.2,1.6-48.4,3.4-72.6,5-12,.8-24.1,1.6-36.1,2.4-3,.2-6,.5-9,.6-.7,0-1.4,0-2,.1-.5,0-1.7-.2-2,.1,0,0,.8.8,0,0-2.2-2.2-4.4-4.4-6.5-6.6-.6-.6-1.1-1.2-1.7-1.7-2.4-2.4-4.8,3.6-2.3,6.1,1.7,1.7,3.5,3.6,5.2,5.4,1,1,2,2.1,3,3.1,1.4,1.4,3.1.8,4.8.7,12.1-.8,24.3-1.6,36.4-2.6,24.2-1.6,48.4-3.4,72.6-5,24.3-1.6,48.6-3.4,73-5,24.2-1.6,48.4-3.4,72.6-5,24.3-1.6,48.6-3.4,73-5,3-.2,6.1-.5,9-.6.9,0,2-1,2.2-2.6,4.4-46.7-5.6-93.5-24-130.7-19.3-38.9-46.4-66.7-77.1-79.6-35.3-14.9-72.9-11.4-108.2,2.2-17.8,6.9-35.2,16.4-52,28.1-15.9,11-31.1,24.2-44.8,40.9-26.8,32.3-47.3,80.2-47.9,133.7,0,6.4.2,12.8.8,19.2.2,1.9.9,3.5,2.3,3.5s2.4-1.6,2.3-3.5Z"/>
    </g>
    <g>
      <path class="st1" d="M164.6,168.1c.1.8,0,1.5-.3,2s-.4.9-.4,1.5,0,.2,0,.3v.4c0,.5,0,1-.1,1.6,0,.5-.1.9-.1,1.5s0,.9.2,1.4c.1.4.3.9.6,1.5-.1.4-.2.9-.2,1.7s.2,1.2.6,1.4c-.1.4-.2.7-.2,1s0,.5.3.9c0,.4-.1.7-.3,1-.1.3,0,.7.3,1-.2.7-.6,1.2-1.4,1.5-.7.3-1.4.6-1.9.9h-.5c-.1-.1-.3-.2-.5-.2l-.3.3c-.1.1-.3.2-.5.2-.5-.3-.9-.5-1.2-.4-.2,0-.4,0-.5-.1-.4-.6-.7-1-.9-1.3l-.5-.5c-.2-.2-.3-.3-.4-.5-.1-.2-.2-.4-.2-.7s0-.8.2-1c.1-.3,0-.6-.2-1,.5-.4.7-.8.5-1.4-.2-.4-.5-.8-.9-1,.5-.2.7-.4.5-.8-.2-.4-.3-.7-.3-.9s0-.6.3-.9c.2-.3.3-.6.3-1-.2-.6-.2-1.2,0-1.5.1-.3.2-.6.2-.9,0-.6,0-1,.3-1.5.2-.4.2-.9.1-1.7-.3-.4-.7-.5-1.3-.5s-.6,0-.9.2c-.3.1-.6.2-.9.2h-.7c-.2,0-.4-.1-.7-.2-.4-.1-.9-.1-1.4-.1s-.9,0-1.4-.1c-.6-.1-1.4-.2-2-.4-.7-.2-1.4,0-2,.4-.2-.2-.6-.3-1.2-.2s-1,0-1.4-.3c-.2,0-.4,0-.5.2-.1.1-.3.2-.6.2s-.7-.1-1.2-.3-.8-.4-1.2-.5c-.3-.2-.6-.3-.9-.3s-.6-.1-.9-.3c-.3,0-.4,0-.5.2-.1.1-.2.2-.4.3-.6-.2-1-.2-1.3-.2h-.5c-.5,0-.9,0-1.5-.2-.4-.1-.9-.2-1.5-.2s-.4,0-.6.1h-.6c-.2,0-.3.1-.5.2-.2,0-.3.1-.5.1s-.3,0-.6-.2c-.3-.1-.6-.2-1-.4s-.7-.3-1-.5-.5-.3-.6-.3c-.3.3-.3.7-.3,1.3s.1,1,.1,1.4v1.9c0,.6.2,1,.5,1.3,0,.6,0,1.5-.1,2.3v5.4c0,.8.2,1.6.3,2.2,0,.2.1.4.2.5,0,.2.1.4.1.6,0,.4,0,.8-.2,1.3-.1.4-.2.8-.3,1.3-.3-.1-.4,0-.5.1,0,.2-.2.3-.4.4-.2.1-.5.2-.9.2s-.7,0-1,.2c-.2.1-.4.2-.6.3-.2,0-.4.2-.6.3-.4-.2-.8-.3-1.2-.5-.3-.2-.7-.3-1.2-.5-.1-.4-.2-.8-.3-1.3-.1-.4-.2-.8-.2-1.3s0-.4.2-.5c.1-.1.2-.3.2-.5,0-.5,0-.7-.3-.9-.2-.1-.3-.2-.5-.3-.1-.1-.2-.3-.2-.7s.2-.9.7-1.7c0-.3-.1-.5-.2-.7s-.2-.4-.3-.7c.1-.3.2-.6.3-1,.1-.4,0-.7-.3-.9,0-.1.1-.2.2-.3v-.4c0-.1,0-.3-.2-.4-.1,0-.2-.2-.2-.3v-2.3c0-.4,0-.8.3-1.3-.3-.3-.4-.5-.4-.9v-3.9c0-.4,0-.7-.1-1,0-.3-.1-.7-.1-1s0-.5.2-.7c.1-.2.2-.5.2-.7v-1c0-.3,0-.5.2-.7.1-.2.2-.4.2-.6.1-.6.1-1.3,0-2,0-.7-.2-1.4-.3-2,.3-.4.5-.8.7-1.3.2-.4.3-.8.3-1.4v-2c0-.3,0-.7.2-1,.1-.3.2-.6.2-.9s0-.5-.1-.8c0-.3-.1-.6-.1-.8,0-.6,0-1.2.2-1.7.1-.5,0-1-.2-1.6.3-.2.5-.5.4-.8v-5.1c0-.7-.2-1.5-.6-2.1.3-.4.4-.9.2-1.7-.2-.6-.4-1.3-.6-1.7.3-.3.5-.7.4-1.2,0-.4,0-.8.1-1.3.4-.3.5-.5.5-.6v-.4c.1-.1.2-.2.4-.3.2,0,.3-.2.4-.3.4-.4.8-.6,1-.6h.9c.3,0,.6.2.9.3s.7.2,1.2.2c.1.3.2.5.3.7l.3.3c.1.1.2.3.3.5,0,.2.1.5.1.9.3.5.4.8.3.9v3.7c.1.9,0,1.7,0,2.2-.1.5,0,1,.4,1.6-.3,0-.4.1-.3.3,0,.2,0,.4-.2.4.2.8.2,1.6.2,2.3s-.1,1.5-.2,2.3c-.1.7-.2,1.5-.3,2.2,0,.7,0,1.5.1,2.2-.3.2-.5.5-.5.9v4.8c0,.2-.1.3-.3.3s-.3,0-.3.3,0,.7.1,1c0,.3.1.7.1,1v2.2h.9c.3,0,.6-.2.9-.2h1.3c.4,0,1,.3,1.8.7.5-.2,1.2-.3,1.9-.3s1.2,0,1.7.2,1,.2,1.6.2h.5c.2,0,.3.1.4.3.6.1,1.2.1,1.8.1h1.8c.6,0,.9,0,1.5.2s.9.2,1.5.2,1.2,0,1.9-.2c.7-.1,1.4,0,1.8.5.7-.2,1.3-.2,1.6-.2s.7.2,1.4.7c.7-.3,1.5-.4,2.2-.3h2.2c.7,0,.5,0,.6-.2,0-.2.1-.4.2-.6.4.2.6.2.8.3.2,0,.5,0,.8-.1.3-.3.4-.7.4-1s0-.8-.2-1.3c-.1-.4-.3-.8-.4-1.3-.2-.4-.3-.8-.3-1.2-.1-.5-.1-.9,0-1.5,0-.5,0-1-.2-1.5,0-.2,0-.3.1-.4,0-.1.1-.3.2-.4.1-.3.1-.5,0-.7v-.7q0-.3.1-.4c0-.1.1-.2.1-.4.1-.6.2-1,.2-1.5v-7c0-.2,0-.5.2-.7.1-.2.2-.5.2-.7s0-.4-.1-.6c0-.2-.1-.4-.1-.7v-1.9c0-.4,0-.8-.2-1.2-.2-.3-.2-.6-.2-1v-3.4c0-.5-.2-1-.5-1.7.2-.6.3-.9.4-1,.1,0,.2-.2.3-.3,0-.6.2-1,.6-1.3.4-.2.6-.5.6-.8.4,0,.8-.1,1.2-.2.3,0,.7-.1,1.2-.1.7,0,1.3.2,1.6.5s.6.5,1,.4c0,.4.2.7.4.9.2.2.4.5.5.7.2.3.2.6.2.9s-.2.7-.6,1.3c.2,1.7.2,3.2.2,4.9v6.3c0,.2-.1.3-.2.4-.1.1-.2.3-.2.5.1.5.1.7,0,.8v.3c0,.3,0,.5.2.6.1.2.2.3.2.5,0,.4,0,.7-.2,1-.1.3-.2.7-.2,1.2s-.2.7-.5.9c.2.6.3,1.3.3,1.9s.1,1.4.2,1.9c.1.3.2.5.3.6,0,.2.1.4.1.6s0,.6-.2,1c-.1.3-.2.7-.2,1s0,.3.2.5c.1.2.2.3.2.5v.8c0,.3,0,.5.1.7,0,.2.1.4.2.6v.6c0,.2-.1.5-.3.7.1.4.2.8.3,1.2,0,.3.2.7.5,1,.2.3.2.6.2,1.2s0,.9.3,1.4c0,.4-.1.6-.3.7-.2.1-.4.3-.5.6h0v.5Z"/>
      <path class="st1" d="M212.8,129.9h1.4c.3.4.6.6.9.7.3,0,.7.2,1,.5.2.1.3.2.4.2h.3c.1,0,.2,0,.4.2.2.1.4.3.6.5l.6.7c.3.2.5.3.7.4s.4.3.5.5c.3,0,.4.1.5.2s.3.1.5,0c.5.6,1,1.3,1.6,1.8s1.2,1,1.9,1.5c0,.2,0,.4.3.7.2.3.4.6.6.9.2.3.5.6.7.8.3.2.5.4.6.4-.1.4-.1.6-.1.7,0,0,0,.2.2.7.2.2.3.4.5.6s.3.4.5.6c.4.4.6.8.6,1,0,.3.3.6.8,1v.9c0,.1,0,.2.1.3.3.3.5.6.6.9.1.4.4.7.7.9,0,.7.1,1.5.4,2.3.3.7.4,1.5.3,2.3.2.2.3.4.3.5,0,.2,0,.3.1.5,0,.2,0,.3.2.4.1.1.3.3.5.5-.1.1-.2.2-.3.4-.1.2-.2.3-.2.4.1.5.1.8.1,1.2s-.2.6-.4,1c.2.5.3.9.3,1.3s0,.6-.2.9c-.1.3-.2.5-.2.8s0,.6.3,1c0,.4-.1.6-.2.7s-.2.2-.2.3v.4c0,.2,0,.6.2,1.3-.2.2-.3.4-.3.6s-.2.4-.3.6c0,.3-.1.7-.3,1.2-.1.4-.3.8-.4,1.3-.1.4-.2.8-.3,1.2s-.2.6-.2.7c-.3.8-.6,1.6-1,2.3-.3.2-.7.5-1.2.8l.3.3.3.3c-.4.5-.7,1-1,1.6s-.7,1-1.2,1.5c-.1.4-.1.7,0,.8l-.9.5c0,.3-.1.6-.3.7-.1.2-.2.5-.3.8-.4.2-.6.3-.7.6-.1.2-.2.6-.3,1h-.8s-.2.2-.6.4l-1.2,1.2c-.4.4-.8.7-1.3.9-.4.1-.8.3-1.2.6s-.7.6-1,.8c-.6,0-1,0-1.5.3-.4.2-.8.4-1.3.7-.5.3-1,.4-1.7.5-.5.1-1.2.3-1.7.5h-.5c-.2,0-.3,0-.5-.2-.3.3-.5.4-.6.5s-.4.1-.9.2c-.7.3-1.2.5-1.3.4-.1,0-.3-.1-.6-.3-.5.3-.9.4-1.3.4h-2.1c-.3,0-.7.1-1,.3-.4,0-.7-.1-.9-.2-.2,0-.3-.1-.4-.2h-.5c-.2,0-.5.2-1,.5-.3,0-.5-.1-.7-.2-.2,0-.5-.2-.7-.3-.7,0-1.4-.2-2.1-.4-.6-.2-1.3-.6-1.8-1-.2,0-.3,0-.5-.1-.2,0-.3-.1-.5-.1-.4,0-.7,0-.7-.2s-.2-.3-.3-.4c-.4-.1-.6-.2-.7-.2h-.7c-.6-.4-.9-.7-.9-.8s-.3-.1-.9,0c-.2-.4-.3-.7-.5-1-.2-.2-.4-.4-.7-.6-.2-.2-.5-.4-.7-.5-.2-.2-.4-.5-.6-.8-.4-.2-.8-.3-1.3-.5s-.8-.3-1.3-.5c-.1-.4-.1-.7,0-1.3-.3-.5-.4-.8-.4-1.2s-.3-.5-.9-.8c.1-.3.1-.6.1-.7,0-.2,0-.3-.2-.5,0-.2-.2-.3-.2-.5s-.1-.5-.1-.8c-.4-.7-.6-1.4-.6-2s0-1-.2-1.4-.3-.5-.5-.6c-.2-.2-.2-.4-.2-.8-.1-.2-.2-.4-.3-.5-.1-.2-.2-.3-.4-.5,0-.9-.4-1.8-1-2.4.2-.3.3-.5.3-.7s-.1-.4-.5-.6v-.7c0-.2.1-.4.3-.5,0-.3,0-.5-.1-.6,0-.2,0-.4.2-.6-.1-.6-.2-1-.4-1.3v-.7s.1-.3.3-.6c0-.3,0-.5-.1-.7,0-.2,0-.5.2-.7-.2-.8-.2-1.7,0-2.4.1-.8.2-1.7.3-2.4.3.4.4.8.4,1.3s0,.8-.2,1.2c-.4-.3-.5-.7-.4-1.2s.2-.9.4-1.5.3-.9.4-1.4c.1-.4.2-.6.3-.7-.1-.4,0-.6,0-.9.2-.2.3-.4.4-.7-.2-.4-.3-.7-.2-.9,0-.2.2-.4.5-.7.1-.9.3-1.8.6-2.7.3-.8.5-1.8.7-2.7.5-.5.8-.9,1.2-1.3.3-.3.5-.8.6-1.6.4-.4.6-.7.7-.9,0-.2.2-.3.5-.5.2-.1.4-.3.5-.5.2-.2.4-.4.6-.4.1-.2.2-.3.3-.5,0-.2.2-.4.3-.6.5,0,.8-.1,1-.3.6-.8,1.2-1.3,1.5-1.4.3-.1.6-.5.9-1.2.5-.1.8-.3,1-.5s.5-.4.9-.5c0-.2.2-.4.4-.7.7,0,1.3-.2,1.8-.5.4-.3,1-.5,1.7-.5.4-.3.8-.5,1.3-.7s.8-.3,1.3-.3c.3-.2.6-.3,1.2-.4s1-.2,1.6-.3c.5,0,1-.1,1.6-.1s.9,0,1.2.2c.3-.2.5-.3.6-.2.1.1.3.2.6.2s.5-.1.9-.3c.4-.2.8-.3,1.3-.3s.6,0,.7.2c.2.1.3.2.5.3.1.1.3.2.4.3.2.1.4.2.7.2.5,0,1,0,1.5-.2s.8,0,1.3.5h0v-.2ZM225,153.9c-.2-.1-.3-.2-.4-.3-.1-.1-.2-.3-.3-.4,0-.7-.1-1.4-.4-2-.3-.6-.4-1.3-.5-2-.2-.1-.3-.2-.4-.4,0-.2-.1-.4-.2-.6-.4-.4-.7-.7-.9-1-.3-.3-.4-.6-.4-1-.2.1-.3-.1-.6-.6-.2-.5-.4-.9-.5-1-.1-.2-.2-.4-.3-.5-.1-.2-.2-.3-.3-.5-.3-.1-.5-.2-.8-.3-.3-.1-.4-.3-.5-.6-.5-.1-.9-.3-1.3-.5,0-.4-.1-.7-.4-.9-.3-.2-.4-.5-.5-.9-.4-.1-.6-.3-.9-.5,0-.2-.1-.3-.2-.4-.1,0-.2-.2-.4-.3-.5,0-.8-.2-1.2-.5s-.6-.3-1.2,0c-.3-.2-.5-.4-.5-.6-.4-.1-.6-.1-.8-.1s-.3,0-.5-.1c-.5-.5-.8-.7-1.2-.8-.3,0-.6-.1-.9-.1-.3.3-.7.4-1.3.3-.2.2-.4.3-.7.3s-.5,0-.7-.1c-.3.2-.6.3-.8.3-.3,0-.6,0-.9-.2-.3-.1-.5-.2-.9-.2s-.7,0-1.2.1h-1.3c-.4.4-.9.6-1.5.5-.3.3-.5.5-.7.5s-.4.1-.6.2c-.2,0-.3.2-.5.5-.2.2-.3.6-.5,1.3-.4-.2-.6-.2-.8-.3h-.3l-.3.3c-.1.1-.3.2-.7.3l-.3.8c-.5.3-.8.6-1.2,1s-.7.7-1.3.9c-.2.4-.3.7-.5.9s-.4.5-.7.8c0,.3-.1.6-.4.9,0,.3-.2.5-.5.6-.1.4-.2.8-.2,1.4s-.2.9-.4,1.4c-.1.2-.2.3-.3.5,0,.2-.1.4-.1.5.1.5.1.9,0,1s-.1.3-.2.4v.5c0,.2.1.5.3.9h-.9v.6c0,.2,0,.4-.3.6v1.4c-.2.2-.2.3-.2.3,0,0,0,.2-.2.3.1.3.1.6.1,1v1.2c-.4.5-.6,1.3-.5,2.1,0,.5-.2.9-.3,1.2-.1.6-.1,1,0,1.2,0,.1.2.3.3.7.1.3.1.5.1.7v.7c.5.6.7,1.3.7,2s.2,1.3.4,1.6c.2.2.3.4.5.6.2.2.2.4.1.7.3.3.4.5.4.7v.4c0,.1,0,.2.2.3.1,0,.4.2.8.3l-.3.3c-.1.1-.2.3-.3.4.2.1.3.2.4.4,0,.2.2.3.4.4.2.6.2,1.2.2,1.8.6.3,1,.6,1.2,1.2s.5.9,1,1.5c.3,0,.5,0,.9.4.2.3.3.4.5.3h.5v.8c.9.4,1.8.7,2.3.9s1.4.3,2.2.1l.6.6h.4c.1,0,.3-.1.5-.2h.8c.3.4.6.5.8.4.2,0,.5-.1.9-.1h1c.3,0,.5,0,.7-.3s.6-.2,1.3.1c.4-.3.9-.4,1.5-.4h1.5c.6-.6,1.4-.9,2.2-1.2.9-.2,1.7-.3,2.5-.5.4-.5,1-.7,2-.9.3-.3.6-.6,1-.7.4-.2.7-.4,1.3-.6.1-.3.2-.5.3-.7s.2-.5.3-.7c.9-.8,1.6-1.6,2.1-2.3.4-.7.8-1.5,1.2-2.3.3-.1.4-.2.5-.3,0,0,.1-.2.2-.3.2-.7.2-1.4.2-1.9.3-.6.5-1,.7-1.3s.1-.6-.1-1.4c.6-.4.9-.8.9-1.4v-1.7c.3-.5.5-.9.5-1.3v-1.3c.3-.6.4-1.5.3-2.4,0-.9-.1-1.8-.1-2.5s0-.4-.2-.5c-.1,0-.2-.2-.2-.4l.2-.5h0l.2.4Z"/>
      <path class="st1" d="M316,183.5c.1.3,0,.4-.2.4h-.6c.2.3.2.5.1.6s-.2.3-.3.4c-.1.1-.3.3-.4.4-.1.2-.2.3-.2.5-.8-.1-1.4,0-1.6,0-.2.1-.4.5-.9,1.2-.5.1-1,.3-1.4.5-.4,0-.7-.2-.9-.3-.2-.2-.6-.2-1.2-.1.1-.6-.1-.9-.7-.9v-1c0-.3-.2-.5-.7-.7.3-.3.4-.7.2-1-.2-.4-.3-.8-.2-1.3v-.7c-.2-.4-.2-.7-.1-.8s.2-.2.2-.4c.2-1,.3-2.1.3-2.9v-2.4c0-.2,0-.3-.2-.4-.1,0-.2-.1-.4-.2,0-.3,0-.4.3-.5.2,0,.3-.2.3-.4,0-.4,0-.7-.1-1s-.2-.6-.1-1c.2-.7.2-1.3,0-1.6-.1-.3-.2-.6-.1-.8,0-.2,0-.4.1-.5,0-.2.1-.3.1-.5v-3.5c0-.2-.2-.4-.3-.6.3-.5.3-1.2.2-2.1-.1-.9-.1-1.7,0-2.3.2-.6.2-1,0-1.3-.1-.2-.2-.3-.1-.5,0-.2,0-.4.1-.5,0-.2.1-.3.1-.5s0-.5-.2-.7c-.1-.2-.2-.4-.1-.7.2-1.2.2-2,0-2.6s-.2-1.3,0-1.9c0-.2,0-.4-.2-.5-.1-.1-.2-.2-.3-.4,0-.5,0-.8-.1-1-.1-.1-.2-.4-.3-.8-.2-.8-.2-1.7,0-2.4.1-.8,0-1.6-.1-2.3-.1-.3-.2-.5-.4-.6s-.2-.4,0-.7c-.3.1-.5.2-.7.4-.2.2-.4.3-.7.4,0,.4,0,.7-.2,1-.1.2-.1.6,0,1-.2.3-.4.6-.8.8l-.5,1.7c0,.1-.1.2-.3.2s-.2.1-.3.2l-.4,1v.7c0,.2,0,.4-.2.6-.1.3-.3.5-.5.8s-.4.6-.6.8c-.2.3-.3.4-.3.5-.3.5-.5.8-.7.9-.2,0-.3.2-.3.3-.1.1-.2.2-.2.4v.4c-.1.3-.3.6-.6,1-.3.4-.6.7-.8.8v.7c0,.2-.2.3-.5.3.1.6,0,1-.3,1.5s-.4.7-.2,1.2c-.3,0-.5,0-.6.2-.1.1-.2.3-.3.4-.1.2-.2.3-.3.5-.1.2-.3.3-.5.3.1.3.1.7,0,1s-.3.6-.7.7c0,.3-.1.5-.2.6v.6c-.4.1-.5.3-.5.7s-.2.7-.6,1c.1.5,0,.9,0,1.2-.1.2-.2.5-.3.9-.3.1-.7.5-1.2,1.2s-.7,1.2-.8,1.5c-.5.2-.7.4-.7.5v.5c-.1.1-.2.2-.3.3l-.3.3c-.2.4-.2.8-.3,1.3v1.3c-.2,0-.3,0-.4.2s-.2.3-.3.4v1c0,.4-.2.7-.4.9.2.4.2.9,0,1.5-.3.5-.3,1-.2,1.5-.4.3-.8.6-1.3,1-.4.4-.8.7-1.3,1-.4.3-.9.4-1.5.5-.5,0-1-.1-1.6-.5h-.4c-.1,0-.2.1-.4.1-.3,0-.5,0-.8-.2-.3-.1-.6-.1-.8,0,0-.5-.2-1-.5-1.5s-.4-.9-.3-1.6c0-.2,0-.4.2-.5.1-.2.2-.3.2-.5,0-.4,0-.8-.1-1.3s-.3-.7-.7-1c0-.4-.1-.9-.2-1.4,0-.5-.3-.8-.6-1.2,0-.6,0-1.3-.3-1.7-.3-.5-.6-.9-1-1.4,0-.1,0-.3-.2-.7-.1-.4-.3-.7-.5-1.2-.2-.4-.4-.7-.5-1.2-.2-.3-.3-.6-.3-.7-.1-.2-.2-.4-.3-.7,0-.3-.3-.4-.6-.3,0-.7-.1-1.3-.5-1.4s-.8-.4-1-.7c-.3-.4-.6-.9-.8-1.5-.2-.5-.5-.9-.9-1.5,0-.5-.2-.8-.5-1.2-.3-.3-.6-.5-1-.7.1-.4,0-.7,0-.8-.2-.1-.2-.3-.2-.6-.2-.3-.4-.5-.7-.7-.3-.2-.6-.3-.8-.5-.1-.6-.4-1.3-.9-1.7s-.8-1-1-1.7c0-.1-.3-.3-.7-.7-.4-.3-.6-.5-.7-.5.1-.5,0-.9-.2-1.2s-.3-.5-.3-.9c-.2-.2-.3-.3-.4-.5,0-.2-.1-.4-.2-.5,0-.2-.1-.3-.3-.5-.1-.2-.3-.3-.7-.3-.1-.4-.2-.8-.3-1.2,0-.3-.4-.5-1-.6,0-.3,0-.6-.2-.7-.1-.2-.3-.3-.5-.5l-.5-.5c-.2-.2-.2-.4-.2-.7.2.7.2,1.3,0,1.6s-.2.7-.2,1,0,.4.3.4.3.2.3.4,0,.5-.2.8-.2.5-.2.8c.1.7,0,1.5,0,2.3-.1.7,0,1.3.2,1.5,0,.3,0,.4-.2.5s-.3.3-.4.5c.1.2.1.4.1.6v.6c0,.2.1.4.2.5s.1.3.1.5c0,.6,0,1.3-.2,2-.2.7,0,1.4.4,1.9-.2.3-.2.6,0,.9s.2.6.2.9-.1.3-.2.5v4.7c0,.2.1.4.3.5.2,0,.3.2.2.5-.7.7-.9,1.4-.7,1.8.2.5.2,1,0,1.5l-.4.9c.3.6.3,1.2.2,1.8-.1.5-.2,1.2-.2,1.8s0,.6.1.9,0,.6,0,.9c-.1.7,0,1.2,0,1.5.1.2.2.5.2.7,0,.3-.2.7-.3,1.2-.2.4-.1.8.2,1-.3.3-.4.7-.5,1-.1.4-.3.8-.5,1.2.3.5.3.9,0,1.4-.3.4-.6.8-.9,1.2h-1.3c-.2,0-.3.3-.4,1-.3,0-.5.2-.8.3-.3.2-.6.3-.9.3s-.7-.2-1-.5c-.2-.4-.6-.5-1.3-.5v-.3h-.2c-.1-.1-.2-.1-.3-.3-.1-.1-.2-.3-.2-.6-.5-.9-.7-1.6-.4-1.9.2-.3.3-.7.3-1v-.6c0-.2,0-.3.3-.5.1-.3.1-.5,0-.6,0-.1-.1-.3-.1-.6.4-.5.5-.9.5-1.2v-.6c.2-.4.2-.7,0-.8-.1-.1-.2-.2-.2-.4,0-.7.2-1.5.5-2.3.3-.7.5-1.5.5-2.3s0-.5-.1-.6c0-.2-.1-.3-.2-.5-.1-.7-.1-1.2,0-1.4,0-.2.1-.4.1-.6v-2.5c.1-1.4.2-2.7.3-4,0-1.3-.1-2.6-.6-4,.3-.3.4-.4.5-.5,0,0,.1-.3.2-.6,0-.4,0-.9-.2-1.4-.1-.5,0-.9.2-1.4,0-.3,0-.5-.2-.6-.1-.2-.2-.3-.3-.5,0-.6.2-1.4.5-2.1-.1-.3-.2-.5-.2-.7s-.1-.4-.3-.6c.4-1.9.6-3.8.7-5.7v-5.7c0-.2,0-.4.2-.6.1-.3.3-.4.4-.5-.3-.4-.4-.6-.3-.8v-2c0-.2-.1-.3-.2-.5v-.7c0-.2.1-.5.3-.8-.2-.5-.2-.9-.3-1.2v-.4s.2-.2.3-.2.2-.3.2-.6c.5.3.9.3,1.5,0,.4-.2.9-.3,1.5-.3s.9,0,1.4.2c.4.2.9.2,1.5,0,0,.2.3.4.8.8s.8.6,1,.7c.1.6.4,1.2.8,1.7.4.5.8,1,1,1.5.1.2.2.3.3.3s.2.1.3.2v.8c0,.2.1.4.3.7.3.5.5.7.6.7s.2,0,.3.2.1.3.1.4,0,.3.3.5.5.5.8,1c.3.4.5.8.7,1,.2.3.3.4.4.4,0,0,.1.2.1.6s0,.3.3.4c.2,0,.3.2.4.3.1.4.2.6.4.7.2.1.3.3.4.5.1.1.1.2,0,.4v.4c.4.3.5.5.5.5v.2c0,.2,0,.4.3.6.3.3.5.4.7.5,0,.2,0,.3.1.5,0,.2,0,.3.2.5.2.3.3.3.4.2,0-.1.1,0,.1.7s0,.2.3.4c.2.2.4.4.6.7.2.3.4.5.6.7s.3.3.4.4c0,.6.1,1,.6,1.3.4.3.8.6,1.3.9.2.2.3.4.4.7,0,.2.3.4.6.5.4,1,.6,2,.8,2.8.5.3.8.7,1.2,1.3.3.5.7.9,1.3,1.2,0,.4,0,.7.3,1,.2.3.2.7,0,1,.1.3.3.4.5.4s.4.1.6.3c.1.1.2.3.3.5.1.2.2.5.4.7.2.2.4.4.7.9.2.3.3.6.4.9,0,.3.3.6.6.9-.2.3-.2.6,0,.9.1.3.3.6.5.8.4.1.7,0,1.3-.6.4-.5.6-.9.6-1.4.6-.1,1-.4,1.3-.8.2-.4.3-.9.4-1.6,1-.8,1.7-1.8,1.7-2.8.6-1.2,1.2-2.1,1.6-3,.4-.8.8-1.7,1.5-2.4-.1-.4,0-.7.2-.9.2-.2.3-.4.3-.9.5-.1.9-.4,1-.8.2-.4.4-.7.9-.9-.1-.3,0-.5,0-.7.1-.2.3-.5.4-.7v-.8c0-.3,0-.4.3-.4s.4,0,.5-.2c.4-.5.6-1,.7-1.7s.2-1.2.3-1.8c0-.3.1-.4.3-.4s.2-.1.3-.3c.2-.6.4-1.2.7-1.7.2-.5.6-.9,1-1.4.1-.3.1-.4,0-.5s-.2-.3-.2-.5.2-.4.3-.5c.2-.1.2-.3,0-.7.3-.4.5-.7.8-.9.3-.3.5-.6.6-1.2.4-.1.7-.3.7-.7s.3-.6.6-.8v-.7c0-.2,0-.4.1-.7.4-.4.6-.7.5-.9v-.6c.3-.2.5-.3.6-.5.2-.2.4-.3.7-.3v-1c.4-.1.7-.3.9-.6.2-.3.5-.4,1-.4.1-.1.2-.3.2-.5v-.5c.3-.1.5-.2.7-.2h.7c.6-.1,1.3,0,1.8.2.5.3,1.3.4,2,.4,0,.4.1.8.3,1.2.1.3.2.6.3.9.2.8.3,1.5.4,2,0,.5.4,1,.9,1.8v.9c0,.2.2.3.2.5s.2.4.4.5c-.3.4-.3.8-.1,1.3.2.4.3.8.4,1.3l-.5.7c.1.3.2.6.2.9s.2.6.5.7c-.4.4-.4.8-.2,1.2.2.3.3.7.3,1.2s-.1.2-.2.3v.4c0,.1,0,.3.2.5.1.3.2.5.2.8.2,1,.2,1.9.3,2.5v2c0,.7,0,.4.2.5s.3.2.5.3c0,.2,0,.3-.1.3s-.2.2-.1.5c.1.1.2.2.2.4s.1.2.3.2c-.3.9-.3,1.8,0,2.5.2.8.3,1.6.2,2.4,0,.2-.1.3-.2.3s-.2.2-.2.3v.7c0,.2,0,.3-.1.4,0,.1-.1.2-.1.3,0,.3.1.4.4.5s.4.2.3.4c0,.1-.1.3-.3.5-.2.3-.1.4.3.5-.3.2-.3.4-.3.7s0,.5-.2.6c.4,1.2.3,2.2-.2,3.1.1.3.2.5.3.8,0,.3.3.4.6.4-.2.2-.3.4-.5.5-.2.2-.3.3-.5.5-.1.3,0,.4.2.4s.3.1.3.3c0,.6,0,.9-.1,1,0,0-.1.2-.1.3,0,.2,0,.4.1.6,0,.2.1.4.2.6v.6c0,.2-.2.4-.5.5,0,.3,0,.6.2.9.2.3.2.6.2,1v3.7c0,.3,0,.5.1.5.1.3.3.6.7.9.4.3.5.6.4.9h0l.2,1.5Z"/>
      <path class="st1" d="M368,129.9c-.2,0-.3.2-.4.3,0,.2-.2.3-.5.3,0,.3,0,.4.3.5.2,0,.3.2.3.4,0,.3-.1.5-.4.7-.3.1-.5.3-.5.7-.5-.1-.9,0-1,0-.2.2-.5.3-.8.5h-.9c-.3,0-.5.1-.9.1s-.4,0-.5.2c-.2.2-.3.3-.5.3-.4.1-.8.1-1.4,0-.4,0-.9,0-1.4.2-.1-.3-.3-.3-.5-.3-.3,0-.5.1-.7.1s-.5,0-.7-.2c-.2-.1-.5-.2-.8-.2s-.8,0-1.4.2c-.4.2-.9.2-1.4.2s-.8,0-1.2-.1c-.3,0-.7-.1-1.2-.1s-.5,0-.6.3c-.1.2-.3.3-.5.4-.9-.4-2.1-.5-3.4-.5s-2.3.2-3.2.7c-.8-.3-1.7-.4-2.6-.3s-1.8,0-2.7-.2c-.5.3-1,.4-1.8.3-.6,0-1.3-.2-1.7-.5-.4.2-.9.2-1.4.2h-1.4c-.4.2-.5.5-.3.8.1.3.2.6.2.9s0,.3-.1.5c0,.2-.1.3-.1.5,0,.3,0,.5.2.7.1.2.2.4.2.7.2,1.2.2,2.2.2,3.4-.2.6-.2,1,0,1.2.1.1.2.3.2.4v1.9c0,.1,0,.3-.2.4-.1.1-.2.3-.2.5s0,.4.1.6c0,.2.1.4.1.7s0,.4-.1.5-.1.3-.1.5,0,.4.3.9c.2.5.3.8.3.9.8-.3,1.7-.3,2.5-.1.8.2,1.7.3,2.5.3s.7,0,1-.2c.3-.1.7-.2,1.2-.1h2c.4,0,.7,0,.9-.2.2-.2.4-.2.6-.2s.3,0,.5.1c.2,0,.3.1.5.1.3,0,.6-.1,1-.4s.6-.6.9-.8c.2.2.3.2.5.2h1.3c.2,0,.4.1.7.3,0,0,.2-.1.4-.2.2-.1.4-.2.6-.2h.5c.1,0,.3.1.3.3.9-.4,1.7-.5,2.3-.4.6,0,1.4.1,2.2.1s1.4-.1,2.1-.3c.6-.2,1.4-.3,2.1-.3h1.4c.6.3,1,.3,1,.2s.2-.2.4-.2c.4,0,.8.1,1.3.4.4.3,1.3.4,2.2.3.2.3.4.5.7.7,0,.4,0,.8.2,1.2.2.3.4.6.6.9,0,.3-.1.5-.2.7,0,.2,0,.4.3.6-.2.3-.4.6-.6.8-.3.2-.5.5-.6.8-.4-.1-.8,0-1,0-.3.2-.5.3-.9.4s-.7.1-1.2,0c-.4,0-.7,0-.9.3-.2-.3-.5-.3-.7-.2-.3.1-.6.2-.8.2-.7-.1-1.2,0-1.3,0-.1.1-.3.2-.5.2,0-.3-.2-.4-.5-.3-.3,0-.5,0-.6-.2-.2.3-.5.4-.9.3s-.8-.2-1-.2c-.7,0-1.4.1-2,.4s-1.3.2-2-.3c-.2.2-.5.3-.8.3h-1.5c-.4,0-.8,0-1.2.2-.3.1-.6.2-1,.2s-.8-.1-1.2-.3c-.6.3-1.3.4-2.1.3-.8,0-1.5.1-2,.4-.5.1-.9,0-1.3-.2-.9.4-2,.6-3.1.5-1.2,0-2.2.1-3.2.5-.3,0-.5-.2-.7-.3-.2-.2-.4-.2-.8,0-.4.8-.7,1.9-.8,3-.1,1.2,0,2.2.4,3.1-.1.2-.2.4-.4.6-.2.2-.3.4-.4.6,0,.5.1.9.4,1.3,0,.2,0,.3-.2.4-.1.1-.2.3-.2.4v1.3c0,.4,0,.7-.2,1-.1.3-.2.7-.2,1.2s0,.5.2.7c.1.2.2.4.2.7s0,.4-.3.5c-.2,0-.3.2-.3.3v.6c.1.2,0,.3-.2.5.4.6.6,1.3.6,2.1s.3,1.5.7,2c-.2.4-.2.9-.1,1.5s.2,1,.3,1.5h.7c.2-.1.5-.1.7,0,.4.2.7.3,1.2.3s.8,0,1.2-.1c.4,0,.7-.1,1.2-.2.4,0,.7,0,1.2.3.2-.1.5-.2,1-.2h1.9c.7,0,1.5-.1,2.2-.3.7-.1,1.4-.3,2-.7.2,0,.4.1.5.2.1.1.3.2.4.3.6-.3,1.3-.5,1.9-.4.6,0,1.3,0,1.9-.1,0,.2.2.3.3.4.2,0,.3.1.5.2.7-.3,1.5-.3,2.2-.3s1.5,0,2.2-.1c.4-.1.8-.3,1.2-.5.3-.2.7-.4,1.2-.5.4.3.8.4,1.4.3.5,0,1,0,1.6-.2.5-.1,1.2-.2,1.7-.2s1.2.1,1.8.4v.8c.3.2.5.4.8.6.3.2.5.4.7.7,0,.4,0,.8-.4,1.3,0,.1,0,.2.1.2,0,0,.2,0,.3.1.1,0,.2.1.3.2v.4c0,.2,0,.4-.4.7s-.7.4-1.2.6c-.4.2-.9.3-1.4.4-.5.1-.8.1-1.2,0-.7.4-1.6.7-2.4,1-.8.2-1.7.3-2.6.3s-.5,0-.8,0h-.9c-.7.2-1.4.2-1.7.1-.4,0-.7,0-1.2.3-.3-.1-.5-.2-.9-.3-.3-.1-.6-.2-.9-.2-.7.1-1,0-1.2,0s-.2-.3-.4-.3c-.5.2-1.2.3-1.9.2-.7,0-1.4,0-1.8.3h-.5s-.1-.1-.2-.2h-.2c-.1,0-.3.2-.7.5h-1.3c-.5,0-.8,0-1.2-.2-.3.2-.5.3-.8.4-.3.1-.6.3-.8.5-.3.1-.4.1-.5,0,0-.1-.2-.2-.4-.2s-.4,0-.5.2c-.1.1-.3.2-.4.2h-1c-.3,0-.6,0-.9.2-.3.1-.5.2-.9.2-1.2-.2-2.1,0-2.8.3s-1.5.5-2.3.5-.8-.1-1.2-.4c-.3-.3-.7-.3-1.3-.2,0-.3,0-.5-.2-.6-.2,0-.3-.2-.4-.3-.1-.2-.2-.4-.2-.7s0-.5-.2-.7c-.2-.4-.4-.7-.7-.9-.3-.2-.5-.5-.7-.8-.1-.3-.1-.5-.1-.6s0-.3-.3-.6c-.2-.3-.2-.5,0-.7.1-.2,0-.4-.5-.5.4-.4.5-1,.4-1.7-.2-.7-.2-1.4-.2-1.9s0-.6.2-.9c.1-.3.2-.6.2-1s0-.3-.2-.4c-.1-.1-.2-.3-.2-.5,0-.6,0-.9-.2-.9.2-.3.3-.7.4-1.4v-1.6c0-.4,0-.8-.2-1.3s-.2-.8-.2-1.3,0-1,.2-1.6c.1-.5.2-1,.2-1.6-.2-.3-.2-.5,0-.6.1-.2.2-.3.2-.5s0-.6-.1-1c0-.4-.2-.8-.3-1,.3-.4.5-.9.5-1.6s.2-1.2.6-1.6v-1.9c-.1-.6,0-1.4.3-1.9-.2-.3-.3-.7-.3-1v-2.5c0-.4-.1-.7-.3-1,.3-.2.4-.5.4-.9s0-.8-.1-1.4-.2-.9-.3-1.5c-.1-.4-.2-.8-.2-1.2.1-.2.1-.4,0-.5v-.3c0-.4,0-.8.1-1.2,0-.3.1-.7.1-1s0-.6-.2-.9c-.1-.3-.2-.6-.2-.9,0-.8.1-1.7.4-2.5.3-.9.2-1.8-.2-2.5,0-.4.3-.8.6-1.3-.3-.9-.4-1.9-.3-2.9,0-1,.2-2,.3-2.9.1-.1.3-.2.5-.3.2,0,.4-.2.5-.3.1-.2.4-.3.8-.5s.7-.3.9-.3h1.2c.3,0,.6.2.9.3.3.2.6.3.9.5s.5.3.7.4c.6-.1,1.3,0,1.8.2s1,.3,1.7.3.8,0,1.3-.1c.4,0,.8,0,1.3.3.9-.5,2-.7,3-.6h3.1c1,0,.5,0,.7-.2.2-.1.4-.2.6-.3.5.1.9.2,1.5.2h1.5c.8.1,1.4.1,1.8,0,.3-.1.7-.2,1.2-.2s.5,0,.7.2c.2.1.4.2.7.2.6,0,1.3,0,1.8-.2.6-.1,1.3-.2,1.8-.2.3-.4.7-.6,1.4-.6s1.2-.2,1.6-.4c.7.3,1.6.4,2.4.4s1.7-.2,2.4-.6c.2.1.4.2.7.2s.4.2.4.5c.5-.1.9,0,1.2.1.2.2.6.3,1,.3,0,.3,0,.6.1.9,0,.3,0,.6.2.9h0l.4-.7Z"/>
    </g>
  </g>
  <g>
    <g>
      <path class="st0" d="M273.5,1013.5c-40.7,4.6-81.3,10.9-121.7,18.9-2.6.5-5.5,1.2-7.2,4-2,3.2-1.8,8-1.5,12.2,3.2,38.8,6.4,77.6,9.6,116.4.3,3.7.7,7.6,2.5,10.3,1.7,2.6,4.3,3.7,6.8,4.6,32.9,12.1,67.6,14.8,101.3,8.1,3.2-.6,6.6-1.5,9-4.3,2.8-3.3,3.9-8.5,4.7-13.4,8.3-49.7,7.5-102.3-2.6-151.5"/>
      <path class="st1" d="M273.5,1010.5c-16.5,1.9-32.9,4-49.4,6.4-16.5,2.4-33,5.1-49.4,8.1-8.2,1.5-16.4,2.8-24.5,4.7-3.4.8-6.7,2.6-8.3,6.9-1.6,4.4-1.1,9.4-.7,14.2,1.9,22.7,3.7,45.4,5.6,68.1.9,11.2,1.8,22.5,2.8,33.7.4,5.5.7,11.1,1.5,16.5.7,4.9,2.5,9.2,5.8,11.5,3.3,2.2,7.1,3.1,10.7,4.3,3.9,1.3,7.7,2.4,11.7,3.4,7.8,2.1,15.8,3.6,23.7,4.6,15.8,2.1,31.6,2.1,47.4,0,4-.5,8.1-1.2,12.1-1.9,3.4-.7,7.2-1.3,10.2-4,3-2.7,4.7-6.8,5.7-11.4,1.1-4.7,1.8-9.6,2.4-14.4,3-21.2,4.5-42.8,4.2-64.3-.2-21.5-2-43-5.5-63.9-.8-5.1-1.8-10.2-2.8-15.2-.7-3.7-5-2.1-4.2,1.6,4.1,20,6.6,40.5,7.7,61.2,1,20.7.6,41.5-1.5,62-.5,5.2-1.2,10.3-1.8,15.5-.7,4.9-1.4,9.8-2.3,14.6-.7,3.6-1.8,7.4-4.2,9.5-2.8,2.4-6.4,2.7-9.6,3.3-15.2,2.8-30.6,3.7-45.9,2.6-15.3-1-30.5-4-45.3-8.8-1.9-.6-3.8-1.3-5.7-2-1.5-.5-3.1-1-4.5-2-1.3-.9-2.3-2-2.9-3.7-.6-1.7-.9-3.7-1-5.5-1-10.9-1.8-21.9-2.7-32.9-1.8-22-3.7-43.9-5.5-65.9-.4-5.5-.9-11.1-1.4-16.6-.3-3.8-1.1-8.9.5-12.1.7-1.3,1.8-2.1,3-2.5,1.6-.6,3.2-.9,4.8-1.2,4-.8,8-1.6,12.1-2.3,15.9-3,31.8-5.7,47.8-8.2,16-2.5,32.1-4.7,48.1-6.6,3.9-.5,7.8-.9,11.8-1.4,1.2,0,2.2-1.3,2.2-3s-1-3.1-2.2-3h-.2Z"/>
    </g>
    <path class="st1" d="M226.2,1148.8c-.4.4-.7.6-1,.7-.3,0-.4.5-.2,1.3-.7.2-1.4.3-2.1.6-.7.2-1,.8-.9,1.7-.7,0-1.2,0-1.6-.2-.3,0-.7-.3-.9-.5-.3-.2-.6-.4-.9-.5-.3-.2-.7-.3-1.2-.3,0-.4-.1-.8-.3-1.2-.2-.4-.3-.8-.3-1.2s0-.8.3-.8.3-.2.4-.5c.2-.4.1-.7,0-1.1-.2-.3,0-.7.3-1.1,0-.5,0-.8-.2-.9-.2-.2-.3-.4-.3-.7v-2.5c0-.5-.3-1.1-.6-1.6.3-.5.5-1.1.5-1.7v-1.8c-.4-1.6-.7-3-.9-4.1s0-2.2.6-3.2c-.2-.4-.2-1-.2-1.8s0-1.5.2-1.8c.2-.6.2-1.1.2-1.6s.1-.7.5-.7c-.3-.4-.5-.8-.5-1.2v-1.3c-.8-.6-1.2-1.4-1-2.3s.2-1.8.2-2.6,0-.7-.2-.9c-.2-.2-.2-.5-.2-.9,0-.6.1-1.1.4-1.6.3-.4.2-.9-.2-1.6,0-.8,0-1.2.2-1.3.1,0,.2-.3.2-.5,0-.5-.1-1.1-.4-1.6-.3-.5-.4-.9-.4-1.3,0-.8.2-1.6.5-2.4.3-.7.5-1.5.5-2.2s0-1.1-.3-1.6c-.2-.5-.1-.9.2-1.3-1.1-2-1.6-4.2-1.6-6.5s0-4.6-.2-6.7c-.6.5-1,.9-1.2,1s-.4.2-.5.3c0,.6,0,1.1-.2,1.4s-.3.7-.6.9c-.2.3-.5.5-.7.7s-.4.6-.5,1c-.2,0-.5.3-.7.6-.3.3-.6.7-.9,1.1-.3.4-.5.8-.7,1.2-.2.4-.2.7-.2.9-.6.5-1,.8-1.2,1s-.3.3-.3.5v.4c0,.2,0,.4-.3.7-.2.3-.4.5-.7.7s-.6.4-.7.8c-.8,0-1.3,0-1.6,0-.3.2-.8.3-1.4.6-.3,0-.5-.2-.7-.5-.2-.2-.3-.4-.6-.6-.5-.2-.9-.7-1.4-1.3-.5-.7-.7-1.3-.7-1.9s.1-.9.4-1.3c.3-.4.3-.9,0-1.5.5-.3.8-.7,1-1.2s.5-1,.7-1.4c.5-.6.9-1,1.2-1.1s.6-.3.9-.6c.2-.4.4-.8.5-1.2,0-.4.4-.9,1-1.6l.7-1.7c.5-.2.8-.6,1-1.1s.5-.8,1-1v-1.5c.3-.2.6-.4.9-.6.3-.3.6-.5,1-.6,0-.4.2-.7.5-1s.5-.6.7-1c.2-.3.3-.6.5-.9s.4-.5.8-.6c.2-1.3.6-2.2,1.4-2.7.8-.5,1.5-1.2,2.1-2h5.3c0,.6.3,1.1.8,1.3.5.3.7.8.7,1.7s-.1,1.2-.3,1.7-.3,1.1-.1,1.7c-.7,0-1,.2-1,.6,0,.6.2,1.2.7,1.7s.7,1.1.7,1.6c-.2.8-.2,1.4,0,1.6s.2.5.2.7c0,.4,0,.8-.1,1.2,0,.4-.1.8-.1,1.2,0,.6,0,1.3.2,2.1.2.8.2,1.5,0,2.1.5.8.8,1.7,1,2.7s.5,1.9.9,2.7c-.2.3-.2.7-.2,1.1s-.2.7-.5,1c0,.4,0,.6.5.6s.6.2.6.5,0,.5-.3.8c-.2.3-.4.5-.5.7.6.6.8,1.4.7,2.2-.2.9,0,1.6.3,2.2-.4.2-.6.5-.6,1v1.3c.5.6.7,1.1.6,1.4-.2,1.5-.2,3-.2,4.4s0,.8.2,1.2c.2.4.2.8,0,1.2,0,.6.2,1.2.3,1.6.2.5,0,.8-.3,1.2-.2.4-.1.6.1.6s.3.2.3.6,0,.6-.2.7c-.1,0-.2.3-.3.6.5.7.5,1.5.2,2.4s-.7,1.7-1,2.4c.4.5.9.7,1.5.8.3,1.2.4,2.4.3,3.6-.1,1.3.1,2.4.7,3.5,0,.4-.1.7-.4.9-.3.2-.4.4-.4.6v.9c0,.4,0,.8.1,1.3,0,.4.2.8.2,1.2s.2.5.5.5c-.2.6-.2,1.1-.2,1.6s.1.8.3,1.2c.2.3.3.7.5,1s.2.6.2.9,0,.4-.3.6c-.2.2-.3.4-.3.7,0,1,0,1.8-.2,2.5s-.3,1.3-.3,1.7v.6h.1Z"/>
  </g>
  <g>
    <g>
      <path class="st0" d="M154.3,660c-1.8,30.7,0,61.5,5.3,91.8.9,5.4,2.1,11,5.8,15,3.5,3.8,8.7,5.5,13.6,6.9,28.6,8.2,58.3,12.8,88,13.7,5.1,0,10.7,0,14.5-3.3,4-3.5,4.7-9.4,5.1-14.6,3-35.8,6-71.6,9-107.4.2-2.4.3-5-1-6.9-1.7-2.5-5.2-2.9-8.2-3.2-27.4-2.1-54.8-4.2-82.1-6.4-17.2-1.3-37.2-1.6-48.4,11.5"/>
      <path class="st1" d="M151.3,660c-1,17.9-.9,36,.5,53.9.7,9.1,1.7,18.1,3,27.1.6,4.3,1.3,8.7,2.1,13,.7,3.7,1.6,7.5,3.4,10.8,3.8,7.2,11.4,10,18.8,12.1,8.5,2.4,17,4.5,25.7,6.3,17.4,3.6,35,5.9,52.7,6.9,4.2.2,8.3.5,12.5.4,3.7,0,7.6-.5,10.9-2.3,7.1-3.8,8.2-12,8.8-19.2,1.5-18.2,3.1-36.5,4.6-54.7.8-9.1,1.5-18.2,2.3-27.4.4-4.6.8-9.1,1.2-13.7.4-4.4,1-8.8,1.1-13.2,0-4.2-1.6-8-5.6-9.7-3.6-1.5-7.8-1.4-11.7-1.7-9.1-.7-18.3-1.4-27.4-2.1-17.8-1.4-35.6-3-53.4-4.1-13.1-.8-27.8-.9-39.4,6.3-2.8,1.7-5.3,3.9-7.5,6.3-1.1,1.2-1.2,3.1,0,4.3,1.1,1.1,3.2,1.2,4.3,0,8.3-9.5,21.3-11.3,33.4-11.2,7.3,0,14.6.7,21.8,1.3,8.8.7,17.6,1.4,26.4,2s17.6,1.4,26.4,2c4.4.3,8.8.7,13.2,1,2.2.2,4.3.3,6.5.5,1.7,0,2.9.2,4.5.7,1,.3,1.8.7,2.2,1.7.6,1.4.3,3.2.2,4.7-.4,4.4-.7,8.8-1.1,13.2-.7,8.8-1.5,17.6-2.2,26.4-1.5,17.6-3,35.1-4.4,52.7-.4,4.4-.7,8.8-1.1,13.2-.3,3.4-.5,6.6-1.5,9.9-.8,2.6-2.5,4.9-5.1,5.9-3,1.3-6.3,1.2-9.6,1.2-16.8-.4-33.6-2.1-50.1-5-8.4-1.4-16.7-3.2-24.9-5.2-4.1-1-8.2-2.1-12.3-3.3-3.3-.9-6.6-1.9-9.6-3.7-6.1-3.7-7.3-10.8-8.4-17.3-1.4-8.4-2.6-16.9-3.5-25.4-1.8-17.2-2.5-34.6-2-51.9.1-4.2.3-8.5.5-12.7,0-1.6-1.4-3-3-3s-2.9,1.4-3,3h-.2Z"/>
    </g>
    <path class="st1" d="M260.6,717.8v1.9c0,.4-.2.9-.7,1.7-.5.7-.8,1.4-.9,2-.3.2-.6.4-.9.6-.3.2-.5.5-.6.9-.4,0-.9,0-1.6.3-.7.2-1.1,0-1.2-.5-.4,0-.6,0-.6.3s-.3.3-.6.2c-1.8-.3-3.3-.4-4.6-.2s-2.6.4-3.8.8c0,.8-.1,1.5-.4,2.2-.3.7-.4,1.5-.4,2.3.2.8.2,1.4.1,1.6,0,.2-.1.4-.1.6,0,.5,0,.9.2,1.4s.3.9.3,1.4,0,.8-.1,1.2c0,.3,0,.7.3,1-.2.4-.3.7-.6.9-.2.2-.4.5-.5.9v.6c0,.2.1.4.1.6,0,.8,0,1.2.2,1.2s.4,0,.5.3c-.2.5-.3.8-.4,1-.1.2,0,.6,0,1.1-.2,0-.4,0-.5.2,0,0-.1.3-.1.5v.5c0,0-.1.2-.3.2.2.3.2.6.2.9s.2.4.7.2c-.4.3-.6.9-.5,1.8v2c-.5.2-.9.5-1.1,1-.2.5-.4,1-.6,1.5-.5,0-.9.3-1.2.6s-.7.6-1.1.9c-.3-.4-.6-.4-.7-.2-.2.3-.4.4-.7.4-.7-.5-1.1-.6-1.3-.5s-.4,0-.6,0c-.6-.8-1.1-1.2-1.4-1.3-.3,0-.6-.3-.8-.6-.2-.6-.3-1.2,0-1.9.2-.7.3-1.3.3-1.9s0-.6-.3-.7c-.2-.2-.3-.4-.3-.6,0-.8.1-1.5.3-2.2s.4-1.4.5-2.1c.3-.3.4-.6.2-1-.2-.3,0-.6.3-.7-.5-1.5-.5-2.9,0-4.3-.4-.8-.5-1.7-.4-2.9s0-2.2-.3-3.1c.3-.9.6-1.6.7-1.9.2-.3,0-1.1-.3-2.1-.8.3-1.6.2-2.2-.5h-3c-1.2,0-2.2,0-2.8.2-.5,0-1.1-.3-1.8-.6-.8-.3-1.3,0-1.7.6-.3-.2-.7-.4-1.3-.5-.6,0-1.2,0-1.8-.2h-3.5c-.6-.2-1.2-.3-1.7-.4-.5,0-1.1-.2-1.7-.2s-.9,0-1.4-.2-1-.2-1.5-.2-.5,0-.7,0c-.3,0-.5,0-.6,0-.6.2-1,.5-1,1-.4-.3-.7-.3-1,0s-.6.3-1,.3c-1.2-.2-2.2,0-2.9.3-.7.4-1.4.6-2.2.6s-1,0-1.4-.3-.9-.3-1.4-.3c-.3-.6-.7-1.1-1.3-1.6-.6-.4-1.1-.9-1.4-1.4.2-1.1.2-2.1.2-3.1v-3.1c.2-1.6,0-3-.3-4.2s-.5-2.4-.5-3.6,0-.4.2-.6c.2-.2.3-.3.3-.6.2-1.1.2-2.2,0-3.4s-.4-2.3-.6-3.4c0-.2.2-.4.3-.6.2-.2.2-.4.2-.7-.2-.2-.2-.6-.2-1.2v-1.7c0-.6,0-1.1-.1-1.6,0-.5-.2-.7-.5-.8,0-.2.2-.5.2-1.1s.1-1.2.1-1.8v-3.2c0-.7-.2-1.4-.5-2.1-.3-.7-.4-1.4-.3-2.1-.2-.5-.6-.8-1-1,0-.4,0-.6.3-.6s.4-.2.3-.6c-.2-.4-.3-.8-.2-1.2s.2-.8.2-1.2c-.2-.6-.3-.9-.2-1,.1,0,.2,0,.2-.3,0-.4,0-.7-.2-1s-.3-.6-.3-1v-1.7c0-.8,0-1.6-.1-2.2,0-.7.2-1.3.7-2,.4-.2.8-.4,1.4-.4s.9-.3,1-.9c.8.2,1.6.5,2.4.7.7.2,1.5.4,2.4.6.3.8.2,1.6-.2,2.5.3.2.5.3.7.6.2.2.4.3.8.3-.2.5-.3.9-.4,1.4-.1.5,0,.9.4,1.3-.3.8-.4,1.2-.2,1.4s.2.4.2.5c.2,1,.2,2,0,3.1-.1,1,0,2,.4,2.9-.2.8-.3,1.5,0,1.9.2.4,0,.9-.4,1.4.2.4.3.8.5,1.2s.4.8.8,1.2c-.2.8-.1,1.6.1,2.4s.3,1.6.3,2.4,0,.4-.2.6c-.1.2-.2.4-.3.6-.2.5-.1,1.1,0,1.7.2.6,0,1.1-.3,1.5.5.5.6,1.2.5,2.1-.1.9,0,1.5.4,1.9v4.8c0,.3.1.5.3.6s.4.3.5.5c-.4.8-.5,1.6-.4,2.1.1.6.3,1.1.5,1.4.2.4.4.7.5,1s0,.6-.4.9c.3.8.6,1.2,1,1.4.3.2.7.3,1.1.2.4,0,.8-.3,1.2-.7.8.2,1.2.2,1.4,0,.2-.3.4-.4.7-.4.7.2,1.2,0,1.4,0,.3-.2.5-.2.6-.2.2.4.5.5,1,.5s.9,0,1.3,0c1.1,0,2.1.2,3.2.5,1,.3,2.1.5,3.2.5h4.4c.5,0,.9.3,1.3.8,1-.4,1.9-.4,2.7,0s1.7.6,2.7.6c.6.2,1.5,0,2.5-.2,1.1-.3,1.8-.7,2.2-1,0-.3,0-.5-.1-.6-.2,0-.2-.3-.1-.6.4-.8.5-1.5.3-1.9s-.3-.9-.3-1.3,0-.5.3-.7c.2-.2.3-.4.3-.6-.2-.7-.3-1.1-.2-1.1s.2,0,.2-.3c0-.3,0-.6-.3-.7-.2-.2-.3-.4-.3-.7s0-.3.1-.5c0-.2.1-.4.1-.6s0-.4-.2-.6c-.1-.2-.2-.4-.3-.6.2-.7.2-1.1.1-1.3,0-.2-.1-.4-.1-.6,0-.7,0-1.4.2-2,.2-.7.2-1.3.2-2-.2-1.1-.2-1.8,0-2.2.1-.4.2-.9.2-1.3s-.2-1.1-.6-1.4c.2-.5.3-1,.5-1.6s0-1.2-.2-1.6c0-.4,0-.6.3-.7.3,0,.4-.3.5-.6-.2-.3-.2-.8,0-1.6s0-1.2-.6-1.2c0-.4.1-.6.4-.5.3,0,.4-.2.4-.7v-1.4c0-.5,0-.8.2-1-.4-.3-.6-.7-.5-1.2v-1.3c0-.4,0-.7-.2-1s-.3-.7-.3-1v-1.5c0-.5-.2-1-.6-1.3.2-.7.2-1.5.3-2.4,0-.9,0-1.7-.3-2.3.4-.2.8-.4,1.2-.7s.7-.7.8-1c1,0,2,0,2.9-.3,1-.2,1.9,0,2.8.6v.8c.1.2.2.4.2.7.2.2.4.5.5.9.1.3.4.6.7.6,0,.6,0,1.3.1,2,.2.7,0,1.3-.6,1.7.7.5,1.1,1.1,1.2,1.7,0,.4-.1.7-.1,1.1s-.1.7-.3,1c.2.2.3.3.3.6v.7c0,.2,0,.3.3.5.2.2.3.3.3.6s0,.4-.2.6c-.1.2-.2.4-.2.5.2.8.3,1.4.3,1.6s.2.3.5.3c0,.2-.2.3-.5.5-.2.2-.4.4-.6.7-.2.3-.3.5-.3.8s.2.5.6.7c-.2.4-.2.8-.2,1.4v1.6c0,.5,0,1,.1,1.4,0,.4,0,.7-.2,1,.4.2.6.6.5,1,0,.5.1.8.5.9,0,.2-.3.3-.6.3s-.5.2-.5.5v2.8c0,1.2.2,2,.6,2.6,0,1.2-.2,2.1-.3,2.8-.2.7-.2,1.5-.2,2.4s.1,1.2.4,1.9c.3.7.2,1.3-.2,1.9.3,0,.3.2.1.7s-.3.8-.3,1c0,.9.2,1.8.6,2.8.5,0,1.1-.2,1.6-.2s1.1,0,1.7,0h1.6c1.5-.5,2.8-.6,3.7-.5,1,.2,1.9.3,2.9.5.3,1,1.1,1.6,2.3,1.7v.3h.1v-.3Z"/>
  </g>
  <g>
    <g>
      <path class="st0" d="M102.3,460.7c-4.2,41.2-6.8,82.6-7.9,124.1-.1,6.7,0,14.5,4,18.5,1.9,1.9,4.3,2.6,6.6,3.2,34.7,8.8,69.8,14.9,105,18.2,8,.8,17.4.5,22.3-8.2,3.4-6.2,3.2-14.7,2.9-22.4-1.6-38.5-3.2-76.9-4.8-115.4,0-1.8-.2-3.8-1.2-5.1-.9-1.2-2.3-1.4-3.5-1.5-38.7-4-77.5-6.8-116.3-8.6"/>
      <path class="st1" d="M100.2,459.9c-2.4,23-4.2,46-5.6,69.1-.7,11.5-1.3,23-1.7,34.5-.2,5.8-.4,11.5-.6,17.3-.1,4.7-.3,9.4.3,14.1.6,4.5,2.2,8.7,5.1,11.3,3.2,2.9,7.5,3.3,11.3,4.2,8.3,2.1,16.6,3.9,25,5.7,16.8,3.5,33.6,6.4,50.4,8.6,8.4,1.1,16.8,2.1,25.2,2.9,6.3.6,12.9.8,18.7-2.9,2.9-1.8,5.4-4.8,6.9-8.6,1.8-4.3,2.4-9.3,2.5-14.2.1-5.2-.2-10.4-.4-15.6-.2-5.8-.5-11.6-.7-17.4-1-23.3-1.9-46.6-2.9-69.9-.2-5.8-.5-11.6-.7-17.4,0-2.4,0-5.1-.7-7.4-.7-2.7-2.4-4.4-4.4-4.9-2-.5-4-.5-6-.7-2.2-.2-4.4-.4-6.6-.7-4.3-.4-8.5-.8-12.8-1.2-17.1-1.6-34.2-2.9-51.2-4-8.5-.6-17.1-1.1-25.6-1.5s-8.5-.4-12.8-.6c-1,0-2,0-2.9,0,.4,0,0,0-.2,0l-2.5-1c-1.4-.5-2.8-1.1-4.2-1.6-2.7-1.1-3.9,4.7-1.2,5.8,1.4.5,2.8,1.1,4.2,1.6l2.5,1c1.1.4,2.3.3,3.5.4,8.4.4,16.7.8,25.1,1.3,16.6,1,33.2,2.1,49.8,3.5,8.3.7,16.7,1.4,25,2.2,4.2.4,8.4.8,12.6,1.2.7,0,1.7,0,2.3.3.4,0,.7.2,1,.4,0,0,.2.2.3.4.2.5.3,1.3.4,2,0,1.4.1,2.8.1,4.2,1,22.6,1.9,45.2,2.8,67.9.4,11.4,1,22.7,1.4,34.1.2,5.2.5,10.4.6,15.6,0,4.2-.1,8.7-1.5,12.5-1.3,3.5-3.2,5.8-5.8,7.4-2.3,1.4-5.3,2-7.9,2.2-3.2.2-6.3,0-9.6-.3-4.1-.4-8.2-.8-12.3-1.3-16.3-1.9-32.6-4.3-48.8-7.4-8.1-1.5-16.2-3.2-24.3-5.1-4.1-.9-8.2-1.9-12.3-2.9-2-.5-4-1-5.9-1.5-1.6-.4-3.3-.9-4.7-2.1-2.3-1.9-3.1-5.6-3.4-8.9-.4-4.6,0-9.4,0-14,.3-11.2.7-22.4,1.3-33.6,1.1-22.5,2.7-45,4.8-67.4.5-5.3,1-10.6,1.5-15.9.1-1.6-.3-3.2-1.5-3.7-1-.4-2.6.5-2.7,2.1h0Z"/>
    </g>
    <path class="st1" d="M191.8,550.9c0,0-.1.3-.3.6-.1.3-.2.6-.4,1-.1.3-.3.6-.4.9-.1.3-.3.4-.4.4-.1.2-.2.4-.1.6v.6c-.3,0-.5,0-.6.2,0,0-.2.3-.3.4s-.2.3-.3.5c0,0-.2.2-.5.2v.5c.1,0,.1.2,0,.5-.3,0-.5.3-.6.7s-.3.5-.7.6c-.1.6-.4,1.1-.8,1.4-.5.3-.8.7-.9,1.3-.7.4-1.2.8-1.4,1.1s-.4.7-.5,1.1c-.2.2-.5.3-.9.3-.1.2-.3.4-.5.6-.2.2-.4.4-.6.6-.6,0-1,0-1.4.3-.5.3-1,.6-1.4,1s-.8.7-1.3,1c-.2,0-.4.2-.6.3-.2,0-.4.3-.5.6-.5,0-.9,0-1.3,0-.4,0-.8.3-1.2.5h-.8c-.3,0-.5,0-.6-.2-.4.8-1.1,1.3-2,1.4-.9,0-1.8.2-2.6.2-.4.2-.6.2-.8.2h-.8c0,0-.2,0-.2-.2-.3,0-.6,0-1,.3-.4,0-.8.2-1.2.3-.4,0-.8,0-1.2,0s-.7,0-.9-.2h-1.4c-.7,0-1.1,0-1.1-.2s-.2-.3-.5-.4c-.7-.3-1.5-.4-2.3-.3-.8,0-1.6,0-2.4-.2-.2,0-.3,0-.4.3,0,0-.3.2-.6.2-.3-.2-.7-.3-1.1-.4-.4,0-.8,0-1.3,0,0,0-.2-.2-.3-.3,0,0-.2,0-.3-.3h-.9c-.3,0-.5,0-.8.2,0-.3-.3-.7-.6-1-.3-.3-.6-.6-.8-.9-.3,0-.5,0-.6,0,0,0,0-.2-.2-.3,0,0-.3-.2-.7-.2h-.8c-.2-.5-.5-.8-.9-1.1s-.6-.6-.8-1.1h-.4c0,0-.3,0-.6,0,0-.3-.2-.6-.4-.6s-.3-.2-.4-.3-.3-.3-.4-.5-.3-.6-.4-1.2c0-.5-.2-1-.2-1.5s0-.9,0-1.2c.3,0,.6,0,.7-.3,0-.2.3-.4.4-.5.7,0,1,0,1,0s0-.2.3-.2c.9,0,1.4,0,1.4-.2,0-.3.3-.4.6-.4.4.7,1,.9,1.8.8,0,.5.2,1,.8,1.4.6.4,1,.8,1.3,1.2.2,0,.4,0,.6.2.2,0,.4.2.6.2,0,.3.2.6.5.8s.5.3.8.5c.3,0,.6.3.9.4.3,0,.6.3.7.6.4,0,.7,0,.9,0,.2,0,.4.2.6.3.7.2,1.4.2,2.1,0,.7,0,1.4,0,2.1,0s.4,0,.5.2c0,0,.3.3.4.4.5-.3.9-.2,1.3.2.3,0,.5,0,.6-.3,0-.2.4-.3.6-.3s.5,0,.8,0c.2,0,.5.2.8.2h1.8c.8,0,1.4-.3,1.7-.5.4-.2.8-.3,1.2-.3.6,0,1,0,1.1,0,.1,0,.3-.2.5-.3.8,0,1.3,0,1.4-.3.2-.2.4-.4.6-.5.3,0,.6-.2,1,0,.4,0,.6-.2.7-.6.9,0,1.5,0,1.8-.5s.7-.9,1.2-1.5c.3,0,.5,0,.6,0,0,0,.2-.2.4,0,.3-.2.7-.6,1.3-1.2.6-.6,1-1,1.3-1,.1-.3.3-.6.5-.8.2-.3.5-.5.8-.6,0-.3,0-.5.2-.6.2,0,.2-.3.2-.6.5-.2.8-.6.9-1,.2-.4.4-.8.8-1.1,0-.6,0-1.2.3-1.8s.3-1.2,0-1.8c0-.3,0-.5.2-.6.1,0,.2-.3.3-.5.1-.4.1-.8,0-1.1,0-.3,0-.7.2-1.1-.2-.5-.3-.9-.3-1.2v-1c0-.2,0-.3.1-.5,0,0,.1-.3.1-.5,0-.3-.2-.6-.5-.9s-.6-.6-.8-.8c0-.8-.2-1.5-.6-2.2-.4-.7-1.1-.9-2.1-.7-.6-.6-1.1-1.1-1.5-1.5s-1.1-.5-2-.4c-.7-.4-1.1-.6-1.3-.6s-.4,0-.7,0c-.2-.3-.4-.5-.5-.5h-.3c-.2,0-.5,0-.8-.2-.3,0-.6-.2-.8-.2s-.4,0-.6-.2c-.2,0-.4-.2-.6-.2s-.3,0-.4.2c-.2,0-.3,0-.5-.4-.3,0-.5,0-.7,0-.2,0-.4,0-.7,0h-1.2c-.5,0-.9,0-1.3-.2-.2-.2-.4-.3-.6-.2-.1,0-.3.2-.4.2s-.3,0-.7,0h-2.2c-.4,0-.6,0-.7,0-.2.3-.4.5-.6.7s-.5.3-.8.4c-.5,0-.8,0-.9-.3-.2,0-.4.2-.5.3h-.6c-.2,0-.3.2-.4.4,0,0-.2.3-.4.4-.7,0-1.3.2-2,.6-.6.4-1.3.5-2,.4-.3.4-.7.7-1.1.9s-.9.4-1.4.6c-.5.2-.9.3-1.4.5-.5,0-.9.4-1.3.6-.2,0-.3.3-.3.5v.6c-.5,0-.7,0-.8.2,0,.2-.2.4-.5.6h-.9c-.4,0-.6,0-.8-.2-.2,0-.4.2-.6.3,0,0-.3.3-.4.4-.6,0-1.1,0-1.5,0-.4-.2-.8-.3-1.4-.3-.3-.5-.5-.9-.7-1.4s-.5-.9-.8-1.3v-1.4c0-.5-.2-1-.5-1.4.3-.3.6-.6.9-.9,0-.5,0-.9,0-1.3.2-.4.3-.9.3-1.3,0-.7,0-1.3-.2-2,0-.6-.2-1.3-.2-2s0-.4,0-.6v-.6c0-.2,0-.6-.2-.9,0-.3-.3-.6-.4-.9-.2-.5-.2-1-.2-1.8v-1.9c0-.3,0-.6-.2-.8,0-.3,0-.5,0-.8v-5.3c0-.6,0-1.2,0-1.9,0-.3-.2-.7-.4-1,0-.3-.2-.7-.2-1.1.3-.7.4-1.2.3-1.4-.2-.2-.3-.4-.3-.7.3-.2.6-.5.8-.8.3-.4.6-.5,1.1-.3.2,0,.4-.2.4-.4s0-.5.3-.7c.8,0,1.6,0,2.3.2h2.3c.5-.2.7-.2.8,0,0,0,.3.2.6.2s.7,0,1-.2c.3,0,.6-.2.9-.2s.5,0,.7,0c.2,0,.4,0,.7,0s.4,0,.6-.2c.2,0,.4-.2.7-.2s.6,0,.8.2c.3,0,.5.3.8.4.2,0,.4,0,.7,0h.8c.2-.3.4-.4.5-.3h.3c.6-.2,1.1-.2,1.4,0s.7.3,1.2.3.6,0,.9-.2c.3,0,.6-.2.9-.2s.5,0,.8.2c.2,0,.5.2.8.2.6,0,1.2,0,1.7-.2.5,0,1.1-.2,1.7-.3.8.6,1.4.8,1.7.5s.6-.5.8-.5h1.6c1,0,1.8.2,2.3.3.5,0,1,0,1.5-.3.2,0,.4,0,.6.2.2,0,.5.3.7.3h.6c.2,0,.4-.3.5-.6h3.5c1.2,0,2.3.2,3.1.8,0,.2,0,.5.2.8s0,.5-.4.5c.3.3.4.8.2,1.3-.1.5,0,.9.2,1.2-.3.4-.6.7-.9,1-.3.3-.6.6-1,.8-.8,0-1.7,0-2.5,0h-2.5c-.8,0-.4,0-.6,0h-4.4c-.2,0-.5,0-.7.2-.2,0-.4.2-.7.2-.5,0-.9,0-1.2-.2-.4,0-.8-.2-1.2-.2h-2.2c-.8,0-1.7,0-2.5-.2-.8,0-1.7-.2-2.5-.2s-.5,0-.6-.2c0,0-.4-.2-.6-.2-.8,0-1.7.2-2.6.6-.7-.2-1.2-.3-1.6-.3h-1.1c-.3,0-.6,0-1,.2s-.8,0-1.3,0-.4,0-.6-.2c0,0-.3-.2-.4-.2-.4,0-.7,0-.9.4-.2.3-.5.3-1,.2-.2,0-.3,0-.4.2l-.3.3h-.8c-.2,0-.6,0-.8.3.2.3.3.7.3,1.1v1.2c0,.4,0,.5.2.8,0,.2.2.5.2.8v2c0,.6,0,1,.5,1.3,0,.8-.2,1.4,0,1.9,0,.5,0,1-.2,1.5,0,.2.2.4.3.4.2,0,.3.2.4.3-.3.5-.3.9,0,1.5.2.5,0,.9-.3,1.2,0,.2.2.5.2.9s0,.6.4.6c-.2.3-.3.6,0,.9,0,.3,0,.7,0,1.1,0,.2,0,.3,0,.5s.2.3.4.3c0,.3-.2.5-.3.7,0,.2,0,.5,0,.8.3,0,.6-.2.8-.3.3,0,.5-.3.8-.5h1.3c.5,0,.7-.3.8-.8h1.1c.5-.7,1.1-1.1,2-1.4.9-.3,1.7-.6,2.4-1,.6,0,1.1,0,1.6,0,.5,0,.9-.3,1.4-.5s.9-.3,1.3-.4c.5,0,.9,0,1.4.4.3,0,.5,0,.5-.2s.2-.3.4-.4c.5,0,1-.2,1.4-.3.4,0,.9-.2,1.4-.5.1.3.3.4.6.3.3,0,.5,0,.8,0s.4,0,.4.3.2.3.4.3c.5,0,.9-.2,1.3,0h2.3c.2,0,.4,0,.4.2s.1.2.3.3c.3,0,.7,0,1,.2.3,0,.6.3.7.6.2,0,.5-.2.8,0,.3,0,.6,0,.9,0,.3,0,.6,0,.9,0,.3,0,.6,0,.8,0,1.2.5,2.1.8,2.7,1,.6,0,1.1.3,1.6.5s.9.4,1.3.6c.4.2,1,.4,1.8.5,0,.2.1.4.2.5,0,0,.2.3.3.4.2,0,.4.2.6.2s.4,0,.5.2c.4.4.6.6.6.6h.1c.2.7.4,1.2.6,1.3.2,0,.4.3.6.4,0,.3.1.6.4.9.3.3.4.6.6.9,0,.2.2.4.3.4s.3,0,.5.2c0,.6,0,1.2.3,1.8.2.6.3,1.1.5,1.7.1.6.2,1.1.3,1.7,0,.6,0,1.2-.2,1.9.1.3.3.5.5.6.2,0,.3.3.3.6-.2.3-.4.8-.5,1.6,0,.8-.1,1.3-.1,1.7s0,.5.2.6c.1,0,.3.3.4.4h.5Z"/>
  </g>
  <g>
    <g>
      <path class="st0" d="M251.7,474.2c.9,41.3,1.8,82.6,2.7,123.9,0,4.9.3,10,2.5,14.1,3.8,7,11.9,8.1,18.9,8.5,31,1.9,62,3.8,93,5.8,4,.2,8.7,0,10.8-3.9,1.2-2.2,1.2-4.9,1.2-7.5-.3-40.7-1.3-81.5-3.3-122.2-.2-3.2-.4-6.7-2.2-9.2-1.6-2.2-4.2-3.1-6.7-3.8-38.9-11.3-79.6-13.6-119.3-6.8"/>
      <path class="st1" d="M249.2,474.2c.4,20.3.8,40.6,1.3,61,.4,20.3.8,40.6,1.3,61,0,4.5,0,9.1,1.3,13.4,1.1,4,3.2,7.3,6.1,9.5,5.4,4.2,12.4,4.5,18.7,4.9,17,1.1,34.1,2.1,51.1,3.2,8.5.5,17,1.1,25.6,1.6,4.2.3,8.4.5,12.5.8,3.2.2,6.6.5,9.6-.8,3.5-1.5,5.8-4.6,6.3-9,.3-2.4.2-4.8.2-7.2v-7.5c0-10.1-.3-20.3-.5-30.4-.4-20.3-1-40.6-1.9-60.8-.2-5.1-.4-10.1-.7-15.2-.2-4.4,0-9.4-1.5-13.6-1.5-4.3-4.9-6.4-8.5-7.5-3.9-1.2-7.8-2.2-11.7-3.2-16.1-4-32.4-6.4-48.8-7.4-16.2-.9-32.6-.4-48.7,1.7-4.1.5-8.2,1.1-12.2,1.8-1.1.2-1.9,1.7-1.9,2.9s.8,2.5,1.9,2.9c.8.3,1.6.7,2.4,1,1.3.5,2.8-.6,3.1-2.1.4-1.7-.5-3.2-1.8-3.7-.8-.3-1.6-.7-2.4-1v5.8c15.6-2.7,31.3-3.9,47-3.7,15.7.2,31.6,1.7,47.1,4.7,7.8,1.5,15.6,3.4,23.2,5.6,2.6.8,5.9,1.5,6.8,4.8.5,1.8.6,3.5.7,5.4,0,2.4.3,4.8.3,7.2.9,19.7,1.6,39.4,2.1,59.1.3,9.8.4,19.6.6,29.4,0,4.9.2,9.8.2,14.7s.3,9.5,0,14.2c0,.8-.2,1.6-.3,2.4-.3.8-.5,1.3-.9,1.7-.7.8-1.6,1.2-2.9,1.5-.7.2-.9.2-1.8.3h-2.2c-1.9,0-3.6-.2-5.5-.3-8.3-.5-16.6-1-24.9-1.5-16.5-1-33-2-49.4-3.1-4.1-.3-8.3-.5-12.4-.8-3-.2-6.2-.3-9-1-2.9-.6-5.3-1.5-7.6-3.4-.8-.7-1.9-2-2.4-3.1-.8-1.7-1.3-3.6-1.6-5.5-.6-4.2-.4-8.5-.5-12.8,0-5-.3-10-.3-15-.2-9.8-.4-19.7-.6-29.5-.4-19.7-.8-39.3-1.3-59,0-4.8-.2-9.7-.3-14.5,0-3.9-5.1-3.9-5.1,0h0Z"/>
    </g>
    <path class="st1" d="M344.8,560c-.3.3-.8.6-1.3.9-.5.3-.6.7-.4,1.3-.3,0-.5,0-.5,0,0,0-.2.2-.4.3-.3.8-.8,1.4-1.5,1.9-.6.5-1.1,1.2-1.4,1.9-.3,0-.6.2-.8.4-.3,0-.5.4-.5.9-.3,0-.7.2-1,.3s-.6.3-.9.4c-.2.2-.5.4-.8.8-.3.3-.6.6-.7.8-.1,0-.3.2-.5.2s-.4,0-.6.2c-.1,0-.2.2-.3.4-.1,0-.2.3-.3.4-.3.2-.7.3-1,.3h-1c-.3,0-.6.2-1.1.4l-4.8,1.3c-.2.3-.5.5-1.1.8-.5.2-1.1.4-1.7.6-.6,0-1.2.3-1.8.3s-1,0-1.4,0c-.7,0-1.3-.2-1.9-.7-.3,0-.5,0-.6.3-.1.2-.3.3-.6.3-.7,0-1-.2-1-.3s-.2-.3-.5-.3h-.6s-.1.2-.3.3c-.6-.4-1.3-.7-2-.8-.7-.2-1.5-.3-2.2-.4-.5-.6-1.1-.9-1.9-1.1-.8,0-1.6-.3-2.3-.4,0-.3-.2-.4-.5-.5-.3,0-.5-.2-.6-.5-.3,0-.6,0-.6-.2s-.3-.2-.6,0c-.3-.3-.5-.6-.8-.8-.2-.3-.6-.5-1-.5-.3-.5-.6-.7-.8-.9-.2,0-.3-.2-.4-.2h-.3c-.1,0-.3,0-.5-.3-.5-.3-.8-.7-1.2-1.2-.3-.5-.8-.7-1.4-.8-.1-.3-.2-.7-.4-1.1-.1-.4-.4-.7-.9-.8,0-.3,0-.7-.2-1-.1-.3-.3-.6-.5-.9l-.6-.8c-.4-.2-.6-.4-.8-.6-.1-.2-.3-.4-.5-.6,0-.6-.1-1.2-.5-1.7s-.5-1-.4-1.4c-.3-.5-.6-.9-1.1-1.3-.1-1.5-.6-2.7-1.4-3.8-.1-.3,0-.5,0-.5.1,0,.2-.2.1-.4-.2-.3-.4-.7-.4-1.1s0-.8-.2-1.1c0-.2-.2-.4-.3-.4s-.3,0-.4-.2c.3-.3.3-.5.1-.7-.2-.2-.3-.4-.3-.7s.1-.6.3-.7c.2,0,.3-.3.3-.4v-.6c0-.2-.2-.4-.4-.5.5-.6.6-1,.5-1.3s-.2-.6-.3-.9c.3-.3.4-.5.3-.7s-.2-.4-.3-.7c.3-.5.4-1,.4-1.7s-.2-1.2-.4-1.7c.1,0,.2-.4.3-.9.1-.5.2-.8.2-1,0-.3-.1-.5-.3-.6-.2,0-.3-.3-.2-.6.2,0,.4,0,.5-.2.1,0,.3-.2.4-.3.3-.8.5-1.4.4-1.7v-1c.3-.3.4-.6.4-.6v-.3l.3-.8s.2-.2.5-.6c.3-.3.5-.5.6-.6,0-.3,0-.6.3-.8.2-.2.4-.5.6-.7s.5-.4.7-.6c.2-.2.4-.3.4-.3,0-.2,0-.3.1-.4.1,0,.2-.3,0-.6.2,0,.6,0,1-.5.5-.4.7-.7.8-.9.2-.6.3-.8.4-.8h.3c.3-.3.5-.6.5-.6,0,0,0-.2.1-.3.5-.2.7-.4.7-.5s0-.2.2-.3c.5-.5.8-.8.8-1s.3-.4.6-.5v-.9c.6-.2,1-.4,1.2-.6.2-.2.3-.4.4-.6.3,0,.5,0,.6,0,0-.2.2-.3.5-.3s.6-.2.6-.6.4-.6.9-.5c.1,0,.2-.3.2-.5s0-.4.2-.5c.8-.2,1.4-.6,1.9-1.1s1.2-.8,2.2-.8c.1,0,.2-.2.3-.3,0,0,.1-.2.3-.3.8-.2,1.7-.4,2.7-.6.9-.2,1.7-.6,2.3-1.3h.8c.3,0,.5,0,.8,0,.5-.2.8-.4.9-.6.2,0,.5-.2.8,0,.3,0,.6,0,.8-.4.2,0,.3,0,.5.2.1,0,.3,0,.5,0,.3,0,.6,0,.9-.4.3-.3.6-.4.9-.6.4.2.8.2,1.3.2s.9,0,1.4-.2c.5,0,.9-.2,1.4-.2s.8,0,1.1.3c.5,0,1,0,1.5-.2.5,0,1,0,1.5,0s.5,0,.7.3.4.4.7.4c.5-.3.9-.3,1.3,0s.8.3,1.3.3c-.1.5,0,.9.2,1.3.2.4.3.8.3,1.2s0,.4-.2.5c-.1,0-.2.3-.1.6-.6,0-1,.2-1.2.6-.3.4-.6.6-1.1.6s-.7-.2-.8-.7c-.8.3-1.4.4-1.7.3-.3,0-.7-.2-1.1-.2-.7,0-1.1,0-1.4.2-.3,0-.7.4-1.3.6-.1,0-.3,0-.6,0-.3,0-.4.2-.4.4-.8.2-1.7.4-2.4.4s-1.4.3-2,.9c-.7,0-1.1,0-1.4.2-.3,0-.4.3-.6.6-.3-.2-.6-.3-.9-.3h-1c-.6-.2-1,0-1.3.2-.2.3-.6.4-1.1.3-.2.2-.5.3-.7.5s-.4.4-.6.6c-.6,0-1.2.4-1.6.7-.5.4-1,.7-1.5,1-.3,0-.5.4-.8.8h-.5c0,0-.2.2-.4.3-.1.2-.3.4-.6.5-.3,0-.4.3-.6.6v.5c0,.2,0,.4-.1.5l-.5.7c-.3,0-.6.3-.9.5s-.5.4-.8.5l-.3.6c-.1.2-.2.4-.2.7-.5,0-.8.4-.9.7-.2.4-.5.6-.9.6-.3.2-.5.5-.6.8,0,.3-.3.5-.7.6-.3.7-.6,1.1-.7,1.1s-.2.3-.2.7c-.5.3-.8.6-.8,1s-.2.5-.6.5c-.1.7-.3,1.3-.7,1.9-.3.6-.5,1.3-.6,2,.1.3.4.4.8.5.4,0,.7,0,1,0,.7-.3,1.1-.5,1.2-.7s.4-.2.6-.2c.4-.5.8-.8,1.4-1.1.5-.3.9-.7,1.2-1.4.6,0,1.1-.2,1.4-.5s.8-.3,1.6-.2c.7-.5,1.4-.7,2.1-.9.7,0,1.4-.2,2.3-.2s.2,0,.4-.2c.1,0,.3-.3.4-.4.4,0,.6,0,.7,0,0,.2.3.3.6.3.3-.2.5-.2.6-.2s.4,0,.8-.4h1c.8,0,1.7-.2,2.7-.6,1-.4,1.9-.6,2.8-.6.8,0,1.4,0,1.8,0,.4,0,.7.2.8.7.2-.4.5-.6.9-.5h1.1c.3,0,.5,0,.7-.2.2,0,.3-.2.4-.2.2,0,.3,0,.3.3s.2.3.3.3c.7.2,1.2.3,1.4.3h.8c.7.3,1.2.5,1.4.5h.8c.6.4,1.1.6,1.6.6s.7.2.8.6h.8c.3,0,.5,0,.8,0,.2.3.6.6,1.1,1,.6.4,1,.8,1.3,1.2.3,0,.5,0,.7.2.2,0,.4.2.7.3-.1.3,0,.4.2.5.2,0,.3.2.2.5,1,.2,1.7.7,2.2,1.4s.9,1.5,1.1,2.2c.5.5.9.9,1.3,1.3v.7c0,.3,0,.5-.2.6.2,0,.4.2.5.5,0,.3.3.5.6.6.1.2.1.4,0,.4s.1.3.8.8v.7c0,.2,0,.3.4.4.5,1.1.7,1.9.7,2.4v3c0,.4.2.8.5,1.2,0,.5.1.9.2,1.4,0,.5.1.9.1,1.4s0,.8-.1,1.1c0,.3-.2.5-.3.7-.1.2-.2.5-.3.8,0,.3-.1.7-.1,1.3s0,.5-.2.7c-.1.2-.1.4,0,.7h0ZM339.6,553.6c-.1-.2-.2-.5-.3-.7,0-.2-.2-.5-.3-.8.3-.7.3-1.1.1-1.4-.2-.3-.2-.6.1-1-.5-.5-.7-1.1-.9-1.7-.1-.6-.4-1.3-.8-1.8v-.8c-.4-.7-.8-1.3-1.2-1.7-.4-.5-.7-1.1-.8-2-.2,0-.4,0-.4-.2s-.1-.4-.3-.5c-.2-.2-.4-.3-.6-.4-.2,0-.4-.2-.6-.3-.5-.3-.8-.7-1.2-1.1-.3-.4-.7-.7-1-1.1h-.8c-.2,0-.4-.2-.5-.7-.4,0-.8,0-1.1,0-.3,0-.7-.2-1.1-.2-.3-.4-.7-.7-1.2-.8s-1,0-1.5,0c0-.2,0-.4-.2-.4s-.4,0-.6,0c0,.3-.3.4-.6.3-.4,0-.6-.2-.8-.3-.2,0-.3.2-.5.4-.1,0-.3.3-.5.4-.3-.6-.7-.9-1.2-.8-.5,0-1,.2-1.5.2h-1.4c0,.2,0,.3-.3.3h-2c-.5,0-.8,0-1.2.4-.3.3-.7.4-1.2.4-.8,0-1.5,0-1.8,0h-1.1c-.4.3-.9.6-1.6.8s-1.2.2-1.7.2c-.2.3-.5.5-.8.6-.3,0-.6.3-.9.6-.6,0-1.1.2-1.4.4-.3,0-.6.3-.8.5-.1,0-.2.3-.1.6,0,.3,0,.4-.2.4-1,.5-1.6.9-1.9,1.3-.3.4-.8.6-1.4.8-.4.3-.7.6-.8,1.1-.2.5-.6.7-1.2.8,0,.3,0,.6-.3.8-.2.2-.4.4-.6.6-.2.2-.4.4-.6.6-.2.2-.3.5-.3.8s0,.3.3.3.2.2.2.4c-.5.4-.7.9-.6,1.5,0,.6,0,1.2-.3,1.6.1,0,.3.2.4.2.2,0,.3,0,.3.3-.1.2-.1.4,0,.6,0,.2.1.4.2.6,0,.2.1.4.2.6,0,.2,0,.4-.1.6.3,0,.4,0,.4.4v.7c.1.4.3.7.6,1.1.3.3.5.7.5,1.1.3,0,.5,0,.5.2s.1.4.3.5c.1,0,.2.2.4.3.1,0,.3.3.4.4.2.5.3.7.3.7,0,0,.1,0,.2.2.1,0,.2.3.3.5,0,.2.2.4.3.5.1,0,.3.2.4.2h.4c.3.5.6.9,1,1.3.4.4.9.7,1.5.9.1.4.4.7.7.9.4.2.6.5.7.9.3,0,.6,0,.9.2.3,0,.6.2.9,0,.5.6,1,1,1.7,1s1.3,0,2,.3c.3,0,.4,0,.4.3s.2.3.8.4c.3.3.5.4.6.4h.3c.4.3.7.4.8.4h.5c.4,0,.8,0,1.1.2.4,0,.8.2,1.2.2s.3,0,.5-.2c.2,0,.3-.2.5-.2h2c.8,0,1.4.2,1.9.2s.9,0,1.4-.2c.5,0,.8-.2,1.1-.3.3,0,.7-.2,1.1-.2s.7,0,1-.4c.3-.3.6-.4.9-.6.2.3.4.4.6.4s.3,0,.4-.2c.1,0,.3-.2.3-.3h.4c.1-.2.2-.4.2-.6s.1-.4.3-.5c.8,0,1.4-.4,1.7-.9s.8-.8,1.4-.9l.3-.6c0-.2.2-.3.3-.5.3,0,.5,0,.5-.2s.2-.3.4-.4c.4,0,.6-.3.7-.5,0-.2.3-.3.6-.2,0-.3.2-.5.3-.8.1-.2.3-.5.4-.8.4,0,.7,0,.9-.3.2-.3.5-.4.8-.4.1,0,.2-.2.1-.3v-.3c0,0,0-.2.2-.3.1,0,.3-.2.7-.3,0-.5,0-.7.1-.7,0,0,.2,0,.2-.2.1-.2.2-.5.2-1v-1.1c.1-.2.2-.3.4-.5.1-.2.3-.3.4-.4h0v-.7Z"/>
  </g>
  <g>
    <g>
      <path class="st0" d="M175.6,437.8c-.9-30.8-1.8-61.6-2.7-92.4-.2-6.8-.2-14.2,4-19.5,2.6-3.3,6.4-5.3,10.1-7.1,33-16.6,67.4-30.2,102.9-40.6,6.6-1.9,15.1-3.2,19.2,2.3,2,2.7,2.3,6.2,2.5,9.6,2.8,46.7,4,93.6,3.4,140.4,0,3.9-.3,8.2-3.2,10.8-2.1,1.9-5,2.4-7.8,2.8-42.8,5.9-86.6,4.8-129.1-3.2"/>
      <path class="st1" d="M178.6,437.8c-.6-19.1-1.1-38.1-1.7-57.2-.3-9.6-.6-19.1-.8-28.7-.1-4.2-.4-8.4-.2-12.6.1-3.4.6-6.9,2.3-9.9,1.8-3.2,4.9-5.2,8.1-6.9,3.8-2,7.8-3.9,11.7-5.8,8.1-3.9,16.4-7.7,24.7-11.2,16.4-7,33.2-13.3,50.2-18.9,4.3-1.4,8.5-2.7,12.8-4,3.7-1.1,7.3-2.4,11.1-2.9,2.6-.3,5.8-.3,8,.9.7.4.8.5,1.3,1s1,1.1,1.3,1.9c.7,1.5.9,3.3,1,4.9.8,9.4,1.1,18.8,1.5,28.2.4,9.5.8,18.9,1.1,28.4.6,19,.9,38,1,57,0,9.5,0,19-.1,28.6,0,3,0,6.6-2.3,8.5-1.2,1-2.8,1.4-4.4,1.7-2,.4-4.1.6-6.1.9-18.3,2.3-36.8,3.3-55.3,3.1-18.4-.2-36.7-1.7-54.9-4.5-4.5-.7-8.9-1.4-13.4-2.3l2.1,3.7c.2-1,.5-2,.7-3,.9-3.8-4.9-5.4-5.8-1.6-.2,1-.5,2-.7,3-.4,1.5.5,3.4,2.1,3.7,18.9,3.5,38,5.8,57.2,6.6,19,.8,38.1.3,57-1.5,4.7-.5,9.5-1,14.2-1.6,4.2-.6,8.9-1,11.9-4.4,2.8-3.1,3.4-7.2,3.5-11.1.1-4.7.1-9.5.1-14.2.1-19.7,0-39.3-.6-59-.5-19.6-1.3-39.2-2.4-58.7-.3-4.7-.3-9.5-1-14.1-.6-4.1-2.5-7.9-6.2-10.1-6.5-3.9-14.9-1.5-21.6.6-17.8,5.3-35.3,11.4-52.5,18.3-8.8,3.5-17.5,7.2-26.1,11.1-8.3,3.8-16.6,7.6-24.6,11.9-3.7,2-7.1,4.4-9.5,7.9-2.3,3.4-3.2,7.5-3.6,11.5-.4,4.2-.1,8.4,0,12.5l.4,15c.6,19.6,1.1,39.3,1.7,58.9.1,4.8.3,9.7.4,14.5.1,3.9,6.1,3.9,6,0h.4Z"/>
    </g>
    <path class="st1" d="M267.1,347.3c-.3,0-.5,0-.6.3-.1.2-.4.3-.6.3-.1.7-.4,1.3-.8,1.9-.4.6-.6,1.2-.7,1.9-.2.3-.4.5-.6.7-.2.2-.3.4-.3.8-.1,0-.2.1-.4.2-.1,0-.3.2-.4.2-.3.6-.6,1.3-1,1.9s-.7,1.3-1.1,1.9c-.6.6-.8,1.2-.7,1.9-.5.4-.8.9-1,1.4-.2.6-.6,1-1.2,1.3,0,.3,0,.5-.3.6-.2.1-.2.4,0,.6-.3,0-.5.2-.6.6-.1.3-.2.6-.3.8-.2.2-.3.3-.5.5s-.3.4-.4.6c-.1.5-.3.8-.5.9-.2.2-.4.3-.5.5-.3.7-.6,1.2-.8,1.5-.3.3-.5.6-.8.9v.9c-1.3.7-2,1.7-2.2,3-.3.3-.6.6-.8,1l-.6,1.2c-.2,0-.3.1-.4.2-.1,0-.3.1-.4.1,0,.2-.1.4-.2.6,0,.1-.2.3-.2.6-.5.2-.8.7-1.1,1.3-.3.6-.8,1.1-1.4,1.4,0,.7-.2,1.2-.6,1.5-.4.3-.6.8-.6,1.4-.3,0-.7.4-1.2,1.3-.5.8-1,1.8-1.6,2.8-.5,1-1,2-1.3,3s-.5,1.6-.3,1.8c-.2.2-.3.4-.4.6,0,.2-.3.4-.6.5.1.5,0,.8-.2,1s-.2.5,0,.8c-.5.6-.9,1.1-1.1,1.4-.2.3-.4.6-.6.8-.1,0-.3.3-.6.7-.3.4-.5.6-.5.8-.4,0-.8.1-1.2.2-.4,0-.7.3-1,.6-.5-.1-.9-.2-1.3-.3-.4,0-.8-.2-1.3-.3,0-.6-.2-1-.6-1.2-.4-.3-.6-.7-.6-1.2s0-.8.1-1.1v-1.1c.2-.2.3-.5.5-.7.1-.3.4-.4.6-.6v-.7c-.1-.2-.1-.4,0-.6.2-.2.4-.3.6-.4.2,0,.4-.2.6-.4.4-.5.7-.9.9-1.4.3-.5.5-.9.5-1.1s0-.4.2-.6l.3-.9c.5,0,.7-.1.7-.5s.1-.7.4-.9c0-.3.2-.5.5-.7s.5-.7.3-1.7c.6-.3.9-.7,1.1-1.2.2-.5.6-.9,1.1-1.1,0-.3.1-.5.2-.7v-.7c.4-.1.7-.3.9-.6.2-.3.5-.6.8-.8,0-.5,0-.8.3-1s.5-.5.8-.8c.5-.7.9-1.3,1.3-1.6.1-.7.4-1.3.9-1.8s.8-1.1.9-1.9c.2-.1.4-.4.6-.7.2-.4.5-.7.7-1.1s.5-.9.8-1.5c.4-.2.6-.4.6-.5v-.2c.1-.1.4-.3.8-.7.4-.3.6-.5.8-.5.1-.6.3-1.2.7-1.6.3-.5.6-1,.8-1.5.5-.5.8-.8.9-1,.1-.2.2-.4.2-.6.4-.3.8-.7,1.1-1.1.3-.6.6-.9.6-.9,0,0,.2,0,.3-.2.1-.1.1-.3,0-.5v-.5c.6-.8,1-1.4,1.2-1.9s.3-.9.4-1.4c.5-.2.8-.5,1.1-.9s.6-.8.8-1.2c.3-.4.5-.8.8-1.2.3-.4.6-.7,1.1-1,0-.4.1-.7.4-.9.3-.2.4-.5.6-.9-.3-.3-.6-.5-.9-.8-.3-.2-.6-.5-.8-.8-.5,0-.8,0-.9-.1-.2-.1-.4-.2-.7,0-.4.2-.7.2-.8,0s-.4-.3-.8-.3-.4,0-.6.1c-.2,0-.4.1-.6.1s-.6,0-.8-.1c-.3,0-.5-.1-.8-.1-.5,0-1,0-1.4.3-.5.2-.9.3-1.4.3-.7.1-1.4.2-2,.2h-2.8c-.2,0-.3,0-.5.1-.1,0-.3.2-.5.2-.5-.1-.8-.1-1.1,0-.3,0-.6,0-.9-.3-.3,0-.5,0-.6.3-.1.2-.3.3-.5.3-.4-.3-.8-.4-1.2-.3-.4,0-.9.1-1.3.1s-.6,0-1.1-.1c-.5,0-.9-.2-1.1-.2-.8-.3-1.3-.4-1.4-.2-.2.1-.5,0-.9-.1-.7.1-1.1,0-1.4,0-.3-.1-.5-.2-.8-.2-.5-.1-.8-.2-.9-.1h-.3c-.3,0-.5,0-.8-.3-.2-.2-.5-.3-.8-.3-.6,0-1.2,0-1.9.2-.6.1-1.2,0-1.9-.3-.3.1-.7.3-1,.5s-.6.4-.9.6c-.3-.2-.6-.3-.9-.3s-.6,0-.9-.1c-.4-.1-.7-.3-.9-.6-.2-.3-.6-.4-1.1-.3-.3-.4-.6-.8-.8-1.3s-.4-.9-.7-1.4c.1-.4.2-.7.3-1.1.1-.3.1-.7,0-1.1.2-.1.4-.2.6-.2.3,0,.4-.2.3-.5h2c.7,0,1.4-.1,2-.3.4.4.8.6,1.3.5.5,0,.9,0,1.4.3,0-.1.2-.2.4-.2h.5c.2,0,.3-.1.5-.2.1,0,.3-.1.5-.1h1c.4,0,.7.2.9.5.5-.1,1-.1,1.6,0s1.1.2,1.6.3c.6-.1,1-.2,1.3-.3.3,0,.6.2,1,.3.4.2.7,0,1-.3.5.1,1,.2,1.5.4.6.1,1.1,0,1.5-.2.2.1.4.2.6.3.2,0,.3.2.5.3.6-.2,1.1-.3,1.7-.2.5.1,1.1.2,1.7.2s.8,0,1.2-.3c.3-.2.7-.3,1.1-.3.8.1,1.4,0,1.7,0,.3-.1.7-.2,1-.3.2.1.4.2.7.1.3,0,.5,0,.6.2.2-.2.5-.2.7-.2h.8c.3,0,.6,0,.8-.1.2,0,.5-.2.7-.2h.9c.4,0,.8.2,1.3.5.2-.1.4-.2.6-.3.2,0,.5-.1.7-.3h1.2c.2,0,.6,0,.8-.2.3-.1.6-.2.8-.2.7,0,1.4,0,2.1.2.7.1,1.4.2,2,.2s.8,0,1.1-.1c.3,0,.6-.2.8-.2h.9c.3,0,.8.2,1.5.4.2.3.4.6.6.9s.4.6.6.9.3.6.3,1-.1.7-.3,1c-.1.3,0,.5.1.6.2,0,.3.2.3.4s0,.4-.3.6c-.2.1-.3.3-.5.5s-.3.5-.5.8c-.1.3-.2.7-.1,1.2h0l-.3-.5Z"/>
  </g>
  <g>
    <g>
      <path class="st0" d="M74.2,814.6c-3.8,65.2-5.2,130.6-4.2,196,39.7-6.3,79.4-12.6,119.1-18.8,3-.5,6.2-1.1,8-3.9,1.5-2.2,1.8-5.3,2-8.2,3.1-44.6,6.1-89.2,9.2-133.9.2-3.2.3-6.7-1.3-9.2-1.4-2.1-3.8-2.8-6-3.4-39.4-10.5-80-15.1-120.4-13.7"/>
      <path class="st1" d="M71.7,814.6c-1.5,25.5-2.6,51-3.4,76.5-.7,25.5-1.2,50.9-1.2,76.4s0,28.7.3,43.1c0,1.5,1.2,3.2,2.5,3,25.8-4.1,51.6-8.2,77.5-12.3,13-2,25.8-4.1,38.8-6.1,2.8-.4,5.7-.6,8.3-1.8,2.8-1.3,4.9-3.6,6-7.1,1-3.2,1-6.8,1.2-10.1.2-4,.6-8,.8-11.9,2.1-31.5,4.3-63,6.5-94.6.5-7.8,1.1-15.6,1.6-23.4.2-3.4.3-6.9-1-10-1.3-3.1-4-4.8-6.7-5.6-5.9-1.9-12-3.1-18.1-4.5-6.4-1.4-12.6-2.7-19-3.8-25.2-4.4-50.7-6.5-76.3-6.2-3.1,0-6.2,0-9.2.2l1.2.4c-2.1-1.6-4.2-3.2-6.4-4.8-2.7-2.1-5.2,3.1-2.5,5.2,2.1,1.6,4.1,3.3,6.2,4.7,1,.7,2,.5,3,.5,1.7,0,3.5,0,5.2,0h10.1c13.1,0,26.2.8,39.3,2.1,13,1.3,25.9,3.3,38.8,5.9,6.4,1.3,13,2.8,19.3,4.4,1.6.4,3.1.8,4.7,1.2,1.2.3,2.6.6,3.8,1.2,2.2,1.1,2.7,3.3,2.6,6,0,3.9-.5,7.8-.7,11.7-.2,4-.6,8-.8,11.9-.6,8.1-1.2,16.3-1.6,24.4-1.2,16.3-2.2,32.5-3.4,48.8-.6,8.1-1.2,16.3-1.6,24.4-.2,4.1-.6,8.3-.8,12.4-.2,2.8,0,6.6-1.5,9-1.3,2.1-3.9,2.6-6,3-3,.5-6.4,1-9.7,1.5-6.7,1.1-13.3,2.1-20,3.2-26.6,4.2-53.3,8.4-79.9,12.6l-9.8,1.5,2.5,3c-.4-25.5-.4-51.1,0-76.6.3-25.5,1.1-50.9,2.1-76.4.6-14.3,1.3-28.7,2.1-43,0-1.6-1.2-3-2.5-3s-2.4,1.4-2.5,3h0Z"/>
    </g>
    <path class="st1" d="M159.5,934.4c-.3,0-.5,0-.6.3,0,.2-.3.3-.6.3-.6-.2-1,0-1.2,0-.2.2-.4,0-.5-.3-.2,0-.4,0-.8.3-.4.3-.7.2-1-.3-.5.4-.9.5-1.4.4s-1-.2-1.5-.2-.3,0-.4.2c0,0-.3.2-.4.2-.5,0-.8,0-1,0h-2.5c-.8,0-1.5-.2-1.9-.6-.4,0-.8,0-1.3.2-.5,0-.8,0-1.1-.6-.5.3-.7.4-.7.3h-.2c-.5.3-.8.4-.9.3h-.3c-.2,0-.3,0-.4.2,0,0-.2.2-.3.3h-.9c-.3,0-.6,0-.8.3-.7,0-1.3,0-2,.2-.6.2-1.1.2-1.3,0-.5,0-.8,0-1,0h-.5c-.2,0-.3,0-.5.2,0,0-.3.2-.5.2-.6,0-1.1,0-1.7-.2-.5,0-1.1-.2-1.7-.2s-.2,0-.4.2c0,0-.3.2-.4.3h-2.4c-.2,0-.4.2-.4.4-.5-.3-.9-.4-1.4-.2-.5,0-.9.2-1.4.2h-2.6c-.6,0-1,0-1.1,0,0,0-.4-.3-.8-.6,0,0-.3,0-.5,0-.2,0-.4,0-.5-.2-.3-.5-.6-.7-.6-.6,0,0-.2,0-.3,0-.3-.4-.6-.6-.6-.6h-.2c0,0-.2-.2-.3-.5,0-.3-.2-.5-.3-.6-.3-.5-.6-.8-.7-.9,0-.2,0-.6.2-1.3l.7-.8c.2-.5.4-.7.7-.8.3,0,.4-.3.4-.6.6,0,1.1-.4,1.4-.8.3-.4.7-.7,1.3-.9v-.6c0-.2.2-.4.3-.6.7-.6,1.3-1.1,1.8-1.5s1-.8,1.5-1.2c0-.3.3-.7.6-1,.3-.3.6-.5,1-.5.3-.3.6-.6.8-.9.3-.3.6-.5,1.1-.5.3,0,.5-.3.6-.6s.2-.5.3-.7c.6-.3,1.1-.8,1.4-1.4.2,0,.4,0,.5-.2,0,0,.2,0,.5,0,.5-.2.6-.5.5-1.1h.9c0,0,.2-.3.3-.4s.2-.3.3-.4c.2-.3.6-.6,1-1s.6-.7.6-1.1c.5-.6.8-.9,1-1.1,0-.2.3-.4.5-.6.2-.2.4-.4.6-.6.2-.2.4-.4.5-.7l.8-.2c.2,0,.3-.3.3-.5s0-.2.5,0c.3-.6.5-.9.7-1.1.2,0,.4-.3.7-.4.2-.5.5-.8.9-.9.4-.2.6-.5.8-1.1.5-.3.7-.4.8-.4h.3c.2,0,.5-.3.8-.8.4-.5.8-.8,1.1-.9,0-.3-.2-.5,0-.6,0,0,0-.3,0-.6.3,0,.4,0,.4-.2s0-.4,0-.5.2-.2.4-.2.3,0,.4-.2l1.6-1.4c.5-.5.7-1,.8-1.4,0-.4.4-.6.8-.7.2-.6.2-1,.2-1.4s0-.7,0-1,.2-.5.3-.7c0-.2,0-.4,0-.8.2,0,.4-.2.5-.4,0,0,.2-.3.5-.4,0-.3,0-.6,0-.8v-.8c0-.5,0-.9-.3-1.4-.2-.5-.3-.9-.3-1.4v-1.6c0-.6-.3-1-.8-1.1.2-.2.2-.3.2-.4s0-.2,0-.3c0,0,0-.2-.2-.4v-.6c-.3-.6-.8-1.1-1.3-1.6-.5-.4-.9-.9-1.2-1.6-.6-.4-1.1-.7-1.3-.9-.3-.2-.4-.4-.6-.7h-1.1c-.3-.5-.6-.6-.6-.6h-.3c-.2,0-.4,0-.6-.4-.2-.3-.4-.5-.6-.6-.5.2-1,.2-1.8,0-.7-.3-1.4-.4-1.9-.4-.8,0-1.8,0-2.8.2-1,0-1.9,0-2.7-.3-.2,0-.5.2-.7.3-.3,0-.4.2-.4.5-.5,0-.7.2-.9,0,0,0-.4.2-.8.6-.3,0-.6,0-.8,0-.2,0-.5,0-.8.6h-1c-.3,0-.6,0-.6.3s-.3.2-.6,0v1.1c-.5,0-.9.2-1.2.5-.4.3-.7.6-1,.9-.3.3-.6.7-.9,1s-.7.6-1.1.8c-.2,0-.4.3-.5.6,0,.3-.2.5-.3.7-.4.3-.8.7-1.2,1-.4.3-.9.6-1.3.9-.2-.3-.5-.5-.9-.6s-.6-.4-.8-.8c-.3,0-.5,0-.6,0,0-.2-.2-.3-.5-.2-.2-.7-.2-1.1-.2-1.3s0-.5.2-.9c.2,0,.4-.2.4-.3,0-.2.2-.2.5-.2,0,0,.2-.2.2-.4s0-.3.2-.4c.2-.2.4-.4.6-.6.2-.2.4-.4.5-.7.2,0,.4-.2.6-.2s.2-.2,0-.6c0,0,.3,0,.6-.4.3-.3.5-.4.6-.6.3-.2.5-.5.5-.8s.3-.5.8-.6c0-.3.2-.6.4-.8.2-.2.3-.5.3-.8.2-.2.5-.3.7-.4.3,0,.4-.3.6-.6.7,0,1.3,0,1.9-.2s1.1-.4,1.7-.7,1.1-.5,1.7-.7c.5-.2,1.1-.4,1.7-.4.7-.5,1.3-.7,1.8-.7h1.4c.5,0,1,0,1.5.2.5,0,.9.2,1.4.2s.5,0,.6-.3c0-.2.2-.3.5-.3s.6,0,.8,0c.3,0,.5,0,.8,0s.6,0,.9,0c.3,0,.6,0,.9,0s.4,0,.6.3c0,.2.3.3.6.3.3-.3.6-.4,1-.3.4,0,.7,0,1-.3.3,0,.6.3.9.4.3.2.6,0,.9,0,.4.3.8.6,1.2.8.4.2.8.4,1.2.7.5.5.8.6,1,.6h.5c.2,0,.4.3.5.6s.3.4.6.3c0,.7.4,1.2.9,1.5s1,.5,1.6.7c-.2.5,0,.7,0,.8.2,0,.5.3.7.6.1,0,.2.3.2.5s.1.3.3.3c.3.6.5,1,.6,1s.2,0,.3.3c.3,1.1.5,1.9.8,2.3.2.4.6.9,1.1,1.4-.4.7-.5,1.4-.3,2.1.2.7.4,1.4.5,2.1,0,.2,0,.5-.1.7,0,.2-.2.4-.4.4-.1.3,0,.5.2.6.2,0,.3.2.3.4,0,.7,0,1.3-.2,2-.1.6-.4,1.3-.7,1.9.1.7,0,1.3-.2,1.9-.3.6-.4,1.2-.5,1.9-.2,0-.3.2-.3.3s-.1.2-.4,0c.2.2.3.4.1.6-.1.2-.2.4-.1.7-.5.2-.7.6-.9,1.1-.1.5-.5.8-1,1,0,.2,0,.3,0,.4,0,0-.2.3-.2.4-.5,0-.8.4-.9.7-.2.4-.5.6-.9.6-.3.6-.6,1-.8,1.3-.2.3-.5.5-.8.6-.2,0-.3.2-.3.4s0,.3-.2.4c-.2,0-.4.2-.6.3-.2,0-.5.2-.7.3-.4.3-.7.6-.9,1.1-.7.2-1.1.6-1.3,1.3-.3,0-.5,0-.6.2,0,0-.2.3-.3.4,0,.2-.2.3-.3.5,0,0-.2.2-.5.2-.4.4-.7.7-1,.9s-.6.3-1.1.3c0,0,0,.2-.2.4,0,.2-.3.5-.5.7-.2.3-.3.5-.5.7,0,.2-.2.4-.3.5-.3,0-.5.2-.5.2,0,0-.2,0-.4-.2,0,.5-.2.8-.5,1.1s-.5.6-.8.9c-.3.3-.6.6-.8.8-.3.3-.5.6-.7,1-.3,0-.6,0-.6,0,0,0-.2.3-.5.5-.6.4-.9.7-.9.8,0,.2-.2.2-.4,0-.2.5-.3.8-.3,1.1-.3,0-.5,0-.6.3,0,.3-.3.3-.6.2-.2.5-.6.9-1.1,1.1-.5.3-.7.7-.8,1.3-.3,0-.5,0-.6,0s-.2.3-.4.4c0,0-.3.2-.4.3-.2,0-.3.2-.5.3,0,0-.2.3-.3.5,0,.2-.3.3-.6.2-.5.7-.9,1.3-1.3,1.7-.3.5-.6.9-.9,1.4.2.2.5.3.8.3s.6,0,.8.3l1.4-.8c.8,0,1.5,0,2.2,0h2.2c.8,0,.3,0,.5,0h.4c.3,0,.6,0,.8.2.3,0,.5.2.8.2s.4,0,.5-.2c0,0,.3-.2.6-.2h1c.2,0,.5-.2,1-.6.8,0,1.6,0,2.5-.2s1.7,0,2.3.5c.6-.2,1.3-.3,2-.4.7,0,1.4,0,1.9.4.2,0,.5-.2.7-.2.3,0,.5-.2.6-.4.2,0,.3,0,.4,0,0,0,.3.2.4.2.4-.2.8-.3,1.4-.3s1,0,1.5,0h1.4c.4,0,.8-.2,1.1-.6h.9c.4,0,.6,0,.8.2.2,0,.3,0,.5-.2.1,0,.3,0,.5,0,.2,0,.4.2.7.2s.5,0,.6-.5c.1.3.3.4.6.4h.8c0,.2,0,.4-.2.4s-.3.2-.3.5.1.8.3,1.2.3.9.3,1.3c0,.7-.1,1.5-.4,2.4h0l.5.4Z"/>
  </g>
  <g>
    <g>
      <path class="st0" d="M226.7,839.1c.8,46.6,1.4,93.3,2.2,139.8,0,2.9.3,6.2,1.9,8,1.4,1.5,3.3,1.6,5.1,1.5,35.5-1.1,70.9-3.8,106.3-7.7,4-.5,8.2-1,11.3-4.6,2.5-2.9,3.6-7.2,4.8-11.3,9.2-34.7,18.4-69.6,27.6-104.3,1-4,2-8.8,0-12-1.4-2.4-3.9-2.9-6.2-3.3-50.9-8.6-102.2-12.6-153.5-12.1"/>
      <path class="st1" d="M224.2,839.1c.3,22.8.8,45.7,1.1,68.5.3,22.8.8,45.7,1.1,68.5,0,4.9,0,10.5,3.1,13.9,1.5,1.5,3.5,1.9,5.3,1.9s4.1-.1,6.1-.2c8.4-.3,16.7-.7,25.1-1.1,16.9-.9,33.8-2.2,50.6-3.8,8.4-.8,16.9-1.6,25.3-2.5,3.6-.3,7.1-.9,10.4-3,3.3-2.2,5.4-6.2,6.9-10.5,1.6-5,2.8-10.2,4.2-15.4,1.4-5.4,2.9-10.8,4.2-16.2,2.8-10.7,5.6-21.3,8.5-32,2.9-10.8,5.7-21.5,8.6-32.2,1.4-5.2,2.9-10.3,4.1-15.6,1-4.7,1.3-10.3-1.6-13.9-2.8-3.6-7-3.6-10.5-4.2-4.2-.7-8.3-1.4-12.6-1.9-8.4-1.3-16.7-2.4-25.1-3.4-16.7-2.1-33.5-3.6-50.3-4.6-16.8-1-33.6-1.6-50.4-1.7h-12.2c-3.3,0-3.3,6.9,0,6.9,16.3-.1,32.7.1,49,.9,16.3.8,32.7,1.9,48.9,3.7s32.4,3.8,48.5,6.4c2,.3,4.1.7,6,1,1.3.2,2.9.5,4,1,1.1.7,1.7,1.7,1.8,3.2,0,1.9-.3,3.9-.8,5.8-2.5,10.3-5.4,20.6-8.1,30.8-5.5,20.9-11,41.7-16.5,62.7-1.3,4.9-2.5,10-4,14.8-1.1,3.7-2.6,7.1-5.5,8.6-2.9,1.6-6.2,1.7-9.3,2.1-4.1.5-8.1.9-12.2,1.3-16.4,1.6-32.7,3-49.1,4-8.1.6-16.3,1-24.5,1.4-4.2.2-8.3.3-12.5.6-2,0-4.1.1-6.1.2-1.2,0-2.8.2-3.6-1,0,.2-.3-.8-.3-.6,0-.2-.2-.8-.3-1.1-.2-.9-.2-1.6-.2-2.6,0-2.6,0-5.4-.2-8,0-5.5-.2-11-.3-16.5-.2-11-.3-22.1-.5-33.1-.3-22.1-.7-44.4-1-66.5,0-5.4-.2-10.9-.3-16.3,0-4.5-5.2-4.5-5.1,0h0l.2-.2Z"/>
    </g>
    <path class="st1" d="M322.3,925c-.1.3-.2.6-.2.8,0,.3-.1.5-.3.7v.4c0,0,.1.3.1.4-.2.3-.3.6-.3.8v.7c-.3.3-.4.5-.4.6v.3c-.5.6-.7,1.1-.7,1.4s-.2.5-.5.5c.1.5,0,.7-.2.9-.2,0-.3.5-.2,1-.3,0-.5,0-.6.3,0,.3-.3.3-.6.2.1.3,0,.5-.1.6-.2,0-.3.2-.2.5-.6.6-1,1.1-1.3,1.5-.2.4-.5.8-.8,1.3h-.8c-.2,0-.3.3-.3.7-.3,0-.5,0-.5,0,0,.2-.1.3-.3.4-.3.3-.6.5-1.1.6-.4,0-.7.4-1,.8h-.8c-.3,0-.5,0-.8.2-.4.3-.8.5-1.1.5s-.6,0-.9.2c-.1,0-.2,0-.3.2-.1,0-.3,0-.4.3-.3,0-.6.2-.8.2s-.5.2-.6.5c-.6,0-1.2,0-1.7.4s-1,.4-1.5.2c-.2,0-.5.3-.8.7-.2,0-.4,0-.6,0-.2,0-.4,0-.6.2-.2,0-.4,0-.6,0-.2,0-.4,0-.6-.2-.1,0-.4.3-.8.5s-.7.3-.8.3c-.6,0-1.2,0-1.7-.2-.5,0-1.1-.2-1.7-.2-.5,0-.8,0-1,0s-.3-.2-.5-.2h-1.2c-.6,0-1-.2-1.4-.6-.3,0-.5.2-.6,0-.1,0-.4,0-.6,0-.6-.5-1-.7-1.3-.8s-.6,0-.9,0c0-.2,0-.4-.3-.5-.2,0-.4-.2-.6-.2s-.4,0-.6-.2c-.2,0-.3-.2-.3-.4-.3,0-.7,0-1,0h-1c-.2-.2-.4-.4-.7-.5-.3,0-.5-.2-.8-.5-.4,0-.8,0-1.1,0-.3,0-.7-.2-1.1,0,0-.2,0-.3-.2-.4-.1,0-.2-.2-.3-.3-.4,0-.7,0-.8,0-.1,0-.3-.2-.5-.3-.6-.5-1-.7-1.3-.7s-.4,0-.3-.6c-.2,0-.4,0-.5,0,0,0-.2.2-.5,0-.2-.2-.2-.3-.1-.5,0,0,.1-.3.1-.5-.1,0-.3-.2-.5-.3-.2,0-.4,0-.5-.3-.2-.6-.2-1,0-1.2s.1-.4-.3-.7c.3-.3.4-.7.4-1.1s.1-.8.3-1.2c.5-.5.9-.7,1.3-.9.4,0,.7-.2,1-.2s.6,0,1,0c.4,0,.8.2,1.4.2.1.4.3.7.5,1s.4.6.6.9h.9c0,.2.1.3.2.5,0,0,.2.3.3.5.6,0,1.1.3,1.5.7.4.3.9.5,1.7.4.6.3,1,.5,1.2.8.2.2.5.3.7.3.5-.2.9-.2,1.2,0,.3,0,.6.2.8.2h.8c.1,0,.3,0,.6.4.3.3.5.4.6.6h.4c.2,0,.3,0,.4,0,.7.5,1.2.7,1.5.7s.6,0,.7.6c.5-.2.9-.2,1.4,0,.5,0,.9.2,1.4,0,.2,0,.3-.3.4-.5s.3-.4.5-.4c.7-.2,1.4-.2,2.2,0,.8,0,1.5-.2,2.2-.8h.5c.1,0,.3.2.6.2,1-.3,1.8-.6,2.7-.9.8-.3,1.5-.6,2.2-.9.4-.2.7-.5.9-1.1.3,0,.6,0,.9-.3s.4-.5.4-.8h.6c.1,0,.2-.2.3-.3,0,0,.2-.2.3-.3.1,0,.3,0,.4,0,.2-.3.3-.6.4-.9.1-.3.3-.6.7-.7.1-.6.3-1.1.6-1.5.3-.4.6-.8,1-1.3-.1-.3-.1-.6,0-.8v-.8c.3,0,.4,0,.5-.4,0-.3,0-.5.2-.7,0-.5-.1-.9-.2-1.2,0-.4-.1-.7-.1-1.1v-1.8c0-.7-.2-1.4-.5-2.1-.3-.7-.6-1.4-.7-2.1-.2-.2-.5-.4-.7-.6-.3-.2-.5-.4-.7-.7-.1,0-.2-.3-.3-.5,0-.2-.2-.4-.3-.5-.1,0-.3-.2-.5-.2s-.3-.2-.2-.5c-.3,0-.6,0-.8,0-.2-.2-.5-.3-.8-.3s-.2,0-.4-.3c-.1-.2-.3-.4-.4-.4l-.8-.6c-1.5-.3-2.5-.9-3-1.6-.3,0-.5,0-.5.2,0,.3-.3.4-.6.3-.2-.3-.5-.4-.9-.5-.4,0-.8,0-1.1-.3-.5-.3-.7-.4-.8-.4h-.3c-.2,0-.6,0-1.1-.3s-1-.4-1.5-.4h-1.6c-.5,0-1,0-1.6-.3-.1.2-.3.4-.5.4s-.4.2-.5.3c-.4,0-.7,0-.9-.2-.1.2-.4.3-.7.3s-.6,0-.6.4h-.9c-.2,0-.4.3-.7.5-.6,0-1.1,0-1.6-.2-.5,0-1,0-1.5.2-.2-.3-.5-.5-.8-.7s-.6-.4-.9-.6c0-.4,0-.7-.1-.8s-.3-.4-.6-.7v-1.3c.1-.3.2-.5.4-.7.1-.2.3-.3.4-.4.1,0,.3-.3.4-.7.7,0,1.4,0,1.9-.3s1.1-.4,1.7-.4.4,0,.6,0c.2,0,.4,0,.6,0l.9-.3c.6,0,1.1,0,1.6-.4.5-.3,1-.4,1.6-.4.2-.2.4-.3.6-.3s.3-.3.3-.6c.5,0,1,0,1.5,0s1-.3,1.4-.4c.5-.2,1-.4,1.4-.6.5-.2,1-.3,1.5-.3.2-.2.4-.4.6-.6.3,0,.4-.4.5-.7.2,0,.3,0,.4,0s.3.2.5,0c.4-.3.7-.7,1-1.1.3-.4.7-.7,1.2-.9.2-.3.3-.6.2-.8.3,0,.5,0,.6-.2,0,0,.3-.2.6-.2v-2.6c0-.5,0-.9-.2-1.3-.1-.4-.3-.7-.7-1v-.9c-.1-.3-.3-.5-.5-.7s-.3-.4-.3-.7c-.3,0-.5,0-.8-.2-.2,0-.5-.2-.8-.2-.3-.3-.7-.6-1.1-.9-.4-.3-.8-.6-1.1-.9-.3,0-.5,0-.6-.2h-.6c-.2-.3-.6-.5-1.1-.5s-.9-.2-1.1-.6h-.7c-.2,0-.4,0-.7,0s-.5,0-.6-.2c-.1,0-.3-.2-.5-.3-.2,0-.5.2-.7,0-.3,0-.5,0-.8.2-.3,0-.5,0-.7-.2-.2,0-.4-.2-.7-.3-.1.2-.4.3-.8.3h-.8c-.3,0-.6,0-.8.2-.3,0-.6.2-.8.3-.3-.5-.6-.6-1.1-.3s-.8.4-1.1.6h-.8c-.2,0-.4,0-.7.2-.5.4-1,.7-1.5.8-.6.2-1.2.3-1.8.4-.2.4-.6.7-1,.9-.5.2-.9.4-1.3.6-.4,0-.8.3-1.1.4-.3,0-.5.4-.5.6-.7.2-1.3.5-1.7.7-.5.3-1.1.3-1.9,0,0-.2,0-.4-.1-.5-.1,0-.2-.2,0-.5-.5,0-.8,0-.9-.2s-.3-.5-.6-.8c.3-.7.4-1.2.5-1.5,0-.3.3-.8.9-1.4.1,0,.2-.2.3-.3.1,0,.2-.2.3-.3.1,0,.2-.2.2-.4s0-.3.2-.4c.2-.2.4-.3.7-.4.3,0,.6-.2,1-.3.3,0,.6-.2.9-.4.3,0,.4-.3.5-.6.6,0,1.1-.2,1.7-.3s1-.5,1.2-1.1c.4,0,.8-.2,1.2-.2s.8,0,1.2-.3c.3,0,.5-.3.8-.4.2-.2.5-.3.8-.4.3,0,.6-.2.8-.2.3,0,.5-.2.8-.4h.8c.4,0,.6,0,.6.2.2-.2.5-.3.8-.3h1.7c.2,0,.4-.2.5-.4.3,0,.6,0,.8.2.3,0,.6.2.8.3.5-.4,1.1-.5,1.9-.3s1.5.3,2,.5c.6,0,1.1,0,1.4.2s.6.4.9.4h.9c.3,0,.7,0,1.2.4.5.3.8.4,1.1.6.3,0,.5.2.8,0,.2,0,.5,0,.8,0s.6.3.9.4.6.3,1.1.3c.8.5,1.4,1,1.9,1.4s1,.7,1.6,1c0,.5,0,.7.3.8.2,0,.3.3.3.7.5,0,.8.3,1.1.6.3.3.6.5,1,.6-.1.5,0,.9.1,1.1.2.2.3.5.4.8.2.5.3,1.1.3,1.8s.3,1.3.8,1.7c-.1,1-.2,2-.3,3,0,1-.1,2-.3,3-.6.7-1,1.2-1.4,1.6-.3.4-.6.8-.7,1.4-.5,0-.7.2-.9.6-.1.4-.5.6-1,.5-.3.4-.4.7-.5.8,0,0,0,.3-.2.5-.5.2-.9.5-1.1.8,0,.3.1.5.4.6.3,0,.5.3.5.6.9,0,1.6.3,2.1,1.1.3,0,.7,0,1.1.3.4.2.8.4,1.2.7.4.3.8.6,1.1.9s.6.6.8.8h.8c.2,0,.4,0,.8,0,0,.3,0,.6.2.8.1.2.3.4.5.6.2.2.4.3.6.5s.3.4.3.7c.3,0,.5,0,.6.3.1.2.3.3.5.4v1c0,.2.1.5.3.8.3.2.5.4.8.6.2.2.5.3.8.5v1c0,.3-.2.6-.4,1,.1.6.3,1.2.6,1.9.3.7.4,1.4.4,1.9s0,.3-.2.4c-.1,0-.2.2-.2.4s0,.4.2.7c.1.3.2.5.3.6h0l.2.4Z"/>
  </g>
</svg>