<?xml version="1.0" encoding="UTF-8"?>
<svg id="b" data-name="Capa 2" xmlns="http://www.w3.org/2000/svg" viewBox="0 0 344.0101 818.5121">
  <defs>
    <style>
      .d {
        fill: #8bc1a7;
      }

      .e {
        fill: #fff;
      }

      .f {
        fill: #96f;
      }

      .g {
        fill: #21211f;
      }
    </style>
  </defs>
  <g id="c" data-name="Capa 1">
    <g>
      <path class="g" d="M343.2904,126.9153c-1.4017-2.7041-3.9615-2.9358-5.122-4.2986-.8088-.9502-.6811-2.5222-2.2945-3.9684-1.4405-1.2912-3.9158-1.6596-4.6817-2.5301-.8722-.9918-2.0025-4.7633-3.7086-5.9902-.1767-1.9033,11.3478-15.3325,12.6018-19.4144,1.3059-4.252-.0981-6.9025-4.6238-6.9296-3.325-.0201-8.6838,5.6253-10.8852,8.1463-6.5844,7.5399-11.5579,17.344-16.7391,25.8913-11.7817,1.0249-15.1121,5.172-14.8561,17.0584.1738,8.0736,6.6832,14.2676,5.3851,21.5408-1.0137,5.6806-4.6484,13.8975-6.8894,19.4283-4.417,10.9019-9.6852,21.5855-15.1866,31.9678-10.5059-13.6374-18.5665-29.0592-28.5422-43.0463-7.7167-10.8197-13.499-16.6021-26.1136-21.6099-7.793-3.0937-21.3529-5.0467-27.4891-8.2147-1.2159-.6277-2.62-2.9534-4.0598-4.1097-2.9964-2.4062-6.3568-4.2594-9.3461-6.663,12.943-3.2726,17.5211-17.9923,20.3321-29.6009,1.7822-7.3596,1.8967-3.8497,5.6202-8.6906,5.0625-6.5817,5.8863-18.4868-2.0163-23.1783,2.2917-6.3923,4.338-12.2978,3.36-19.1798-.338-2.3795-2.1178-5.986-1.8955-8.0621.3038-2.8363,3.2556-6.1672,3.3911-10.7503.1502-5.0698-3.0017-11.561-7.3886-14.1651-3.0818-1.8293-6.8137-1.8356-9.5648-3.2948-2.2125-1.1733-4.1416-4.0029-7.1419-5.2958-10.6477-4.5882-37.1929-.3629-47.4647,5.0529-5.2578,2.7722-8.8296,5.7698-11.5494,11.1892-2.4361,4.8541-.8127,3.5881-4.8599,7.6744-10.7662,10.8709-5.3424,26.2318-2.2747,39.2973-.0501,1.2866-2.9666,3.9041-3.7633,5.7228-4.8382,11.0443,6.4253,23.8153,17.7535,23.9709.6613,3.1954,1.0417,6.5482,2.2351,9.6153.6322,1.6242,3.0584,4.9254,3.2326,5.8586.2013,1.0761-.4896,8.7168-.8914,9.6294-3.2289,1.6969-5.9422,3.8689-8.6936,6.253-2.4845,2.1526-6.731,7.449-9.3637,8.6715-6.309,2.9291-18.1381,4.8972-25.4005,7.3058-21.2676,7.0542-26.5489,11.5762-39.7037,29.371-11.1559,15.0907-24.8866,33.9765-34.545,49.8507-4.9058,8.0635,2.1052,5.9659,1.4717,10.1163-6.0163,11.6823-13.8001,23.6427-18.3417,35.9778-2.8114,7.6356-5.4111,20.5821-.6003,27.6772l9.5326,9.984,4.5822,3.9449,6.2034,5.263,7.1245,5.0515,38.0976,24.506,4.7366,3.2842,6.0181,4.4934c-2.6531,7.4102-3.2143,13.2054-2.3414,20.9867.428,3.8147,2.3126,9.185,2.0361,12.7513-.4587,5.9113-9.5998,9.6176-8.4834,17.6269.5579,4.0024,3.0707,3.224,5.7697,4.2944,1.0347.4103,1.8157,1.5189,3.0764,1.7663,1.7291.3393,2.8612-.6077,4.1619-.5782,3.1121.0703,6.1536,2.0815,9.5902-.4323l7.8156,108.4153c.5664,1.6732,2.4371,2.2177,4.0122,2.5501,2.8578.6033,17.2246,1.1133,18.1266,1.8211,3.9523,17.8866,10.9367,35.9439,11.1924,54.4528.3603,26.0988-3.2242,47.5415,2.0903,73.9617,1.0653,5.2967,5.8666,19.1217,5.569,23.1663-.2785,3.7863-6.6177,23.2835-8.9314,25.8778-5.2748,5.9144-8.7699,9.2078-12.1818,17.0575-4.0046,9.2131-3.5249,11.6118,3.1971,18.7161,1.6679,1.7627,4.2277,3.1272,5.6106,5.2184l3.9736,2.8392,19.8399,15.3447-2.5782,28.5058.1802,3.8573c-1.9631,26.0012,27.653,31.0798,47.5344,27.6385,25.3363-4.3857,14.503-22.6364,7.1525-38.4178,10.3561-4.6732,5.4804-16.4875-.6763-22.8916-2.8649-2.9799-12.2761-9.452-13.7062-12.1344-2.2585-4.2365-1.4838-14.2656-2.5596-19.1671l-.2053-3.866-1.0757-64.668c4.7548-13.1888,11.2058-25.6946,17.0865-38.3731l4.818-10.3037c5.8474-13.8601,14.7608-27.0568,20.8005-40.6784,5.8695-13.2369,5.4947-22.8357,6.4119-36.7593.3944-5.9841,1.0411-11.9447,1.2374-17.941.5199-1.1528,10.0209-1.9767,12.1503-3.3493.7968-.5137,1.1286-.8539,1.1717-1.8649l-7.9415-129.4403c3.7687-3.9673,7.6662-1.1915,7.6235-8.4132-.0568-9.6438-3.7808-24.4811-5.0743-34.7147-3.0427-24.0676-4.8265-48.2802-5.0282-72.5785l7.2517-2.3005c8.0955,8.0887,22.4657,23.0957,34.7988,22.1995,13.2862-.9656,22.9517-27.9556,26.1381-38.723,7.4368-25.1303,11.0886-51.8468,17.2026-77.3593,1.5855-5.0174,8.2508-8.0135,11.4455-13.2541,3.086-5.0625,8.7623-20.3827,6.0366-25.6403ZM331.4302,119.6053c1.1332.1571,3.9726,1.6712,3.5173,2.9984-4.0994,1.6696-6.5135,4.0967-8.0998,8.2753-1.2758,3.3605-.5536,9.4014-5.0227,7.6272-2.7393-5.3871,2.944-19.8249,9.6052-18.9009ZM327.8901,116.6179c-2.0382,1.2792-4.1815,2.8735-5.5835,4.8724-1.7151,2.445-3.994,10.7296-6.2397,11.1847-2.2271.4514-4.0046-1.3407-2.7255-3.0112.1305-.1703,2.9777-.9024,3.9599-1.6467,3.3274-2.5217,5.0372-8.2841.5968-10.5809,1.7251-4.4858,8.803-6.7778,9.992-.8183ZM312.26,116.4171c1.0657-3.289,7.8729-13.4246,10.1959-16.7196,1.7009-2.4126,11.1896-14.8826,14.2214-13.148,1.9284,1.1031.4393,3.5573-.2189,4.9404-.8406,1.7671-10.8314,16.6463-11.9672,17.787-1.0799,1.0843-3.6666,1.282-5.436,2.4511-2.0068,1.3263-4.3749,5.4309-4.7048,5.5935-.515.2539-2.502.3649-2.0905-.9044ZM210.1299,143.0668c1.2509,1.5931,3.0392,15.9178,3.4423,19.0111,5.8542,44.9555,3.4933,91.0705,5.9784,136.3115,1.4953,27.2247,5.2124,54.1312,8.3874,81.1578l-14.8928,3.9038c-1.4315-12.5998-3.6142-25.129-4.9663-37.7445-5.6251-52.4871-3.5933-105.4672-7.3603-158.0901-.6015-8.4027-1.828-16.8389-2.0694-25.2133l2.8255.199.6613-1.8112-7.0419-22.0923c2.7703.8451,13.6429,2.5939,15.0359,4.3681ZM154.0899,371.6342c4.1773-69.7752,1.3442-140.3771-6.1188-209.8015-.2855-1.8848,1.1432-2.7433,2.858-2.8532.3719,2.8831-2.1752,5.2501.0846,7.935,1.3869,1.6478,8.9089,5.3527,11.4185,7.0946,1.0891.756,6.4936,4.4248,6.5969,5.1657l-2.6245,10.1974c4.8298,50.6735,2.3201,102.2626,5.9239,152.8921.3349,4.7076,1.8807,10.4561,1.8895,14.9629.013,6.4352-1.7083,15.9263-2.7444,22.51-.384,2.4408-1.0344,6.4343-2.2458,8.2616l-15.6133-1.4981c-.7762-.5874-.6871-1.2306-.7052-2.0828-.0814-3.8692,1.0386-8.7422,1.2806-12.7836ZM170.8832,169.0827c-.6153-.3336-5.6406-8.0735-6.6843-9.4073-7.8707-10.057-17.2866-18.8565-24.3156-29.4908l1.6941-17.6558c.7525-.7029,12.2504,9.1573,13.8042,10.1876,6.4963,4.308,14.4854,7.9871,22.44,7.5671l1.4356,8.964c-2.6575,9.4405-4.4103,19.1467-7.3646,28.5008-.1735.5496.1548,1.9656-1.0094,1.3343ZM148.4981,146.0272c5.4077,6.8117,11.7214,13.1442,16.8246,20.1822.7587,1.0465,5.6313,7.8728,4.7041,8.6357-1.0271.1149-1.6538-.4788-2.4617-.8935-1.6654-.8548-13.6991-8.3942-14.125-9.1195-1.6703-2.8439,2.5151-6.7873-.1978-9.4238-2.4818-1.4124-17.534,8.5483-19.8076,8.3568-2.0052-.169-3.2786-8.4077-4.5046-10.1048l19.568-7.6331ZM174.8128,332.6681c-2.8206-47.5537-.67-95.6022-5.4107-143.096.4501-4.0306,11.1717-14.4754,14.0858-18.1032,6.1655,47.0567,3.7983,94.8561,6.5837,142.2025,1.4387,24.4566,5.0023,48.6317,7.4954,72.9651-2.2047-.6096-13.1866,1.6051-14.0811.0545-4.3504-17.8727-7.5806-35.6019-8.6731-54.0228ZM190.5739,137.0902l-8.6098-1.6794-1.0719-6.8381c.6383-.5539,11.3846,7.2726,9.6816,8.5175ZM180.8373,146.9289l14.3859,2.5844,3.1821,9.3597c-.7838.5806-13.8635-4.2834-16.0803-3.0356-2.7532,1.5494,2.4721,7.6059,1.8408,10.0476-.4446,1.7187-10.3516,11.825-12.2616,13.8168l8.9331-32.7729ZM199.0383,85.6419l-3.0918,7.5654c-1.3602.2037-.9221-.3464-1.2451-.8556-3.8951-6.1444-4.9474-5.9274-12.6473-6.3238,7.2677-5.5915.0135-13.0778-1.2632-20.0059-.3574-1.9394-.049-8.7289-1.5106-8.8693-3.4372,2.532-1.595,8.6243-.5764,12.1917,2.0998,7.3516,9.0015,15.3347-5.1305,14.1862l-.5146,1.68c-7.1556-.6606-14.8599-2.7751-20.6577,2.6462-2.0184,1.8875-2.7016,5.4827-5.3138,3.8646-1.6701-1.0345-6.5866-9.5365-7.1952-11.6474-.5887-2.0421-2.1328-10.7231-2.1057-12.6768.0655-4.7043,3.8254-7.6102,4.5871-11.756,1.5064-8.2002-9.2701-19.1447,4.9326-22.4397,11.6534-2.7036,24.0939,3.9845,35.1825,1.3342,3.5017-.8368,6.6982-3.1926,10.3699-3.5671,4.3806.8672,7.6273,17.0621,7.037,21.1373-1.8051-.6419-2.8264-2.1139-4.8426-2.6587-3.6223-.9788-15.6567-1.2209-10.6873,4.5907,3.7129-.3189,6.3116-1.8404,10.154-.4156,1.9186.7114,3.0535,3.0642,5.6087,2.0101.2611,10.0076.0362,20.0445-1.0898,30.0094ZM206.5431,69.2749c2.532,5.881-.1164,11.5944-3.4605,16.4351l-1.121-.397,1.2881-19.4427c.7444-.7018,2.9836,2.6856,3.2934,3.4046ZM121.9418,68.339c6.9647-3.1206,6.8638,6.6236,8.7535,10.2683.5677,1.0951,2.0661,1.9322,2.1331,2.4593.0667.524-.6403,1.3874-.6359,2.1625.0144,2.6313.2622,5.3499.3396,7.9813-10.5366,1.7672-21.4081-18.0244-10.5903-22.8713ZM133.298,77.2638c-1.3466-6.1339-2.1805-12.9687-10.0753-12.74-1.4509-.6062-3.7743-12.5465-4.0431-14.7836-.762-6.3342-1.394-13.1511,2.5271-18.5222,1.5258-2.0898,4.2511-3.5657,5.2831-5.2219,1.554-2.4941,1.9661-5.8076,3.9986-8.7196,7.5484-10.8163,27.9433-13.2072,40.1879-13.9187,5.8014-.337,9.6943-.1733,14.8426,2.9138,1.9028,1.1408,4.5844,4.469,6.0822,5.1048,1.6277.6911,3.3224.3328,4.8719.7739,6.405,1.8234,9.811,8.1055,8.8908,14.549-.4746,3.3255-3.1333,6.3116-3.2647,9.0128-.1313,2.704,2.3708,7.2366,2.4404,10.8189.0495,2.5416-.3057,5.3608-1.267,7.698l-1.4773-11.828c-1.3033-4.2331-3.6137-13.1517-8.2146-14.5765-3.8543-1.1937-10.9883,3.8631-15.925,4.0381-11.0236.391-28.2495-7.0271-38.198.8229-8.9048,7.0264.928,16.0957-1.235,23.065-1.4953,4.8184-4.6559,5.5602-4.4068,12.4085.0748,2.0554,2.3924,8.068.7574,9.0115l-1.7752.0933ZM134.1148,80.8528c.9318.1084,2.0826-.0218,2.8681.5579.4054.2992,3.4511,7.2496,4.6736,8.9328,1.8906,2.6031,5.7535,7.7949,9.2023,4.6843,3.3288-3.0025,2.3735-5.996,8.2959-7.3772,6.1361-1.4309,12.3441.7864,18.2282,1.4399,4.1256.4582,9.9686-1.3774,13.2103,2.4171,1.1327,1.3259,1.6589,4.0279,2.2941,4.7637.7786.902,2.6992.9793,3.839,1.1009-1.8665,8.2795-6.8693,20.8876-15.9064,23.0338-12.2038,2.8982-33.3491-3.9974-40.6777-14.4208-4.4029-6.2626-3.2774-18.0785-6.0274-25.1324ZM124.6885,135.0099c.6294-1.134,8.5769-8.4818,10.0953-9.7212.7891-.6443,1.6479-.9766,2.5054-1.4833,1.0128,2.1054-1.4585,3.29-1.2962,5.2665.2239,2.7265,3.3504,4.497,3.3074,7.1824l-14.4844,5.0466c.0153-2.5336-1.5487-3.731-.1273-6.291ZM112.1521,140.155l8.8557-2.1304c2.9282,9.085,5.2303,20.1518,9.6295,28.5779.4422.8468,1.5253,1.1398,1.9166,2.1484,2.4676,6.3559,3.4596,33.9568,4.0501,42.4947,3.9365,56.9161,4.5794,114.2933-.5072,171.2448-2.9307-1.1518-15.7087-3.9328-16.8787-6.0451l2.8516-54.5901c.5987-60.2329-1.403-120.807-10.1303-180.3773l.2128-1.3228ZM83.0059,154.2326l-.9904-4.1176,14.4182-5.1147c2.8675,16.1931,5.0049,32.5437,6.2291,48.967,1.9551,26.2226,3.3178,54.0469,4.0501,80.3385.8776,31.5056-1.5947,61.2168-3.5641,92.4889-.0871,1.3837,1.0211,5.1186-.8298,5.3762l-11.6754-1.7103c-.9461-.7533-.761-15.4976-.6961-17.8157.4326-15.461,2.7407-30.9815,3.3066-46.4376.8982-24.5289-1.7319-49.0654-4.0815-73.4142l6.3522-11.5807c-.8753-1.8067-2.4756-1.1299-3.4212.2805l-22.9902,38.063-14.0387-5.7773c12.4019-21.1989,26.2841-41.4907,39.7111-62.0418l-4.3752-20.4374-48.9897,72.7442c-1.1008.5579-4.4706-2.7338-5.4341-3.5447-1.3464-1.1335-7.0117-6.1999-6.9137-7.5968,17.6926-26.413,34.872-53.2167,53.9327-78.6697ZM89.5889,313.766l-7.2102-1.2429-31.4044-33.7749,10.9795-17.6184c1.6632-.8478,6.6615,3.5762,8.8865,1.7699l14.9317-24.8578c.7686-.0974.6297.6658.7432,1.2324.5331,2.6597.6465,6.056.9228,8.8407,2.1612,21.7965,3.0456,43.742,2.151,65.651ZM74.7858,403.4296l-1.2233-1.0302c.9096-7.9327,8.7582-9.5679,8.532-18.2226-.2125-8.1377-3.7116-14.6986-2.1703-23.6498.4631-2.6905,3.2506-8.331,2.1316-10.4265-.9158-1.7149-7.9546-6.3422-9.9942-7.7371-14.8416-10.1502-63.3943-37.4568-68.6801-53.0856-3.5646-10.5399,7.1303-30.2322,12.1534-39.8506.9749-1.8669,8.1586-15.5687,9.0536-15.4971,9.9587,10.2349,21.3741,19.4049,34.6682,24.9373l-10.4601,17.6854c-.8351.5051-11.1563-7.9144-13.8902-6.5333-.8609,1.5025-.7807,1.8302.6786,2.7945,6.5288,4.3139,10.6757,5.9387,16.8169,11.6955,12.7477,11.9501,23.775,26.9921,36.081,39.4966.8416,6.9795-1,14.331-1.371,21.3865-.354,6.7351-.7746,15.3843-.2621,22.0701.3301,4.3085.1458,6.2206,5.114,6.9702l.038,11.4229-2.8075-.8327c-1.1553,8.6552-7.2658,14.1886-14.4083,18.4066ZM78.4452,405.5838c-.8842-.9498,3.8762-3.377,4.486-3.9205,2.8742-2.5605,5.4504-5.8118,7.3791-9.1412l2.1023-4.871c-.8732,2.7672,1.0499,7.8876-.4375,10.0804-1.2746,1.879-11.7508,9.7637-13.53,7.8523ZM92.5913,404.3102l-5.4189,1.524,5.6414-4.1254.3243,2.0014-.5468.6ZM143.2743,678.7915l11.7198,42.0134c-1.181.7461-8.7925-6.1283-10.0685-7.4039-1.5684-1.5683-9.3896-10.9243-9.5297-12.3764,3.491-7.0253,6.2736-14.5127,7.8784-22.2331ZM154.1334,754.0276c-7.4838-5.0138-15.0889-10.7918-21.9073-16.8141-4.1666-3.6799-13.33-10.0281-9.9419-16.0346,5.2004,5.9595,10.7949,11.6126,16.881,16.7006,5.2561,4.3944,11.2321,8.0617,16.2862,12.4549l-1.318,3.6933ZM156.3139,746.6285c-8.0956-5.7083-16.2575-11.594-23.2982-18.5953-1.8602-1.8498-7.8496-7.9181-8.7437-9.8588-.8639-1.8748,1.706-5.7945,2.8046-7.6536,1.5732-2.6621,3.7127-5.0703,5.4155-7.64,6.2099,8.7084,13.0652,17.7522,23.1126,22.2194.7749.8063,1.7743,10.3092,1.8354,12.0796.0461,1.3315.1882,9.5121-1.1261,9.4488ZM195.1384,814.4464c-16.3067,2.0875-40.7616-.8384-41.1884-21.8751l3.2451,5.5739c10.6805,15.0924,39.247,14.9995,53.4925,5.1253.4362,8.4946-8.8984,10.3245-15.5492,11.1759ZM202.0148,772.0647l5.9472-1.1846c-.5435,5.0751-5.2531,8.2707-5.9472,1.1846ZM207.2383,765.3958c.3535,3.259-5.6526,4.6705-7.5407,2.9802l-7.2415-18.2652c3.6704,3.1404,14.2582,10.459,14.7822,15.285ZM199.6015,776.452c2.2936,4.5197,10.476,17.2801,9.8719,21.7226-.6784,4.9878-10.2064,7.1254-14.3562,7.8445-13.8944,2.4078-33.1216-.2466-38.5869-15.3202-.4297-1.1856-2.2096-8.1352-2.1366-8.8957l2.5551-26.6285c.0733-.2042,1.0549-.9246,1.2326-.7567,1.0846,3.3107.5426,18.8061,2.7045,20.4229,1.461,1.0928,4.5227.5638,5.5145-1.0865,4.0018-6.6581-1.7818-15.1606,8.4343-18.2013,16.636-4.9517,19.1724,9.8737,24.7666,20.8989ZM162.899,760.1272l2.2517.8002-.9165,9.5517c-.0091.095-.7297,1.6377-1.2891,1.3337.0267-3.8928-.7169-7.8037-.0461-11.6855ZM184.5579,711.5882c.5899,14.038,1.0801,28.0714,4.6653,41.7144-6.0692-1.5215-11.7989-2.4938-17.6997.1708-3.5632,1.609-5.2221,6.0435-8.5404,2.5803-4.712-4.9179-2.3101-13.2326-2.571-19.7291-1.2702-31.6203-18.4067-66.6954-22.6818-99.0658-3.7913-28.7058,2.8765-56.4267-3.1979-84.7732-2.2774-10.6263-6.2284-21.0662-7.6059-31.8284,18.1914,1.4128,36.6323.0236,54.3906-4.0382l.6625.9483c3.6462,45.8681,1.1215,91.9261,1.4625,137.9099.1383,18.6559.3322,37.4752,1.1158,56.111ZM228.8015,560.5915c-5.816,16.4574-18.7309,37.1369-26.6648,53.5967-4.6898,9.7298-8.8823,20.8957-13.974,30.2206-.3736.6843-.4722,1.679-1.4884,1.7417l.7445-80.8385-2.1979-49.1882c.1445-.3281,6.0146-3.2403,6.3709-3.2739,2.4353-.2293,6.0292.7695,8.6854.8459,11.208.3225,22.5676.0708,33.669-1.47.598,5.1219-.5764,10.2615-.8828,15.3936-.6658,11.1511-.4689,22.2386-4.262,32.972ZM247.1543,505.9212c-18.3257,5.139-37.8255,5.1477-56.6883,3.3067l-2.2485-79.9518,16.1194-12.7161c.4028-2.7042-1.6998-2.2217-3.6638-1.2641-2.2694,1.1066-11.7315,7.9087-13.8173,9.7278-1.1494,1.0024-1.8323,1.7445-2.0895,3.3369-.1929,24.4423,2.0203,48.8973,2.2706,73.3052.017,1.6785.2036,9.2891-.3859,10.0341-13.3385,3.6191-27.2737,5.6219-41.1374,5.9814-13.7816.3572-27.7396-.3202-41.2956-2.79l-8.7893-140.3924c8.9365.3648,17.073,4.4755,25.6385,6.5534.8008,1.009-4.6022,9.4566-5.6224,10.9505-1.7581,2.575-9.3904,10.5796-9.8843,11.946-.1811.5011-.3323.9768-.2193,1.5178.9179,4.3706,7.9972-4.6977,8.931-5.8389,4.1919-5.1232,7.7454-10.8696,10.2011-17.0328,15.4443,4.1302,31.4166,9.5351,47.5971,8.328,1.6544-1.0596,3.2684-17.4196,3.7006-20.3946.911.3638,1.1984,2.4317,1.4351,3.3381.7399,2.8346,2.4668,15.1072,4.2686,16.1936,1.9859,1.1974,9.0807.2721,11.7761.0691,10.2609-.7717,21.5328-2.8932,31.3683-5.8799,4.0877-1.2414,9.8509-4.3243,13.3207-5.1625.618-.1493,1.1594-.2442,1.7892-.0903l7.4253,126.9248ZM241.319,328.9175c1.4876,12.3936,5.4022,28.1262,5.7291,40.0423.0214.7855.0783,2.5067-.3225,3.0244l-5.3334,1.9172c-2.3979-20.6533-5.6986-41.1779-7.3011-61.935-4.198-54.3785.5523-109.5318-9.0182-163.3781,4.9731,1.3462,8.8959,5.1407,12.6137,8.5001,13.3751,17.1463,24.015,36.2884,36.5295,54.0771l-1.3694,5.0944-37.7249-56.7814.5089,22.2272,25.8486,43.6979-10.371,10.6916-11.9842-20.4963c-1.4829-6.0913.5343-15.3287-.9714-21.0513-.7473-2.8402-2.2324-2.9263-3.2859-.2636,2.3,44.8755,1.0922,89.9797,6.4519,134.6336ZM240.6792,253.4809c-.8453.0378-.734-1.6637-.7756-2.2781-.1462-2.1562.0455-4.4011-.1163-6.5636,4.4047,2.1712,3.0172,5.4499.8919,8.8416ZM340.9509,133.0981c-1.3839,10.5914-7.2806,21.6248-16.3229,27.4018-10.6245,31.0887-11.4931,68.0414-25.0828,98.1712-2.742,6.0794-10.2866,19.6067-17.7634,19.8007-11.2378.2915-27.6148-15.8847-34.7693-24.08-.6071-.6956-2.1134-2.1233-1.9481-3.0067,6.3502-10.5689,14.2093-20.2621,23.8894-27.8998-1.1357,6.7196-4.4626,13.2335-4.6062,20.3224-.0376,1.8584-.1725,4.0823,2.0936,3.1261l.5252-.655c2.6881-22.5122,15.696-41.6346,24.5442-61.9868,3.34-7.6832,11.6985-25.8801,9.9789-33.5223-.7264-3.2278-3.0727-6.3536-4.05-9.4441-1.4909-4.714-2.5121-14.8132,1.8208-18.0744,1.7327-1.3043,13.5612-3.2062,16.0162-3.1148,4.2391.1579,1.7733,4.4062-.8096,6.0583-2.1356,1.3656-9.3166,2.5103-9.4657,4.0552-.1168,1.2144,7.3118,6.4465,8.0478,10.9781.2592,1.5967-.6605,5.3879,1.1733,5.9707,2.6648.8471,2.0523-5.6141,1.8149-6.8402-.2206-1.1398-2.1673-3.8165-1.0317-4.4542l2.6296-.5947c1.2652.3933-.1127,4.9909,4.1529,6.1638,1.2191.3353,2.8338.0139,3.9157.4976,1.2924.5775.8419,3.4337,4.9752,3.2964,3.3473-.1112,8.2309-8.2132,8.1669-10.6071-.032-1.1959-1.5007-1.7682-2.4803-.9464-2.0167,1.6916-2.3609,7.9441-5.9369,8.6389-2.919-.2772-1.4665-7.5944-.9705-9.5986,2.1116-8.5316,12.8396-9.9619,11.4928.3438Z"/>
      <path class="d" d="M239.729,378.9964l7.4253,126.9247c-18.3259,5.139-37.8255,5.1478-56.6883,3.3068l-2.2487-79.952,16.1195-12.7161c.4028-2.7041-1.6997-2.2216-3.6638-1.264-2.2694,1.1066-11.7315,7.9087-13.8172,9.7278-1.1494,1.0025-1.8322,1.7445-2.0895,3.337-.193,24.4423,2.0201,48.8973,2.2704,73.3052.0172,1.6785.2038,9.2891-.3858,10.034-13.3384,3.6192-27.2737,5.622-41.1374,5.9814-13.7817.3573-27.7396-.3201-41.2955-2.79l-8.7894-140.3924c8.9366.3649,17.0728,4.4756,25.6384,6.5534.801,1.0089-4.6023,9.4565-5.6223,10.9505-1.758,2.575-9.3905,10.5795-9.8844,11.9461-.1811.5011-.3325.9768-.2194,1.5178.9178,4.3706,7.9973-4.6977,8.9311-5.8389,4.1918-5.1232,7.7452-10.8695,10.2013-17.0328,15.4443,4.1303,31.4164,9.5351,47.5969,8.328,1.6543-1.0596,3.2685-17.4195,3.7005-20.3946.9111.3638,1.1985,2.4317,1.4351,3.3381.74,2.8346,2.4669,15.1072,4.2687,16.1936,1.9859,1.1974,9.0806.2719,11.7762.0692,10.2608-.7718,21.5328-2.8932,31.3682-5.88,4.0878-1.2414,9.851-4.3243,13.3208-5.1625.6181-.1493,1.1595-.2443,1.7892-.0904Z"/>
      <path class="e" d="M189.2232,753.3026c-6.0692-1.5215-11.799-2.4938-17.6998.1708-3.5632,1.609-5.2223,6.0434-8.5404,2.5803-4.7121-4.918-2.3103-13.2327-2.5712-19.7291-1.27-31.6204-18.4064-66.6953-22.6816-99.0657-3.7913-28.7059,2.8764-56.4266-3.198-84.7733-2.2771-10.6263-6.2284-21.0661-7.6058-31.8284,18.1915,1.4129,36.6322.0236,54.3906-4.0382l.6625.9484c3.6463,45.8681,1.1216,91.9261,1.4625,137.9099.1383,18.6559.3322,37.4752,1.1158,56.111.5902,14.038,1.0802,28.0714,4.6655,41.7144ZM156.923,579.0298c1.2337-1.0057-3.5502-10.7678-6.0877-9.3274-1.9087,1.0835,3.1015,10.3753,6.0877,9.3274Z"/>
      <path class="e" d="M90.6435,370.4608c-.946-.7533-.7609-15.4977-.696-17.8156.4326-15.4611,2.7408-30.9815,3.3066-46.4376.8981-24.5288-1.7319-49.0654-4.0817-73.4142l6.3524-11.5806c-.8752-1.8067-2.4755-1.1299-3.4214.2805l-22.9902,38.0629-14.0386-5.7772c12.4019-21.1989,26.284-41.4907,39.711-62.0418l-4.3752-20.4374-48.9897,72.7442c-1.1007.5578-4.4707-2.7338-5.434-3.5447-1.3464-1.1334-7.0117-6.1999-6.9138-7.5967,17.6927-26.413,34.872-53.2168,53.9327-78.6698l-.9903-4.1176,14.4182-5.1147c2.8674,16.1931,5.0048,32.5436,6.2292,48.967,1.9549,26.2225,3.3177,54.047,4.0501,80.3385.8776,31.5056-1.5948,61.2169-3.5642,92.4889-.0871,1.3836,1.0212,5.1186-.8296,5.3762l-11.6756-1.7102Z"/>
      <path class="e" d="M336.3654,133.714c-2.0167,1.6915-2.3607,7.944-5.9369,8.6389-2.9191-.2773-1.4665-7.5944-.9704-9.5987,2.1115-8.5315,12.8395-9.9619,11.4929.3439-1.3839,10.5915-7.2807,21.6249-16.3229,27.4017-10.6244,31.0887-11.4931,68.0415-25.083,98.1713-2.742,6.0793-10.2864,19.6066-17.7633,19.8006-11.2378.2915-27.6149-15.8846-34.7693-24.0801-.6072-.6956-2.1133-2.1232-1.948-3.0065,6.3501-10.5689,14.2091-20.2622,23.8894-27.8999-1.1357,6.7195-4.4625,13.2335-4.6062,20.3225-.0377,1.8583-.1726,4.0822,2.0936,3.126l.5253-.655c2.6881-22.5122,15.696-41.6345,24.5441-61.9869,3.3402-7.6831,11.6986-25.88,9.9789-33.5222-.7263-3.2277-3.0728-6.3535-4.0501-9.444-1.4907-4.714-2.512-14.8133,1.8208-18.0745,1.7329-1.3043,13.5612-3.2062,16.0163-3.1148,4.2392.1579,1.7734,4.4062-.8097,6.0582-2.1355,1.3658-9.3167,2.5104-9.4656,4.0552-.117,1.2144,7.3117,6.4465,8.0476,10.9781.2593,1.5967-.6605,5.3879,1.1734,5.9708,2.6649.847,2.0523-5.6141,1.815-6.8402-.2206-1.1398-2.1675-3.8165-1.0319-4.4543l2.6298-.5947c1.2651.3932-.1127,4.9908,4.1529,6.1639,1.2191.3353,2.8337.0138,3.9158.4975,1.2923.5776.8418,3.4337,4.9752,3.2964,3.3473-.1112,8.2309-8.2132,8.1668-10.6071-.032-1.1958-1.5005-1.7682-2.4805-.9463Z"/>
      <path class="e" d="M59.2566,258.8673l-10.46,17.6854c-.8351.5051-11.1565-7.9144-13.8904-6.5333-.8608,1.5026-.7807,1.8301.6787,2.7944,6.5287,4.314,10.6757,5.9387,16.8168,11.6956,12.7477,11.95,23.775,26.9921,36.0809,39.4966.8417,6.9795-.9999,14.3309-1.3709,21.3865-.3541,6.7351-.7745,15.3842-.2622,22.0701.3301,4.3084.1458,6.2205,5.114,6.9702l.0381,11.4228-2.8075-.8327c-1.1554,8.6552-7.2657,14.1885-14.4081,18.4066l-1.2235-1.0302c.9095-7.9327,8.7583-9.5679,8.5322-18.2225-.2126-8.1377-3.7119-14.6986-2.1705-23.6499.4633-2.6904,3.2507-8.3309,2.1318-10.4264-.9157-1.715-7.9545-6.3423-9.9942-7.7372-14.8417-10.1501-63.3945-37.4569-68.6802-53.0857-3.5646-10.5398,7.1303-30.2321,12.1532-39.8505.9749-1.867,8.1586-15.5687,9.0536-15.4972,9.9587,10.2349,21.3743,19.4049,34.6683,24.9373Z"/>
      <path class="e" d="M121.0079,138.0245c2.9279,9.085,5.2302,20.1518,9.6294,28.5779.4421.8469,1.5251,1.1398,1.9166,2.1484,2.4674,6.3559,3.4596,33.9569,4.0501,42.4946,3.9364,56.9162,4.5792,114.2934-.5074,171.2447-2.9307-1.1517-15.7085-3.9327-16.8786-6.0449l2.8516-54.5901c.5986-60.2329-1.4031-120.807-10.1305-180.3772l.2128-1.3228,8.8559-2.1305Z"/>
      <path class="e" d="M233.9462,512.2258c.598,5.1219-.5764,10.2616-.8828,15.3937-.6658,11.1511-.4688,22.2386-4.2619,32.972-5.816,16.4574-18.7311,37.1368-26.6648,53.5967-4.6898,9.7298-8.8823,20.8957-13.974,30.2205-.3737.6843-.4723,1.679-1.4884,1.7418l.7445-80.8384-2.1979-49.1883c.1444-.328,6.0146-3.2404,6.3711-3.2739,2.4352-.2293,6.0289.7695,8.6853.8459,11.2082.3225,22.5678.0709,33.669-1.47Z"/>
      <path class="e" d="M227.9379,379.5471l-14.8928,3.9039c-1.4315-12.5998-3.6144-25.1291-4.9664-37.7445-5.6252-52.487-3.5932-105.4672-7.3601-158.0901-.6015-8.4027-1.828-16.8389-2.0696-25.2132l2.8255.1989.6613-1.8112-7.0417-22.0923c2.7702.8451,13.6428,2.5939,15.0358,4.3681,1.2508,1.5931,3.0393,15.9178,3.4422,19.0111,5.8543,44.9555,3.4936,91.0705,5.9784,136.3115,1.4953,27.2246,5.2124,54.1311,8.3874,81.1577Z"/>
      <path class="e" d="M153.5147,386.5005c-.7765-.5874-.6873-1.2306-.7053-2.0827-.0814-3.8693,1.0384-8.7422,1.2804-12.7836,4.1775-69.7752,1.3445-140.3771-6.1188-209.8016-.2854-1.8847,1.1433-2.7433,2.8582-2.8531.3719,2.8831-2.1754,5.25.0845,7.935,1.3869,1.6478,8.9089,5.3527,11.4186,7.0946,1.0893.756,6.4937,4.4248,6.5969,5.1658l-2.6246,10.1973c4.8299,50.6735,2.3203,102.2625,5.924,152.892.3351,4.7077,1.8806,10.4562,1.8897,14.963.0129,6.4352-1.7082,15.9263-2.7445,22.51-.3841,2.4407-1.0346,6.4342-2.2458,8.2615l-15.6133-1.4981Z"/>
      <path class="e" d="M197.5669,386.6365c-2.2045-.6096-13.1866,1.6051-14.081.0545-4.3503-17.8727-7.5806-35.6018-8.6732-54.0229-2.8204-47.5536-.6698-95.6021-5.4105-143.096.4501-4.0306,11.1714-14.4755,14.0856-18.1031,6.1656,47.0567,3.7985,94.8561,6.5838,142.2024,1.4388,24.4566,5.0022,48.6316,7.4953,72.9651ZM174.358,198.1959c-2.7922,2.3095,1.7814,6.5501,3.8765,3.736,2.0367-2.7356-1.7917-5.4604-3.8765-3.736ZM176.3569,244.2452c1.8508,2.2477,6.3415-.1604,4.3076-3.2926-2.0316-3.1287-6.4779.6568-4.3076,3.2926ZM179.769,284.5324c-3.3363.5823-3.0735,5.9706,1.0053,5.1638,2.82-.5578,2.4376-5.7647-1.0053-5.1638ZM179.4149,333.3988c2.6433,2.0511,6.4553-2.0011,3.7979-3.9359-3.9138-2.8496-5.1634,2.8763-3.7979,3.9359Z"/>
      <path class="e" d="M199.8953,52.1059c-1.8052-.6418-2.8264-2.1138-4.8427-2.6586-3.6222-.9788-15.6566-1.221-10.6871,4.5907,3.7128-.319,6.3114-1.8404,10.154-.4156,1.9185.7114,3.0533,3.0643,5.6087,2.0101.2612,10.0076.0361,20.0444-1.0898,30.0095l-3.0918,7.5654c-1.3603.2036-.9222-.3464-1.245-.8557-3.8952-6.1442-4.9474-5.9273-12.6476-6.3239,7.2679-5.5914.0136-13.0777-1.263-20.0058-.3573-1.9393-.0489-8.7288-1.5107-8.8693-3.4372,2.532-1.595,8.6244-.5762,12.1917,2.0996,7.3515,9.0012,15.3347-5.1308,14.1862l-.5145,1.68c-7.1555-.6606-14.8599-2.775-20.6576,2.6462-2.0186,1.8875-2.7017,5.4827-5.3138,3.8646-1.6701-1.0345-6.5865-9.5365-7.1952-11.6473-.5888-2.0421-2.1327-10.723-2.1057-12.6768.0652-4.7043,3.8253-7.6102,4.5869-11.756,1.5064-8.2002-9.27-19.1447,4.9327-22.4397,11.6535-2.7036,24.0941,3.9845,35.1826,1.3342,3.5016-.8369,6.6982-3.1926,10.3699-3.5672,4.3805.8672,7.6272,17.0623,7.0368,21.1373ZM167.8721,49.765c-3.1356-3.2474-18.9816-1.534-20.5571,4.6089l.8984,1.2535c2.1057,1.2052,7.1135-3.0069,10.6521-3.2226,2.7292-.1664,6.3029,1.376,7.7936,1.0963,1.6998-.319,2.291-2.6198,1.2131-3.7361ZM192.1027,71.0811c2.3779-1.9675,1.2416-10.6261-3.5832-8.8599-3.642,2.8313-.5959,12.3177,3.5832,8.8599ZM161.1766,71.0349c2.0713-1.7163,1.4396-10.0595-2.4955-9.2165-5.1033,1.0933-2.0274,12.9642,2.4955,9.2165Z"/>
      <path class="f" d="M203.7725,54.229l-1.4774-11.828c-1.3034-4.2331-3.6137-13.1517-8.2146-14.5765-3.8542-1.1936-10.9884,3.8632-15.9249,4.0382-11.0237.3909-28.2497-7.0272-38.1981.8228-8.9046,7.0264.9281,16.0957-1.2348,23.0651-1.4953,4.8184-4.656,5.5603-4.4069,12.4085.0748,2.0555,2.3924,8.0681.7575,9.0117l-1.7754.0933c-1.3467-6.134-2.1804-12.9688-10.0753-12.7401-1.4509-.6061-3.7741-12.5465-4.0432-14.7836-.7619-6.3342-1.394-13.151,2.5272-18.5222,1.5256-2.0897,4.2511-3.5656,5.283-5.2219,1.5539-2.494,1.9661-5.8075,3.9985-8.7196,7.5487-10.8161,27.9433-13.2071,40.1881-13.9187,5.8013-.3371,9.6941-.1733,14.8426,2.9138,1.9027,1.1409,4.5845,4.469,6.0821,5.1048,1.6277.691,3.3225.3328,4.872.7739,6.4051,1.8233,9.811,8.1054,8.8909,14.549-.4749,3.3254-3.1334,6.3115-3.2647,9.0129-.1314,2.704,2.3707,7.2366,2.4405,10.8189.0495,2.5416-.3059,5.3608-1.2669,7.698Z"/>
      <path class="e" d="M272.847,216.2598l-37.7248-56.7814.509,22.2273,25.8485,43.6978-10.3709,10.6916-11.9842-20.4963c-1.4829-6.0912.5344-15.3286-.9715-21.0513-.7473-2.8401-2.2324-2.9263-3.286-.2636,2.3,44.8755,1.0922,89.9797,6.452,134.6336,1.4876,12.3936,5.4022,28.1263,5.7291,40.0423.0215.7855.0782,2.5067-.3224,3.0244l-5.3334,1.9172c-2.3978-20.6532-5.6988-41.1779-7.3012-61.9349-4.1979-54.3785.5524-109.5318-9.0181-163.3782,4.9732,1.3462,8.8958,5.1407,12.6138,8.5002,13.3751,17.1462,24.0149,36.2884,36.5295,54.077l-1.3694,5.0943Z"/>
      <path class="f" d="M156.9488,755.1747c.0732-.2041,1.055-.9246,1.2328-.7567,1.0846,3.3108.5424,18.806,2.7044,20.4229,1.4611,1.0928,4.5228.5638,5.5147-1.0866,4.0016-6.6581-1.7818-15.1606,8.4341-18.2013,16.6362-4.9517,19.1724,9.8737,24.7668,20.899,2.2933,4.5197,10.4758,17.2801,9.8718,21.7226-.6782,4.9877-10.2063,7.1254-14.3559,7.8444-13.8946,2.4077-33.1217-.2465-38.5869-15.3202-.4299-1.1857-2.2097-8.1353-2.1368-8.8958l2.5551-26.6285Z"/>
      <path class="e" d="M141.5773,112.5288c.7526-.7028,12.2504,9.1573,13.8043,10.1877,6.4964,4.3081,14.4854,7.987,22.44,7.5672l1.4357,8.964c-2.6574,9.4405-4.4103,19.1468-7.3647,28.5008-.1736.5496.1546,1.9657-1.0096,1.3343-.6153-.3337-5.6404-8.0735-6.6843-9.4073-7.8707-10.0569-17.2866-18.8565-24.3156-29.4907l1.6941-17.6559Z"/>
      <path class="f" d="M192.8872,96.2712c.7787.9021,2.6993.9793,3.8392,1.101-1.8667,8.2796-6.8695,20.8877-15.9065,23.0338-12.2039,2.8982-33.3491-3.9975-40.6777-14.4209-4.4031-6.2625-3.2776-18.0785-6.0275-25.1323.9319.1085,2.0826-.0218,2.8682.558.4054.2992,3.4509,7.2495,4.6734,8.9326,1.8908,2.6032,5.7537,7.795,9.2023,4.6844,3.3288-3.0025,2.3736-5.996,8.296-7.3771,6.1361-1.431,12.344.7864,18.2283,1.4399,4.1254.4582,9.9685-1.3774,13.2102,2.4171,1.1327,1.3259,1.659,4.0278,2.2941,4.7636ZM178.1538,110.0424c5.3488,6.8378,15.7148-7.3671,12.0876-15.5795-2.3353-5.2875-9.5097-2.653-14.2509-3.1234-5.5991-.5555-11.0568-3.648-16.8572-1.7759-9.6797,3.1242-2.2629,22.9395,8.4933,21.9479,3.3087-.305,2.5582-4.8733,6.8682-4.6384,4.0488.2207,2.3924,1.55,3.659,3.1693Z"/>
      <path class="f" d="M155.6047,725.1002c.7749.8063,1.7741,10.3091,1.8352,12.0795.046,1.3314.1884,9.5121-1.1262,9.4488-8.0954-5.7082-16.2574-11.5941-23.2981-18.5953-1.8602-1.8498-7.8496-7.9182-8.7438-9.8588-.8638-1.8748,1.7061-5.7944,2.8047-7.6535,1.5732-2.6622,3.7125-5.0704,5.4154-7.6401,6.2099,8.7085,13.0651,17.7522,23.1127,22.2195Z"/>
      <path class="e" d="M170.027,174.8451c-1.0273.115-1.6539-.4788-2.462-.8936-1.6653-.8547-13.6991-8.3942-14.125-9.1194-1.6703-2.8439,2.5151-6.7873-.1978-9.4239-2.4819-1.4124-17.534,8.5483-19.8074,8.3568-2.0053-.169-3.2788-8.4077-4.5047-10.1047l19.5681-7.6331c5.4077,6.8116,11.7213,13.1442,16.8244,20.1823.7588,1.0465,5.6315,7.8728,4.7043,8.6356Z"/>
      <path class="e" d="M154.9941,720.805c-1.1811.7461-8.7926-6.1284-10.0685-7.404-1.5685-1.5683-9.3896-10.9242-9.5298-12.3764,3.491-7.0254,6.2736-14.5127,7.8783-22.2331l11.7199,42.0134Z"/>
      <path class="e" d="M210.6876,803.2706c.4362,8.4945-8.8982,10.3245-15.549,11.1759-16.3068,2.0874-40.7617-.8385-41.1884-21.8751l3.2451,5.5739c10.6805,15.0924,39.2468,14.9995,53.4923,5.1254Z"/>
      <path class="e" d="M198.4052,158.873c-.7839.5807-13.8635-4.2833-16.0802-3.0356-2.7531,1.5496,2.4721,7.6061,1.8406,10.0477-.4445,1.7187-10.3515,11.825-12.2613,13.8168l8.9329-32.7729,14.386,2.5845,3.1821,9.3596Z"/>
      <path class="e" d="M132.5321,91.2104c-10.5368,1.7672-21.4081-18.0244-10.5904-22.8714,6.9648-3.1207,6.8639,6.6237,8.7535,10.2684.5678,1.0952,2.0661,1.9322,2.1332,2.4593.0667.5239-.6402,1.3874-.636,2.1623.0143,2.6314.2622,5.35.3397,7.9814Z"/>
      <path class="e" d="M314.3503,117.3216c-.515.2538-2.5017.3649-2.0904-.9046,1.0657-3.2889,7.8729-13.4246,10.1958-16.7195,1.701-2.4127,11.1897-14.8826,14.2216-13.1481,1.9283,1.1032.4392,3.5575-.2189,4.9405-.8408,1.7671-10.8314,16.6464-11.9672,17.787-1.0799,1.0844-3.6668,1.2819-5.4359,2.4511-2.0068,1.3263-4.375,5.4309-4.705,5.5936Z"/>
      <path class="e" d="M154.1335,754.0276c-7.4839-5.0138-15.0891-10.7919-21.9075-16.8141-4.1665-3.68-13.3297-10.0281-9.9418-16.0346,5.2005,5.9594,10.795,11.6126,16.8809,16.7006,5.2561,4.3943,11.2322,8.0616,16.2864,12.4548l-1.3178,3.6933Z"/>
      <path class="e" d="M139.3003,136.2545l-14.4843,5.0466c.0153-2.5336-1.5487-3.731-.1275-6.2911.6295-1.1339,8.577-8.4818,10.0952-9.7212.7891-.6442,1.6479-.9765,2.5056-1.4833,1.0128,2.1055-1.4586,3.2902-1.2963,5.2666.2239,2.7264,3.3504,4.4969,3.3073,7.1824Z"/>
      <path class="f" d="M192.4561,750.1109c3.6704,3.1403,14.2583,10.4589,14.7821,15.2849.3537,3.2589-5.6526,4.6705-7.5406,2.9802l-7.2415-18.2651Z"/>
      <path class="e" d="M321.8251,138.5062c-2.7395-5.3871,2.9441-19.8249,9.605-18.9009,1.1334.1572,3.9728,1.6712,3.5175,2.9985-4.0994,1.6695-6.5135,4.0967-8.0999,8.2752-1.2758,3.3605-.5536,9.4014-5.0226,7.6272Z"/>
      <path class="e" d="M203.0826,85.7101l-1.121-.3971,1.288-19.4427c.7444-.7017,2.9836,2.6856,3.2932,3.4046,2.5321,5.881-.1162,11.5944-3.4603,16.4352Z"/>
      <path class="e" d="M78.4452,405.5837c-.8841-.9498,3.8762-3.377,4.4861-3.9204,2.874-2.5606,5.4505-5.8119,7.3789-9.1413l2.1025-4.8711c-.8733,2.7672,1.0498,7.8877-.4376,10.0804-1.2745,1.8789-11.7507,9.7637-13.5299,7.8523Z"/>
      <path class="e" d="M313.3414,129.6638c.1304-.1703,2.9777-.9024,3.9598-1.6467,3.3275-2.5217,5.0372-8.2841.597-10.5809,1.7251-4.4857,8.8029-6.7778,9.992-.8183-2.0382,1.2792-4.1816,2.8735-5.5837,4.8723-1.715,2.445-3.9939,10.7296-6.2395,11.1847-2.2271.4514-4.0047-1.3407-2.7256-3.0112Z"/>
      <path class="e" d="M190.574,137.0902l-8.6097-1.6795-1.0719-6.8381c.6381-.5538,11.3845,7.2726,9.6815,8.5176Z"/>
      <path class="e" d="M165.1508,760.9275l-.9165,9.5515c-.0091.095-.7297,1.6377-1.2891,1.3338.0268-3.8928-.717-7.8037-.0462-11.6855l2.2518.8001Z"/>
      <path class="e" d="M207.9621,770.8801c-.5436,5.0751-5.2533,8.2707-5.9472,1.1846l5.9472-1.1846Z"/>
      <path class="e" d="M240.6792,253.4808c-.8453.0379-.734-1.6635-.7756-2.278-.146-2.1561.0456-4.4011-.1163-6.5636,4.4048,2.1712,3.0172,5.45.8919,8.8416Z"/>
      <polygon class="e" points="87.1724 405.8342 92.8138 401.7087 93.1381 403.7102 92.5914 404.3102 87.1724 405.8342"/>
      <path d="M156.923,579.0298c-2.9862,1.0479-7.9964-8.2439-6.0877-9.3274,2.5374-1.4404,7.3214,8.3217,6.0877,9.3274Z"/>
      <path d="M176.3569,244.2452c-2.1703-2.6358,2.2759-6.4213,4.3076-3.2926,2.0339,3.1322-2.4568,5.5403-4.3076,3.2926Z"/>
      <path d="M179.769,284.5324c3.4429-.6009,3.8252,4.6059,1.0053,5.1638-4.0787.8069-4.3415-4.5815-1.0053-5.1638Z"/>
      <path d="M174.358,198.1959c2.0848-1.7244,5.9132,1.0004,3.8765,3.736-2.0951,2.8141-6.6687-1.4265-3.8765-3.736Z"/>
      <path d="M179.4149,333.3988c-1.3655-1.0596-.1159-6.7855,3.7979-3.9359,2.6574,1.9348-1.1547,5.9871-3.7979,3.9359Z"/>
      <path class="g" d="M167.8721,49.765c1.0779,1.1163.4867,3.4171-1.2131,3.7361-1.4907.2797-5.0644-1.2627-7.7936-1.0963-3.5386.2157-8.5464,4.4279-10.6521,3.2226l-.8984-1.2535c1.5755-6.1429,17.4215-7.8562,20.5571-4.6089Z"/>
      <path class="g" d="M161.1766,71.0349c-4.5228,3.7477-7.5988-8.1233-2.4955-9.2165,3.9351-.843,4.5667,7.5003,2.4955,9.2165Z"/>
      <path class="g" d="M192.1027,71.0811c-4.1791,3.4578-7.2251-6.0286-3.5832-8.8599,4.8248-1.7662,5.9611,6.8925,3.5832,8.8599Z"/>
      <path class="g" d="M178.1538,110.0424c-1.2666-1.6192.3898-2.9486-3.659-3.1693-4.3099-.2349-3.5595,4.3333-6.8682,4.6384-10.7562.9917-18.1731-18.8237-8.4933-21.9479,5.8004-1.8721,11.258,1.2204,16.8572,1.7759,4.7412.4704,11.9156-2.1641,14.2509,3.1234,3.6272,8.2124-6.7388,22.4173-12.0876,15.5795ZM183.5848,94.3618c-7.0206,1.1857-14.2219-1.9091-21.1137-2.0286-2.6557-.0461-1.7409,1.0453-.4776,2.5368,5.3068,6.2658,18.1351,8.6834,21.5913-.5081ZM157.8728,94.8135c-.3821,5.7726,2.6832,11.726,8.3523,13.6379,2.1948.1433,1.5391-4.3764,5.6969-4.6607,1.2767-.0873,5.0926.239,6.1984.6809,1.9975.7983,1.4645,4.2247,4.3118,3.7091,2.51-.4546,4.8675-5.5894,5.254-7.8895.2176-1.2953.7167-4.2746-.6767-5.0145-4.9439,12.6475-22.5789,8.7467-29.1367-.4631Z"/>
      <path class="e" d="M157.8728,94.8135c6.5578,9.2098,24.1928,13.1107,29.1367.4631,1.3934.74.8943,3.7192.6767,5.0145-.3864,2.3-2.7439,7.4349-5.254,7.8895-2.8473.5157-2.3143-2.9108-4.3118-3.7091-1.1058-.4419-4.9217-.7682-6.1984-.6809-4.1578.2843-3.5021,4.804-5.6969,4.6607-5.6691-1.9119-8.7345-7.8652-8.3523-13.6379Z"/>
      <path class="e" d="M183.5848,94.3618c-3.4561,9.1915-16.2845,6.774-21.5913.5081-1.2632-1.4915-2.1781-2.5829.4776-2.5368,6.8917.1196,14.093,3.2143,21.1137,2.0286Z"/>
    </g>
  </g>
</svg>